<svg width="27" height="14" viewBox="0 0 27 14" fill="none" xmlns="http://www.w3.org/2000/svg">
<path d="M1.78906 6.12475C1.30567 6.12475 0.913808 6.51661 0.913808 7C0.913808 7.48339 1.30567 7.87525 1.78906 7.87525V6.12475ZM25.7481 7.6189C26.0899 7.27709 26.0899 6.72291 25.7481 6.3811L20.178 0.811015C19.8362 0.469206 19.282 0.469206 18.9402 0.811015C18.5984 1.15282 18.5984 1.707 18.9402 2.04881L23.8914 7L18.9402 11.9512C18.5984 12.293 18.5984 12.8472 18.9402 13.189C19.282 13.5308 19.8362 13.5308 20.178 13.189L25.7481 7.6189ZM1.78906 7.87525H25.1292V6.12475H1.78906V7.87525Z" fill="white" fill-opacity="0.95"/>
</svg>
