<svg width="171" height="171" viewBox="0 0 171 171" fill="none" xmlns="http://www.w3.org/2000/svg">
<path d="M110.438 7.125H53.4375C48.7133 7.125 44.1827 9.00167 40.8422 12.3422C37.5017 15.6827 35.625 20.2133 35.625 24.9375V146.062C35.625 150.787 37.5017 155.317 40.8422 158.658C44.1827 161.998 48.7133 163.875 53.4375 163.875H110.438C115.162 163.875 119.692 161.998 123.033 158.658C126.373 155.317 128.25 150.787 128.25 146.062V24.9375C128.25 20.2133 126.373 15.6827 123.033 12.3422C119.692 9.00167 115.162 7.125 110.438 7.125ZM81.9375 156.75C76.0238 156.75 71.25 151.976 71.25 146.062C71.25 140.149 76.0238 135.375 81.9375 135.375C87.8512 135.375 92.625 140.149 92.625 146.062C92.625 151.976 87.8512 156.75 81.9375 156.75ZM114 128.25H49.875V28.5H114V128.25Z" fill="black"/>
</svg>
