<svg width="1440" height="162" viewBox="0 0 1440 162" fill="none" xmlns="http://www.w3.org/2000/svg">
<g filter="url(#filter0_d_780_2115)">
<g filter="url(#filter1_d_780_2115)">
<rect width="1440" height="152" fill="white"/>
</g>
<path d="M132.209 75.5V62.2647H141.104V75.5H152.223V57.8529H158.895L136.656 38L114.418 57.8529H121.089V75.5H132.209Z" stroke="#8FC0A9" stroke-width="3.48837"/>
<path d="M113.633 97.4449V101.682H97.1752V97.4449H113.633ZM98.4952 84.4998V115.5H93.1511V84.4998H98.4952ZM117.743 84.4998V115.5H112.42V84.4998H117.743ZM134.733 109.837L142.888 84.4998H148.785L137.671 115.5H133.69L134.733 109.837ZM127.196 84.4998L135.287 109.837L136.394 115.5H132.391L121.32 84.4998H127.196ZM172.738 97.4449V101.682H156.28V97.4449H172.738ZM157.6 84.4998V115.5H152.256V84.4998H157.6ZM176.847 84.4998V115.5H171.525V84.4998H176.847Z" fill="#8FC0A9"/>
<path d="M1173.81 81.2266H1176.09L1181.91 95.7163L1187.72 81.2266H1190.02L1182.79 99H1181.01L1173.81 81.2266ZM1173.06 81.2266H1175.08L1175.41 92.0664V99H1173.06V81.2266ZM1188.74 81.2266H1190.75V99H1188.41V92.0664L1188.74 81.2266ZM1193.95 92.5425V92.2617C1193.95 91.3096 1194.09 90.4266 1194.36 89.6128C1194.64 88.7909 1195.04 88.0788 1195.56 87.4766C1196.08 86.8662 1196.71 86.3942 1197.45 86.0605C1198.19 85.7188 1199.02 85.5479 1199.94 85.5479C1200.87 85.5479 1201.7 85.7188 1202.45 86.0605C1203.19 86.3942 1203.83 86.8662 1204.35 87.4766C1204.88 88.0788 1205.28 88.7909 1205.56 89.6128C1205.83 90.4266 1205.97 91.3096 1205.97 92.2617V92.5425C1205.97 93.4946 1205.83 94.3776 1205.56 95.1914C1205.28 96.0052 1204.88 96.7173 1204.35 97.3276C1203.83 97.9299 1203.2 98.4019 1202.46 98.7437C1201.73 99.0773 1200.9 99.2441 1199.97 99.2441C1199.04 99.2441 1198.21 99.0773 1197.46 98.7437C1196.72 98.4019 1196.09 97.9299 1195.56 97.3276C1195.04 96.7173 1194.64 96.0052 1194.36 95.1914C1194.09 94.3776 1193.95 93.4946 1193.95 92.5425ZM1196.21 92.2617V92.5425C1196.21 93.2017 1196.28 93.8242 1196.44 94.4102C1196.59 94.988 1196.83 95.5007 1197.14 95.9482C1197.45 96.3958 1197.85 96.7498 1198.32 97.0103C1198.79 97.2625 1199.34 97.3887 1199.97 97.3887C1200.59 97.3887 1201.13 97.2625 1201.59 97.0103C1202.06 96.7498 1202.45 96.3958 1202.76 95.9482C1203.07 95.5007 1203.3 94.988 1203.46 94.4102C1203.62 93.8242 1203.7 93.2017 1203.7 92.5425V92.2617C1203.7 91.6107 1203.62 90.9963 1203.46 90.4185C1203.3 89.8325 1203.07 89.3158 1202.75 88.8682C1202.44 88.4124 1202.05 88.0544 1201.58 87.7939C1201.11 87.5335 1200.57 87.4033 1199.94 87.4033C1199.32 87.4033 1198.78 87.5335 1198.31 87.7939C1197.84 88.0544 1197.45 88.4124 1197.14 88.8682C1196.83 89.3158 1196.59 89.8325 1196.44 90.4185C1196.28 90.9963 1196.21 91.6107 1196.21 92.2617ZM1211.06 87.8672V99H1208.81V85.792H1211L1211.06 87.8672ZM1215.19 85.7188L1215.18 87.8184C1214.99 87.7777 1214.81 87.7533 1214.64 87.7451C1214.48 87.7288 1214.29 87.7207 1214.08 87.7207C1213.56 87.7207 1213.1 87.8021 1212.7 87.9648C1212.3 88.1276 1211.96 88.3555 1211.69 88.6484C1211.41 88.9414 1211.19 89.2913 1211.03 89.6982C1210.87 90.097 1210.77 90.5365 1210.72 91.0166L1210.09 91.3828C1210.09 90.5853 1210.16 89.8366 1210.32 89.1367C1210.48 88.4368 1210.73 87.8184 1211.06 87.2812C1211.4 86.736 1211.82 86.3128 1212.33 86.0117C1212.85 85.7025 1213.47 85.5479 1214.19 85.5479C1214.35 85.5479 1214.54 85.5682 1214.75 85.6089C1214.96 85.6414 1215.11 85.6781 1215.19 85.7188ZM1222.51 99.2441C1221.59 99.2441 1220.76 99.0895 1220.01 98.7803C1219.27 98.4629 1218.63 98.0194 1218.09 97.4497C1217.57 96.88 1217.16 96.2046 1216.87 95.4233C1216.59 94.6421 1216.45 93.7876 1216.45 92.8599V92.3472C1216.45 91.2729 1216.61 90.3167 1216.92 89.4785C1217.24 88.6322 1217.67 87.916 1218.22 87.3301C1218.76 86.7441 1219.38 86.3006 1220.07 85.9995C1220.76 85.6984 1221.48 85.5479 1222.22 85.5479C1223.16 85.5479 1223.98 85.7106 1224.66 86.0361C1225.35 86.3617 1225.92 86.8174 1226.36 87.4033C1226.8 87.9811 1227.12 88.6647 1227.34 89.4541C1227.55 90.2354 1227.65 91.0898 1227.65 92.0176V93.0308H1217.79V91.1875H1225.39V91.0166C1225.36 90.4307 1225.24 89.861 1225.03 89.3076C1224.82 88.7542 1224.5 88.2985 1224.05 87.9404C1223.6 87.5824 1222.99 87.4033 1222.22 87.4033C1221.71 87.4033 1221.24 87.5132 1220.8 87.7329C1220.37 87.9445 1220 88.2619 1219.69 88.6851C1219.38 89.1082 1219.14 89.625 1218.97 90.2354C1218.8 90.8457 1218.72 91.5496 1218.72 92.3472V92.8599C1218.72 93.4865 1218.8 94.0765 1218.97 94.6299C1219.15 95.1751 1219.41 95.6553 1219.74 96.0703C1220.08 96.4854 1220.5 96.8109 1220.98 97.0469C1221.46 97.2829 1222.02 97.4009 1222.64 97.4009C1223.43 97.4009 1224.11 97.2381 1224.66 96.9126C1225.22 96.5871 1225.7 96.1517 1226.11 95.6064L1227.48 96.6929C1227.2 97.1242 1226.83 97.5352 1226.4 97.9258C1225.96 98.3164 1225.41 98.6338 1224.77 98.8779C1224.14 99.1221 1223.38 99.2441 1222.51 99.2441ZM1236.83 81.2266H1242.72C1244.05 81.2266 1245.18 81.43 1246.1 81.8369C1247.03 82.2438 1247.73 82.846 1248.21 83.6436C1248.7 84.4329 1248.94 85.4054 1248.94 86.561C1248.94 87.3748 1248.78 88.1195 1248.44 88.7949C1248.12 89.4622 1247.64 90.0319 1247.03 90.5039C1246.42 90.9678 1245.68 91.3136 1244.83 91.5415L1244.17 91.7979H1238.64L1238.61 89.8813H1242.79C1243.64 89.8813 1244.34 89.7349 1244.9 89.4419C1245.46 89.1408 1245.89 88.738 1246.17 88.2334C1246.46 87.7288 1246.6 87.1714 1246.6 86.561C1246.6 85.8774 1246.46 85.2793 1246.2 84.7666C1245.93 84.2539 1245.5 83.8592 1244.93 83.5825C1244.36 83.2977 1243.62 83.1553 1242.72 83.1553H1239.19V99H1236.83V81.2266ZM1247.22 99L1242.9 90.9434L1245.35 90.9312L1249.74 98.8535V99H1247.22ZM1257.38 99.2441C1256.46 99.2441 1255.62 99.0895 1254.87 98.7803C1254.13 98.4629 1253.5 98.0194 1252.96 97.4497C1252.43 96.88 1252.02 96.2046 1251.74 95.4233C1251.45 94.6421 1251.31 93.7876 1251.31 92.8599V92.3472C1251.31 91.2729 1251.47 90.3167 1251.79 89.4785C1252.1 88.6322 1252.53 87.916 1253.08 87.3301C1253.63 86.7441 1254.24 86.3006 1254.94 85.9995C1255.63 85.6984 1256.34 85.5479 1257.08 85.5479C1258.03 85.5479 1258.84 85.7106 1259.53 86.0361C1260.22 86.3617 1260.78 86.8174 1261.22 87.4033C1261.66 87.9811 1261.99 88.6647 1262.2 89.4541C1262.41 90.2354 1262.52 91.0898 1262.52 92.0176V93.0308H1252.65V91.1875H1260.26V91.0166C1260.23 90.4307 1260.1 89.861 1259.89 89.3076C1259.69 88.7542 1259.36 88.2985 1258.92 87.9404C1258.47 87.5824 1257.86 87.4033 1257.08 87.4033C1256.57 87.4033 1256.1 87.5132 1255.67 87.7329C1255.24 87.9445 1254.87 88.2619 1254.56 88.6851C1254.25 89.1082 1254.01 89.625 1253.84 90.2354C1253.67 90.8457 1253.58 91.5496 1253.58 92.3472V92.8599C1253.58 93.4865 1253.67 94.0765 1253.84 94.6299C1254.02 95.1751 1254.27 95.6553 1254.61 96.0703C1254.95 96.4854 1255.36 96.8109 1255.84 97.0469C1256.33 97.2829 1256.88 97.4009 1257.5 97.4009C1258.3 97.4009 1258.97 97.2381 1259.53 96.9126C1260.08 96.5871 1260.56 96.1517 1260.98 95.6064L1262.35 96.6929C1262.06 97.1242 1261.7 97.5352 1261.26 97.9258C1260.82 98.3164 1260.28 98.6338 1259.64 98.8779C1259 99.1221 1258.25 99.2441 1257.38 99.2441ZM1272.84 95.4966C1272.84 95.1711 1272.77 94.87 1272.62 94.5933C1272.49 94.3084 1272.2 94.0521 1271.76 93.8242C1271.33 93.5882 1270.67 93.3848 1269.8 93.2139C1269.07 93.0592 1268.41 92.8761 1267.81 92.6646C1267.23 92.453 1266.73 92.1966 1266.31 91.8955C1265.91 91.5944 1265.59 91.2404 1265.37 90.8335C1265.15 90.4266 1265.04 89.9505 1265.04 89.4053C1265.04 88.8844 1265.16 88.3921 1265.38 87.9282C1265.62 87.4644 1265.95 87.0534 1266.37 86.6953C1266.8 86.3372 1267.32 86.0565 1267.92 85.853C1268.53 85.6496 1269.2 85.5479 1269.94 85.5479C1271 85.5479 1271.9 85.735 1272.65 86.1094C1273.4 86.4837 1273.97 86.9842 1274.37 87.6108C1274.77 88.2293 1274.97 88.917 1274.97 89.6738H1272.71C1272.71 89.3076 1272.6 88.9536 1272.38 88.6118C1272.17 88.2619 1271.85 87.973 1271.44 87.7451C1271.03 87.5173 1270.53 87.4033 1269.94 87.4033C1269.31 87.4033 1268.8 87.501 1268.41 87.6963C1268.03 87.8835 1267.75 88.1235 1267.57 88.4165C1267.4 88.7095 1267.31 89.0187 1267.31 89.3442C1267.31 89.5884 1267.35 89.8081 1267.44 90.0034C1267.53 90.1906 1267.68 90.3656 1267.9 90.5283C1268.12 90.6829 1268.43 90.8294 1268.83 90.9678C1269.23 91.1061 1269.73 91.2445 1270.35 91.3828C1271.44 91.627 1272.33 91.9199 1273.03 92.2617C1273.73 92.6035 1274.25 93.0226 1274.59 93.519C1274.93 94.0155 1275.1 94.6177 1275.1 95.3257C1275.1 95.9035 1274.98 96.4325 1274.74 96.9126C1274.5 97.3927 1274.15 97.8078 1273.7 98.1577C1273.25 98.4995 1272.71 98.7681 1272.09 98.9634C1271.47 99.1506 1270.77 99.2441 1270 99.2441C1268.84 99.2441 1267.85 99.0366 1267.04 98.6216C1266.24 98.2065 1265.63 97.6694 1265.21 97.0103C1264.8 96.3511 1264.59 95.6553 1264.59 94.9229H1266.86C1266.89 95.5413 1267.07 96.0337 1267.4 96.3999C1267.72 96.758 1268.12 97.0143 1268.6 97.1689C1269.07 97.3154 1269.54 97.3887 1270 97.3887C1270.62 97.3887 1271.13 97.3073 1271.55 97.1445C1271.97 96.9818 1272.29 96.758 1272.51 96.4731C1272.73 96.1883 1272.84 95.8628 1272.84 95.4966ZM1277.47 92.5425V92.2617C1277.47 91.3096 1277.61 90.4266 1277.88 89.6128C1278.16 88.7909 1278.56 88.0788 1279.08 87.4766C1279.6 86.8662 1280.23 86.3942 1280.97 86.0605C1281.71 85.7188 1282.54 85.5479 1283.46 85.5479C1284.39 85.5479 1285.23 85.7188 1285.97 86.0605C1286.71 86.3942 1287.35 86.8662 1287.87 87.4766C1288.4 88.0788 1288.8 88.7909 1289.08 89.6128C1289.36 90.4266 1289.49 91.3096 1289.49 92.2617V92.5425C1289.49 93.4946 1289.36 94.3776 1289.08 95.1914C1288.8 96.0052 1288.4 96.7173 1287.87 97.3276C1287.35 97.9299 1286.72 98.4019 1285.98 98.7437C1285.25 99.0773 1284.42 99.2441 1283.49 99.2441C1282.56 99.2441 1281.73 99.0773 1280.99 98.7437C1280.24 98.4019 1279.61 97.9299 1279.08 97.3276C1278.56 96.7173 1278.16 96.0052 1277.88 95.1914C1277.61 94.3776 1277.47 93.4946 1277.47 92.5425ZM1279.73 92.2617V92.5425C1279.73 93.2017 1279.81 93.8242 1279.96 94.4102C1280.11 94.988 1280.35 95.5007 1280.66 95.9482C1280.97 96.3958 1281.37 96.7498 1281.84 97.0103C1282.31 97.2625 1282.86 97.3887 1283.49 97.3887C1284.11 97.3887 1284.65 97.2625 1285.11 97.0103C1285.58 96.7498 1285.97 96.3958 1286.28 95.9482C1286.59 95.5007 1286.82 94.988 1286.98 94.4102C1287.14 93.8242 1287.22 93.2017 1287.22 92.5425V92.2617C1287.22 91.6107 1287.14 90.9963 1286.98 90.4185C1286.82 89.8325 1286.59 89.3158 1286.27 88.8682C1285.96 88.4124 1285.57 88.0544 1285.1 87.7939C1284.64 87.5335 1284.09 87.4033 1283.46 87.4033C1282.84 87.4033 1282.3 87.5335 1281.83 87.7939C1281.36 88.0544 1280.97 88.4124 1280.66 88.8682C1280.35 89.3158 1280.11 89.8325 1279.96 90.4185C1279.81 90.9963 1279.73 91.6107 1279.73 92.2617ZM1300.41 95.9482V85.792H1302.68V99H1300.52L1300.41 95.9482ZM1300.83 93.165L1301.77 93.1406C1301.77 94.0195 1301.68 94.8333 1301.49 95.582C1301.31 96.3226 1301.02 96.9655 1300.61 97.5107C1300.21 98.056 1299.67 98.4832 1299.02 98.7925C1298.36 99.0936 1297.55 99.2441 1296.61 99.2441C1295.97 99.2441 1295.38 99.1506 1294.84 98.9634C1294.31 98.7762 1293.86 98.4873 1293.47 98.0967C1293.09 97.7061 1292.79 97.1974 1292.58 96.5708C1292.38 95.9442 1292.28 95.1914 1292.28 94.3125V85.792H1294.54V94.3369C1294.54 94.931 1294.6 95.4233 1294.73 95.814C1294.87 96.1965 1295.05 96.5016 1295.28 96.7295C1295.52 96.9492 1295.78 97.1038 1296.06 97.1934C1296.35 97.2829 1296.66 97.3276 1296.96 97.3276C1297.92 97.3276 1298.69 97.1445 1299.25 96.7783C1299.81 96.404 1300.21 95.9035 1300.46 95.2769C1300.71 94.6421 1300.83 93.9382 1300.83 93.165ZM1308.38 87.8672V99H1306.12V85.792H1308.32L1308.38 87.8672ZM1312.5 85.7188L1312.49 87.8184C1312.3 87.7777 1312.13 87.7533 1311.95 87.7451C1311.79 87.7288 1311.6 87.7207 1311.39 87.7207C1310.87 87.7207 1310.41 87.8021 1310.01 87.9648C1309.61 88.1276 1309.28 88.3555 1309 88.6484C1308.72 88.9414 1308.5 89.2913 1308.34 89.6982C1308.19 90.097 1308.08 90.5365 1308.04 91.0166L1307.4 91.3828C1307.4 90.5853 1307.48 89.8366 1307.63 89.1367C1307.8 88.4368 1308.04 87.8184 1308.38 87.2812C1308.71 86.736 1309.13 86.3128 1309.65 86.0117C1310.17 85.7025 1310.79 85.5479 1311.5 85.5479C1311.67 85.5479 1311.85 85.5682 1312.06 85.6089C1312.28 85.6414 1312.42 85.6781 1312.5 85.7188ZM1319.63 97.3887C1320.17 97.3887 1320.67 97.2788 1321.12 97.0591C1321.58 96.8394 1321.95 96.5382 1322.25 96.1558C1322.54 95.7651 1322.7 95.3216 1322.75 94.8252H1324.89C1324.85 95.6064 1324.59 96.3348 1324.1 97.0103C1323.62 97.6776 1322.99 98.2188 1322.21 98.6338C1321.43 99.0407 1320.57 99.2441 1319.63 99.2441C1318.64 99.2441 1317.77 99.0692 1317.03 98.7192C1316.3 98.3693 1315.69 97.8892 1315.2 97.2788C1314.72 96.6685 1314.36 95.9686 1314.12 95.1792C1313.88 94.3817 1313.76 93.5394 1313.76 92.6523V92.1396C1313.76 91.2526 1313.88 90.4144 1314.12 89.625C1314.36 88.8275 1314.72 88.1235 1315.2 87.5132C1315.69 86.9028 1316.3 86.4227 1317.03 86.0728C1317.77 85.7228 1318.64 85.5479 1319.63 85.5479C1320.67 85.5479 1321.57 85.7594 1322.34 86.1826C1323.12 86.5977 1323.72 87.1673 1324.16 87.8916C1324.61 88.6077 1324.85 89.4215 1324.89 90.333H1322.75C1322.7 89.7878 1322.55 89.2954 1322.28 88.856C1322.02 88.4165 1321.66 88.0666 1321.21 87.8062C1320.76 87.5376 1320.24 87.4033 1319.63 87.4033C1318.94 87.4033 1318.36 87.5417 1317.89 87.8184C1317.42 88.0869 1317.05 88.4531 1316.78 88.917C1316.51 89.3727 1316.31 89.8813 1316.19 90.4429C1316.08 90.9963 1316.02 91.5618 1316.02 92.1396V92.6523C1316.02 93.2301 1316.08 93.7998 1316.19 94.3613C1316.3 94.9229 1316.5 95.4315 1316.76 95.8872C1317.04 96.3429 1317.41 96.7091 1317.88 96.9858C1318.35 97.2544 1318.93 97.3887 1319.63 97.3887ZM1332.91 99.2441C1331.99 99.2441 1331.16 99.0895 1330.41 98.7803C1329.67 98.4629 1329.03 98.0194 1328.5 97.4497C1327.97 96.88 1327.56 96.2046 1327.27 95.4233C1326.99 94.6421 1326.85 93.7876 1326.85 92.8599V92.3472C1326.85 91.2729 1327.01 90.3167 1327.32 89.4785C1327.64 88.6322 1328.07 87.916 1328.62 87.3301C1329.16 86.7441 1329.78 86.3006 1330.47 85.9995C1331.16 85.6984 1331.88 85.5479 1332.62 85.5479C1333.57 85.5479 1334.38 85.7106 1335.06 86.0361C1335.75 86.3617 1336.32 86.8174 1336.76 87.4033C1337.2 87.9811 1337.52 88.6647 1337.74 89.4541C1337.95 90.2354 1338.05 91.0898 1338.05 92.0176V93.0308H1328.19V91.1875H1335.79V91.0166C1335.76 90.4307 1335.64 89.861 1335.43 89.3076C1335.23 88.7542 1334.9 88.2985 1334.45 87.9404C1334 87.5824 1333.39 87.4033 1332.62 87.4033C1332.11 87.4033 1331.64 87.5132 1331.21 87.7329C1330.77 87.9445 1330.4 88.2619 1330.09 88.6851C1329.78 89.1082 1329.54 89.625 1329.37 90.2354C1329.2 90.8457 1329.12 91.5496 1329.12 92.3472V92.8599C1329.12 93.4865 1329.2 94.0765 1329.37 94.6299C1329.55 95.1751 1329.81 95.6553 1330.14 96.0703C1330.48 96.4854 1330.9 96.8109 1331.38 97.0469C1331.86 97.2829 1332.42 97.4009 1333.04 97.4009C1333.83 97.4009 1334.51 97.2381 1335.06 96.9126C1335.62 96.5871 1336.1 96.1517 1336.52 95.6064L1337.88 96.6929C1337.6 97.1242 1337.24 97.5352 1336.8 97.9258C1336.36 98.3164 1335.82 98.6338 1335.17 98.8779C1334.54 99.1221 1333.78 99.2441 1332.91 99.2441ZM1348.38 95.4966C1348.38 95.1711 1348.31 94.87 1348.16 94.5933C1348.02 94.3084 1347.73 94.0521 1347.29 93.8242C1346.86 93.5882 1346.21 93.3848 1345.34 93.2139C1344.61 93.0592 1343.95 92.8761 1343.35 92.6646C1342.77 92.453 1342.26 92.1966 1341.85 91.8955C1341.44 91.5944 1341.13 91.2404 1340.91 90.8335C1340.69 90.4266 1340.58 89.9505 1340.58 89.4053C1340.58 88.8844 1340.69 88.3921 1340.92 87.9282C1341.16 87.4644 1341.49 87.0534 1341.91 86.6953C1342.34 86.3372 1342.86 86.0565 1343.46 85.853C1344.06 85.6496 1344.73 85.5479 1345.48 85.5479C1346.53 85.5479 1347.44 85.735 1348.19 86.1094C1348.93 86.4837 1349.51 86.9842 1349.91 87.6108C1350.31 88.2293 1350.5 88.917 1350.5 89.6738H1348.25C1348.25 89.3076 1348.14 88.9536 1347.92 88.6118C1347.7 88.2619 1347.39 87.973 1346.98 87.7451C1346.57 87.5173 1346.07 87.4033 1345.48 87.4033C1344.85 87.4033 1344.34 87.501 1343.95 87.6963C1343.57 87.8835 1343.29 88.1235 1343.11 88.4165C1342.94 88.7095 1342.85 89.0187 1342.85 89.3442C1342.85 89.5884 1342.89 89.8081 1342.97 90.0034C1343.06 90.1906 1343.22 90.3656 1343.44 90.5283C1343.66 90.6829 1343.97 90.8294 1344.36 90.9678C1344.76 91.1061 1345.27 91.2445 1345.89 91.3828C1346.97 91.627 1347.86 91.9199 1348.56 92.2617C1349.26 92.6035 1349.78 93.0226 1350.13 93.519C1350.47 94.0155 1350.64 94.6177 1350.64 95.3257C1350.64 95.9035 1350.52 96.4325 1350.27 96.9126C1350.04 97.3927 1349.69 97.8078 1349.23 98.1577C1348.79 98.4995 1348.25 98.7681 1347.62 98.9634C1347.01 99.1506 1346.31 99.2441 1345.54 99.2441C1344.37 99.2441 1343.39 99.0366 1342.58 98.6216C1341.78 98.2065 1341.17 97.6694 1340.75 97.0103C1340.34 96.3511 1340.13 95.6553 1340.13 94.9229H1342.4C1342.43 95.5413 1342.61 96.0337 1342.94 96.3999C1343.26 96.758 1343.66 97.0143 1344.13 97.1689C1344.6 97.3154 1345.07 97.3887 1345.54 97.3887C1346.15 97.3887 1346.67 97.3073 1347.09 97.1445C1347.51 96.9818 1347.83 96.758 1348.05 96.4731C1348.27 96.1883 1348.38 95.8628 1348.38 95.4966Z" fill="#8FC0A9"/>
<path d="M998.672 88.8682V90.7847H989.053V88.8682H998.672ZM989.419 81.2266V99H987.063V81.2266H989.419ZM1000.72 81.2266V99H998.379V81.2266H1000.72ZM1003.97 92.5425V92.2617C1003.97 91.3096 1004.11 90.4266 1004.38 89.6128C1004.66 88.7909 1005.06 88.0788 1005.58 87.4766C1006.1 86.8662 1006.73 86.3942 1007.47 86.0605C1008.21 85.7188 1009.04 85.5479 1009.96 85.5479C1010.89 85.5479 1011.73 85.7188 1012.47 86.0605C1013.21 86.3942 1013.85 86.8662 1014.37 87.4766C1014.9 88.0788 1015.3 88.7909 1015.58 89.6128C1015.86 90.4266 1015.99 91.3096 1015.99 92.2617V92.5425C1015.99 93.4946 1015.86 94.3776 1015.58 95.1914C1015.3 96.0052 1014.9 96.7173 1014.37 97.3276C1013.85 97.9299 1013.22 98.4019 1012.48 98.7437C1011.75 99.0773 1010.92 99.2441 1009.99 99.2441C1009.06 99.2441 1008.23 99.0773 1007.49 98.7437C1006.74 98.4019 1006.11 97.9299 1005.58 97.3276C1005.06 96.7173 1004.66 96.0052 1004.38 95.1914C1004.11 94.3776 1003.97 93.4946 1003.97 92.5425ZM1006.23 92.2617V92.5425C1006.23 93.2017 1006.31 93.8242 1006.46 94.4102C1006.61 94.988 1006.85 95.5007 1007.16 95.9482C1007.47 96.3958 1007.87 96.7498 1008.34 97.0103C1008.81 97.2625 1009.36 97.3887 1009.99 97.3887C1010.61 97.3887 1011.15 97.2625 1011.61 97.0103C1012.08 96.7498 1012.47 96.3958 1012.78 95.9482C1013.09 95.5007 1013.32 94.988 1013.48 94.4102C1013.64 93.8242 1013.72 93.2017 1013.72 92.5425V92.2617C1013.72 91.6107 1013.64 90.9963 1013.48 90.4185C1013.32 89.8325 1013.09 89.3158 1012.77 88.8682C1012.46 88.4124 1012.07 88.0544 1011.6 87.7939C1011.14 87.5335 1010.59 87.4033 1009.96 87.4033C1009.34 87.4033 1008.8 87.5335 1008.33 87.7939C1007.86 88.0544 1007.47 88.4124 1007.16 88.8682C1006.85 89.3158 1006.61 89.8325 1006.46 90.4185C1006.31 90.9963 1006.23 91.6107 1006.23 92.2617ZM1021.07 88.4165V99H1018.8V85.792H1020.95L1021.07 88.4165ZM1020.61 91.8955L1019.56 91.8589C1019.57 90.9556 1019.68 90.1214 1019.91 89.3564C1020.14 88.5833 1020.48 87.9119 1020.93 87.3423C1021.37 86.7726 1021.93 86.3332 1022.6 86.0239C1023.26 85.7065 1024.04 85.5479 1024.92 85.5479C1025.54 85.5479 1026.11 85.6374 1026.63 85.8164C1027.15 85.9873 1027.6 86.2599 1027.98 86.6343C1028.36 87.0086 1028.66 87.4888 1028.87 88.0747C1029.08 88.6606 1029.19 89.3687 1029.19 90.1987V99H1026.93V90.3086C1026.93 89.6169 1026.81 89.0635 1026.58 88.6484C1026.35 88.2334 1026.02 87.9323 1025.6 87.7451C1025.18 87.5498 1024.68 87.4521 1024.11 87.4521C1023.44 87.4521 1022.89 87.5701 1022.44 87.8062C1021.99 88.0422 1021.63 88.3677 1021.36 88.7827C1021.1 89.1978 1020.9 89.6738 1020.78 90.2109C1020.66 90.7399 1020.61 91.3014 1020.61 91.8955ZM1029.17 90.6504L1027.65 91.1143C1027.66 90.39 1027.78 89.6942 1028.01 89.0269C1028.24 88.3595 1028.58 87.7655 1029.02 87.2446C1029.47 86.7238 1030.02 86.3128 1030.67 86.0117C1031.32 85.7025 1032.06 85.5479 1032.9 85.5479C1033.61 85.5479 1034.24 85.6414 1034.78 85.8286C1035.33 86.0158 1035.8 86.3047 1036.17 86.6953C1036.55 87.0778 1036.84 87.5701 1037.04 88.1724C1037.23 88.7746 1037.33 89.4907 1037.33 90.3208V99H1035.06V90.2964C1035.06 89.5558 1034.94 88.9821 1034.71 88.5752C1034.48 88.1602 1034.15 87.8713 1033.73 87.7085C1033.32 87.5376 1032.82 87.4521 1032.24 87.4521C1031.74 87.4521 1031.31 87.5376 1030.92 87.7085C1030.54 87.8794 1030.22 88.1154 1029.96 88.4165C1029.7 88.7095 1029.5 89.0472 1029.36 89.4297C1029.23 89.8122 1029.17 90.2191 1029.17 90.6504ZM1046.23 99.2441C1045.31 99.2441 1044.48 99.0895 1043.73 98.7803C1042.99 98.4629 1042.35 98.0194 1041.81 97.4497C1041.28 96.88 1040.88 96.2046 1040.59 95.4233C1040.31 94.6421 1040.16 93.7876 1040.16 92.8599V92.3472C1040.16 91.2729 1040.32 90.3167 1040.64 89.4785C1040.96 88.6322 1041.39 87.916 1041.93 87.3301C1042.48 86.7441 1043.1 86.3006 1043.79 85.9995C1044.48 85.6984 1045.2 85.5479 1045.94 85.5479C1046.88 85.5479 1047.7 85.7106 1048.38 86.0361C1049.07 86.3617 1049.64 86.8174 1050.08 87.4033C1050.52 87.9811 1050.84 88.6647 1051.05 89.4541C1051.26 90.2354 1051.37 91.0898 1051.37 92.0176V93.0308H1041.51V91.1875H1049.11V91.0166C1049.08 90.4307 1048.96 89.861 1048.75 89.3076C1048.54 88.7542 1048.22 88.2985 1047.77 87.9404C1047.32 87.5824 1046.71 87.4033 1045.94 87.4033C1045.42 87.4033 1044.95 87.5132 1044.52 87.7329C1044.09 87.9445 1043.72 88.2619 1043.41 88.6851C1043.1 89.1082 1042.86 89.625 1042.69 90.2354C1042.52 90.8457 1042.43 91.5496 1042.43 92.3472V92.8599C1042.43 93.4865 1042.52 94.0765 1042.69 94.6299C1042.87 95.1751 1043.13 95.6553 1043.46 96.0703C1043.8 96.4854 1044.21 96.8109 1044.69 97.0469C1045.18 97.2829 1045.73 97.4009 1046.35 97.4009C1047.15 97.4009 1047.83 97.2381 1048.38 96.9126C1048.93 96.5871 1049.42 96.1517 1049.83 95.6064L1051.2 96.6929C1050.91 97.1242 1050.55 97.5352 1050.11 97.9258C1049.67 98.3164 1049.13 98.6338 1048.49 98.8779C1047.85 99.1221 1047.1 99.2441 1046.23 99.2441ZM1067.1 92.0298H1062.36V90.1133H1067.1C1068.02 90.1133 1068.77 89.9668 1069.34 89.6738C1069.91 89.3809 1070.32 88.974 1070.58 88.4531C1070.85 87.9323 1070.99 87.3382 1070.99 86.6709C1070.99 86.0605 1070.85 85.4868 1070.58 84.9497C1070.32 84.4126 1069.91 83.9813 1069.34 83.6558C1068.77 83.3221 1068.02 83.1553 1067.1 83.1553H1062.91V99H1060.55V81.2266H1067.1C1068.45 81.2266 1069.58 81.4585 1070.51 81.9224C1071.44 82.3862 1072.14 83.0291 1072.62 83.8511C1073.1 84.6649 1073.34 85.5967 1073.34 86.6465C1073.34 87.7858 1073.1 88.7583 1072.62 89.564C1072.14 90.3696 1071.44 90.984 1070.51 91.4072C1069.58 91.8223 1068.45 92.0298 1067.1 92.0298ZM1083.62 96.7417V89.9424C1083.62 89.4215 1083.51 88.9699 1083.3 88.5874C1083.1 88.1968 1082.79 87.8957 1082.38 87.6841C1081.96 87.4725 1081.45 87.3667 1080.84 87.3667C1080.27 87.3667 1079.77 87.4644 1079.34 87.6597C1078.91 87.855 1078.58 88.1113 1078.33 88.4287C1078.1 88.7461 1077.98 89.0879 1077.98 89.4541H1075.72C1075.72 88.9821 1075.84 88.5142 1076.09 88.0503C1076.33 87.5864 1076.68 87.1673 1077.14 86.793C1077.6 86.4105 1078.16 86.1094 1078.8 85.8896C1079.45 85.6618 1080.17 85.5479 1080.97 85.5479C1081.93 85.5479 1082.78 85.7106 1083.51 86.0361C1084.25 86.3617 1084.83 86.854 1085.24 87.5132C1085.67 88.1642 1085.88 88.9821 1085.88 89.9668V96.1191C1085.88 96.5586 1085.92 97.0265 1085.99 97.5229C1086.07 98.0194 1086.19 98.4466 1086.34 98.8047V99H1083.99C1083.87 98.7396 1083.78 98.3937 1083.72 97.9624C1083.65 97.5229 1083.62 97.116 1083.62 96.7417ZM1084.01 90.9922L1084.04 92.5791H1081.75C1081.11 92.5791 1080.54 92.632 1080.03 92.7378C1079.53 92.8354 1079.1 92.986 1078.76 93.1895C1078.42 93.3929 1078.16 93.6493 1077.98 93.9585C1077.8 94.2596 1077.71 94.6136 1077.71 95.0205C1077.71 95.4355 1077.81 95.814 1077.99 96.1558C1078.18 96.4976 1078.46 96.7702 1078.84 96.9736C1079.22 97.1689 1079.69 97.2666 1080.24 97.2666C1080.93 97.2666 1081.54 97.1201 1082.07 96.8271C1082.6 96.5342 1083.02 96.1761 1083.33 95.7529C1083.65 95.3298 1083.82 94.9188 1083.84 94.52L1084.8 95.6064C1084.75 95.9482 1084.59 96.3267 1084.34 96.7417C1084.09 97.1567 1083.75 97.5555 1083.33 97.938C1082.91 98.3123 1082.42 98.6257 1081.84 98.8779C1081.27 99.1221 1080.63 99.2441 1079.91 99.2441C1079.01 99.2441 1078.23 99.0692 1077.55 98.7192C1076.89 98.3693 1076.37 97.9014 1075.99 97.3154C1075.62 96.7214 1075.44 96.0581 1075.44 95.3257C1075.44 94.6177 1075.58 93.9951 1075.86 93.458C1076.13 92.9128 1076.53 92.4611 1077.05 92.103C1077.57 91.7368 1078.2 91.4601 1078.93 91.2729C1079.67 91.0858 1080.48 90.9922 1081.39 90.9922H1084.01ZM1097.99 85.792H1100.04V98.7192C1100.04 99.883 1099.8 100.876 1099.33 101.698C1098.86 102.52 1098.2 103.142 1097.35 103.565C1096.52 103.997 1095.55 104.212 1094.45 104.212C1093.99 104.212 1093.46 104.139 1092.84 103.993C1092.23 103.854 1091.62 103.614 1091.03 103.272C1090.44 102.939 1089.95 102.487 1089.55 101.917L1090.74 100.575C1091.29 101.242 1091.87 101.706 1092.47 101.966C1093.08 102.227 1093.68 102.357 1094.28 102.357C1094.99 102.357 1095.61 102.223 1096.13 101.954C1096.65 101.686 1097.06 101.287 1097.34 100.758C1097.63 100.237 1097.78 99.5941 1097.78 98.8291V88.6973L1097.99 85.792ZM1088.89 92.5425V92.2861C1088.89 91.277 1089.01 90.3615 1089.25 89.5396C1089.49 88.7095 1089.84 87.9974 1090.29 87.4033C1090.74 86.8092 1091.29 86.3535 1091.93 86.0361C1092.58 85.7106 1093.3 85.5479 1094.11 85.5479C1094.94 85.5479 1095.66 85.6943 1096.28 85.9873C1096.91 86.2721 1097.43 86.6912 1097.87 87.2446C1098.31 87.7899 1098.65 88.4491 1098.9 89.2222C1099.16 89.9953 1099.33 90.8701 1099.43 91.8467V92.9697C1099.34 93.9382 1099.16 94.8089 1098.9 95.582C1098.65 96.3551 1098.31 97.0143 1097.87 97.5596C1097.43 98.1048 1096.91 98.5239 1096.28 98.8169C1095.65 99.1017 1094.92 99.2441 1094.08 99.2441C1093.29 99.2441 1092.58 99.0773 1091.93 98.7437C1091.3 98.41 1090.75 97.9421 1090.3 97.3398C1089.84 96.7376 1089.49 96.0296 1089.25 95.2158C1089.01 94.3939 1088.89 93.5028 1088.89 92.5425ZM1091.15 92.2861V92.5425C1091.15 93.2017 1091.22 93.8201 1091.35 94.3979C1091.49 94.9757 1091.69 95.4844 1091.97 95.9238C1092.26 96.3633 1092.62 96.7091 1093.06 96.9614C1093.5 97.2056 1094.02 97.3276 1094.63 97.3276C1095.38 97.3276 1096 97.1689 1096.49 96.8516C1096.98 96.5342 1097.36 96.1151 1097.65 95.5942C1097.94 95.0734 1098.17 94.5078 1098.33 93.8975V90.9556C1098.24 90.508 1098.1 90.0767 1097.92 89.6616C1097.74 89.2384 1097.5 88.8641 1097.21 88.5386C1096.92 88.2049 1096.57 87.9404 1096.15 87.7451C1095.72 87.5498 1095.23 87.4521 1094.66 87.4521C1094.04 87.4521 1093.5 87.5824 1093.06 87.8428C1092.62 88.0951 1092.26 88.445 1091.97 88.8926C1091.69 89.332 1091.49 89.8447 1091.35 90.4307C1091.22 91.0085 1091.15 91.627 1091.15 92.2861ZM1108.95 99.2441C1108.03 99.2441 1107.2 99.0895 1106.45 98.7803C1105.71 98.4629 1105.07 98.0194 1104.53 97.4497C1104 96.88 1103.6 96.2046 1103.31 95.4233C1103.03 94.6421 1102.88 93.7876 1102.88 92.8599V92.3472C1102.88 91.2729 1103.04 90.3167 1103.36 89.4785C1103.68 88.6322 1104.11 87.916 1104.65 87.3301C1105.2 86.7441 1105.82 86.3006 1106.51 85.9995C1107.2 85.6984 1107.92 85.5479 1108.66 85.5479C1109.6 85.5479 1110.42 85.7106 1111.1 86.0361C1111.79 86.3617 1112.36 86.8174 1112.8 87.4033C1113.23 87.9811 1113.56 88.6647 1113.77 89.4541C1113.98 90.2354 1114.09 91.0898 1114.09 92.0176V93.0308H1104.23V91.1875H1111.83V91.0166C1111.8 90.4307 1111.68 89.861 1111.46 89.3076C1111.26 88.7542 1110.94 88.2985 1110.49 87.9404C1110.04 87.5824 1109.43 87.4033 1108.66 87.4033C1108.14 87.4033 1107.67 87.5132 1107.24 87.7329C1106.81 87.9445 1106.44 88.2619 1106.13 88.6851C1105.82 89.1082 1105.58 89.625 1105.41 90.2354C1105.24 90.8457 1105.15 91.5496 1105.15 92.3472V92.8599C1105.15 93.4865 1105.24 94.0765 1105.41 94.6299C1105.59 95.1751 1105.85 95.6553 1106.18 96.0703C1106.52 96.4854 1106.93 96.8109 1107.41 97.0469C1107.9 97.2829 1108.45 97.4009 1109.07 97.4009C1109.87 97.4009 1110.55 97.2381 1111.1 96.9126C1111.65 96.5871 1112.14 96.1517 1112.55 95.6064L1113.92 96.6929C1113.63 97.1242 1113.27 97.5352 1112.83 97.9258C1112.39 98.3164 1111.85 98.6338 1111.21 98.8779C1110.57 99.1221 1109.82 99.2441 1108.95 99.2441Z" fill="#8FC0A9"/>
<path d="M960.4 99V91.5882H965.6V99H972.1V89.1176H976L963 78L950 89.1176H953.9V99H960.4Z" stroke="#8FC0A9" stroke-width="2"/>
</g>
<defs>
<filter id="filter0_d_780_2115" x="-6" y="-2" width="1452" height="164" filterUnits="userSpaceOnUse" color-interpolation-filters="sRGB">
<feFlood flood-opacity="0" result="BackgroundImageFix"/>
<feColorMatrix in="SourceAlpha" type="matrix" values="0 0 0 0 0 0 0 0 0 0 0 0 0 0 0 0 0 0 127 0" result="hardAlpha"/>
<feOffset dy="4"/>
<feGaussianBlur stdDeviation="3"/>
<feComposite in2="hardAlpha" operator="out"/>
<feColorMatrix type="matrix" values="0 0 0 0 0 0 0 0 0 0 0 0 0 0 0 0 0 0 0.1 0"/>
<feBlend mode="normal" in2="BackgroundImageFix" result="effect1_dropShadow_780_2115"/>
<feBlend mode="normal" in="SourceGraphic" in2="effect1_dropShadow_780_2115" result="shape"/>
</filter>
<filter id="filter1_d_780_2115" x="-4" y="0" width="1448" height="160" filterUnits="userSpaceOnUse" color-interpolation-filters="sRGB">
<feFlood flood-opacity="0" result="BackgroundImageFix"/>
<feColorMatrix in="SourceAlpha" type="matrix" values="0 0 0 0 0 0 0 0 0 0 0 0 0 0 0 0 0 0 127 0" result="hardAlpha"/>
<feOffset dy="4"/>
<feGaussianBlur stdDeviation="2"/>
<feComposite in2="hardAlpha" operator="out"/>
<feColorMatrix type="matrix" values="0 0 0 0 0 0 0 0 0 0 0 0 0 0 0 0 0 0 0.1 0"/>
<feBlend mode="normal" in2="BackgroundImageFix" result="effect1_dropShadow_780_2115"/>
<feBlend mode="normal" in="SourceGraphic" in2="effect1_dropShadow_780_2115" result="shape"/>
</filter>
</defs>
</svg>
