<svg width="924" height="250" viewBox="0 0 924 250" fill="none" xmlns="http://www.w3.org/2000/svg">
<g filter="url(#filter0_d_830_2986)">
<rect x="4" width="916" height="242" fill="#274C77"/>
<path d="M42.1748 44.75V45.9219C42.1748 47.5332 41.9648 48.9785 41.5449 50.2578C41.125 51.5371 40.5244 52.626 39.7432 53.5244C38.9717 54.4229 38.0439 55.1113 36.96 55.5898C35.876 56.0586 34.6748 56.293 33.3564 56.293C32.0479 56.293 30.8516 56.0586 29.7676 55.5898C28.6934 55.1113 27.7607 54.4229 26.9697 53.5244C26.1787 52.626 25.5635 51.5371 25.124 50.2578C24.6943 48.9785 24.4795 47.5332 24.4795 45.9219V44.75C24.4795 43.1387 24.6943 41.6982 25.124 40.4287C25.5537 39.1494 26.1592 38.0605 26.9404 37.1621C27.7314 36.2539 28.6641 35.5654 29.7383 35.0967C30.8223 34.6182 32.0186 34.3789 33.3271 34.3789C34.6455 34.3789 35.8467 34.6182 36.9307 35.0967C38.0146 35.5654 38.9473 36.2539 39.7285 37.1621C40.5098 38.0605 41.1104 39.1494 41.5303 40.4287C41.96 41.6982 42.1748 43.1387 42.1748 44.75ZM38.498 45.9219V44.7207C38.498 43.5293 38.3809 42.4795 38.1465 41.5713C37.9219 40.6533 37.585 39.8867 37.1357 39.2715C36.6963 38.6465 36.1543 38.1777 35.5098 37.8652C34.8652 37.543 34.1377 37.3818 33.3271 37.3818C32.5166 37.3818 31.7939 37.543 31.1592 37.8652C30.5244 38.1777 29.9824 38.6465 29.5332 39.2715C29.0938 39.8867 28.7568 40.6533 28.5225 41.5713C28.2881 42.4795 28.1709 43.5293 28.1709 44.7207V45.9219C28.1709 47.1133 28.2881 48.168 28.5225 49.0859C28.7568 50.0039 29.0986 50.7803 29.5479 51.415C30.0068 52.04 30.5537 52.5137 31.1885 52.8359C31.8232 53.1484 32.5459 53.3047 33.3564 53.3047C34.1768 53.3047 34.9043 53.1484 35.5391 52.8359C36.1738 52.5137 36.7109 52.04 37.1504 51.415C37.5898 50.7803 37.9219 50.0039 38.1465 49.0859C38.3809 48.168 38.498 47.1133 38.498 45.9219ZM49.8066 52.4844L53.4688 40.1504H55.7246L55.1094 43.8418L51.418 56H49.3965L49.8066 52.4844ZM47.6533 40.1504L50.5098 52.543L50.7441 56H48.4883L44.1963 40.1504H47.6533ZM59.1523 52.3965L61.9209 40.1504H65.3633L61.0859 56H58.8301L59.1523 52.3965ZM56.1055 40.1504L59.7236 52.3379L60.1777 56H58.1562L54.4209 43.8271L53.8057 40.1504H56.1055ZM71.2666 43.5342V56H67.7363V40.1504H71.0615L71.2666 43.5342ZM70.6367 47.4893L69.4941 47.4746C69.5039 46.3516 69.6602 45.3213 69.9629 44.3838C70.2754 43.4463 70.7051 42.6406 71.252 41.9668C71.8086 41.293 72.4727 40.7754 73.2441 40.4141C74.0156 40.043 74.875 39.8574 75.8223 39.8574C76.584 39.8574 77.2725 39.9648 77.8877 40.1797C78.5127 40.3848 79.0449 40.7217 79.4844 41.1904C79.9336 41.6592 80.2754 42.2695 80.5098 43.0215C80.7441 43.7637 80.8613 44.6768 80.8613 45.7607V56H77.3164V45.7461C77.3164 44.9844 77.2041 44.3838 76.9795 43.9443C76.7646 43.4951 76.4473 43.1777 76.0273 42.9922C75.6172 42.7969 75.1045 42.6992 74.4893 42.6992C73.8838 42.6992 73.3418 42.8262 72.8633 43.0801C72.3848 43.334 71.9795 43.6807 71.6475 44.1201C71.3252 44.5596 71.0762 45.0674 70.9004 45.6436C70.7246 46.2197 70.6367 46.835 70.6367 47.4893ZM91.4521 56.293C90.2803 56.293 89.2207 56.1025 88.2734 55.7217C87.3359 55.3311 86.5352 54.7891 85.8711 54.0957C85.2168 53.4023 84.7139 52.5869 84.3623 51.6494C84.0107 50.7119 83.835 49.7012 83.835 48.6172V48.0312C83.835 46.791 84.0156 45.668 84.377 44.6621C84.7383 43.6562 85.2412 42.7969 85.8857 42.084C86.5303 41.3613 87.292 40.8096 88.1709 40.4287C89.0498 40.0479 90.002 39.8574 91.0273 39.8574C92.1602 39.8574 93.1514 40.0479 94.001 40.4287C94.8506 40.8096 95.5537 41.3467 96.1104 42.04C96.6768 42.7236 97.0967 43.5391 97.3701 44.4863C97.6533 45.4336 97.7949 46.4785 97.7949 47.6211V49.1299H85.5488V46.5957H94.3086V46.3174C94.2891 45.6826 94.1621 45.0869 93.9277 44.5303C93.7031 43.9736 93.3564 43.5244 92.8877 43.1826C92.4189 42.8408 91.7939 42.6699 91.0127 42.6699C90.4268 42.6699 89.9043 42.7969 89.4453 43.0508C88.9961 43.2949 88.6201 43.6514 88.3174 44.1201C88.0146 44.5889 87.7803 45.1553 87.6143 45.8193C87.458 46.4736 87.3799 47.2109 87.3799 48.0312V48.6172C87.3799 49.3105 87.4727 49.9551 87.6582 50.5508C87.8535 51.1367 88.1367 51.6494 88.5078 52.0889C88.8789 52.5283 89.3281 52.875 89.8555 53.1289C90.3828 53.373 90.9834 53.4951 91.6572 53.4951C92.5068 53.4951 93.2637 53.3242 93.9277 52.9824C94.5918 52.6406 95.168 52.1572 95.6562 51.5322L97.5166 53.334C97.1748 53.832 96.7305 54.3105 96.1836 54.7695C95.6367 55.2188 94.9678 55.585 94.1768 55.8682C93.3955 56.1514 92.4873 56.293 91.4521 56.293ZM104.094 43.168V56H100.563V40.1504H103.933L104.094 43.168ZM108.942 40.0479L108.913 43.3291C108.698 43.29 108.464 43.2607 108.21 43.2412C107.966 43.2217 107.722 43.2119 107.478 43.2119C106.872 43.2119 106.34 43.2998 105.881 43.4756C105.422 43.6416 105.036 43.8857 104.724 44.208C104.421 44.5205 104.187 44.9014 104.021 45.3506C103.854 45.7998 103.757 46.3027 103.728 46.8594L102.922 46.918C102.922 45.9219 103.02 44.999 103.215 44.1494C103.41 43.2998 103.703 42.5527 104.094 41.9082C104.494 41.2637 104.992 40.7607 105.588 40.3994C106.193 40.0381 106.892 39.8574 107.683 39.8574C107.897 39.8574 108.127 39.877 108.371 39.916C108.625 39.9551 108.815 39.999 108.942 40.0479ZM131.574 49.0566H135.236C135.119 50.4531 134.729 51.6982 134.064 52.792C133.4 53.876 132.468 54.7305 131.267 55.3555C130.065 55.9805 128.605 56.293 126.887 56.293C125.568 56.293 124.382 56.0586 123.327 55.5898C122.272 55.1113 121.369 54.4375 120.617 53.5684C119.865 52.6895 119.289 51.6299 118.889 50.3896C118.498 49.1494 118.303 47.7627 118.303 46.2295V44.457C118.303 42.9238 118.503 41.5371 118.903 40.2969C119.313 39.0566 119.899 37.9971 120.661 37.1182C121.423 36.2295 122.336 35.5508 123.4 35.082C124.475 34.6133 125.681 34.3789 127.019 34.3789C128.718 34.3789 130.153 34.6914 131.325 35.3164C132.497 35.9414 133.405 36.8057 134.05 37.9092C134.704 39.0127 135.104 40.2773 135.251 41.7031H131.589C131.491 40.7852 131.276 39.999 130.944 39.3447C130.622 38.6904 130.144 38.1924 129.509 37.8506C128.874 37.499 128.044 37.3232 127.019 37.3232C126.179 37.3232 125.446 37.4795 124.821 37.792C124.196 38.1045 123.674 38.5635 123.254 39.1689C122.834 39.7744 122.517 40.5215 122.302 41.4102C122.097 42.2891 121.994 43.2949 121.994 44.4277V46.2295C121.994 47.3037 122.087 48.2803 122.272 49.1592C122.468 50.0283 122.761 50.7754 123.151 51.4004C123.552 52.0254 124.06 52.5088 124.675 52.8506C125.29 53.1924 126.027 53.3633 126.887 53.3633C127.932 53.3633 128.776 53.1973 129.421 52.8652C130.075 52.5332 130.568 52.0498 130.9 51.415C131.242 50.7705 131.467 49.9844 131.574 49.0566ZM145.212 56.293C144.04 56.293 142.98 56.1025 142.033 55.7217C141.096 55.3311 140.295 54.7891 139.631 54.0957C138.977 53.4023 138.474 52.5869 138.122 51.6494C137.771 50.7119 137.595 49.7012 137.595 48.6172V48.0312C137.595 46.791 137.775 45.668 138.137 44.6621C138.498 43.6562 139.001 42.7969 139.646 42.084C140.29 41.3613 141.052 40.8096 141.931 40.4287C142.81 40.0479 143.762 39.8574 144.787 39.8574C145.92 39.8574 146.911 40.0479 147.761 40.4287C148.61 40.8096 149.313 41.3467 149.87 42.04C150.437 42.7236 150.856 43.5391 151.13 44.4863C151.413 45.4336 151.555 46.4785 151.555 47.6211V49.1299H139.309V46.5957H148.068V46.3174C148.049 45.6826 147.922 45.0869 147.688 44.5303C147.463 43.9736 147.116 43.5244 146.647 43.1826C146.179 42.8408 145.554 42.6699 144.772 42.6699C144.187 42.6699 143.664 42.7969 143.205 43.0508C142.756 43.2949 142.38 43.6514 142.077 44.1201C141.774 44.5889 141.54 45.1553 141.374 45.8193C141.218 46.4736 141.14 47.2109 141.14 48.0312V48.6172C141.14 49.3105 141.232 49.9551 141.418 50.5508C141.613 51.1367 141.896 51.6494 142.268 52.0889C142.639 52.5283 143.088 52.875 143.615 53.1289C144.143 53.373 144.743 53.4951 145.417 53.4951C146.267 53.4951 147.023 53.3242 147.688 52.9824C148.352 52.6406 148.928 52.1572 149.416 51.5322L151.276 53.334C150.935 53.832 150.49 54.3105 149.943 54.7695C149.396 55.2188 148.728 55.585 147.937 55.8682C147.155 56.1514 146.247 56.293 145.212 56.293ZM157.854 43.168V56H154.323V40.1504H157.692L157.854 43.168ZM162.702 40.0479L162.673 43.3291C162.458 43.29 162.224 43.2607 161.97 43.2412C161.726 43.2217 161.481 43.2119 161.237 43.2119C160.632 43.2119 160.1 43.2998 159.641 43.4756C159.182 43.6416 158.796 43.8857 158.483 44.208C158.181 44.5205 157.946 44.9014 157.78 45.3506C157.614 45.7998 157.517 46.3027 157.487 46.8594L156.682 46.918C156.682 45.9219 156.779 44.999 156.975 44.1494C157.17 43.2998 157.463 42.5527 157.854 41.9082C158.254 41.2637 158.752 40.7607 159.348 40.3994C159.953 40.0381 160.651 39.8574 161.442 39.8574C161.657 39.8574 161.887 39.877 162.131 39.916C162.385 39.9551 162.575 39.999 162.702 40.0479ZM172.912 40.1504V42.7285H163.977V40.1504H172.912ZM166.555 36.2686H170.085V51.6201C170.085 52.1084 170.153 52.4844 170.29 52.748C170.437 53.002 170.637 53.1729 170.891 53.2607C171.145 53.3486 171.442 53.3926 171.784 53.3926C172.028 53.3926 172.263 53.3779 172.487 53.3486C172.712 53.3193 172.893 53.29 173.029 53.2607L173.044 55.9561C172.751 56.0439 172.409 56.1221 172.019 56.1904C171.638 56.2588 171.198 56.293 170.7 56.293C169.89 56.293 169.172 56.1514 168.547 55.8682C167.922 55.5752 167.434 55.1016 167.082 54.4473C166.73 53.793 166.555 52.9238 166.555 51.8398V36.2686ZM179.416 40.1504V56H175.871V40.1504H179.416ZM175.637 35.9902C175.637 35.4531 175.812 35.0088 176.164 34.6572C176.525 34.2959 177.023 34.1152 177.658 34.1152C178.283 34.1152 178.776 34.2959 179.138 34.6572C179.499 35.0088 179.68 35.4531 179.68 35.9902C179.68 36.5176 179.499 36.957 179.138 37.3086C178.776 37.6602 178.283 37.8359 177.658 37.8359C177.023 37.8359 176.525 37.6602 176.164 37.3086C175.812 36.957 175.637 36.5176 175.637 35.9902ZM187.824 56H184.279V39.125C184.279 37.8457 184.533 36.7666 185.041 35.8877C185.559 35.0088 186.296 34.3398 187.253 33.8809C188.22 33.4219 189.367 33.1924 190.695 33.1924C191.477 33.1924 192.229 33.2754 192.951 33.4414C193.684 33.6074 194.44 33.8174 195.222 34.0713L194.68 36.9424C194.182 36.7764 193.63 36.6201 193.024 36.4736C192.419 36.3174 191.721 36.2393 190.93 36.2393C189.865 36.2393 189.079 36.4834 188.571 36.9717C188.073 37.4502 187.824 38.168 187.824 39.125V56ZM191.003 40.1504V42.7285H181.848V40.1504H191.003ZM196.892 40.1504V56H193.361V40.1504H196.892ZM207.307 53.4805C207.883 53.4805 208.4 53.3682 208.859 53.1436C209.328 52.9092 209.704 52.5869 209.987 52.1768C210.28 51.7666 210.441 51.293 210.471 50.7559H213.796C213.776 51.7812 213.474 52.7139 212.888 53.5537C212.302 54.3936 211.525 55.0625 210.559 55.5605C209.592 56.0488 208.522 56.293 207.351 56.293C206.14 56.293 205.085 56.0879 204.187 55.6777C203.288 55.2578 202.541 54.6816 201.945 53.9492C201.35 53.2168 200.9 52.3721 200.598 51.415C200.305 50.458 200.158 49.4326 200.158 48.3389V47.8262C200.158 46.7324 200.305 45.707 200.598 44.75C200.9 43.7832 201.35 42.9336 201.945 42.2012C202.541 41.4688 203.288 40.8975 204.187 40.4873C205.085 40.0674 206.135 39.8574 207.336 39.8574C208.605 39.8574 209.719 40.1113 210.676 40.6191C211.633 41.1172 212.385 41.8154 212.932 42.7139C213.488 43.6025 213.776 44.6377 213.796 45.8193H210.471C210.441 45.2334 210.295 44.7061 210.031 44.2373C209.777 43.7588 209.416 43.3779 208.947 43.0947C208.488 42.8115 207.937 42.6699 207.292 42.6699C206.579 42.6699 205.988 42.8164 205.52 43.1094C205.051 43.3926 204.685 43.7832 204.421 44.2812C204.157 44.7695 203.967 45.3213 203.85 45.9365C203.742 46.542 203.688 47.1719 203.688 47.8262V48.3389C203.688 48.9932 203.742 49.6279 203.85 50.2432C203.957 50.8584 204.143 51.4102 204.406 51.8984C204.68 52.377 205.051 52.7627 205.52 53.0557C205.988 53.3389 206.584 53.4805 207.307 53.4805ZM225.441 52.8213V45.2627C225.441 44.6963 225.339 44.208 225.134 43.7979C224.929 43.3877 224.616 43.0703 224.196 42.8457C223.786 42.6211 223.269 42.5088 222.644 42.5088C222.067 42.5088 221.569 42.6064 221.149 42.8018C220.729 42.9971 220.402 43.2607 220.168 43.5928C219.934 43.9248 219.816 44.3008 219.816 44.7207H216.301C216.301 44.0957 216.452 43.4902 216.755 42.9043C217.058 42.3184 217.497 41.7959 218.073 41.3369C218.649 40.8779 219.338 40.5166 220.139 40.2529C220.939 39.9893 221.838 39.8574 222.834 39.8574C224.025 39.8574 225.08 40.0576 225.998 40.458C226.926 40.8584 227.653 41.4639 228.181 42.2744C228.718 43.0752 228.986 44.0811 228.986 45.292V52.3379C228.986 53.0605 229.035 53.71 229.133 54.2861C229.24 54.8525 229.392 55.3457 229.587 55.7656V56H225.969C225.803 55.6191 225.671 55.1357 225.573 54.5498C225.485 53.9541 225.441 53.3779 225.441 52.8213ZM225.954 46.3613L225.983 48.5439H223.449C222.795 48.5439 222.219 48.6074 221.721 48.7344C221.223 48.8516 220.808 49.0273 220.476 49.2617C220.144 49.4961 219.895 49.7793 219.729 50.1113C219.562 50.4434 219.479 50.8193 219.479 51.2393C219.479 51.6592 219.577 52.0449 219.772 52.3965C219.968 52.7383 220.251 53.0068 220.622 53.2021C221.003 53.3975 221.462 53.4951 221.999 53.4951C222.722 53.4951 223.352 53.3486 223.889 53.0557C224.436 52.7529 224.865 52.3867 225.178 51.957C225.49 51.5176 225.656 51.1025 225.676 50.7119L226.818 52.2793C226.701 52.6797 226.501 53.1094 226.218 53.5684C225.935 54.0273 225.563 54.4668 225.104 54.8867C224.655 55.2969 224.113 55.6338 223.479 55.8975C222.854 56.1611 222.131 56.293 221.311 56.293C220.275 56.293 219.353 56.0879 218.542 55.6777C217.731 55.2578 217.097 54.6963 216.638 53.9932C216.179 53.2803 215.949 52.4746 215.949 51.5762C215.949 50.7363 216.105 49.9941 216.418 49.3496C216.74 48.6953 217.209 48.1484 217.824 47.709C218.449 47.2695 219.211 46.9375 220.109 46.7129C221.008 46.4785 222.033 46.3613 223.186 46.3613H225.954ZM239.943 40.1504V42.7285H231.008V40.1504H239.943ZM233.586 36.2686H237.116V51.6201C237.116 52.1084 237.185 52.4844 237.321 52.748C237.468 53.002 237.668 53.1729 237.922 53.2607C238.176 53.3486 238.474 53.3926 238.815 53.3926C239.06 53.3926 239.294 53.3779 239.519 53.3486C239.743 53.3193 239.924 53.29 240.061 53.2607L240.075 55.9561C239.782 56.0439 239.44 56.1221 239.05 56.1904C238.669 56.2588 238.229 56.293 237.731 56.293C236.921 56.293 236.203 56.1514 235.578 55.8682C234.953 55.5752 234.465 55.1016 234.113 54.4473C233.762 53.793 233.586 52.9238 233.586 51.8398V36.2686ZM246.447 40.1504V56H242.902V40.1504H246.447ZM242.668 35.9902C242.668 35.4531 242.844 35.0088 243.195 34.6572C243.557 34.2959 244.055 34.1152 244.689 34.1152C245.314 34.1152 245.808 34.2959 246.169 34.6572C246.53 35.0088 246.711 35.4531 246.711 35.9902C246.711 36.5176 246.53 36.957 246.169 37.3086C245.808 37.6602 245.314 37.8359 244.689 37.8359C244.055 37.8359 243.557 37.6602 243.195 37.3086C242.844 36.957 242.668 36.5176 242.668 35.9902ZM249.641 48.251V47.9141C249.641 46.7715 249.807 45.7119 250.139 44.7354C250.471 43.749 250.949 42.8945 251.574 42.1719C252.209 41.4395 252.98 40.873 253.889 40.4727C254.807 40.0625 255.842 39.8574 256.994 39.8574C258.156 39.8574 259.191 40.0625 260.1 40.4727C261.018 40.873 261.794 41.4395 262.429 42.1719C263.063 42.8945 263.547 43.749 263.879 44.7354C264.211 45.7119 264.377 46.7715 264.377 47.9141V48.251C264.377 49.3936 264.211 50.4531 263.879 51.4297C263.547 52.4062 263.063 53.2607 262.429 53.9932C261.794 54.7158 261.022 55.2822 260.114 55.6924C259.206 56.0928 258.176 56.293 257.023 56.293C255.861 56.293 254.821 56.0928 253.903 55.6924C252.995 55.2822 252.224 54.7158 251.589 53.9932C250.954 53.2607 250.471 52.4062 250.139 51.4297C249.807 50.4531 249.641 49.3936 249.641 48.251ZM253.171 47.9141V48.251C253.171 48.9639 253.244 49.6377 253.391 50.2725C253.537 50.9072 253.767 51.4639 254.079 51.9424C254.392 52.4209 254.792 52.7969 255.28 53.0703C255.769 53.3438 256.35 53.4805 257.023 53.4805C257.678 53.4805 258.244 53.3438 258.723 53.0703C259.211 52.7969 259.611 52.4209 259.924 51.9424C260.236 51.4639 260.466 50.9072 260.612 50.2725C260.769 49.6377 260.847 48.9639 260.847 48.251V47.9141C260.847 47.2109 260.769 46.5469 260.612 45.9219C260.466 45.2871 260.231 44.7256 259.909 44.2373C259.597 43.749 259.196 43.3682 258.708 43.0947C258.229 42.8115 257.658 42.6699 256.994 42.6699C256.33 42.6699 255.754 42.8115 255.266 43.0947C254.787 43.3682 254.392 43.749 254.079 44.2373C253.767 44.7256 253.537 45.2871 253.391 45.9219C253.244 46.5469 253.171 47.2109 253.171 47.9141ZM270.837 43.5342V56H267.307V40.1504H270.632L270.837 43.5342ZM270.207 47.4893L269.064 47.4746C269.074 46.3516 269.23 45.3213 269.533 44.3838C269.846 43.4463 270.275 42.6406 270.822 41.9668C271.379 41.293 272.043 40.7754 272.814 40.4141C273.586 40.043 274.445 39.8574 275.393 39.8574C276.154 39.8574 276.843 39.9648 277.458 40.1797C278.083 40.3848 278.615 40.7217 279.055 41.1904C279.504 41.6592 279.846 42.2695 280.08 43.0215C280.314 43.7637 280.432 44.6768 280.432 45.7607V56H276.887V45.7461C276.887 44.9844 276.774 44.3838 276.55 43.9443C276.335 43.4951 276.018 43.1777 275.598 42.9922C275.188 42.7969 274.675 42.6992 274.06 42.6992C273.454 42.6992 272.912 42.8262 272.434 43.0801C271.955 43.334 271.55 43.6807 271.218 44.1201C270.896 44.5596 270.646 45.0674 270.471 45.6436C270.295 46.2197 270.207 46.835 270.207 47.4893Z" fill="white"/>
<rect x="718" y="17" width="183" height="42" rx="12" fill="#A3CEF1"/>
<path d="M772.565 42.1396H775.129C775.047 43.1172 774.773 43.9888 774.309 44.7544C773.844 45.5132 773.191 46.1113 772.35 46.5488C771.509 46.9863 770.487 47.2051 769.284 47.2051C768.361 47.2051 767.531 47.041 766.792 46.7129C766.054 46.3779 765.422 45.9062 764.896 45.2979C764.369 44.6826 763.966 43.9409 763.686 43.0728C763.412 42.2046 763.275 41.2339 763.275 40.1606V38.9199C763.275 37.8467 763.416 36.876 763.696 36.0078C763.983 35.1396 764.393 34.3979 764.926 33.7827C765.459 33.1606 766.099 32.6855 766.844 32.3574C767.596 32.0293 768.44 31.8652 769.376 31.8652C770.566 31.8652 771.571 32.084 772.391 32.5215C773.211 32.959 773.847 33.564 774.298 34.3364C774.756 35.1089 775.037 35.9941 775.139 36.9922H772.576C772.507 36.3496 772.357 35.7993 772.125 35.3413C771.899 34.8833 771.564 34.5347 771.12 34.2954C770.675 34.0493 770.094 33.9263 769.376 33.9263C768.789 33.9263 768.276 34.0356 767.838 34.2544C767.401 34.4731 767.035 34.7944 766.741 35.2183C766.447 35.6421 766.225 36.165 766.075 36.7871C765.931 37.4023 765.859 38.1064 765.859 38.8994V40.1606C765.859 40.9126 765.924 41.5962 766.054 42.2114C766.191 42.8198 766.396 43.3428 766.669 43.7803C766.95 44.2178 767.305 44.5562 767.736 44.7954C768.167 45.0347 768.683 45.1543 769.284 45.1543C770.016 45.1543 770.607 45.0381 771.058 44.8057C771.516 44.5732 771.861 44.2349 772.094 43.7905C772.333 43.3394 772.49 42.7891 772.565 42.1396ZM779.866 31.25V47H777.385V31.25H779.866ZM782.102 41.5757V41.3398C782.102 40.54 782.218 39.7983 782.45 39.1147C782.683 38.4243 783.018 37.8262 783.455 37.3203C783.899 36.8076 784.439 36.4111 785.075 36.1309C785.718 35.8438 786.442 35.7002 787.249 35.7002C788.062 35.7002 788.787 35.8438 789.423 36.1309C790.065 36.4111 790.609 36.8076 791.053 37.3203C791.498 37.8262 791.836 38.4243 792.068 39.1147C792.301 39.7983 792.417 40.54 792.417 41.3398V41.5757C792.417 42.3755 792.301 43.1172 792.068 43.8008C791.836 44.4844 791.498 45.0825 791.053 45.5952C790.609 46.1011 790.069 46.4976 789.433 46.7847C788.797 47.0649 788.076 47.2051 787.27 47.2051C786.456 47.2051 785.728 47.0649 785.085 46.7847C784.45 46.4976 783.91 46.1011 783.465 45.5952C783.021 45.0825 782.683 44.4844 782.45 43.8008C782.218 43.1172 782.102 42.3755 782.102 41.5757ZM784.573 41.3398V41.5757C784.573 42.0747 784.624 42.5464 784.727 42.9907C784.829 43.4351 784.99 43.8247 785.208 44.1597C785.427 44.4946 785.708 44.7578 786.049 44.9492C786.391 45.1406 786.798 45.2363 787.27 45.2363C787.728 45.2363 788.124 45.1406 788.459 44.9492C788.801 44.7578 789.081 44.4946 789.3 44.1597C789.519 43.8247 789.679 43.4351 789.782 42.9907C789.891 42.5464 789.946 42.0747 789.946 41.5757V41.3398C789.946 40.8477 789.891 40.3828 789.782 39.9453C789.679 39.501 789.515 39.1079 789.29 38.7661C789.071 38.4243 788.791 38.1577 788.449 37.9663C788.114 37.7681 787.714 37.6689 787.249 37.6689C786.784 37.6689 786.381 37.7681 786.039 37.9663C785.704 38.1577 785.427 38.4243 785.208 38.7661C784.99 39.1079 784.829 39.501 784.727 39.9453C784.624 40.3828 784.573 40.8477 784.573 41.3398ZM800.712 43.9956C800.712 43.7495 800.651 43.5273 800.528 43.3291C800.405 43.124 800.169 42.9395 799.82 42.7754C799.479 42.6113 798.973 42.4609 798.303 42.3242C797.715 42.1943 797.175 42.0405 796.683 41.8628C796.197 41.6782 795.78 41.4561 795.432 41.1963C795.083 40.9365 794.813 40.6289 794.622 40.2734C794.43 39.918 794.334 39.5078 794.334 39.043C794.334 38.5918 794.434 38.1646 794.632 37.7612C794.83 37.3579 795.114 37.0024 795.483 36.6948C795.852 36.3872 796.3 36.1445 796.826 35.9668C797.359 35.7891 797.954 35.7002 798.61 35.7002C799.54 35.7002 800.336 35.8574 801 36.1719C801.669 36.4795 802.182 36.8999 802.538 37.4331C802.893 37.9595 803.071 38.5542 803.071 39.2173H800.6C800.6 38.9233 800.524 38.6499 800.374 38.397C800.23 38.1372 800.012 37.9287 799.718 37.7715C799.424 37.6074 799.055 37.5254 798.61 37.5254C798.187 37.5254 797.834 37.5938 797.554 37.7305C797.281 37.8604 797.076 38.0312 796.939 38.2432C796.809 38.4551 796.744 38.6875 796.744 38.9404C796.744 39.125 796.778 39.2925 796.847 39.4429C796.922 39.5864 797.045 39.7197 797.216 39.8428C797.387 39.959 797.619 40.0684 797.913 40.1709C798.214 40.2734 798.59 40.3726 799.041 40.4683C799.889 40.646 800.617 40.875 801.225 41.1553C801.84 41.4287 802.312 41.7842 802.64 42.2217C802.968 42.6523 803.132 43.1992 803.132 43.8623C803.132 44.3545 803.026 44.8057 802.814 45.2158C802.609 45.6191 802.309 45.9712 801.912 46.272C801.516 46.5659 801.041 46.7949 800.487 46.959C799.94 47.123 799.325 47.2051 798.641 47.2051C797.636 47.2051 796.785 47.0273 796.088 46.6719C795.391 46.3096 794.861 45.8481 794.499 45.2876C794.143 44.7202 793.965 44.1323 793.965 43.5239H796.354C796.382 43.9819 796.508 44.3477 796.734 44.6211C796.966 44.8877 797.253 45.0825 797.595 45.2056C797.944 45.3218 798.303 45.3799 798.672 45.3799C799.116 45.3799 799.489 45.3218 799.79 45.2056C800.09 45.0825 800.319 44.9185 800.477 44.7134C800.634 44.5015 800.712 44.2622 800.712 43.9956ZM810.187 47.2051C809.367 47.2051 808.625 47.0718 807.962 46.8052C807.306 46.5317 806.745 46.1523 806.28 45.667C805.822 45.1816 805.47 44.6108 805.224 43.9546C804.978 43.2983 804.855 42.5908 804.855 41.832V41.4219C804.855 40.5537 804.981 39.7676 805.234 39.0635C805.487 38.3594 805.839 37.7578 806.291 37.2588C806.742 36.7529 807.275 36.3667 807.89 36.1001C808.505 35.8335 809.172 35.7002 809.89 35.7002C810.683 35.7002 811.376 35.8335 811.971 36.1001C812.566 36.3667 813.058 36.7427 813.448 37.228C813.844 37.7065 814.138 38.2773 814.33 38.9404C814.528 39.6035 814.627 40.335 814.627 41.1348V42.1909H806.055V40.417H812.187V40.2222C812.173 39.7778 812.084 39.3608 811.92 38.9712C811.763 38.5815 811.52 38.2671 811.192 38.0278C810.864 37.7886 810.426 37.6689 809.879 37.6689C809.469 37.6689 809.104 37.7578 808.782 37.9355C808.468 38.1064 808.205 38.356 807.993 38.6841C807.781 39.0122 807.617 39.4087 807.5 39.8735C807.391 40.3315 807.336 40.8477 807.336 41.4219V41.832C807.336 42.3174 807.401 42.7686 807.531 43.1855C807.668 43.5957 807.866 43.9546 808.126 44.2622C808.386 44.5698 808.7 44.8125 809.069 44.9902C809.438 45.1611 809.859 45.2466 810.331 45.2466C810.925 45.2466 811.455 45.127 811.92 44.8877C812.385 44.6484 812.788 44.3101 813.13 43.8726L814.432 45.1338C814.193 45.4824 813.882 45.8174 813.499 46.1387C813.116 46.4531 812.648 46.7095 812.094 46.9077C811.547 47.106 810.912 47.2051 810.187 47.2051ZM826.368 47H823.179L823.199 44.9595H826.368C827.291 44.9595 828.063 44.7578 828.685 44.3545C829.314 43.9512 829.786 43.3735 830.1 42.6216C830.421 41.8696 830.582 40.9741 830.582 39.9351V39.125C830.582 38.3184 830.49 37.604 830.305 36.9819C830.127 36.3599 829.861 35.8369 829.505 35.4131C829.157 34.9893 828.726 34.668 828.213 34.4492C827.708 34.2305 827.123 34.1211 826.46 34.1211H823.117V32.0703H826.46C827.451 32.0703 828.357 32.2378 829.177 32.5728C829.998 32.9009 830.705 33.376 831.3 33.998C831.901 34.6201 832.363 35.3652 832.684 36.2334C833.005 37.1016 833.166 38.0723 833.166 39.1455V39.9351C833.166 41.0083 833.005 41.979 832.684 42.8472C832.363 43.7153 831.901 44.4604 831.3 45.0825C830.698 45.6978 829.98 46.1729 829.146 46.5078C828.319 46.8359 827.393 47 826.368 47ZM824.604 32.0703V47H822.03V32.0703H824.604ZM840.395 47.2051C839.575 47.2051 838.833 47.0718 838.17 46.8052C837.514 46.5317 836.953 46.1523 836.488 45.667C836.03 45.1816 835.678 44.6108 835.432 43.9546C835.186 43.2983 835.063 42.5908 835.063 41.832V41.4219C835.063 40.5537 835.189 39.7676 835.442 39.0635C835.695 38.3594 836.047 37.7578 836.499 37.2588C836.95 36.7529 837.483 36.3667 838.098 36.1001C838.713 35.8335 839.38 35.7002 840.098 35.7002C840.891 35.7002 841.584 35.8335 842.179 36.1001C842.774 36.3667 843.266 36.7427 843.656 37.228C844.052 37.7065 844.346 38.2773 844.538 38.9404C844.736 39.6035 844.835 40.335 844.835 41.1348V42.1909H836.263V40.417H842.395V40.2222C842.381 39.7778 842.292 39.3608 842.128 38.9712C841.971 38.5815 841.728 38.2671 841.4 38.0278C841.072 37.7886 840.634 37.6689 840.087 37.6689C839.677 37.6689 839.312 37.7578 838.99 37.9355C838.676 38.1064 838.413 38.356 838.201 38.6841C837.989 39.0122 837.825 39.4087 837.708 39.8735C837.599 40.3315 837.544 40.8477 837.544 41.4219V41.832C837.544 42.3174 837.609 42.7686 837.739 43.1855C837.876 43.5957 838.074 43.9546 838.334 44.2622C838.594 44.5698 838.908 44.8125 839.277 44.9902C839.646 45.1611 840.067 45.2466 840.539 45.2466C841.133 45.2466 841.663 45.127 842.128 44.8877C842.593 44.6484 842.996 44.3101 843.338 43.8726L844.64 45.1338C844.401 45.4824 844.09 45.8174 843.707 46.1387C843.324 46.4531 842.856 46.7095 842.302 46.9077C841.755 47.106 841.12 47.2051 840.395 47.2051ZM851.849 35.9053V37.71H845.594V35.9053H851.849ZM847.398 33.188H849.87V43.9341C849.87 44.2759 849.917 44.5391 850.013 44.7236C850.116 44.9014 850.256 45.021 850.434 45.0825C850.611 45.144 850.82 45.1748 851.059 45.1748C851.23 45.1748 851.394 45.1646 851.551 45.144C851.708 45.1235 851.835 45.103 851.931 45.0825L851.941 46.9692C851.736 47.0308 851.497 47.0854 851.223 47.1333C850.957 47.1812 850.649 47.2051 850.3 47.2051C849.733 47.2051 849.23 47.106 848.793 46.9077C848.355 46.7026 848.014 46.3711 847.768 45.9131C847.521 45.4551 847.398 44.8467 847.398 44.0879V33.188ZM860.011 44.7749V39.4839C860.011 39.0874 859.939 38.7456 859.795 38.4585C859.652 38.1714 859.433 37.9492 859.139 37.792C858.852 37.6348 858.49 37.5562 858.052 37.5562C857.649 37.5562 857.3 37.6245 857.006 37.7612C856.712 37.8979 856.483 38.0825 856.319 38.3149C856.155 38.5474 856.073 38.8105 856.073 39.1045H853.612C853.612 38.667 853.718 38.2432 853.93 37.833C854.142 37.4229 854.45 37.0571 854.853 36.7358C855.256 36.4146 855.738 36.1616 856.299 35.9771C856.859 35.7925 857.488 35.7002 858.186 35.7002C859.02 35.7002 859.758 35.8403 860.4 36.1206C861.05 36.4009 861.559 36.8247 861.928 37.3921C862.304 37.9526 862.492 38.6567 862.492 39.5044V44.4365C862.492 44.9424 862.526 45.397 862.595 45.8003C862.67 46.1968 862.776 46.542 862.913 46.8359V47H860.38C860.264 46.7334 860.171 46.395 860.103 45.9849C860.042 45.5679 860.011 45.1646 860.011 44.7749ZM860.37 40.2529L860.39 41.7808H858.616C858.158 41.7808 857.755 41.8252 857.406 41.9141C857.058 41.9961 856.767 42.1191 856.535 42.2832C856.302 42.4473 856.128 42.6455 856.012 42.8779C855.896 43.1104 855.837 43.3735 855.837 43.6675C855.837 43.9614 855.906 44.2314 856.042 44.4775C856.179 44.7168 856.377 44.9048 856.637 45.0415C856.904 45.1782 857.225 45.2466 857.601 45.2466C858.107 45.2466 858.548 45.144 858.924 44.939C859.307 44.7271 859.607 44.4707 859.826 44.1699C860.045 43.8623 860.161 43.5718 860.175 43.2983L860.975 44.3955C860.893 44.6758 860.752 44.9766 860.554 45.2979C860.356 45.6191 860.096 45.9268 859.775 46.2207C859.46 46.5078 859.081 46.7437 858.637 46.9282C858.199 47.1128 857.693 47.2051 857.119 47.2051C856.395 47.2051 855.749 47.0615 855.181 46.7744C854.614 46.4805 854.169 46.0874 853.848 45.5952C853.527 45.0962 853.366 44.5322 853.366 43.9033C853.366 43.3154 853.476 42.7959 853.694 42.3447C853.92 41.8867 854.248 41.5039 854.679 41.1963C855.116 40.8887 855.649 40.6562 856.278 40.499C856.907 40.335 857.625 40.2529 858.432 40.2529H860.37ZM867.722 35.9053V47H865.24V35.9053H867.722ZM865.076 32.9932C865.076 32.6172 865.199 32.3062 865.445 32.0601C865.698 31.8071 866.047 31.6807 866.491 31.6807C866.929 31.6807 867.274 31.8071 867.527 32.0601C867.78 32.3062 867.906 32.6172 867.906 32.9932C867.906 33.3623 867.78 33.6699 867.527 33.916C867.274 34.1621 866.929 34.2852 866.491 34.2852C866.047 34.2852 865.698 34.1621 865.445 33.916C865.199 33.6699 865.076 33.3623 865.076 32.9932ZM873.074 31.25V47H870.593V31.25H873.074ZM882.005 43.9956C882.005 43.7495 881.944 43.5273 881.821 43.3291C881.698 43.124 881.462 42.9395 881.113 42.7754C880.771 42.6113 880.266 42.4609 879.596 42.3242C879.008 42.1943 878.468 42.0405 877.976 41.8628C877.49 41.6782 877.073 41.4561 876.725 41.1963C876.376 40.9365 876.106 40.6289 875.915 40.2734C875.723 39.918 875.627 39.5078 875.627 39.043C875.627 38.5918 875.727 38.1646 875.925 37.7612C876.123 37.3579 876.407 37.0024 876.776 36.6948C877.145 36.3872 877.593 36.1445 878.119 35.9668C878.652 35.7891 879.247 35.7002 879.903 35.7002C880.833 35.7002 881.629 35.8574 882.292 36.1719C882.962 36.4795 883.475 36.8999 883.831 37.4331C884.186 37.9595 884.364 38.5542 884.364 39.2173H881.893C881.893 38.9233 881.817 38.6499 881.667 38.397C881.523 38.1372 881.305 37.9287 881.011 37.7715C880.717 37.6074 880.348 37.5254 879.903 37.5254C879.479 37.5254 879.127 37.5938 878.847 37.7305C878.574 37.8604 878.369 38.0312 878.232 38.2432C878.102 38.4551 878.037 38.6875 878.037 38.9404C878.037 39.125 878.071 39.2925 878.14 39.4429C878.215 39.5864 878.338 39.7197 878.509 39.8428C878.68 39.959 878.912 40.0684 879.206 40.1709C879.507 40.2734 879.883 40.3726 880.334 40.4683C881.182 40.646 881.91 40.875 882.518 41.1553C883.133 41.4287 883.605 41.7842 883.933 42.2217C884.261 42.6523 884.425 43.1992 884.425 43.8623C884.425 44.3545 884.319 44.8057 884.107 45.2158C883.902 45.6191 883.602 45.9712 883.205 46.272C882.809 46.5659 882.333 46.7949 881.78 46.959C881.233 47.123 880.618 47.2051 879.934 47.2051C878.929 47.2051 878.078 47.0273 877.381 46.6719C876.684 46.3096 876.154 45.8481 875.792 45.2876C875.436 44.7202 875.258 44.1323 875.258 43.5239H877.647C877.675 43.9819 877.801 44.3477 878.027 44.6211C878.259 44.8877 878.546 45.0825 878.888 45.2056C879.237 45.3218 879.596 45.3799 879.965 45.3799C880.409 45.3799 880.782 45.3218 881.083 45.2056C881.383 45.0825 881.612 44.9185 881.77 44.7134C881.927 44.5015 882.005 44.2622 882.005 43.9956Z" fill="white"/>
</g>
<defs>
<filter id="filter0_d_830_2986" x="0" y="0" width="924" height="250" filterUnits="userSpaceOnUse" color-interpolation-filters="sRGB">
<feFlood flood-opacity="0" result="BackgroundImageFix"/>
<feColorMatrix in="SourceAlpha" type="matrix" values="0 0 0 0 0 0 0 0 0 0 0 0 0 0 0 0 0 0 127 0" result="hardAlpha"/>
<feOffset dy="4"/>
<feGaussianBlur stdDeviation="2"/>
<feComposite in2="hardAlpha" operator="out"/>
<feColorMatrix type="matrix" values="0 0 0 0 0 0 0 0 0 0 0 0 0 0 0 0 0 0 0.25 0"/>
<feBlend mode="normal" in2="BackgroundImageFix" result="effect1_dropShadow_830_2986"/>
<feBlend mode="normal" in="SourceGraphic" in2="effect1_dropShadow_830_2986" result="shape"/>
</filter>
</defs>
</svg>
