<svg width="125" height="77" viewBox="0 0 125 77" fill="none" xmlns="http://www.w3.org/2000/svg">
<g filter="url(#filter0_d_589_6065)">
<rect x="1" y="1" width="117" height="69" rx="5" fill="#8FC0A9"/>
<path d="M47.3562 23.6719V45H43.6794L34.114 29.7217V45H30.4372V23.6719H34.114L43.7087 38.9795V23.6719H47.3562ZM58.3718 45.293C57.1999 45.293 56.1403 45.1025 55.1931 44.7217C54.2556 44.3311 53.4548 43.7891 52.7907 43.0957C52.1364 42.4023 51.6335 41.5869 51.2819 40.6494C50.9304 39.7119 50.7546 38.7012 50.7546 37.6172V37.0312C50.7546 35.791 50.9353 34.668 51.2966 33.6621C51.6579 32.6562 52.1609 31.7969 52.8054 31.084C53.4499 30.3613 54.2116 29.8096 55.0905 29.4287C55.9694 29.0479 56.9216 28.8574 57.947 28.8574C59.0798 28.8574 60.071 29.0479 60.9206 29.4287C61.7702 29.8096 62.4734 30.3467 63.03 31.04C63.5964 31.7236 64.0163 32.5391 64.2898 33.4863C64.573 34.4336 64.7146 35.4785 64.7146 36.6211V38.1299H52.4685V35.5957H61.2282V35.3174C61.2087 34.6826 61.0818 34.0869 60.8474 33.5303C60.6228 32.9736 60.2761 32.5244 59.8073 32.1826C59.3386 31.8408 58.7136 31.6699 57.9323 31.6699C57.3464 31.6699 56.8239 31.7969 56.365 32.0508C55.9157 32.2949 55.5398 32.6514 55.237 33.1201C54.9343 33.5889 54.6999 34.1553 54.5339 34.8193C54.3777 35.4736 54.2995 36.2109 54.2995 37.0312V37.6172C54.2995 38.3105 54.3923 38.9551 54.5778 39.5508C54.7732 40.1367 55.0564 40.6494 55.4275 41.0889C55.7985 41.5283 56.2478 41.875 56.7751 42.1289C57.3025 42.373 57.903 42.4951 58.5769 42.4951C59.4265 42.4951 60.1833 42.3242 60.8474 41.9824C61.5114 41.6406 62.0876 41.1572 62.5759 40.5322L64.4362 42.334C64.0944 42.832 63.6501 43.3105 63.1032 43.7695C62.5564 44.2188 61.8874 44.585 61.0964 44.8682C60.3152 45.1514 59.4069 45.293 58.3718 45.293ZM70.1638 29.1504L73.1814 34.4092L76.2575 29.1504H80.1394L75.3347 36.9287L80.3298 45H76.448L73.2253 39.5215L70.0027 45H66.1062L71.0866 36.9287L66.2966 29.1504H70.1638ZM89.822 29.1504V31.7285H80.8864V29.1504H89.822ZM83.4646 25.2686H86.9948V40.6201C86.9948 41.1084 87.0632 41.4844 87.1999 41.748C87.3464 42.002 87.5466 42.1729 87.8005 42.2607C88.0544 42.3486 88.3523 42.3926 88.6941 42.3926C88.9382 42.3926 89.1726 42.3779 89.3972 42.3486C89.6218 42.3193 89.8025 42.29 89.9392 42.2607L89.9538 44.9561C89.6609 45.0439 89.3191 45.1221 88.9284 45.1904C88.5476 45.2588 88.1081 45.293 87.6101 45.293C86.7995 45.293 86.0818 45.1514 85.4568 44.8682C84.8318 44.5752 84.3435 44.1016 83.9919 43.4473C83.6404 42.793 83.4646 41.9238 83.4646 40.8398V25.2686Z" fill="white"/>
</g>
<defs>
<filter id="filter0_d_589_6065" x="0" y="0" width="125" height="77" filterUnits="userSpaceOnUse" color-interpolation-filters="sRGB">
<feFlood flood-opacity="0" result="BackgroundImageFix"/>
<feColorMatrix in="SourceAlpha" type="matrix" values="0 0 0 0 0 0 0 0 0 0 0 0 0 0 0 0 0 0 127 0" result="hardAlpha"/>
<feOffset dx="3" dy="3"/>
<feGaussianBlur stdDeviation="2"/>
<feComposite in2="hardAlpha" operator="out"/>
<feColorMatrix type="matrix" values="0 0 0 0 0 0 0 0 0 0 0 0 0 0 0 0 0 0 0.15 0"/>
<feBlend mode="normal" in2="BackgroundImageFix" result="effect1_dropShadow_589_6065"/>
<feBlend mode="normal" in="SourceGraphic" in2="effect1_dropShadow_589_6065" result="shape"/>
</filter>
</defs>
</svg>
