<svg width="99" height="77" viewBox="0 0 99 77" fill="none" xmlns="http://www.w3.org/2000/svg">
<g filter="url(#filter0_d_724_2024)">
<rect x="1" y="1" width="91" height="69" rx="5" fill="#8FC0A9"/>
<path d="M31.0869 23.6719V45H27.4102L17.8447 29.7217V45H14.168V23.6719H17.8447L27.4395 38.9795V23.6719H31.0869ZM42.1025 45.293C40.9307 45.293 39.8711 45.1025 38.9238 44.7217C37.9863 44.3311 37.1855 43.7891 36.5215 43.0957C35.8672 42.4023 35.3643 41.5869 35.0127 40.6494C34.6611 39.7119 34.4854 38.7012 34.4854 37.6172V37.0312C34.4854 35.791 34.666 34.668 35.0273 33.6621C35.3887 32.6562 35.8916 31.7969 36.5361 31.084C37.1807 30.3613 37.9424 29.8096 38.8213 29.4287C39.7002 29.0479 40.6523 28.8574 41.6777 28.8574C42.8105 28.8574 43.8018 29.0479 44.6514 29.4287C45.501 29.8096 46.2041 30.3467 46.7607 31.04C47.3271 31.7236 47.7471 32.5391 48.0205 33.4863C48.3037 34.4336 48.4453 35.4785 48.4453 36.6211V38.1299H36.1992V35.5957H44.959V35.3174C44.9395 34.6826 44.8125 34.0869 44.5781 33.5303C44.3535 32.9736 44.0068 32.5244 43.5381 32.1826C43.0693 31.8408 42.4443 31.6699 41.6631 31.6699C41.0771 31.6699 40.5547 31.7969 40.0957 32.0508C39.6465 32.2949 39.2705 32.6514 38.9678 33.1201C38.665 33.5889 38.4307 34.1553 38.2646 34.8193C38.1084 35.4736 38.0303 36.2109 38.0303 37.0312V37.6172C38.0303 38.3105 38.123 38.9551 38.3086 39.5508C38.5039 40.1367 38.7871 40.6494 39.1582 41.0889C39.5293 41.5283 39.9785 41.875 40.5059 42.1289C41.0332 42.373 41.6338 42.4951 42.3076 42.4951C43.1572 42.4951 43.9141 42.3242 44.5781 41.9824C45.2422 41.6406 45.8184 41.1572 46.3066 40.5322L48.167 42.334C47.8252 42.832 47.3809 43.3105 46.834 43.7695C46.2871 44.2188 45.6182 44.585 44.8271 44.8682C44.0459 45.1514 43.1377 45.293 42.1025 45.293ZM53.8945 29.1504L56.9121 34.4092L59.9883 29.1504H63.8701L59.0654 36.9287L64.0605 45H60.1787L56.9561 39.5215L53.7334 45H49.8369L54.8174 36.9287L50.0273 29.1504H53.8945ZM73.5527 29.1504V31.7285H64.6172V29.1504H73.5527ZM67.1953 25.2686H70.7256V40.6201C70.7256 41.1084 70.7939 41.4844 70.9307 41.748C71.0771 42.002 71.2773 42.1729 71.5312 42.2607C71.7852 42.3486 72.083 42.3926 72.4248 42.3926C72.6689 42.3926 72.9033 42.3779 73.1279 42.3486C73.3525 42.3193 73.5332 42.29 73.6699 42.2607L73.6846 44.9561C73.3916 45.0439 73.0498 45.1221 72.6592 45.1904C72.2783 45.2588 71.8389 45.293 71.3408 45.293C70.5303 45.293 69.8125 45.1514 69.1875 44.8682C68.5625 44.5752 68.0742 44.1016 67.7227 43.4473C67.3711 42.793 67.1953 41.9238 67.1953 40.8398V25.2686Z" fill="white"/>
</g>
<defs>
<filter id="filter0_d_724_2024" x="0" y="0" width="99" height="77" filterUnits="userSpaceOnUse" color-interpolation-filters="sRGB">
<feFlood flood-opacity="0" result="BackgroundImageFix"/>
<feColorMatrix in="SourceAlpha" type="matrix" values="0 0 0 0 0 0 0 0 0 0 0 0 0 0 0 0 0 0 127 0" result="hardAlpha"/>
<feOffset dx="3" dy="3"/>
<feGaussianBlur stdDeviation="2"/>
<feComposite in2="hardAlpha" operator="out"/>
<feColorMatrix type="matrix" values="0 0 0 0 0 0 0 0 0 0 0 0 0 0 0 0 0 0 0.15 0"/>
<feBlend mode="normal" in2="BackgroundImageFix" result="effect1_dropShadow_724_2024"/>
<feBlend mode="normal" in="SourceGraphic" in2="effect1_dropShadow_724_2024" result="shape"/>
</filter>
</defs>
</svg>
