<svg width="99" height="77" viewBox="0 0 99 77" fill="none" xmlns="http://www.w3.org/2000/svg">
<g filter="url(#filter0_d_724_2082)">
<rect x="1" y="1" width="91" height="69" rx="5" fill="#8FC0A9"/>
<path d="M22.166 35.3613H16.7314L16.7021 32.6807H21.4482C22.249 32.6807 22.9277 32.5635 23.4844 32.3291C24.0508 32.085 24.4805 31.7383 24.7734 31.2891C25.0664 30.8301 25.2129 30.2783 25.2129 29.6338C25.2129 28.9209 25.0762 28.3398 24.8027 27.8906C24.5293 27.4414 24.1094 27.1143 23.543 26.9092C22.9863 26.7041 22.2734 26.6016 21.4043 26.6016H17.8447V45H14.168V23.6719H21.4043C22.5762 23.6719 23.6211 23.7842 24.5391 24.0088C25.4668 24.2334 26.2529 24.585 26.8975 25.0635C27.5518 25.5322 28.0449 26.1279 28.377 26.8506C28.7188 27.5732 28.8896 28.4326 28.8896 29.4287C28.8896 30.3076 28.6797 31.1133 28.2598 31.8457C27.8398 32.5684 27.2197 33.1592 26.3994 33.6182C25.5791 34.0771 24.5586 34.3506 23.3379 34.4385L22.166 35.3613ZM22.0049 45H15.5742L17.2295 42.085H22.0049C22.835 42.085 23.5283 41.9482 24.085 41.6748C24.6416 41.3916 25.0566 41.0059 25.3301 40.5176C25.6133 40.0195 25.7549 39.4385 25.7549 38.7744C25.7549 38.0811 25.6328 37.4805 25.3887 36.9727C25.1445 36.4551 24.7588 36.0596 24.2314 35.7861C23.7041 35.5029 23.0156 35.3613 22.166 35.3613H18.0352L18.0645 32.6807H23.4404L24.2754 33.6914C25.4473 33.7305 26.4092 33.9893 27.1611 34.4678C27.9229 34.9463 28.4893 35.5664 28.8604 36.3281C29.2314 37.0898 29.417 37.9102 29.417 38.7891C29.417 40.1465 29.1191 41.2842 28.5234 42.2021C27.9375 43.1201 27.0928 43.8184 25.9893 44.2969C24.8857 44.7656 23.5576 45 22.0049 45ZM41.707 41.8213V34.2627C41.707 33.6963 41.6045 33.208 41.3994 32.7979C41.1943 32.3877 40.8818 32.0703 40.4619 31.8457C40.0518 31.6211 39.5342 31.5088 38.9092 31.5088C38.333 31.5088 37.835 31.6064 37.415 31.8018C36.9951 31.9971 36.668 32.2607 36.4336 32.5928C36.1992 32.9248 36.082 33.3008 36.082 33.7207H32.5664C32.5664 33.0957 32.7178 32.4902 33.0205 31.9043C33.3232 31.3184 33.7627 30.7959 34.3389 30.3369C34.915 29.8779 35.6035 29.5166 36.4043 29.2529C37.2051 28.9893 38.1035 28.8574 39.0996 28.8574C40.291 28.8574 41.3457 29.0576 42.2637 29.458C43.1914 29.8584 43.9189 30.4639 44.4463 31.2744C44.9834 32.0752 45.252 33.0811 45.252 34.292V41.3379C45.252 42.0605 45.3008 42.71 45.3984 43.2861C45.5059 43.8525 45.6572 44.3457 45.8525 44.7656V45H42.2344C42.0684 44.6191 41.9365 44.1357 41.8389 43.5498C41.751 42.9541 41.707 42.3779 41.707 41.8213ZM42.2197 35.3613L42.249 37.5439H39.7148C39.0605 37.5439 38.4844 37.6074 37.9863 37.7344C37.4883 37.8516 37.0732 38.0273 36.7412 38.2617C36.4092 38.4961 36.1602 38.7793 35.9941 39.1113C35.8281 39.4434 35.7451 39.8193 35.7451 40.2393C35.7451 40.6592 35.8428 41.0449 36.0381 41.3965C36.2334 41.7383 36.5166 42.0068 36.8877 42.2021C37.2686 42.3975 37.7275 42.4951 38.2646 42.4951C38.9873 42.4951 39.6172 42.3486 40.1543 42.0557C40.7012 41.7529 41.1309 41.3867 41.4434 40.957C41.7559 40.5176 41.9219 40.1025 41.9414 39.7119L43.084 41.2793C42.9668 41.6797 42.7666 42.1094 42.4834 42.5684C42.2002 43.0273 41.8291 43.4668 41.3701 43.8867C40.9209 44.2969 40.3789 44.6338 39.7441 44.8975C39.1191 45.1611 38.3965 45.293 37.5762 45.293C36.541 45.293 35.6182 45.0879 34.8076 44.6777C33.9971 44.2578 33.3623 43.6963 32.9033 42.9932C32.4443 42.2803 32.2148 41.4746 32.2148 40.5762C32.2148 39.7363 32.3711 38.9941 32.6836 38.3496C33.0059 37.6953 33.4746 37.1484 34.0898 36.709C34.7148 36.2695 35.4766 35.9375 36.375 35.7129C37.2734 35.4785 38.2988 35.3613 39.4512 35.3613H42.2197ZM55.418 42.4805C55.9941 42.4805 56.5117 42.3682 56.9707 42.1436C57.4395 41.9092 57.8154 41.5869 58.0986 41.1768C58.3916 40.7666 58.5527 40.293 58.582 39.7559H61.9072C61.8877 40.7812 61.585 41.7139 60.999 42.5537C60.4131 43.3936 59.6367 44.0625 58.6699 44.5605C57.7031 45.0488 56.6338 45.293 55.4619 45.293C54.251 45.293 53.1963 45.0879 52.2979 44.6777C51.3994 44.2578 50.6523 43.6816 50.0566 42.9492C49.4609 42.2168 49.0117 41.3721 48.709 40.415C48.416 39.458 48.2695 38.4326 48.2695 37.3389V36.8262C48.2695 35.7324 48.416 34.707 48.709 33.75C49.0117 32.7832 49.4609 31.9336 50.0566 31.2012C50.6523 30.4688 51.3994 29.8975 52.2979 29.4873C53.1963 29.0674 54.2461 28.8574 55.4473 28.8574C56.7168 28.8574 57.8301 29.1113 58.7871 29.6191C59.7441 30.1172 60.4961 30.8154 61.043 31.7139C61.5996 32.6025 61.8877 33.6377 61.9072 34.8193H58.582C58.5527 34.2334 58.4062 33.7061 58.1426 33.2373C57.8887 32.7588 57.5273 32.3779 57.0586 32.0947C56.5996 31.8115 56.0479 31.6699 55.4033 31.6699C54.6904 31.6699 54.0996 31.8164 53.6309 32.1094C53.1621 32.3926 52.7959 32.7832 52.5322 33.2812C52.2686 33.7695 52.0781 34.3213 51.9609 34.9365C51.8535 35.542 51.7998 36.1719 51.7998 36.8262V37.3389C51.7998 37.9932 51.8535 38.6279 51.9609 39.2432C52.0684 39.8584 52.2539 40.4102 52.5176 40.8984C52.791 41.377 53.1621 41.7627 53.6309 42.0557C54.0996 42.3389 54.6953 42.4805 55.418 42.4805ZM68.1768 22.5V45H64.6318V22.5H68.1768ZM78.0205 29.1504L71.1211 36.7969L67.3418 40.6641L66.4189 37.6758L69.2754 34.1455L73.7578 29.1504H78.0205ZM74.5195 45L69.3779 37.5586L71.6045 35.083L78.6064 45H74.5195Z" fill="white"/>
</g>
<defs>
<filter id="filter0_d_724_2082" x="0" y="0" width="99" height="77" filterUnits="userSpaceOnUse" color-interpolation-filters="sRGB">
<feFlood flood-opacity="0" result="BackgroundImageFix"/>
<feColorMatrix in="SourceAlpha" type="matrix" values="0 0 0 0 0 0 0 0 0 0 0 0 0 0 0 0 0 0 127 0" result="hardAlpha"/>
<feOffset dx="3" dy="3"/>
<feGaussianBlur stdDeviation="2"/>
<feComposite in2="hardAlpha" operator="out"/>
<feColorMatrix type="matrix" values="0 0 0 0 0 0 0 0 0 0 0 0 0 0 0 0 0 0 0.15 0"/>
<feBlend mode="normal" in2="BackgroundImageFix" result="effect1_dropShadow_724_2082"/>
<feBlend mode="normal" in="SourceGraphic" in2="effect1_dropShadow_724_2082" result="shape"/>
</filter>
</defs>
</svg>
