<svg width="64" height="61" viewBox="0 0 64 61" fill="none" xmlns="http://www.w3.org/2000/svg">
<g filter="url(#filter0_d_746_2210)">
<path d="M1 6C1 3.23858 3.23858 1 6 1H52C54.7614 1 57 3.23858 57 6V49C57 51.7614 54.7614 54 52 54H6C3.23858 54 1 51.7614 1 49V6Z" fill="#8FC0A9"/>
<path d="M14 22.6167V32.6167H20.6667L29 40.95V14.2833L20.6667 22.6167H14ZM36.5 27.6167C36.5 24.6667 34.8 22.1333 32.3333 20.9V34.3167C34.8 33.1 36.5 30.5667 36.5 27.6167ZM32.3333 13V16.4333C37.15 17.8667 40.6667 22.3333 40.6667 27.6167C40.6667 32.9 37.15 37.3667 32.3333 38.8V42.2333C39.0167 40.7167 44 34.75 44 27.6167C44 20.4833 39.0167 14.5167 32.3333 13V13Z" fill="white"/>
</g>
<defs>
<filter id="filter0_d_746_2210" x="0" y="0" width="64" height="61" filterUnits="userSpaceOnUse" color-interpolation-filters="sRGB">
<feFlood flood-opacity="0" result="BackgroundImageFix"/>
<feColorMatrix in="SourceAlpha" type="matrix" values="0 0 0 0 0 0 0 0 0 0 0 0 0 0 0 0 0 0 127 0" result="hardAlpha"/>
<feOffset dx="3" dy="3"/>
<feGaussianBlur stdDeviation="2"/>
<feComposite in2="hardAlpha" operator="out"/>
<feColorMatrix type="matrix" values="0 0 0 0 0 0 0 0 0 0 0 0 0 0 0 0 0 0 0.15 0"/>
<feBlend mode="normal" in2="BackgroundImageFix" result="effect1_dropShadow_746_2210"/>
<feBlend mode="normal" in="SourceGraphic" in2="effect1_dropShadow_746_2210" result="shape"/>
</filter>
</defs>
</svg>
