<svg width="196" height="196" viewBox="0 0 196 196" fill="none" xmlns="http://www.w3.org/2000/svg">
<path d="M185.466 51.3696C184.706 50.6042 183.803 49.9966 182.808 49.582C181.813 49.1674 180.745 48.9539 179.667 48.9539C178.589 48.9539 177.522 49.1674 176.527 49.582C175.531 49.9966 174.628 50.6042 173.869 51.3696L163.334 61.9863V16.3346C163.334 14.1687 162.474 12.0915 160.942 10.5599C159.41 9.02838 157.333 8.16797 155.167 8.16797C153.001 8.16797 150.924 9.02838 149.393 10.5599C147.861 12.0915 147.001 14.1687 147.001 16.3346V61.9863L136.466 51.3696C134.928 49.8318 132.842 48.9679 130.667 48.9679C128.493 48.9679 126.407 49.8318 124.869 51.3696C123.331 52.9075 122.467 54.9932 122.467 57.168C122.467 59.3428 123.331 61.4285 124.869 62.9663L149.369 87.4663C150.146 88.2098 151.062 88.7926 152.064 89.1813C153.042 89.6134 154.099 89.8365 155.167 89.8365C156.236 89.8365 157.293 89.6134 158.271 89.1813C159.273 88.7926 160.189 88.2098 160.966 87.4663L185.466 62.9663C186.231 62.2071 186.839 61.3039 187.253 60.3087C187.668 59.3135 187.881 58.2461 187.881 57.168C187.881 56.0899 187.668 55.0224 187.253 54.0273C186.839 53.0321 186.231 52.1288 185.466 51.3696ZM155.167 106.168C153.001 106.168 150.924 107.028 149.393 108.56C147.861 110.091 147.001 112.169 147.001 114.335V117.438L134.914 105.351C130.646 101.117 124.878 98.7414 118.866 98.7414C112.855 98.7414 107.087 101.117 102.819 105.351L97.1023 111.068L76.849 90.8146C72.5216 86.6954 66.7759 84.398 60.8015 84.398C54.827 84.398 49.0813 86.6954 44.754 90.8146L32.6673 102.901V57.168C32.6673 55.002 33.5277 52.9248 35.0593 51.3933C36.5908 49.8617 38.6681 49.0013 40.834 49.0013H106.167C108.333 49.0013 110.41 48.1409 111.942 46.6093C113.474 45.0778 114.334 43.0006 114.334 40.8346C114.334 38.6687 113.474 36.5915 111.942 35.0599C110.41 33.5284 108.333 32.668 106.167 32.668H40.834C34.3362 32.668 28.1045 35.2492 23.5099 39.8439C18.9152 44.4385 16.334 50.6702 16.334 57.168V155.168C16.334 161.666 18.9152 167.897 23.5099 172.492C28.1045 177.087 34.3362 179.668 40.834 179.668H138.834C145.332 179.668 151.563 177.087 156.158 172.492C160.753 167.897 163.334 161.666 163.334 155.168V114.335C163.334 112.169 162.474 110.091 160.942 108.56C159.41 107.028 157.333 106.168 155.167 106.168ZM40.834 163.335C38.6681 163.335 36.5908 162.474 35.0593 160.943C33.5277 159.411 32.6673 157.334 32.6673 155.168V126.013L56.3507 102.33C57.5504 101.186 59.1442 100.549 60.8015 100.549C62.4588 100.549 64.0525 101.186 65.2523 102.33L91.1407 128.218L126.257 163.335H40.834ZM147.001 155.168C146.989 156.731 146.473 158.249 145.531 159.496L108.699 122.501L114.416 116.785C115.001 116.187 115.7 115.712 116.471 115.388C117.243 115.064 118.071 114.897 118.907 114.897C119.744 114.897 120.572 115.064 121.343 115.388C122.115 115.712 122.813 116.187 123.399 116.785L147.001 140.55V155.168Z" fill="black"/>
</svg>
