<svg width="94" height="157" viewBox="0 0 94 157" fill="none" xmlns="http://www.w3.org/2000/svg">
<path d="M75.4375 0.125H18.4375C13.7133 0.125 9.18265 2.00167 5.84216 5.34216C2.50167 8.68265 0.625 13.2133 0.625 17.9375V139.062C0.625 143.787 2.50167 148.317 5.84216 151.658C9.18265 154.998 13.7133 156.875 18.4375 156.875H75.4375C80.1617 156.875 84.6923 154.998 88.0328 151.658C91.3733 148.317 93.25 143.787 93.25 139.062V17.9375C93.25 13.2133 91.3733 8.68265 88.0328 5.34216C84.6923 2.00167 80.1617 0.125 75.4375 0.125V0.125ZM46.9375 149.75C41.0238 149.75 36.25 144.976 36.25 139.062C36.25 133.149 41.0238 128.375 46.9375 128.375C52.8512 128.375 57.625 133.149 57.625 139.062C57.625 144.976 52.8512 149.75 46.9375 149.75ZM79 121.25H14.875V21.5H79V121.25Z" fill="black"/>
</svg>
