<svg width="172" height="172" viewBox="0 0 172 172" fill="none" xmlns="http://www.w3.org/2000/svg">
<path d="M169.466 43.3696C168.706 42.6042 167.803 41.9966 166.808 41.582C165.813 41.1674 164.745 40.954 163.667 40.954C162.589 40.954 161.522 41.1674 160.527 41.582C159.531 41.9966 158.628 42.6042 157.869 43.3696L147.334 53.9863V8.33464C147.334 6.1687 146.474 4.09148 144.942 2.55993C143.41 1.02838 141.333 0.167969 139.167 0.167969C137.001 0.167969 134.924 1.02838 133.393 2.55993C131.861 4.09148 131.001 6.1687 131.001 8.33464V53.9863L120.466 43.3696C118.928 41.8318 116.842 40.9679 114.667 40.9679C112.493 40.9679 110.407 41.8318 108.869 43.3696C107.331 44.9075 106.467 46.9932 106.467 49.168C106.467 51.3428 107.331 53.4285 108.869 54.9663L133.369 79.4663C134.146 80.2098 135.062 80.7926 136.064 81.1813C137.042 81.6134 138.099 81.8365 139.167 81.8365C140.236 81.8365 141.293 81.6134 142.271 81.1813C143.273 80.7926 144.189 80.2098 144.966 79.4663L169.466 54.9663C170.231 54.2071 170.839 53.3039 171.253 52.3087C171.668 51.3135 171.881 50.2461 171.881 49.168C171.881 48.0899 171.668 47.0224 171.253 46.0273C170.839 45.0321 170.231 44.1288 169.466 43.3696V43.3696ZM139.167 98.168C137.001 98.168 134.924 99.0284 133.393 100.56C131.861 102.091 131.001 104.169 131.001 106.335V109.438L118.914 97.3513C114.646 93.1173 108.878 90.7414 102.866 90.7414C96.8548 90.7414 91.0867 93.1173 86.819 97.3513L81.1023 103.068L60.849 82.8146C56.5216 78.6954 50.7759 76.398 44.8015 76.398C38.827 76.398 33.0813 78.6954 28.754 82.8146L16.6673 94.9013V49.168C16.6673 47.002 17.5277 44.9248 19.0593 43.3933C20.5908 41.8617 22.6681 41.0013 24.834 41.0013H90.1673C92.3333 41.0013 94.4105 40.1409 95.942 38.6093C97.4736 37.0778 98.334 35.0006 98.334 32.8346C98.334 30.6687 97.4736 28.5915 95.942 27.0599C94.4105 25.5284 92.3333 24.668 90.1673 24.668H24.834C18.3362 24.668 12.1045 27.2492 7.50987 31.8439C2.91523 36.4385 0.333984 42.6702 0.333984 49.168V147.168C0.333984 153.666 2.91523 159.897 7.50987 164.492C12.1045 169.087 18.3362 171.668 24.834 171.668H122.834C129.332 171.668 135.563 169.087 140.158 164.492C144.753 159.897 147.334 153.666 147.334 147.168V106.335C147.334 104.169 146.474 102.091 144.942 100.56C143.41 99.0284 141.333 98.168 139.167 98.168ZM24.834 155.335C22.6681 155.335 20.5908 154.474 19.0593 152.943C17.5277 151.411 16.6673 149.334 16.6673 147.168V118.013L40.3507 94.3296C41.5504 93.1863 43.1442 92.5485 44.8015 92.5485C46.4588 92.5485 48.0525 93.1863 49.2523 94.3296L75.1407 120.218L110.257 155.335H24.834ZM131.001 147.168C130.989 148.731 130.473 150.249 129.531 151.496L92.699 114.501L98.4157 108.785C99.0012 108.187 99.7 107.712 100.471 107.388C101.243 107.064 102.071 106.897 102.907 106.897C103.744 106.897 104.572 107.064 105.343 107.388C106.115 107.712 106.813 108.187 107.399 108.785L131.001 132.55V147.168Z" fill="black"/>
</svg>
