<svg width="125" height="77" viewBox="0 0 125 77" fill="none" xmlns="http://www.w3.org/2000/svg">
<g filter="url(#filter0_d_829_2283)">
<rect x="1" y="1" width="117" height="69" rx="5" fill="#8FC0A9"/>
<path d="M47.3581 23.6719V45H43.6814L34.1159 29.7217V45H30.4392V23.6719H34.1159L43.7107 38.9795V23.6719H47.3581ZM58.3737 45.293C57.2019 45.293 56.1423 45.1025 55.195 44.7217C54.2575 44.3311 53.4568 43.7891 52.7927 43.0957C52.1384 42.4023 51.6355 41.5869 51.2839 40.6494C50.9323 39.7119 50.7566 38.7012 50.7566 37.6172V37.0312C50.7566 35.791 50.9372 34.668 51.2985 33.6621C51.6599 32.6562 52.1628 31.7969 52.8073 31.084C53.4519 30.3613 54.2136 29.8096 55.0925 29.4287C55.9714 29.0479 56.9235 28.8574 57.9489 28.8574C59.0818 28.8574 60.073 29.0479 60.9226 29.4287C61.7722 29.8096 62.4753 30.3467 63.0319 31.04C63.5984 31.7236 64.0183 32.5391 64.2917 33.4863C64.5749 34.4336 64.7165 35.4785 64.7165 36.6211V38.1299H52.4704V35.5957H61.2302V35.3174C61.2107 34.6826 61.0837 34.0869 60.8493 33.5303C60.6247 32.9736 60.278 32.5244 59.8093 32.1826C59.3405 31.8408 58.7155 31.6699 57.9343 31.6699C57.3484 31.6699 56.8259 31.7969 56.3669 32.0508C55.9177 32.2949 55.5417 32.6514 55.239 33.1201C54.9362 33.5889 54.7019 34.1553 54.5359 34.8193C54.3796 35.4736 54.3015 36.2109 54.3015 37.0312V37.6172C54.3015 38.3105 54.3943 38.9551 54.5798 39.5508C54.7751 40.1367 55.0583 40.6494 55.4294 41.0889C55.8005 41.5283 56.2497 41.875 56.7771 42.1289C57.3044 42.373 57.905 42.4951 58.5788 42.4951C59.4284 42.4951 60.1853 42.3242 60.8493 41.9824C61.5134 41.6406 62.0896 41.1572 62.5778 40.5322L64.4382 42.334C64.0964 42.832 63.6521 43.3105 63.1052 43.7695C62.5583 44.2188 61.8894 44.585 61.0984 44.8682C60.3171 45.1514 59.4089 45.293 58.3737 45.293ZM70.1657 29.1504L73.1833 34.4092L76.2595 29.1504H80.1413L75.3366 36.9287L80.3318 45H76.4499L73.2273 39.5215L70.0046 45H66.1081L71.0886 36.9287L66.2985 29.1504H70.1657ZM89.8239 29.1504V31.7285H80.8884V29.1504H89.8239ZM83.4665 25.2686H86.9968V40.6201C86.9968 41.1084 87.0652 41.4844 87.2019 41.748C87.3484 42.002 87.5486 42.1729 87.8025 42.2607C88.0564 42.3486 88.3542 42.3926 88.696 42.3926C88.9402 42.3926 89.1745 42.3779 89.3991 42.3486C89.6237 42.3193 89.8044 42.29 89.9411 42.2607L89.9558 44.9561C89.6628 45.0439 89.321 45.1221 88.9304 45.1904C88.5495 45.2588 88.1101 45.293 87.612 45.293C86.8015 45.293 86.0837 45.1514 85.4587 44.8682C84.8337 44.5752 84.3454 44.1016 83.9939 43.4473C83.6423 42.793 83.4665 41.9238 83.4665 40.8398V25.2686Z" fill="white"/>
</g>
<defs>
<filter id="filter0_d_829_2283" x="0" y="0" width="125" height="77" filterUnits="userSpaceOnUse" color-interpolation-filters="sRGB">
<feFlood flood-opacity="0" result="BackgroundImageFix"/>
<feColorMatrix in="SourceAlpha" type="matrix" values="0 0 0 0 0 0 0 0 0 0 0 0 0 0 0 0 0 0 127 0" result="hardAlpha"/>
<feOffset dx="3" dy="3"/>
<feGaussianBlur stdDeviation="2"/>
<feComposite in2="hardAlpha" operator="out"/>
<feColorMatrix type="matrix" values="0 0 0 0 0 0 0 0 0 0 0 0 0 0 0 0 0 0 0.15 0"/>
<feBlend mode="normal" in2="BackgroundImageFix" result="effect1_dropShadow_829_2283"/>
<feBlend mode="normal" in="SourceGraphic" in2="effect1_dropShadow_829_2283" result="shape"/>
</filter>
</defs>
</svg>
