<svg width="16" height="16" viewBox="0 0 16 16" fill="none" xmlns="http://www.w3.org/2000/svg">
<path d="M0.874649 0.872696C0.973346 0.773749 1.09059 0.695245 1.21968 0.641681C1.34876 0.588117 1.48714 0.560547 1.6269 0.560547C1.76665 0.560547 1.90504 0.588117 2.03412 0.641681C2.1632 0.695245 2.28045 0.773749 2.37915 0.872696L8.0019 6.49757L13.6246 0.872696C13.7234 0.773909 13.8407 0.695546 13.9698 0.642083C14.0989 0.58862 14.2372 0.561103 14.3769 0.561103C14.5166 0.561103 14.6549 0.58862 14.784 0.642083C14.9131 0.695546 15.0304 0.773909 15.1291 0.872696C15.2279 0.971482 15.3063 1.08876 15.3598 1.21783C15.4132 1.3469 15.4407 1.48524 15.4407 1.62495C15.4407 1.76465 15.4132 1.90299 15.3598 2.03206C15.3063 2.16113 15.2279 2.27841 15.1291 2.3772L9.50427 7.99995L15.1291 13.6227C15.2279 13.7215 15.3063 13.8388 15.3598 13.9678C15.4132 14.0969 15.4407 14.2352 15.4407 14.3749C15.4407 14.5147 15.4132 14.653 15.3598 14.7821C15.3063 14.9111 15.2279 15.0284 15.1291 15.1272C15.0304 15.226 14.9131 15.3043 14.784 15.3578C14.6549 15.4113 14.5166 15.4388 14.3769 15.4388C14.2372 15.4388 14.0989 15.4113 13.9698 15.3578C13.8407 15.3043 13.7234 15.226 13.6246 15.1272L8.0019 9.50232L2.37915 15.1272C2.28036 15.226 2.16309 15.3043 2.03401 15.3578C1.90494 15.4113 1.7666 15.4388 1.6269 15.4388C1.48719 15.4388 1.34885 15.4113 1.21978 15.3578C1.09071 15.3043 0.973436 15.226 0.874649 15.1272C0.775862 15.0284 0.6975 14.9111 0.644037 14.7821C0.590573 14.653 0.563056 14.5147 0.563056 14.3749C0.563056 14.2352 0.590573 14.0969 0.644037 13.9678C0.6975 13.8388 0.775862 13.7215 0.874649 13.6227L6.49952 7.99995L0.874649 2.3772C0.775702 2.2785 0.697198 2.16125 0.643634 2.03217C0.590071 1.90308 0.5625 1.7647 0.5625 1.62495C0.5625 1.48519 0.590071 1.34681 0.643634 1.21772C0.697198 1.08864 0.775702 0.971393 0.874649 0.872696Z" fill="white" fill-opacity="0.47"/>
</svg>
