<svg width="57" height="32" viewBox="0 0 57 32" fill="none" xmlns="http://www.w3.org/2000/svg">
<g filter="url(#filter0_f_76_199)">
<path d="M18.1279 24.085V27H6.80469V24.085H18.1279ZM7.84473 5.67188V27H4.16797V5.67188H7.84473ZM16.6484 14.5781V17.4492H6.80469V14.5781H16.6484ZM18.0547 5.67188V8.60156H6.80469V5.67188H18.0547ZM30.1543 23.7188V4.5H33.6992V27H30.4912L30.1543 23.7188ZM19.8418 19.251V18.9434C19.8418 17.7422 19.9834 16.6484 20.2666 15.6621C20.5498 14.666 20.96 13.8115 21.4971 13.0986C22.0342 12.376 22.6885 11.8242 23.46 11.4434C24.2314 11.0527 25.1006 10.8574 26.0674 10.8574C27.0244 10.8574 27.8643 11.043 28.5869 11.4141C29.3096 11.7852 29.9248 12.3174 30.4326 13.0107C30.9404 13.6943 31.3457 14.5146 31.6484 15.4717C31.9512 16.4189 32.166 17.4736 32.293 18.6357V19.6172C32.166 20.75 31.9512 21.7852 31.6484 22.7227C31.3457 23.6602 30.9404 24.4707 30.4326 25.1543C29.9248 25.8379 29.3047 26.3652 28.5723 26.7363C27.8496 27.1074 27.0049 27.293 26.0381 27.293C25.0811 27.293 24.2168 27.0928 23.4453 26.6924C22.6836 26.292 22.0342 25.7305 21.4971 25.0078C20.96 24.2852 20.5498 23.4355 20.2666 22.459C19.9834 21.4727 19.8418 20.4033 19.8418 19.251ZM23.3721 18.9434V19.251C23.3721 19.9736 23.4355 20.6475 23.5625 21.2725C23.6992 21.8975 23.9092 22.4492 24.1924 22.9277C24.4756 23.3965 24.8418 23.7676 25.291 24.041C25.75 24.3047 26.2969 24.4365 26.9316 24.4365C27.7324 24.4365 28.3916 24.2607 28.9092 23.9092C29.4268 23.5576 29.832 23.084 30.125 22.4883C30.4277 21.8828 30.6328 21.209 30.7402 20.4668V17.8154C30.6816 17.2393 30.5596 16.7021 30.374 16.2041C30.1982 15.7061 29.959 15.2715 29.6562 14.9004C29.3535 14.5195 28.9775 14.2266 28.5283 14.0215C28.0889 13.8066 27.5664 13.6992 26.9609 13.6992C26.3164 13.6992 25.7695 13.8359 25.3203 14.1094C24.8711 14.3828 24.5 14.7588 24.207 15.2373C23.9238 15.7158 23.7139 16.2725 23.5771 16.9072C23.4404 17.542 23.3721 18.2207 23.3721 18.9434ZM41.1699 11.1504V27H37.625V11.1504H41.1699ZM37.3906 6.99023C37.3906 6.45312 37.5664 6.00879 37.918 5.65723C38.2793 5.2959 38.7773 5.11523 39.4121 5.11523C40.0371 5.11523 40.5303 5.2959 40.8916 5.65723C41.2529 6.00879 41.4336 6.45312 41.4336 6.99023C41.4336 7.51758 41.2529 7.95703 40.8916 8.30859C40.5303 8.66016 40.0371 8.83594 39.4121 8.83594C38.7773 8.83594 38.2793 8.66016 37.918 8.30859C37.5664 7.95703 37.3906 7.51758 37.3906 6.99023ZM52.3027 11.1504V13.7285H43.3672V11.1504H52.3027ZM45.9453 7.26855H49.4756V22.6201C49.4756 23.1084 49.5439 23.4844 49.6807 23.748C49.8271 24.002 50.0273 24.1729 50.2812 24.2607C50.5352 24.3486 50.833 24.3926 51.1748 24.3926C51.4189 24.3926 51.6533 24.3779 51.8779 24.3486C52.1025 24.3193 52.2832 24.29 52.4199 24.2607L52.4346 26.9561C52.1416 27.0439 51.7998 27.1221 51.4092 27.1904C51.0283 27.2588 50.5889 27.293 50.0908 27.293C49.2803 27.293 48.5625 27.1514 47.9375 26.8682C47.3125 26.5752 46.8242 26.1016 46.4727 25.4473C46.1211 24.793 45.9453 23.9238 45.9453 22.8398V7.26855Z" fill="#8FC0A9"/>
</g>
<defs>
<filter id="filter0_f_76_199" x="0.167969" y="0.5" width="56.2666" height="30.793" filterUnits="userSpaceOnUse" color-interpolation-filters="sRGB">
<feFlood flood-opacity="0" result="BackgroundImageFix"/>
<feBlend mode="normal" in="SourceGraphic" in2="BackgroundImageFix" result="shape"/>
<feGaussianBlur stdDeviation="2" result="effect1_foregroundBlur_76_199"/>
</filter>
</defs>
</svg>
