<svg width="689" height="227" viewBox="0 0 689 227" fill="none" xmlns="http://www.w3.org/2000/svg">
<g filter="url(#filter0_f_76_198)">
<path d="M4.38428 31V28.8467L7.16992 28.3682V8.76611L4.38428 8.2876V6.11719H23.0977V12.0986H20.3975L20.0215 8.73193H10.5366V17.3452H19.6455V19.9941H10.5366V28.3682L13.3223 28.8467V31H4.38428ZM33.4883 31.3589C31.4831 31.3589 29.9165 30.7152 28.7886 29.4277C27.6606 28.1403 27.0967 26.1351 27.0967 23.4121V15.1577L24.9775 14.6792V12.5088H27.0967H30.4634V23.4463C30.4634 25.4173 30.7539 26.7731 31.335 27.5137C31.916 28.2542 32.8218 28.6245 34.0522 28.6245C35.2485 28.6245 36.234 28.3853 37.0088 27.9067C37.7949 27.4168 38.3874 26.7275 38.7861 25.8389V15.1577L36.3081 14.6792V12.5088H38.7861H42.1528V28.3682L44.272 28.8467V31H39.1279L38.9058 28.2656C38.3247 29.2568 37.5728 30.0202 36.6499 30.5557C35.7384 31.0911 34.6846 31.3589 33.4883 31.3589ZM46.4766 31V28.8467L49.2622 28.3682V6.98877L46.4766 6.51025V4.33984H52.6289V28.3682L55.4146 28.8467V31H46.4766ZM57.6533 31V28.8467L60.439 28.3682V6.98877L57.6533 6.51025V4.33984H63.8057V28.3682L66.5913 28.8467V31H57.6533ZM77.8706 31V28.8467L80.6562 28.3682V8.76611L77.8706 8.2876V6.11719H80.6562H84.0571L96.2593 25.5142L96.3618 25.48V8.76611L93.3027 8.2876V6.11719H99.4551H102.241V8.2876L99.4551 8.76611V31H96.3789L83.8521 11.5005L83.7495 11.5347V28.3682L86.8086 28.8467V31H77.8706ZM110.905 31.3589C108.98 31.3589 107.516 30.8918 106.513 29.9575C105.511 29.0119 105.009 27.6846 105.009 25.9756C105.009 24.8021 105.328 23.7824 105.966 22.9165C106.616 22.0392 107.55 21.3613 108.769 20.8828C109.988 20.3929 111.446 20.1479 113.144 20.1479H116.442V18.3364C116.442 17.2199 116.101 16.354 115.417 15.7388C114.745 15.1235 113.793 14.8159 112.563 14.8159C111.788 14.8159 111.116 14.9128 110.546 15.1064C109.977 15.2887 109.458 15.5451 108.991 15.8755L108.632 18.4561H106.035V14.2178C106.866 13.5456 107.835 13.0386 108.94 12.6968C110.045 12.3436 111.27 12.167 112.614 12.167C114.859 12.167 116.619 12.7025 117.895 13.7734C119.171 14.8444 119.809 16.3768 119.809 18.3706V27.2744C119.809 27.5137 119.809 27.7472 119.809 27.9751C119.82 28.203 119.838 28.4308 119.86 28.6587L121.655 28.8467V31H116.818C116.716 30.4987 116.636 30.0487 116.579 29.6499C116.522 29.2511 116.482 28.8524 116.459 28.4536C115.81 29.2853 114.995 29.9803 114.016 30.5386C113.047 31.0854 112.01 31.3589 110.905 31.3589ZM111.401 28.5391C112.517 28.5391 113.537 28.2713 114.46 27.7358C115.383 27.2004 116.044 26.5566 116.442 25.8047V22.4551H113.024C111.475 22.4551 110.313 22.8254 109.538 23.5659C108.763 24.3065 108.376 25.1325 108.376 26.0439C108.376 26.8529 108.627 27.4738 109.128 27.9067C109.629 28.3283 110.387 28.5391 111.401 28.5391ZM124.27 31V28.8467L127.055 28.3682V15.1577L124.27 14.6792V12.5088H130.08L130.302 14.9185C130.895 14.0412 131.658 13.3633 132.592 12.8848C133.527 12.4062 134.609 12.167 135.839 12.167C137.07 12.167 138.124 12.4518 139.001 13.0215C139.89 13.5911 140.556 14.4456 141 15.585C141.582 14.5368 142.351 13.7051 143.308 13.0898C144.265 12.4746 145.381 12.167 146.657 12.167C148.549 12.167 150.041 12.8164 151.135 14.1152C152.229 15.4027 152.775 17.3452 152.775 19.9429V28.3682L155.561 28.8467V31H146.606V28.8467L149.392 28.3682V19.9087C149.392 18.0858 149.078 16.7983 148.452 16.0464C147.825 15.283 146.896 14.9014 145.666 14.9014C144.493 14.9014 143.547 15.3172 142.829 16.1489C142.123 16.9692 141.713 18.006 141.599 19.2593V28.3682L144.384 28.8467V31H135.446V28.8467L138.232 28.3682V19.9087C138.232 18.1769 137.907 16.9123 137.258 16.1147C136.62 15.3058 135.691 14.9014 134.472 14.9014C133.447 14.9014 132.604 15.1121 131.943 15.5337C131.282 15.9552 130.775 16.5477 130.422 17.311V28.3682L133.208 28.8467V31H124.27ZM166.225 31.3589C164.516 31.3589 163.029 30.9715 161.765 30.1968C160.5 29.4106 159.52 28.3226 158.825 26.9326C158.142 25.5426 157.8 23.9362 157.8 22.1133V21.3613C157.8 19.6068 158.159 18.0402 158.876 16.6616C159.606 15.2716 160.568 14.1779 161.765 13.3804C162.972 12.5715 164.288 12.167 165.712 12.167C167.376 12.167 168.766 12.5088 169.882 13.1924C171.01 13.876 171.859 14.8387 172.429 16.0806C172.998 17.311 173.283 18.7637 173.283 20.4385V22.5405H161.286L161.235 22.626C161.258 23.8109 161.463 24.8647 161.85 25.7876C162.249 26.6991 162.819 27.4168 163.559 27.9409C164.3 28.465 165.188 28.7271 166.225 28.7271C167.364 28.7271 168.361 28.5675 169.216 28.2485C170.082 27.9181 170.828 27.4681 171.455 26.8984L172.771 29.0859C172.11 29.724 171.232 30.2651 170.139 30.7095C169.056 31.1424 167.752 31.3589 166.225 31.3589ZM161.389 19.9087H169.917V19.4644C169.917 18.5757 169.757 17.7839 169.438 17.0889C169.13 16.3825 168.663 15.8299 168.037 15.4312C167.421 15.021 166.647 14.8159 165.712 14.8159C164.96 14.8159 164.277 15.0381 163.662 15.4824C163.046 15.9154 162.539 16.5078 162.141 17.2598C161.742 18.0117 161.48 18.8662 161.354 19.8232L161.389 19.9087ZM177.128 31V27.5479H180.495V31H177.128ZM177.128 15.9609V12.5088H180.495V15.9609H177.128ZM4.38428 77V74.8467L7.16992 74.3682V54.7661L4.38428 54.2876V52.1172H13.3223V54.2876L10.5366 54.7661V63.3623H22.4312V54.7661L19.6455 54.2876V52.1172H22.4312H25.7979H28.5835V54.2876L25.7979 54.7661V74.3682L28.5835 74.8467V77H19.6455V74.8467L22.4312 74.3682V66.0112H10.5366V74.3682L13.3223 74.8467V77H4.38428ZM39.5894 77.3589C37.8804 77.3589 36.4049 76.9601 35.1631 76.1626C33.9326 75.3537 32.9813 74.2428 32.3091 72.8301C31.6369 71.4059 31.3008 69.7824 31.3008 67.9595V67.5835C31.3008 65.7606 31.6369 64.1427 32.3091 62.73C32.9813 61.3058 33.9326 60.1893 35.1631 59.3804C36.4049 58.5715 37.869 58.167 39.5552 58.167C41.2642 58.167 42.7339 58.5715 43.9644 59.3804C45.2062 60.1893 46.1632 61.3001 46.8354 62.7129C47.5076 64.1257 47.8438 65.7492 47.8438 67.5835V67.9595C47.8438 69.7938 47.5076 71.423 46.8354 72.8472C46.1632 74.2599 45.2119 75.3651 43.9814 76.1626C42.751 76.9601 41.2869 77.3589 39.5894 77.3589ZM39.5894 74.7271C40.6603 74.7271 41.5547 74.4365 42.2725 73.8555C43.0016 73.263 43.5485 72.4598 43.9131 71.4458C44.2891 70.4204 44.4771 69.2583 44.4771 67.9595V67.5835C44.4771 66.2847 44.2891 65.1283 43.9131 64.1143C43.5485 63.0889 43.0016 62.2856 42.2725 61.7046C41.5433 61.1121 40.6375 60.8159 39.5552 60.8159C38.4842 60.8159 37.5841 61.1121 36.855 61.7046C36.1258 62.2856 35.5789 63.0889 35.2144 64.1143C34.8498 65.1283 34.6675 66.2847 34.6675 67.5835V67.9595C34.6675 69.2583 34.8498 70.4204 35.2144 71.4458C35.5789 72.4598 36.1258 73.263 36.855 73.8555C37.5955 74.4365 38.507 74.7271 39.5894 74.7271ZM58.5762 77.3589C56.571 77.3589 55.0044 76.7152 53.8765 75.4277C52.7485 74.1403 52.1846 72.1351 52.1846 69.4121V61.1577L50.0654 60.6792V58.5088H52.1846H55.5513V69.4463C55.5513 71.4173 55.8418 72.7731 56.4229 73.5137C57.0039 74.2542 57.9097 74.6245 59.1401 74.6245C60.3364 74.6245 61.3219 74.3853 62.0967 73.9067C62.8828 73.4168 63.4753 72.7275 63.874 71.8389V61.1577L61.396 60.6792V58.5088H63.874H67.2407V74.3682L69.3599 74.8467V77H64.2158L63.9937 74.2656C63.4126 75.2568 62.6606 76.0202 61.7378 76.5557C60.8263 77.0911 59.7725 77.3589 58.5762 77.3589ZM79.2207 77.3589C77.9788 77.3589 76.8167 77.2336 75.7344 76.9829C74.652 76.7323 73.5013 76.3449 72.2822 75.8208L72.248 71.4287H74.7944L75.4268 74.0776C76.0648 74.3397 76.68 74.5334 77.2725 74.6587C77.8763 74.7726 78.5257 74.8296 79.2207 74.8296C80.5879 74.8296 81.5677 74.5675 82.1602 74.0435C82.7526 73.5194 83.0488 72.87 83.0488 72.0952C83.0488 71.366 82.7469 70.7508 82.1431 70.2495C81.5506 69.7368 80.4683 69.3039 78.896 68.9507C76.6629 68.438 75.0166 67.7544 73.957 66.8999C72.9089 66.034 72.3848 64.8833 72.3848 63.4478C72.3848 62.4451 72.6753 61.5508 73.2563 60.7646C73.8374 59.9671 74.6463 59.3348 75.6831 58.8677C76.7199 58.4006 77.9276 58.167 79.3062 58.167C80.7075 58.167 81.9038 58.3265 82.895 58.6455C83.8976 58.9645 84.7692 59.3918 85.5098 59.9272L85.6807 64.1484H83.1514L82.6045 61.6875C82.2057 61.3913 81.7329 61.1634 81.186 61.0039C80.6392 60.8444 80.0125 60.7646 79.3062 60.7646C78.258 60.7646 77.4035 61.0096 76.7427 61.4995C76.0933 61.9894 75.7686 62.6047 75.7686 63.3452C75.7686 63.7782 75.8597 64.1541 76.042 64.4731C76.2357 64.7922 76.6003 65.0827 77.1357 65.3447C77.6712 65.5954 78.4574 65.846 79.4941 66.0967C82.069 66.7005 83.8634 67.4696 84.8774 68.4038C85.9028 69.3381 86.4155 70.4888 86.4155 71.856C86.4155 73.4168 85.8345 74.7271 84.6724 75.7866C83.5216 76.8348 81.7044 77.3589 79.2207 77.3589ZM89.0815 77V74.8467L91.8672 74.3682V61.1577L89.0815 60.6792V58.5088H95.2339V74.3682L98.0195 74.8467V77H89.0815ZM91.6963 53.9458V50.3398H95.2339V53.9458H91.6963ZM100.344 77V74.8467L103.129 74.3682V61.1577L100.344 60.6792V58.5088H106.137L106.376 61.2603C106.992 60.2804 107.761 59.5228 108.684 58.9873C109.618 58.4404 110.677 58.167 111.862 58.167C113.856 58.167 115.4 58.7537 116.494 59.9272C117.587 61.0894 118.134 62.8895 118.134 65.3276V74.3682L120.92 74.8467V77H111.982V74.8467L114.768 74.3682V65.396C114.768 63.7668 114.443 62.6104 113.793 61.9268C113.155 61.2432 112.176 60.9014 110.854 60.9014C109.886 60.9014 109.025 61.1349 108.273 61.6021C107.533 62.0692 106.94 62.7072 106.496 63.5161V74.3682L109.282 74.8467V77H100.344ZM131.259 84.4683C130.371 84.4683 129.408 84.3429 128.371 84.0923C127.334 83.853 126.423 83.5226 125.637 83.1011L126.508 80.4863C127.135 80.8167 127.875 81.0902 128.73 81.3066C129.584 81.5231 130.416 81.6313 131.225 81.6313C132.729 81.6313 133.828 81.2098 134.523 80.3667C135.23 79.5236 135.583 78.3216 135.583 76.7607V75.0005C134.979 75.7752 134.256 76.362 133.413 76.7607C132.569 77.1595 131.601 77.3589 130.507 77.3589C129.003 77.3589 127.705 76.9886 126.611 76.248C125.517 75.4961 124.674 74.4536 124.082 73.1206C123.5 71.7762 123.21 70.221 123.21 68.4551V68.0962C123.21 66.1138 123.5 64.3763 124.082 62.8838C124.674 61.3913 125.517 60.2349 126.611 59.4146C127.705 58.5828 129.015 58.167 130.542 58.167C131.704 58.167 132.723 58.3949 133.601 58.8506C134.478 59.3063 135.213 59.9671 135.805 60.833L136.113 58.5088H138.95V76.7607C138.95 78.3558 138.648 79.7287 138.044 80.8794C137.451 82.0301 136.58 82.9131 135.429 83.5283C134.29 84.1549 132.9 84.4683 131.259 84.4683ZM131.345 74.6245C132.359 74.6245 133.208 74.3966 133.891 73.9409C134.575 73.4738 135.139 72.8187 135.583 71.9756V63.4648C135.15 62.6787 134.586 62.0578 133.891 61.6021C133.196 61.1349 132.359 60.9014 131.379 60.9014C130.308 60.9014 129.414 61.209 128.696 61.8242C127.989 62.4395 127.46 63.2882 127.106 64.3706C126.753 65.4416 126.577 66.6834 126.577 68.0962V68.4551C126.577 70.3122 126.97 71.8047 127.756 72.9326C128.542 74.0605 129.738 74.6245 131.345 74.6245ZM138.437 61.2603L137.121 58.5088H141.24V60.6621L138.437 61.2603ZM160.739 77.3589C159.224 77.3589 157.766 77.1367 156.364 76.6924C154.963 76.248 153.624 75.5645 152.348 74.6416V69.3267H154.963L155.527 73.2402C156.267 73.696 157.071 74.0492 157.937 74.2998C158.802 74.5505 159.737 74.6758 160.739 74.6758C161.879 74.6758 162.841 74.5049 163.627 74.1631C164.425 73.8099 165.035 73.3257 165.456 72.7104C165.878 72.0952 166.088 71.3774 166.088 70.5571C166.088 69.7938 165.906 69.1216 165.542 68.5405C165.177 67.9595 164.573 67.4525 163.73 67.0195C162.898 66.5752 161.759 66.1878 160.312 65.8574C158.603 65.4587 157.156 64.9289 155.971 64.2681C154.798 63.5959 153.903 62.7869 153.288 61.8413C152.684 60.8843 152.382 59.7905 152.382 58.5601C152.382 57.2612 152.724 56.0991 153.408 55.0737C154.103 54.0483 155.065 53.2394 156.296 52.647C157.526 52.0545 158.962 51.7583 160.603 51.7583C162.346 51.7583 163.884 52.026 165.217 52.5615C166.561 53.0856 167.666 53.7236 168.532 54.4756V59.4487H165.917L165.354 55.894C164.841 55.4839 164.203 55.1421 163.439 54.8687C162.676 54.5952 161.73 54.4585 160.603 54.4585C159.646 54.4585 158.802 54.6294 158.073 54.9712C157.344 55.3016 156.774 55.7687 156.364 56.3726C155.954 56.9764 155.749 57.6885 155.749 58.5088C155.749 59.2266 155.931 59.8532 156.296 60.3887C156.672 60.9242 157.276 61.397 158.107 61.8071C158.951 62.2059 160.073 62.5819 161.474 62.9351C164.095 63.5845 166.077 64.5472 167.421 65.8232C168.777 67.0879 169.455 68.6545 169.455 70.5229C169.455 71.856 169.096 73.0409 168.378 74.0776C167.661 75.103 166.647 75.9062 165.336 76.4873C164.038 77.0684 162.505 77.3589 160.739 77.3589ZM178.786 77.2905C177.419 77.2905 176.331 76.8918 175.522 76.0942C174.724 75.2853 174.326 73.9979 174.326 72.2319V61.0039H171.403V58.5088H174.326V54.0483H177.692V58.5088H181.708V61.0039H177.692V72.2319C177.692 73.1206 177.869 73.7757 178.222 74.1973C178.575 74.6188 179.048 74.8296 179.641 74.8296C180.039 74.8296 180.484 74.7954 180.974 74.7271C181.464 74.6473 181.845 74.5789 182.119 74.522L182.58 76.7266C182.09 76.8747 181.486 77.0057 180.769 77.1196C180.062 77.2336 179.401 77.2905 178.786 77.2905ZM190.715 77.3589C188.789 77.3589 187.325 76.8918 186.323 75.9575C185.32 75.0119 184.819 73.6846 184.819 71.9756C184.819 70.8021 185.138 69.7824 185.776 68.9165C186.425 68.0392 187.36 67.3613 188.579 66.8828C189.798 66.3929 191.256 66.1479 192.954 66.1479H196.252V64.3364C196.252 63.2199 195.91 62.354 195.227 61.7388C194.554 61.1235 193.603 60.8159 192.373 60.8159C191.598 60.8159 190.926 60.9128 190.356 61.1064C189.786 61.2887 189.268 61.5451 188.801 61.8755L188.442 64.4561H185.844V60.2178C186.676 59.5456 187.644 59.0386 188.75 58.6968C189.855 58.3436 191.079 58.167 192.424 58.167C194.668 58.167 196.429 58.7025 197.705 59.7734C198.981 60.8444 199.619 62.3768 199.619 64.3706V73.2744C199.619 73.5137 199.619 73.7472 199.619 73.9751C199.63 74.203 199.647 74.4308 199.67 74.6587L201.464 74.8467V77H196.628C196.525 76.4987 196.446 76.0487 196.389 75.6499C196.332 75.2511 196.292 74.8524 196.269 74.4536C195.62 75.2853 194.805 75.9803 193.825 76.5386C192.857 77.0854 191.82 77.3589 190.715 77.3589ZM191.21 74.5391C192.327 74.5391 193.347 74.2713 194.27 73.7358C195.192 73.2004 195.853 72.5566 196.252 71.8047V68.4551H192.834C191.285 68.4551 190.122 68.8254 189.348 69.5659C188.573 70.3065 188.186 71.1325 188.186 72.0439C188.186 72.8529 188.436 73.4738 188.938 73.9067C189.439 74.3283 190.196 74.5391 191.21 74.5391ZM210.607 77.2905C209.24 77.2905 208.152 76.8918 207.343 76.0942C206.546 75.2853 206.147 73.9979 206.147 72.2319V61.0039H203.225V58.5088H206.147V54.0483H209.514V58.5088H213.53V61.0039H209.514V72.2319C209.514 73.1206 209.69 73.7757 210.043 74.1973C210.397 74.6188 210.869 74.8296 211.462 74.8296C211.861 74.8296 212.305 74.7954 212.795 74.7271C213.285 74.6473 213.667 74.5789 213.94 74.522L214.401 76.7266C213.911 76.8747 213.308 77.0057 212.59 77.1196C211.883 77.2336 211.223 77.2905 210.607 77.2905ZM224.689 77.3589C222.684 77.3589 221.118 76.7152 219.99 75.4277C218.862 74.1403 218.298 72.1351 218.298 69.4121V61.1577L216.179 60.6792V58.5088H218.298H221.665V69.4463C221.665 71.4173 221.955 72.7731 222.536 73.5137C223.117 74.2542 224.023 74.6245 225.253 74.6245C226.45 74.6245 227.435 74.3853 228.21 73.9067C228.996 73.4168 229.589 72.7275 229.987 71.8389V61.1577L227.509 60.6792V58.5088H229.987H233.354V74.3682L235.473 74.8467V77H230.329L230.107 74.2656C229.526 75.2568 228.774 76.0202 227.851 76.5557C226.94 77.0911 225.886 77.3589 224.689 77.3589ZM245.334 77.3589C244.092 77.3589 242.93 77.2336 241.848 76.9829C240.765 76.7323 239.615 76.3449 238.396 75.8208L238.361 71.4287H240.908L241.54 74.0776C242.178 74.3397 242.793 74.5334 243.386 74.6587C243.99 74.7726 244.639 74.8296 245.334 74.8296C246.701 74.8296 247.681 74.5675 248.273 74.0435C248.866 73.5194 249.162 72.87 249.162 72.0952C249.162 71.366 248.86 70.7508 248.256 70.2495C247.664 69.7368 246.582 69.3039 245.009 68.9507C242.776 68.438 241.13 67.7544 240.07 66.8999C239.022 66.034 238.498 64.8833 238.498 63.4478C238.498 62.4451 238.789 61.5508 239.37 60.7646C239.951 59.9671 240.76 59.3348 241.796 58.8677C242.833 58.4006 244.041 58.167 245.419 58.167C246.821 58.167 248.017 58.3265 249.008 58.6455C250.011 58.9645 250.882 59.3918 251.623 59.9272L251.794 64.1484H249.265L248.718 61.6875C248.319 61.3913 247.846 61.1634 247.299 61.0039C246.752 60.8444 246.126 60.7646 245.419 60.7646C244.371 60.7646 243.517 61.0096 242.856 61.4995C242.207 61.9894 241.882 62.6047 241.882 63.3452C241.882 63.7782 241.973 64.1541 242.155 64.4731C242.349 64.7922 242.714 65.0827 243.249 65.3447C243.785 65.5954 244.571 65.846 245.607 66.0967C248.182 66.7005 249.977 67.4696 250.991 68.4038C252.016 69.3381 252.529 70.4888 252.529 71.856C252.529 73.4168 251.948 74.7271 250.786 75.7866C249.635 76.8348 247.818 77.3589 245.334 77.3589ZM256.528 77V73.5479H259.895V77H256.528ZM256.528 61.9609V58.5088H259.895V61.9609H256.528ZM4.38428 123V120.847L7.16992 120.368V100.766L4.38428 100.288V98.1172H22.8071V104.099H20.1069L19.731 100.715H10.5366V108.815H19.7139V111.464H10.5366V120.471H20.2778L20.6538 117.036H23.3369V123H4.38428ZM26.584 123V120.847L29.3696 120.368V107.158L26.584 106.679V104.509H32.3945L32.6167 106.918C33.2091 106.041 33.9725 105.363 34.9067 104.885C35.841 104.406 36.9233 104.167 38.1538 104.167C39.3843 104.167 40.4382 104.452 41.3154 105.021C42.2041 105.591 42.8706 106.446 43.3149 107.585C43.896 106.537 44.665 105.705 45.6221 105.09C46.5791 104.475 47.6956 104.167 48.9717 104.167C50.863 104.167 52.3555 104.816 53.4492 106.115C54.543 107.403 55.0898 109.345 55.0898 111.943V120.368L57.8755 120.847V123H48.9204V120.847L51.7061 120.368V111.909C51.7061 110.086 51.3927 108.798 50.7661 108.046C50.1395 107.283 49.2109 106.901 47.9805 106.901C46.807 106.901 45.8613 107.317 45.1436 108.149C44.4372 108.969 44.027 110.006 43.9131 111.259V120.368L46.6987 120.847V123H37.7607V120.847L40.5464 120.368V111.909C40.5464 110.177 40.2217 108.912 39.5723 108.115C38.9342 107.306 38.0057 106.901 36.7866 106.901C35.7612 106.901 34.9181 107.112 34.2573 107.534C33.5965 107.955 33.0895 108.548 32.7363 109.311V120.368L35.522 120.847V123H26.584ZM66.3691 123.359C64.4437 123.359 62.9797 122.892 61.9771 121.958C60.9744 121.012 60.4731 119.685 60.4731 117.976C60.4731 116.802 60.7922 115.782 61.4302 114.917C62.0796 114.039 63.0138 113.361 64.2329 112.883C65.452 112.393 66.9103 112.148 68.6079 112.148H71.9062V110.336C71.9062 109.22 71.5645 108.354 70.8809 107.739C70.2087 107.124 69.2573 106.816 68.0269 106.816C67.2521 106.816 66.5799 106.913 66.0103 107.106C65.4406 107.289 64.9222 107.545 64.4551 107.875L64.0962 110.456H61.4985V106.218C62.3302 105.546 63.2987 105.039 64.4038 104.697C65.509 104.344 66.7337 104.167 68.0781 104.167C70.3226 104.167 72.0828 104.702 73.3589 105.773C74.6349 106.844 75.2729 108.377 75.2729 110.371V119.274C75.2729 119.514 75.2729 119.747 75.2729 119.975C75.2843 120.203 75.3014 120.431 75.3242 120.659L77.1187 120.847V123H72.2822C72.1797 122.499 72.0999 122.049 72.043 121.65C71.986 121.251 71.9461 120.852 71.9233 120.454C71.2739 121.285 70.4593 121.98 69.4795 122.539C68.5111 123.085 67.4743 123.359 66.3691 123.359ZM66.8647 120.539C67.9813 120.539 69.001 120.271 69.9238 119.736C70.8467 119.2 71.5075 118.557 71.9062 117.805V114.455H68.4883C66.9388 114.455 65.7767 114.825 65.002 115.566C64.2272 116.306 63.8398 117.132 63.8398 118.044C63.8398 118.853 64.0905 119.474 64.5918 119.907C65.0931 120.328 65.8507 120.539 66.8647 120.539ZM79.6138 123V120.847L82.3994 120.368V107.158L79.6138 106.679V104.509H85.7661V120.368L88.5518 120.847V123H79.6138ZM82.2285 99.9458V96.3398H85.7661V99.9458H82.2285ZM90.7051 123V120.847L93.4907 120.368V98.9888L90.7051 98.5103V96.3398H96.8574V120.368L99.6431 120.847V123H90.7051ZM103.266 123V119.548H106.633V123H103.266ZM103.266 107.961V104.509H106.633V107.961H103.266ZM15.6294 169.359C13.1343 169.359 11.0493 168.812 9.37451 167.718C7.7111 166.625 6.45785 165.126 5.61475 163.224C4.78304 161.321 4.36719 159.162 4.36719 156.747V156.388C4.36719 153.95 4.80583 151.785 5.68311 149.894C6.56038 147.991 7.81934 146.493 9.45996 145.399C11.1006 144.305 13.0602 143.758 15.3389 143.758C16.9453 143.758 18.415 144.009 19.748 144.51C21.0811 145.012 22.1862 145.65 23.0635 146.424V151.791H20.3804L20.0215 147.86C19.6569 147.575 19.2354 147.336 18.7568 147.142C18.2897 146.948 17.7656 146.8 17.1846 146.698C16.6149 146.595 15.994 146.544 15.3218 146.544C13.6925 146.544 12.314 146.965 11.186 147.809C10.0581 148.64 9.20361 149.791 8.62256 151.261C8.0415 152.73 7.75098 154.428 7.75098 156.354V156.747C7.75098 158.832 8.05859 160.615 8.67383 162.096C9.30046 163.565 10.2062 164.688 11.3911 165.462C12.5874 166.237 14.04 166.625 15.749 166.625C16.5465 166.625 17.327 166.528 18.0903 166.334C18.8537 166.14 19.486 165.89 19.9873 165.582L20.3633 162.113H22.9951V167.513C22.0609 168.094 20.9443 168.55 19.6455 168.88C18.3467 169.199 17.008 169.359 15.6294 169.359ZM32.292 169.359C30.3665 169.359 28.9025 168.892 27.8999 167.958C26.8973 167.012 26.396 165.685 26.396 163.976C26.396 162.802 26.715 161.782 27.353 160.917C28.0024 160.039 28.9367 159.361 30.1558 158.883C31.3748 158.393 32.8332 158.148 34.5308 158.148H37.8291V156.336C37.8291 155.22 37.4873 154.354 36.8037 153.739C36.1315 153.124 35.1802 152.816 33.9497 152.816C33.175 152.816 32.5028 152.913 31.9331 153.106C31.3634 153.289 30.8451 153.545 30.3779 153.875L30.019 156.456H27.4214V152.218C28.2531 151.546 29.2215 151.039 30.3267 150.697C31.4318 150.344 32.6566 150.167 34.001 150.167C36.2454 150.167 38.0057 150.702 39.2817 151.773C40.5578 152.844 41.1958 154.377 41.1958 156.371V165.274C41.1958 165.514 41.1958 165.747 41.1958 165.975C41.2072 166.203 41.2243 166.431 41.2471 166.659L43.0415 166.847V169H38.2051C38.1025 168.499 38.0228 168.049 37.9658 167.65C37.9089 167.251 37.869 166.852 37.8462 166.454C37.1968 167.285 36.3822 167.98 35.4023 168.539C34.4339 169.085 33.3971 169.359 32.292 169.359ZM32.7876 166.539C33.9041 166.539 34.9238 166.271 35.8467 165.736C36.7695 165.2 37.4303 164.557 37.8291 163.805V160.455H34.4111C32.8617 160.455 31.6995 160.825 30.9248 161.566C30.1501 162.306 29.7627 163.132 29.7627 164.044C29.7627 164.853 30.0133 165.474 30.5146 165.907C31.016 166.328 31.7736 166.539 32.7876 166.539ZM53.1416 169.359C51.8997 169.359 50.7376 169.234 49.6553 168.983C48.5729 168.732 47.4222 168.345 46.2031 167.821L46.1689 163.429H48.7153L49.3477 166.078C49.9857 166.34 50.6009 166.533 51.1934 166.659C51.7972 166.773 52.4466 166.83 53.1416 166.83C54.5088 166.83 55.4886 166.568 56.0811 166.043C56.6735 165.519 56.9697 164.87 56.9697 164.095C56.9697 163.366 56.6678 162.751 56.064 162.25C55.4715 161.737 54.3892 161.304 52.8169 160.951C50.5838 160.438 48.9375 159.754 47.8779 158.9C46.8298 158.034 46.3057 156.883 46.3057 155.448C46.3057 154.445 46.5962 153.551 47.1772 152.765C47.7583 151.967 48.5672 151.335 49.604 150.868C50.6408 150.401 51.8485 150.167 53.2271 150.167C54.6284 150.167 55.8247 150.326 56.8159 150.646C57.8185 150.965 58.6901 151.392 59.4307 151.927L59.6016 156.148H57.0723L56.5254 153.688C56.1266 153.391 55.6538 153.163 55.1069 153.004C54.5601 152.844 53.9334 152.765 53.2271 152.765C52.1789 152.765 51.3244 153.01 50.6636 153.5C50.0142 153.989 49.6895 154.605 49.6895 155.345C49.6895 155.778 49.7806 156.154 49.9629 156.473C50.1566 156.792 50.5212 157.083 51.0566 157.345C51.5921 157.595 52.3783 157.846 53.415 158.097C55.9899 158.701 57.7843 159.47 58.7983 160.404C59.8237 161.338 60.3364 162.489 60.3364 163.856C60.3364 165.417 59.7554 166.727 58.5933 167.787C57.4425 168.835 55.6253 169.359 53.1416 169.359ZM71.5474 169.359C69.8384 169.359 68.3516 168.972 67.0869 168.197C65.8223 167.411 64.8424 166.323 64.1475 164.933C63.4639 163.543 63.1221 161.936 63.1221 160.113V159.361C63.1221 157.607 63.481 156.04 64.1987 154.662C64.9279 153.272 65.8906 152.178 67.0869 151.38C68.2946 150.571 69.6105 150.167 71.0347 150.167C72.6981 150.167 74.0881 150.509 75.2046 151.192C76.3325 151.876 77.1813 152.839 77.751 154.081C78.3206 155.311 78.6055 156.764 78.6055 158.438V160.541H66.6084L66.5571 160.626C66.5799 161.811 66.785 162.865 67.1724 163.788C67.5711 164.699 68.1408 165.417 68.8813 165.941C69.6219 166.465 70.5106 166.727 71.5474 166.727C72.6867 166.727 73.6836 166.568 74.5381 166.249C75.404 165.918 76.1502 165.468 76.7769 164.898L78.0928 167.086C77.432 167.724 76.5547 168.265 75.4609 168.709C74.3786 169.142 73.0741 169.359 71.5474 169.359ZM66.7109 157.909H75.2388V157.464C75.2388 156.576 75.0793 155.784 74.7603 155.089C74.4526 154.382 73.9855 153.83 73.3589 153.431C72.7437 153.021 71.9689 152.816 71.0347 152.816C70.2827 152.816 69.5991 153.038 68.9839 153.482C68.3687 153.915 67.8617 154.508 67.4629 155.26C67.0641 156.012 66.8021 156.866 66.6768 157.823L66.7109 157.909ZM90.2949 169V166.847L93.0806 166.368V146.766L90.2949 146.288V144.117H93.0806H97.5752L105.59 163.001H105.693L113.452 144.117H120.954V146.288L118.168 146.766V166.368L120.954 166.847V169H112.016V166.847L114.956 166.368V159.156V148.714L114.87 148.697L106.787 168.111H104.548L96.1909 148.731L96.1055 148.749L96.2251 159.156V166.368L99.2329 166.847V169H90.2949ZM129.807 169.359C127.881 169.359 126.417 168.892 125.415 167.958C124.412 167.012 123.911 165.685 123.911 163.976C123.911 162.802 124.23 161.782 124.868 160.917C125.517 160.039 126.451 159.361 127.67 158.883C128.889 158.393 130.348 158.148 132.045 158.148H135.344V156.336C135.344 155.22 135.002 154.354 134.318 153.739C133.646 153.124 132.695 152.816 131.464 152.816C130.69 152.816 130.017 152.913 129.448 153.106C128.878 153.289 128.36 153.545 127.893 153.875L127.534 156.456H124.936V152.218C125.768 151.546 126.736 151.039 127.841 150.697C128.946 150.344 130.171 150.167 131.516 150.167C133.76 150.167 135.52 150.702 136.796 151.773C138.072 152.844 138.71 154.377 138.71 156.371V165.274C138.71 165.514 138.71 165.747 138.71 165.975C138.722 166.203 138.739 166.431 138.762 166.659L140.556 166.847V169H135.72C135.617 168.499 135.537 168.049 135.48 167.65C135.424 167.251 135.384 166.852 135.361 166.454C134.711 167.285 133.897 167.98 132.917 168.539C131.949 169.085 130.912 169.359 129.807 169.359ZM130.302 166.539C131.419 166.539 132.438 166.271 133.361 165.736C134.284 165.2 134.945 164.557 135.344 163.805V160.455H131.926C130.376 160.455 129.214 160.825 128.439 161.566C127.665 162.306 127.277 163.132 127.277 164.044C127.277 164.853 127.528 165.474 128.029 165.907C128.531 166.328 129.288 166.539 130.302 166.539ZM143.171 169V166.847L145.957 166.368V153.158L143.171 152.679V150.509H148.964L149.204 153.26C149.819 152.28 150.588 151.523 151.511 150.987C152.445 150.44 153.505 150.167 154.689 150.167C156.683 150.167 158.227 150.754 159.321 151.927C160.415 153.089 160.961 154.889 160.961 157.328V166.368L163.747 166.847V169H154.809V166.847L157.595 166.368V157.396C157.595 155.767 157.27 154.61 156.621 153.927C155.983 153.243 155.003 152.901 153.681 152.901C152.713 152.901 151.853 153.135 151.101 153.602C150.36 154.069 149.768 154.707 149.323 155.516V166.368L152.109 166.847V169H143.171ZM172.121 169.359C170.196 169.359 168.732 168.892 167.729 167.958C166.726 167.012 166.225 165.685 166.225 163.976C166.225 162.802 166.544 161.782 167.182 160.917C167.832 160.039 168.766 159.361 169.985 158.883C171.204 158.393 172.662 158.148 174.36 158.148H177.658V156.336C177.658 155.22 177.316 154.354 176.633 153.739C175.961 153.124 175.009 152.816 173.779 152.816C173.004 152.816 172.332 152.913 171.762 153.106C171.193 153.289 170.674 153.545 170.207 153.875L169.848 156.456H167.25V152.218C168.082 151.546 169.051 151.039 170.156 150.697C171.261 150.344 172.486 150.167 173.83 150.167C176.075 150.167 177.835 150.702 179.111 151.773C180.387 152.844 181.025 154.377 181.025 156.371V165.274C181.025 165.514 181.025 165.747 181.025 165.975C181.036 166.203 181.053 166.431 181.076 166.659L182.871 166.847V169H178.034C177.932 168.499 177.852 168.049 177.795 167.65C177.738 167.251 177.698 166.852 177.675 166.454C177.026 167.285 176.211 167.98 175.231 168.539C174.263 169.085 173.226 169.359 172.121 169.359ZM172.617 166.539C173.733 166.539 174.753 166.271 175.676 165.736C176.599 165.2 177.259 164.557 177.658 163.805V160.455H174.24C172.691 160.455 171.529 160.825 170.754 161.566C169.979 162.306 169.592 163.132 169.592 164.044C169.592 164.853 169.842 165.474 170.344 165.907C170.845 166.328 171.603 166.539 172.617 166.539ZM193.603 176.468C192.714 176.468 191.752 176.343 190.715 176.092C189.678 175.853 188.767 175.523 187.98 175.101L188.852 172.486C189.479 172.817 190.219 173.09 191.074 173.307C191.928 173.523 192.76 173.631 193.569 173.631C195.073 173.631 196.172 173.21 196.867 172.367C197.574 171.524 197.927 170.322 197.927 168.761V167C197.323 167.775 196.599 168.362 195.756 168.761C194.913 169.16 193.945 169.359 192.851 169.359C191.347 169.359 190.048 168.989 188.955 168.248C187.861 167.496 187.018 166.454 186.425 165.121C185.844 163.776 185.554 162.221 185.554 160.455V160.096C185.554 158.114 185.844 156.376 186.425 154.884C187.018 153.391 187.861 152.235 188.955 151.415C190.048 150.583 191.359 150.167 192.885 150.167C194.047 150.167 195.067 150.395 195.944 150.851C196.822 151.306 197.556 151.967 198.149 152.833L198.457 150.509H201.293V168.761C201.293 170.356 200.992 171.729 200.388 172.879C199.795 174.03 198.924 174.913 197.773 175.528C196.634 176.155 195.244 176.468 193.603 176.468ZM193.688 166.625C194.702 166.625 195.551 166.397 196.235 165.941C196.918 165.474 197.482 164.819 197.927 163.976V155.465C197.494 154.679 196.93 154.058 196.235 153.602C195.54 153.135 194.702 152.901 193.723 152.901C192.652 152.901 191.757 153.209 191.04 153.824C190.333 154.439 189.803 155.288 189.45 156.371C189.097 157.442 188.92 158.683 188.92 160.096V160.455C188.92 162.312 189.313 163.805 190.1 164.933C190.886 166.061 192.082 166.625 193.688 166.625ZM200.781 153.26L199.465 150.509H203.583V152.662L200.781 153.26ZM213.598 169.359C211.889 169.359 210.402 168.972 209.138 168.197C207.873 167.411 206.893 166.323 206.198 164.933C205.515 163.543 205.173 161.936 205.173 160.113V159.361C205.173 157.607 205.532 156.04 206.25 154.662C206.979 153.272 207.941 152.178 209.138 151.38C210.345 150.571 211.661 150.167 213.085 150.167C214.749 150.167 216.139 150.509 217.255 151.192C218.383 151.876 219.232 152.839 219.802 154.081C220.371 155.311 220.656 156.764 220.656 158.438V160.541H208.659L208.608 160.626C208.631 161.811 208.836 162.865 209.223 163.788C209.622 164.699 210.192 165.417 210.932 165.941C211.673 166.465 212.561 166.727 213.598 166.727C214.737 166.727 215.734 166.568 216.589 166.249C217.455 165.918 218.201 165.468 218.828 164.898L220.144 167.086C219.483 167.724 218.605 168.265 217.512 168.709C216.429 169.142 215.125 169.359 213.598 169.359ZM208.762 157.909H217.29V157.464C217.29 156.576 217.13 155.784 216.811 155.089C216.503 154.382 216.036 153.83 215.41 153.431C214.794 153.021 214.02 152.816 213.085 152.816C212.333 152.816 211.65 153.038 211.035 153.482C210.419 153.915 209.912 154.508 209.514 155.26C209.115 156.012 208.853 156.866 208.728 157.823L208.762 157.909ZM223.254 169V166.847L226.04 166.368V153.158L223.254 152.679V150.509H229.047L229.338 152.867L229.372 153.192C229.896 152.246 230.54 151.506 231.303 150.97C232.078 150.435 232.961 150.167 233.952 150.167C234.305 150.167 234.664 150.201 235.029 150.27C235.405 150.326 235.673 150.383 235.832 150.44L235.388 153.568L233.046 153.431C232.158 153.374 231.411 153.579 230.808 154.046C230.204 154.502 229.737 155.117 229.406 155.892V166.368L232.192 166.847V169H223.254ZM239.096 169V165.548H242.463V169H239.096ZM239.096 153.961V150.509H242.463V153.961H239.096ZM15.6294 215.359C13.1343 215.359 11.0493 214.812 9.37451 213.718C7.7111 212.625 6.45785 211.126 5.61475 209.224C4.78304 207.321 4.36719 205.162 4.36719 202.747V202.388C4.36719 199.95 4.80583 197.785 5.68311 195.894C6.56038 193.991 7.81934 192.493 9.45996 191.399C11.1006 190.305 13.0602 189.758 15.3389 189.758C16.9453 189.758 18.415 190.009 19.748 190.51C21.0811 191.012 22.1862 191.65 23.0635 192.424V197.791H20.3804L20.0215 193.86C19.6569 193.575 19.2354 193.336 18.7568 193.142C18.2897 192.948 17.7656 192.8 17.1846 192.698C16.6149 192.595 15.994 192.544 15.3218 192.544C13.6925 192.544 12.314 192.965 11.186 193.809C10.0581 194.64 9.20361 195.791 8.62256 197.261C8.0415 198.73 7.75098 200.428 7.75098 202.354V202.747C7.75098 204.832 8.05859 206.615 8.67383 208.096C9.30046 209.565 10.2062 210.688 11.3911 211.462C12.5874 212.237 14.04 212.625 15.749 212.625C16.5465 212.625 17.327 212.528 18.0903 212.334C18.8537 212.14 19.486 211.89 19.9873 211.582L20.3633 208.113H22.9951V213.513C22.0609 214.094 20.9443 214.55 19.6455 214.88C18.3467 215.199 17.008 215.359 15.6294 215.359ZM32.292 215.359C30.3665 215.359 28.9025 214.892 27.8999 213.958C26.8973 213.012 26.396 211.685 26.396 209.976C26.396 208.802 26.715 207.782 27.353 206.917C28.0024 206.039 28.9367 205.361 30.1558 204.883C31.3748 204.393 32.8332 204.148 34.5308 204.148H37.8291V202.336C37.8291 201.22 37.4873 200.354 36.8037 199.739C36.1315 199.124 35.1802 198.816 33.9497 198.816C33.175 198.816 32.5028 198.913 31.9331 199.106C31.3634 199.289 30.8451 199.545 30.3779 199.875L30.019 202.456H27.4214V198.218C28.2531 197.546 29.2215 197.039 30.3267 196.697C31.4318 196.344 32.6566 196.167 34.001 196.167C36.2454 196.167 38.0057 196.702 39.2817 197.773C40.5578 198.844 41.1958 200.377 41.1958 202.371V211.274C41.1958 211.514 41.1958 211.747 41.1958 211.975C41.2072 212.203 41.2243 212.431 41.2471 212.659L43.0415 212.847V215H38.2051C38.1025 214.499 38.0228 214.049 37.9658 213.65C37.9089 213.251 37.869 212.852 37.8462 212.454C37.1968 213.285 36.3822 213.98 35.4023 214.539C34.4339 215.085 33.3971 215.359 32.292 215.359ZM32.7876 212.539C33.9041 212.539 34.9238 212.271 35.8467 211.736C36.7695 211.2 37.4303 210.557 37.8291 209.805V206.455H34.4111C32.8617 206.455 31.6995 206.825 30.9248 207.566C30.1501 208.306 29.7627 209.132 29.7627 210.044C29.7627 210.853 30.0133 211.474 30.5146 211.907C31.016 212.328 31.7736 212.539 32.7876 212.539ZM53.1416 215.359C51.8997 215.359 50.7376 215.234 49.6553 214.983C48.5729 214.732 47.4222 214.345 46.2031 213.821L46.1689 209.429H48.7153L49.3477 212.078C49.9857 212.34 50.6009 212.533 51.1934 212.659C51.7972 212.773 52.4466 212.83 53.1416 212.83C54.5088 212.83 55.4886 212.568 56.0811 212.043C56.6735 211.519 56.9697 210.87 56.9697 210.095C56.9697 209.366 56.6678 208.751 56.064 208.25C55.4715 207.737 54.3892 207.304 52.8169 206.951C50.5838 206.438 48.9375 205.754 47.8779 204.9C46.8298 204.034 46.3057 202.883 46.3057 201.448C46.3057 200.445 46.5962 199.551 47.1772 198.765C47.7583 197.967 48.5672 197.335 49.604 196.868C50.6408 196.401 51.8485 196.167 53.2271 196.167C54.6284 196.167 55.8247 196.326 56.8159 196.646C57.8185 196.965 58.6901 197.392 59.4307 197.927L59.6016 202.148H57.0723L56.5254 199.688C56.1266 199.391 55.6538 199.163 55.1069 199.004C54.5601 198.844 53.9334 198.765 53.2271 198.765C52.1789 198.765 51.3244 199.01 50.6636 199.5C50.0142 199.989 49.6895 200.605 49.6895 201.345C49.6895 201.778 49.7806 202.154 49.9629 202.473C50.1566 202.792 50.5212 203.083 51.0566 203.345C51.5921 203.595 52.3783 203.846 53.415 204.097C55.9899 204.701 57.7843 205.47 58.7983 206.404C59.8237 207.338 60.3364 208.489 60.3364 209.856C60.3364 211.417 59.7554 212.727 58.5933 213.787C57.4425 214.835 55.6253 215.359 53.1416 215.359ZM71.5474 215.359C69.8384 215.359 68.3516 214.972 67.0869 214.197C65.8223 213.411 64.8424 212.323 64.1475 210.933C63.4639 209.543 63.1221 207.936 63.1221 206.113V205.361C63.1221 203.607 63.481 202.04 64.1987 200.662C64.9279 199.272 65.8906 198.178 67.0869 197.38C68.2946 196.571 69.6105 196.167 71.0347 196.167C72.6981 196.167 74.0881 196.509 75.2046 197.192C76.3325 197.876 77.1813 198.839 77.751 200.081C78.3206 201.311 78.6055 202.764 78.6055 204.438V206.541H66.6084L66.5571 206.626C66.5799 207.811 66.785 208.865 67.1724 209.788C67.5711 210.699 68.1408 211.417 68.8813 211.941C69.6219 212.465 70.5106 212.727 71.5474 212.727C72.6867 212.727 73.6836 212.568 74.5381 212.249C75.404 211.918 76.1502 211.468 76.7769 210.898L78.0928 213.086C77.432 213.724 76.5547 214.265 75.4609 214.709C74.3786 215.142 73.0741 215.359 71.5474 215.359ZM66.7109 203.909H75.2388V203.464C75.2388 202.576 75.0793 201.784 74.7603 201.089C74.4526 200.382 73.9855 199.83 73.3589 199.431C72.7437 199.021 71.9689 198.816 71.0347 198.816C70.2827 198.816 69.5991 199.038 68.9839 199.482C68.3687 199.915 67.8617 200.508 67.4629 201.26C67.0641 202.012 66.8021 202.866 66.6768 203.823L66.7109 203.909ZM90.2949 215V212.847L93.0806 212.368V192.766L90.2949 192.288V190.117H93.0806H97.5752L105.59 209.001H105.693L113.452 190.117H120.954V192.288L118.168 192.766V212.368L120.954 212.847V215H112.016V212.847L114.956 212.368V205.156V194.714L114.87 194.697L106.787 214.111H104.548L96.1909 194.731L96.1055 194.749L96.2251 205.156V212.368L99.2329 212.847V215H90.2949ZM129.807 215.359C127.881 215.359 126.417 214.892 125.415 213.958C124.412 213.012 123.911 211.685 123.911 209.976C123.911 208.802 124.23 207.782 124.868 206.917C125.517 206.039 126.451 205.361 127.67 204.883C128.889 204.393 130.348 204.148 132.045 204.148H135.344V202.336C135.344 201.22 135.002 200.354 134.318 199.739C133.646 199.124 132.695 198.816 131.464 198.816C130.69 198.816 130.017 198.913 129.448 199.106C128.878 199.289 128.36 199.545 127.893 199.875L127.534 202.456H124.936V198.218C125.768 197.546 126.736 197.039 127.841 196.697C128.946 196.344 130.171 196.167 131.516 196.167C133.76 196.167 135.52 196.702 136.796 197.773C138.072 198.844 138.71 200.377 138.71 202.371V211.274C138.71 211.514 138.71 211.747 138.71 211.975C138.722 212.203 138.739 212.431 138.762 212.659L140.556 212.847V215H135.72C135.617 214.499 135.537 214.049 135.48 213.65C135.424 213.251 135.384 212.852 135.361 212.454C134.711 213.285 133.897 213.98 132.917 214.539C131.949 215.085 130.912 215.359 129.807 215.359ZM130.302 212.539C131.419 212.539 132.438 212.271 133.361 211.736C134.284 211.2 134.945 210.557 135.344 209.805V206.455H131.926C130.376 206.455 129.214 206.825 128.439 207.566C127.665 208.306 127.277 209.132 127.277 210.044C127.277 210.853 127.528 211.474 128.029 211.907C128.531 212.328 129.288 212.539 130.302 212.539ZM143.171 215V212.847L145.957 212.368V199.158L143.171 198.679V196.509H148.964L149.204 199.26C149.819 198.28 150.588 197.523 151.511 196.987C152.445 196.44 153.505 196.167 154.689 196.167C156.683 196.167 158.227 196.754 159.321 197.927C160.415 199.089 160.961 200.889 160.961 203.328V212.368L163.747 212.847V215H154.809V212.847L157.595 212.368V203.396C157.595 201.767 157.27 200.61 156.621 199.927C155.983 199.243 155.003 198.901 153.681 198.901C152.713 198.901 151.853 199.135 151.101 199.602C150.36 200.069 149.768 200.707 149.323 201.516V212.368L152.109 212.847V215H143.171ZM172.121 215.359C170.196 215.359 168.732 214.892 167.729 213.958C166.726 213.012 166.225 211.685 166.225 209.976C166.225 208.802 166.544 207.782 167.182 206.917C167.832 206.039 168.766 205.361 169.985 204.883C171.204 204.393 172.662 204.148 174.36 204.148H177.658V202.336C177.658 201.22 177.316 200.354 176.633 199.739C175.961 199.124 175.009 198.816 173.779 198.816C173.004 198.816 172.332 198.913 171.762 199.106C171.193 199.289 170.674 199.545 170.207 199.875L169.848 202.456H167.25V198.218C168.082 197.546 169.051 197.039 170.156 196.697C171.261 196.344 172.486 196.167 173.83 196.167C176.075 196.167 177.835 196.702 179.111 197.773C180.387 198.844 181.025 200.377 181.025 202.371V211.274C181.025 211.514 181.025 211.747 181.025 211.975C181.036 212.203 181.053 212.431 181.076 212.659L182.871 212.847V215H178.034C177.932 214.499 177.852 214.049 177.795 213.65C177.738 213.251 177.698 212.852 177.675 212.454C177.026 213.285 176.211 213.98 175.231 214.539C174.263 215.085 173.226 215.359 172.121 215.359ZM172.617 212.539C173.733 212.539 174.753 212.271 175.676 211.736C176.599 211.2 177.259 210.557 177.658 209.805V206.455H174.24C172.691 206.455 171.529 206.825 170.754 207.566C169.979 208.306 169.592 209.132 169.592 210.044C169.592 210.853 169.842 211.474 170.344 211.907C170.845 212.328 171.603 212.539 172.617 212.539ZM193.603 222.468C192.714 222.468 191.752 222.343 190.715 222.092C189.678 221.853 188.767 221.523 187.98 221.101L188.852 218.486C189.479 218.817 190.219 219.09 191.074 219.307C191.928 219.523 192.76 219.631 193.569 219.631C195.073 219.631 196.172 219.21 196.867 218.367C197.574 217.524 197.927 216.322 197.927 214.761V213C197.323 213.775 196.599 214.362 195.756 214.761C194.913 215.16 193.945 215.359 192.851 215.359C191.347 215.359 190.048 214.989 188.955 214.248C187.861 213.496 187.018 212.454 186.425 211.121C185.844 209.776 185.554 208.221 185.554 206.455V206.096C185.554 204.114 185.844 202.376 186.425 200.884C187.018 199.391 187.861 198.235 188.955 197.415C190.048 196.583 191.359 196.167 192.885 196.167C194.047 196.167 195.067 196.395 195.944 196.851C196.822 197.306 197.556 197.967 198.149 198.833L198.457 196.509H201.293V214.761C201.293 216.356 200.992 217.729 200.388 218.879C199.795 220.03 198.924 220.913 197.773 221.528C196.634 222.155 195.244 222.468 193.603 222.468ZM193.688 212.625C194.702 212.625 195.551 212.397 196.235 211.941C196.918 211.474 197.482 210.819 197.927 209.976V201.465C197.494 200.679 196.93 200.058 196.235 199.602C195.54 199.135 194.702 198.901 193.723 198.901C192.652 198.901 191.757 199.209 191.04 199.824C190.333 200.439 189.803 201.288 189.45 202.371C189.097 203.442 188.92 204.683 188.92 206.096V206.455C188.92 208.312 189.313 209.805 190.1 210.933C190.886 212.061 192.082 212.625 193.688 212.625ZM200.781 199.26L199.465 196.509H203.583V198.662L200.781 199.26ZM213.598 215.359C211.889 215.359 210.402 214.972 209.138 214.197C207.873 213.411 206.893 212.323 206.198 210.933C205.515 209.543 205.173 207.936 205.173 206.113V205.361C205.173 203.607 205.532 202.04 206.25 200.662C206.979 199.272 207.941 198.178 209.138 197.38C210.345 196.571 211.661 196.167 213.085 196.167C214.749 196.167 216.139 196.509 217.255 197.192C218.383 197.876 219.232 198.839 219.802 200.081C220.371 201.311 220.656 202.764 220.656 204.438V206.541H208.659L208.608 206.626C208.631 207.811 208.836 208.865 209.223 209.788C209.622 210.699 210.192 211.417 210.932 211.941C211.673 212.465 212.561 212.727 213.598 212.727C214.737 212.727 215.734 212.568 216.589 212.249C217.455 211.918 218.201 211.468 218.828 210.898L220.144 213.086C219.483 213.724 218.605 214.265 217.512 214.709C216.429 215.142 215.125 215.359 213.598 215.359ZM208.762 203.909H217.29V203.464C217.29 202.576 217.13 201.784 216.811 201.089C216.503 200.382 216.036 199.83 215.41 199.431C214.794 199.021 214.02 198.816 213.085 198.816C212.333 198.816 211.65 199.038 211.035 199.482C210.419 199.915 209.912 200.508 209.514 201.26C209.115 202.012 208.853 202.866 208.728 203.823L208.762 203.909ZM223.254 215V212.847L226.04 212.368V199.158L223.254 198.679V196.509H229.047L229.338 198.867L229.372 199.192C229.896 198.246 230.54 197.506 231.303 196.97C232.078 196.435 232.961 196.167 233.952 196.167C234.305 196.167 234.664 196.201 235.029 196.27C235.405 196.326 235.673 196.383 235.832 196.44L235.388 199.568L233.046 199.431C232.158 199.374 231.411 199.579 230.808 200.046C230.204 200.502 229.737 201.117 229.406 201.892V212.368L232.192 212.847V215H223.254ZM257.963 215.359C255.468 215.359 253.383 214.812 251.708 213.718C250.045 212.625 248.792 211.126 247.949 209.224C247.117 207.321 246.701 205.162 246.701 202.747V202.388C246.701 199.95 247.14 197.785 248.017 195.894C248.894 193.991 250.153 192.493 251.794 191.399C253.435 190.305 255.394 189.758 257.673 189.758C259.279 189.758 260.749 190.009 262.082 190.51C263.415 191.012 264.52 191.65 265.397 192.424V197.791H262.714L262.355 193.86C261.991 193.575 261.569 193.336 261.091 193.142C260.624 192.948 260.1 192.8 259.519 192.698C258.949 192.595 258.328 192.544 257.656 192.544C256.027 192.544 254.648 192.965 253.52 193.809C252.392 194.64 251.538 195.791 250.957 197.261C250.375 198.73 250.085 200.428 250.085 202.354V202.747C250.085 204.832 250.393 206.615 251.008 208.096C251.634 209.565 252.54 210.688 253.725 211.462C254.921 212.237 256.374 212.625 258.083 212.625C258.881 212.625 259.661 212.528 260.424 212.334C261.188 212.14 261.82 211.89 262.321 211.582L262.697 208.113H265.329V213.513C264.395 214.094 263.278 214.55 261.979 214.88C260.681 215.199 259.342 215.359 257.963 215.359ZM277.001 215.359C275.292 215.359 273.817 214.96 272.575 214.163C271.345 213.354 270.393 212.243 269.721 210.83C269.049 209.406 268.713 207.782 268.713 205.959V205.583C268.713 203.761 269.049 202.143 269.721 200.73C270.393 199.306 271.345 198.189 272.575 197.38C273.817 196.571 275.281 196.167 276.967 196.167C278.676 196.167 280.146 196.571 281.376 197.38C282.618 198.189 283.575 199.3 284.248 200.713C284.92 202.126 285.256 203.749 285.256 205.583V205.959C285.256 207.794 284.92 209.423 284.248 210.847C283.575 212.26 282.624 213.365 281.394 214.163C280.163 214.96 278.699 215.359 277.001 215.359ZM277.001 212.727C278.072 212.727 278.967 212.437 279.685 211.855C280.414 211.263 280.961 210.46 281.325 209.446C281.701 208.42 281.889 207.258 281.889 205.959V205.583C281.889 204.285 281.701 203.128 281.325 202.114C280.961 201.089 280.414 200.286 279.685 199.705C278.955 199.112 278.05 198.816 276.967 198.816C275.896 198.816 274.996 199.112 274.267 199.705C273.538 200.286 272.991 201.089 272.626 202.114C272.262 203.128 272.08 204.285 272.08 205.583V205.959C272.08 207.258 272.262 208.42 272.626 209.446C272.991 210.46 273.538 211.263 274.267 211.855C275.008 212.437 275.919 212.727 277.001 212.727ZM287.854 215V212.847L290.639 212.368V199.158L287.854 198.679V196.509H293.647L293.886 199.26C294.501 198.28 295.271 197.523 296.193 196.987C297.128 196.44 298.187 196.167 299.372 196.167C301.366 196.167 302.91 196.754 304.003 197.927C305.097 199.089 305.644 200.889 305.644 203.328V212.368L308.43 212.847V215H299.492V212.847L302.277 212.368V203.396C302.277 201.767 301.953 200.61 301.303 199.927C300.665 199.243 299.685 198.901 298.364 198.901C297.395 198.901 296.535 199.135 295.783 199.602C295.043 200.069 294.45 200.707 294.006 201.516V212.368L296.792 212.847V215H287.854ZM316.667 215.291C315.3 215.291 314.212 214.892 313.403 214.094C312.605 213.285 312.207 211.998 312.207 210.232V199.004H309.284V196.509H312.207V192.048H315.573V196.509H319.589V199.004H315.573V210.232C315.573 211.121 315.75 211.776 316.103 212.197C316.456 212.619 316.929 212.83 317.521 212.83C317.92 212.83 318.365 212.795 318.854 212.727C319.344 212.647 319.726 212.579 320 212.522L320.461 214.727C319.971 214.875 319.367 215.006 318.649 215.12C317.943 215.234 317.282 215.291 316.667 215.291ZM328.596 215.359C326.67 215.359 325.206 214.892 324.204 213.958C323.201 213.012 322.7 211.685 322.7 209.976C322.7 208.802 323.019 207.782 323.657 206.917C324.306 206.039 325.24 205.361 326.459 204.883C327.679 204.393 329.137 204.148 330.834 204.148H334.133V202.336C334.133 201.22 333.791 200.354 333.107 199.739C332.435 199.124 331.484 198.816 330.253 198.816C329.479 198.816 328.806 198.913 328.237 199.106C327.667 199.289 327.149 199.545 326.682 199.875L326.323 202.456H323.725V198.218C324.557 197.546 325.525 197.039 326.63 196.697C327.736 196.344 328.96 196.167 330.305 196.167C332.549 196.167 334.309 196.702 335.585 197.773C336.861 198.844 337.5 200.377 337.5 202.371V211.274C337.5 211.514 337.5 211.747 337.5 211.975C337.511 212.203 337.528 212.431 337.551 212.659L339.345 212.847V215H334.509C334.406 214.499 334.326 214.049 334.27 213.65C334.213 213.251 334.173 212.852 334.15 212.454C333.5 213.285 332.686 213.98 331.706 214.539C330.738 215.085 329.701 215.359 328.596 215.359ZM329.091 212.539C330.208 212.539 331.228 212.271 332.15 211.736C333.073 211.2 333.734 210.557 334.133 209.805V206.455H330.715C329.165 206.455 328.003 206.825 327.229 207.566C326.454 208.306 326.066 209.132 326.066 210.044C326.066 210.853 326.317 211.474 326.818 211.907C327.32 212.328 328.077 212.539 329.091 212.539ZM350.317 215.359C348.642 215.359 347.184 214.972 345.942 214.197C344.7 213.411 343.737 212.323 343.054 210.933C342.37 209.543 342.028 207.936 342.028 206.113V205.396C342.028 203.641 342.359 202.069 343.02 200.679C343.68 199.289 344.632 198.189 345.874 197.38C347.115 196.571 348.597 196.167 350.317 196.167C351.809 196.167 353.114 196.412 354.23 196.902C355.358 197.392 356.304 198.064 357.067 198.918L357.153 203.362H354.521L353.94 200.132C353.553 199.733 353.068 199.414 352.487 199.175C351.906 198.936 351.223 198.816 350.437 198.816C349.434 198.816 348.551 199.112 347.788 199.705C347.036 200.297 346.449 201.089 346.027 202.08C345.606 203.071 345.395 204.176 345.395 205.396V206.113C345.395 207.458 345.589 208.625 345.976 209.617C346.375 210.608 346.939 211.377 347.668 211.924C348.409 212.459 349.286 212.727 350.3 212.727C351.439 212.727 352.385 212.414 353.137 211.787C353.889 211.16 354.35 210.3 354.521 209.207H357.546L357.58 209.309C357.523 210.369 357.21 211.36 356.64 212.283C356.07 213.206 355.256 213.952 354.196 214.521C353.148 215.08 351.855 215.359 350.317 215.359ZM366.74 215.291C365.373 215.291 364.285 214.892 363.476 214.094C362.679 213.285 362.28 211.998 362.28 210.232V199.004H359.357V196.509H362.28V192.048H365.646V196.509H369.663V199.004H365.646V210.232C365.646 211.121 365.823 211.776 366.176 212.197C366.529 212.619 367.002 212.83 367.595 212.83C367.993 212.83 368.438 212.795 368.928 212.727C369.418 212.647 369.799 212.579 370.073 212.522L370.534 214.727C370.044 214.875 369.44 215.006 368.723 215.12C368.016 215.234 367.355 215.291 366.74 215.291ZM373.901 215V211.548H377.268V215H373.901ZM373.901 199.961V196.509H377.268V199.961H373.901Z" fill="black"/>
<path d="M199.14 31.3589C197.762 31.3589 196.508 31.0854 195.38 30.5386C194.264 29.9917 193.364 29.1657 192.68 28.0605C192.008 26.9554 191.638 25.5711 191.569 23.9077L191.604 23.8052H194.833C194.879 25.48 195.261 26.7104 195.979 27.4966C196.708 28.2827 197.744 28.6758 199.089 28.6758C200.035 28.6758 200.809 28.4764 201.413 28.0776C202.017 27.6675 202.461 27.1092 202.746 26.4028C203.042 25.6851 203.19 24.8647 203.19 23.9419V8.76611L199.875 8.32178V6.11719H209.343V8.2876L206.557 8.76611V23.9419C206.557 25.423 206.272 26.7218 205.703 27.8384C205.144 28.9549 204.313 29.8208 203.208 30.436C202.114 31.0513 200.758 31.3589 199.14 31.3589ZM220.161 31.3589C218.452 31.3589 216.976 30.9601 215.734 30.1626C214.504 29.3537 213.553 28.2428 212.88 26.8301C212.208 25.4059 211.872 23.7824 211.872 21.9595V21.5835C211.872 19.7606 212.208 18.1427 212.88 16.73C213.553 15.3058 214.504 14.1893 215.734 13.3804C216.976 12.5715 218.44 12.167 220.126 12.167C221.835 12.167 223.305 12.5715 224.536 13.3804C225.778 14.1893 226.735 15.3001 227.407 16.7129C228.079 18.1257 228.415 19.7492 228.415 21.5835V21.9595C228.415 23.7938 228.079 25.423 227.407 26.8472C226.735 28.2599 225.783 29.3651 224.553 30.1626C223.322 30.9601 221.858 31.3589 220.161 31.3589ZM220.161 28.7271C221.232 28.7271 222.126 28.4365 222.844 27.8555C223.573 27.263 224.12 26.4598 224.484 25.4458C224.86 24.4204 225.048 23.2583 225.048 21.9595V21.5835C225.048 20.2847 224.86 19.1283 224.484 18.1143C224.12 17.0889 223.573 16.2856 222.844 15.7046C222.115 15.1121 221.209 14.8159 220.126 14.8159C219.056 14.8159 218.155 15.1121 217.426 15.7046C216.697 16.2856 216.15 17.0889 215.786 18.1143C215.421 19.1283 215.239 20.2847 215.239 21.5835V21.9595C215.239 23.2583 215.421 24.4204 215.786 25.4458C216.15 26.4598 216.697 27.263 217.426 27.8555C218.167 28.4365 219.078 28.7271 220.161 28.7271ZM230.244 31V28.8467L233.029 28.3682V6.98877L230.244 6.51025V4.33984H236.396V14.9697C237.034 14.0811 237.814 13.3918 238.737 12.9019C239.66 12.4119 240.686 12.167 241.813 12.167C243.796 12.167 245.334 12.7594 246.428 13.9443C247.521 15.1292 248.068 16.9521 248.068 19.4131V28.3682L250.854 28.8467V31H241.916V28.8467L244.702 28.3682V19.3789C244.702 17.8522 244.371 16.7243 243.71 15.9951C243.061 15.266 242.087 14.9014 240.788 14.9014C239.865 14.9014 239.022 15.1235 238.259 15.5679C237.507 16.0008 236.886 16.5933 236.396 17.3452V28.3682L239.182 28.8467V31H230.244ZM253.161 31V28.8467L255.947 28.3682V15.1577L253.161 14.6792V12.5088H258.955L259.194 15.2603C259.809 14.2804 260.578 13.5228 261.501 12.9873C262.435 12.4404 263.495 12.167 264.68 12.167C266.674 12.167 268.217 12.7537 269.311 13.9272C270.405 15.0894 270.952 16.8895 270.952 19.3276V28.3682L273.737 28.8467V31H264.799V28.8467L267.585 28.3682V19.396C267.585 17.7668 267.26 16.6104 266.611 15.9268C265.973 15.2432 264.993 14.9014 263.671 14.9014C262.703 14.9014 261.843 15.1349 261.091 15.6021C260.35 16.0692 259.758 16.7072 259.313 17.5161V28.3682L262.099 28.8467V31H253.161ZM284.965 31V28.8467L287.751 28.3682V8.76611L284.965 8.2876V6.11719H287.751H294.707C296.905 6.11719 298.819 6.64128 300.449 7.68945C302.089 8.73763 303.365 10.1789 304.277 12.0132C305.188 13.8475 305.644 15.9438 305.644 18.3022V18.832C305.644 21.1335 305.205 23.207 304.328 25.0527C303.451 26.887 302.203 28.3397 300.585 29.4106C298.979 30.4702 297.076 31 294.877 31H284.965ZM291.118 28.3682H294.707C296.279 28.3682 297.629 27.9409 298.757 27.0864C299.885 26.2205 300.751 25.0698 301.354 23.6343C301.97 22.1873 302.277 20.5866 302.277 18.832V18.2681C302.277 16.4565 301.97 14.8387 301.354 13.4146C300.751 11.979 299.885 10.8454 298.757 10.0137C297.629 9.18197 296.279 8.76611 294.707 8.76611H291.118V28.3682ZM316.376 31.3589C314.667 31.3589 313.192 30.9601 311.95 30.1626C310.72 29.3537 309.768 28.2428 309.096 26.8301C308.424 25.4059 308.088 23.7824 308.088 21.9595V21.5835C308.088 19.7606 308.424 18.1427 309.096 16.73C309.768 15.3058 310.72 14.1893 311.95 13.3804C313.192 12.5715 314.656 12.167 316.342 12.167C318.051 12.167 319.521 12.5715 320.751 13.3804C321.993 14.1893 322.95 15.3001 323.623 16.7129C324.295 18.1257 324.631 19.7492 324.631 21.5835V21.9595C324.631 23.7938 324.295 25.423 323.623 26.8472C322.95 28.2599 321.999 29.3651 320.769 30.1626C319.538 30.9601 318.074 31.3589 316.376 31.3589ZM316.376 28.7271C317.447 28.7271 318.342 28.4365 319.06 27.8555C319.789 27.263 320.336 26.4598 320.7 25.4458C321.076 24.4204 321.264 23.2583 321.264 21.9595V21.5835C321.264 20.2847 321.076 19.1283 320.7 18.1143C320.336 17.0889 319.789 16.2856 319.06 15.7046C318.33 15.1121 317.425 14.8159 316.342 14.8159C315.271 14.8159 314.371 15.1121 313.642 15.7046C312.913 16.2856 312.366 17.0889 312.001 18.1143C311.637 19.1283 311.455 20.2847 311.455 21.5835V21.9595C311.455 23.2583 311.637 24.4204 312.001 25.4458C312.366 26.4598 312.913 27.263 313.642 27.8555C314.383 28.4365 315.294 28.7271 316.376 28.7271ZM336.269 31.3589C334.56 31.3589 333.073 30.9715 331.809 30.1968C330.544 29.4106 329.564 28.3226 328.869 26.9326C328.186 25.5426 327.844 23.9362 327.844 22.1133V21.3613C327.844 19.6068 328.203 18.0402 328.92 16.6616C329.65 15.2716 330.612 14.1779 331.809 13.3804C333.016 12.5715 334.332 12.167 335.756 12.167C337.42 12.167 338.81 12.5088 339.926 13.1924C341.054 13.876 341.903 14.8387 342.473 16.0806C343.042 17.311 343.327 18.7637 343.327 20.4385V22.5405H331.33L331.279 22.626C331.302 23.8109 331.507 24.8647 331.894 25.7876C332.293 26.6991 332.862 27.4168 333.603 27.9409C334.344 28.465 335.232 28.7271 336.269 28.7271C337.408 28.7271 338.405 28.5675 339.26 28.2485C340.126 27.9181 340.872 27.4681 341.499 26.8984L342.814 29.0859C342.154 29.724 341.276 30.2651 340.183 30.7095C339.1 31.1424 337.796 31.3589 336.269 31.3589ZM331.433 19.9087H339.96V19.4644C339.96 18.5757 339.801 17.7839 339.482 17.0889C339.174 16.3825 338.707 15.8299 338.081 15.4312C337.465 15.021 336.691 14.8159 335.756 14.8159C335.004 14.8159 334.321 15.0381 333.706 15.4824C333.09 15.9154 332.583 16.5078 332.185 17.2598C331.786 18.0117 331.524 18.8662 331.398 19.8232L331.433 19.9087ZM271.14 77V74.8467L272.985 74.5903L281.684 52.1172H284.572L293.117 74.5903L294.946 74.8467V77H287.802V74.8467L289.682 74.522L288.042 69.9419H278.078L276.386 74.522L278.266 74.8467V77H271.14ZM279.121 67.1221H287.016L283.359 57.0049L283.154 56.4409H283.051L282.846 57.0049L279.121 67.1221ZM302.106 77.2905C300.739 77.2905 299.651 76.8918 298.842 76.0942C298.045 75.2853 297.646 73.9979 297.646 72.2319V61.0039H294.724V58.5088H297.646V54.0483H301.013V58.5088H305.029V61.0039H301.013V72.2319C301.013 73.1206 301.189 73.7757 301.542 74.1973C301.896 74.6188 302.368 74.8296 302.961 74.8296C303.36 74.8296 303.804 74.7954 304.294 74.7271C304.784 74.6473 305.166 74.5789 305.439 74.522L305.9 76.7266C305.41 76.8747 304.807 77.0057 304.089 77.1196C303.382 77.2336 302.722 77.2905 302.106 77.2905ZM309.421 67.8057V65.1738H317.778V67.8057H309.421ZM321.811 77V74.8467L324.597 74.3682V54.7661L321.811 54.2876V52.1343H332.902C334.714 52.1343 336.241 52.4077 337.482 52.9546C338.736 53.4901 339.687 54.2705 340.336 55.2959C340.986 56.3213 341.311 57.5745 341.311 59.0557C341.311 60.514 340.992 61.7388 340.354 62.73C339.727 63.7212 338.833 64.4731 337.67 64.9858C336.508 65.4871 335.13 65.7549 333.535 65.7891L327.963 65.8916V74.3682L330.749 74.8467V77H321.811ZM338.234 77L332.697 64.5757L336.064 64.5415L340.661 74.4878L342.387 74.7954V77H338.234ZM327.963 63.2427H332.561C334.44 63.2427 335.808 62.8838 336.662 62.166C337.517 61.4482 337.944 60.4001 337.944 59.0215C337.944 57.7113 337.534 56.6745 336.713 55.9111C335.893 55.1478 334.623 54.7661 332.902 54.7661H327.963V63.2427ZM345.258 77V74.8467L348.044 74.3682V61.1577L345.258 60.6792V58.5088H351.411V74.3682L354.196 74.8467V77H345.258ZM347.873 53.9458V50.3398H351.411V53.9458H347.873ZM364.006 77.3589C362.764 77.3589 361.602 77.2336 360.52 76.9829C359.437 76.7323 358.286 76.3449 357.067 75.8208L357.033 71.4287H359.58L360.212 74.0776C360.85 74.3397 361.465 74.5334 362.058 74.6587C362.661 74.7726 363.311 74.8296 364.006 74.8296C365.373 74.8296 366.353 74.5675 366.945 74.0435C367.538 73.5194 367.834 72.87 367.834 72.0952C367.834 71.366 367.532 70.7508 366.928 70.2495C366.336 69.7368 365.253 69.3039 363.681 68.9507C361.448 68.438 359.802 67.7544 358.742 66.8999C357.694 66.034 357.17 64.8833 357.17 63.4478C357.17 62.4451 357.46 61.5508 358.042 60.7646C358.623 59.9671 359.431 59.3348 360.468 58.8677C361.505 58.4006 362.713 58.167 364.091 58.167C365.493 58.167 366.689 58.3265 367.68 58.6455C368.683 58.9645 369.554 59.3918 370.295 59.9272L370.466 64.1484H367.937L367.39 61.6875C366.991 61.3913 366.518 61.1634 365.971 61.0039C365.424 60.8444 364.798 60.7646 364.091 60.7646C363.043 60.7646 362.189 61.0096 361.528 61.4995C360.878 61.9894 360.554 62.6047 360.554 63.3452C360.554 63.7782 360.645 64.1541 360.827 64.4731C361.021 64.7922 361.385 65.0827 361.921 65.3447C362.456 65.5954 363.243 65.846 364.279 66.0967C366.854 66.7005 368.649 67.4696 369.663 68.4038C370.688 69.3381 371.201 70.4888 371.201 71.856C371.201 73.4168 370.62 74.7271 369.458 75.7866C368.307 76.8348 366.49 77.3589 364.006 77.3589ZM373.815 77V74.8467L376.601 74.3682V52.9888L373.815 52.5103V50.3398H379.968V74.3682L382.753 74.8467V77H373.815ZM385.693 77V74.8467L387.573 74.6245L387.521 74.5562L382.172 67.6519L383.916 64.9688L391.384 74.4365L394.05 74.8467V77H385.693ZM379.729 71.6509L378.481 69.002L386.513 61.0039L386.599 60.9014L384.616 60.6792V58.5088H392.58V60.6792L390.205 61.1235L379.729 71.6509ZM117.639 130.468C117.274 130.468 116.944 130.44 116.647 130.383C116.351 130.337 116.044 130.263 115.725 130.161L115.947 127.597C116.106 127.654 116.374 127.705 116.75 127.751C117.137 127.797 117.434 127.819 117.639 127.819C118.311 127.819 118.841 127.523 119.228 126.931C119.627 126.35 119.826 125.546 119.826 124.521V107.158L117.041 106.679V104.509H123.193V124.521C123.193 126.424 122.703 127.888 121.723 128.913C120.743 129.95 119.382 130.468 117.639 130.468ZM119.655 99.9458V96.3398H123.193V99.9458H119.655ZM134.199 123.359C132.695 123.359 131.402 122.989 130.319 122.248C129.248 121.496 128.428 120.454 127.858 119.121C127.289 117.788 127.004 116.232 127.004 114.455V114.096C127.004 112.114 127.289 110.376 127.858 108.884C128.428 107.391 129.254 106.235 130.336 105.415C131.419 104.583 132.718 104.167 134.233 104.167C135.327 104.167 136.289 104.372 137.121 104.782C137.964 105.181 138.682 105.762 139.274 106.525V98.9888L136.489 98.5103V96.3398H139.274H142.641V120.368L145.427 120.847V123H139.719L139.445 120.795C138.841 121.639 138.101 122.277 137.224 122.709C136.358 123.142 135.349 123.359 134.199 123.359ZM135.053 120.625C136.056 120.625 136.899 120.397 137.583 119.941C138.266 119.485 138.83 118.841 139.274 118.01V109.431C138.841 108.656 138.278 108.041 137.583 107.585C136.888 107.129 136.056 106.901 135.087 106.901C134.016 106.901 133.133 107.209 132.438 107.824C131.743 108.428 131.225 109.271 130.883 110.354C130.542 111.424 130.371 112.672 130.371 114.096V114.455C130.371 116.312 130.752 117.805 131.516 118.933C132.279 120.061 133.458 120.625 135.053 120.625ZM156.005 123.359C154.296 123.359 152.821 122.96 151.579 122.163C150.349 121.354 149.397 120.243 148.725 118.83C148.053 117.406 147.717 115.782 147.717 113.959V113.583C147.717 111.761 148.053 110.143 148.725 108.73C149.397 107.306 150.349 106.189 151.579 105.38C152.821 104.571 154.285 104.167 155.971 104.167C157.68 104.167 159.15 104.571 160.38 105.38C161.622 106.189 162.579 107.3 163.251 108.713C163.924 110.126 164.26 111.749 164.26 113.583V113.959C164.26 115.794 163.924 117.423 163.251 118.847C162.579 120.26 161.628 121.365 160.397 122.163C159.167 122.96 157.703 123.359 156.005 123.359ZM156.005 120.727C157.076 120.727 157.971 120.437 158.688 119.855C159.418 119.263 159.965 118.46 160.329 117.446C160.705 116.42 160.893 115.258 160.893 113.959V113.583C160.893 112.285 160.705 111.128 160.329 110.114C159.965 109.089 159.418 108.286 158.688 107.705C157.959 107.112 157.054 106.816 155.971 106.816C154.9 106.816 154 107.112 153.271 107.705C152.542 108.286 151.995 109.089 151.63 110.114C151.266 111.128 151.083 112.285 151.083 113.583V113.959C151.083 115.258 151.266 116.42 151.63 117.446C151.995 118.46 152.542 119.263 153.271 119.855C154.012 120.437 154.923 120.727 156.005 120.727ZM175.898 123.359C174.189 123.359 172.702 122.972 171.438 122.197C170.173 121.411 169.193 120.323 168.498 118.933C167.814 117.543 167.473 115.936 167.473 114.113V113.361C167.473 111.607 167.832 110.04 168.549 108.662C169.278 107.272 170.241 106.178 171.438 105.38C172.645 104.571 173.961 104.167 175.385 104.167C177.049 104.167 178.439 104.509 179.555 105.192C180.683 105.876 181.532 106.839 182.102 108.081C182.671 109.311 182.956 110.764 182.956 112.438V114.541H170.959L170.908 114.626C170.931 115.811 171.136 116.865 171.523 117.788C171.922 118.699 172.491 119.417 173.232 119.941C173.972 120.465 174.861 120.727 175.898 120.727C177.037 120.727 178.034 120.568 178.889 120.249C179.755 119.918 180.501 119.468 181.127 118.898L182.443 121.086C181.783 121.724 180.905 122.265 179.812 122.709C178.729 123.142 177.425 123.359 175.898 123.359ZM171.062 111.909H179.589V111.464C179.589 110.576 179.43 109.784 179.111 109.089C178.803 108.382 178.336 107.83 177.709 107.431C177.094 107.021 176.319 106.816 175.385 106.816C174.633 106.816 173.95 107.038 173.334 107.482C172.719 107.915 172.212 108.508 171.813 109.26C171.415 110.012 171.153 110.866 171.027 111.823L171.062 111.909ZM199.072 130.742C196.189 130.742 193.728 130.098 191.689 128.811C189.661 127.523 188.134 125.689 187.109 123.308C186.083 120.938 185.645 118.112 185.793 114.831C185.941 111.618 186.63 108.787 187.861 106.337C189.091 103.888 190.772 101.979 192.902 100.612C195.033 99.2337 197.511 98.5444 200.336 98.5444C203.219 98.5444 205.657 99.1882 207.651 100.476C209.656 101.763 211.154 103.597 212.146 105.979C213.137 108.348 213.57 111.162 213.444 114.421C213.376 116.05 213.051 117.543 212.47 118.898C211.889 120.243 211.035 121.325 209.907 122.146C208.79 122.954 207.395 123.359 205.72 123.359C204.888 123.359 204.165 123.125 203.549 122.658C202.945 122.18 202.513 121.513 202.25 120.659C201.123 122.459 199.476 123.359 197.312 123.359C195.887 123.359 194.782 122.675 193.996 121.308C193.21 119.93 192.919 118.124 193.125 115.891C193.295 113.92 193.706 112.205 194.355 110.747C195.016 109.277 195.847 108.138 196.85 107.329C197.864 106.52 198.992 106.115 200.234 106.115C201.43 106.115 202.387 106.263 203.105 106.56C203.834 106.856 204.637 107.312 205.515 107.927L205.549 107.995L204.677 117.993C204.609 118.824 204.643 119.485 204.78 119.975C204.917 120.454 205.127 120.795 205.412 121C205.708 121.194 206.05 121.291 206.438 121.291C207.839 121.291 208.955 120.647 209.787 119.36C210.63 118.061 211.097 116.415 211.188 114.421C211.382 110.069 210.562 106.679 208.728 104.252C206.905 101.814 204.085 100.595 200.268 100.595C197.921 100.595 195.876 101.193 194.133 102.39C192.39 103.586 191.017 105.255 190.014 107.397C189.012 109.539 188.453 112.017 188.339 114.831C188.203 117.691 188.544 120.157 189.365 122.231C190.185 124.305 191.421 125.905 193.073 127.033C194.737 128.161 196.759 128.725 199.14 128.725C200.143 128.725 201.157 128.6 202.182 128.349C203.208 128.11 204.073 127.791 204.78 127.392L205.446 129.221C204.672 129.699 203.692 130.069 202.507 130.332C201.333 130.605 200.188 130.742 199.072 130.742ZM198.337 120.847C199.055 120.847 199.715 120.704 200.319 120.419C200.935 120.135 201.493 119.633 201.994 118.916C201.983 118.779 201.977 118.636 201.977 118.488C201.988 118.34 202.006 118.175 202.028 117.993L202.832 108.798C202.535 108.662 202.222 108.553 201.892 108.474C201.573 108.394 201.236 108.354 200.883 108.354C199.459 108.354 198.371 108.975 197.619 110.217C196.867 111.459 196.372 113.35 196.132 115.891C196.007 117.497 196.132 118.728 196.508 119.582C196.884 120.425 197.494 120.847 198.337 120.847ZM224.843 130.468C223.955 130.468 222.992 130.343 221.955 130.092C220.918 129.853 220.007 129.523 219.221 129.101L220.092 126.486C220.719 126.817 221.459 127.09 222.314 127.307C223.168 127.523 224 127.631 224.809 127.631C226.313 127.631 227.412 127.21 228.107 126.367C228.814 125.524 229.167 124.322 229.167 122.761V121C228.563 121.775 227.84 122.362 226.997 122.761C226.153 123.16 225.185 123.359 224.091 123.359C222.587 123.359 221.289 122.989 220.195 122.248C219.101 121.496 218.258 120.454 217.666 119.121C217.084 117.776 216.794 116.221 216.794 114.455V114.096C216.794 112.114 217.084 110.376 217.666 108.884C218.258 107.391 219.101 106.235 220.195 105.415C221.289 104.583 222.599 104.167 224.125 104.167C225.288 104.167 226.307 104.395 227.185 104.851C228.062 105.306 228.797 105.967 229.389 106.833L229.697 104.509H232.534V122.761C232.534 124.356 232.232 125.729 231.628 126.879C231.035 128.03 230.164 128.913 229.013 129.528C227.874 130.155 226.484 130.468 224.843 130.468ZM224.929 120.625C225.943 120.625 226.792 120.397 227.475 119.941C228.159 119.474 228.723 118.819 229.167 117.976V109.465C228.734 108.679 228.17 108.058 227.475 107.602C226.78 107.135 225.943 106.901 224.963 106.901C223.892 106.901 222.998 107.209 222.28 107.824C221.573 108.439 221.044 109.288 220.69 110.371C220.337 111.442 220.161 112.683 220.161 114.096V114.455C220.161 116.312 220.554 117.805 221.34 118.933C222.126 120.061 223.322 120.625 224.929 120.625ZM232.021 107.26L230.705 104.509H234.824V106.662L232.021 107.26ZM236.516 123V120.847L239.301 120.368V107.158L236.516 106.679V104.509H242.326L242.548 106.918C243.141 106.041 243.904 105.363 244.838 104.885C245.773 104.406 246.855 104.167 248.085 104.167C249.316 104.167 250.37 104.452 251.247 105.021C252.136 105.591 252.802 106.446 253.247 107.585C253.828 106.537 254.597 105.705 255.554 105.09C256.511 104.475 257.627 104.167 258.903 104.167C260.795 104.167 262.287 104.816 263.381 106.115C264.475 107.403 265.021 109.345 265.021 111.943V120.368L267.807 120.847V123H258.852V120.847L261.638 120.368V111.909C261.638 110.086 261.324 108.798 260.698 108.046C260.071 107.283 259.143 106.901 257.912 106.901C256.739 106.901 255.793 107.317 255.075 108.149C254.369 108.969 253.959 110.006 253.845 111.259V120.368L256.63 120.847V123H247.692V120.847L250.478 120.368V111.909C250.478 110.177 250.153 108.912 249.504 108.115C248.866 107.306 247.937 106.901 246.718 106.901C245.693 106.901 244.85 107.112 244.189 107.534C243.528 107.955 243.021 108.548 242.668 109.311V120.368L245.454 120.847V123H236.516ZM276.301 123.359C274.375 123.359 272.911 122.892 271.909 121.958C270.906 121.012 270.405 119.685 270.405 117.976C270.405 116.802 270.724 115.782 271.362 114.917C272.011 114.039 272.945 113.361 274.165 112.883C275.384 112.393 276.842 112.148 278.54 112.148H281.838V110.336C281.838 109.22 281.496 108.354 280.812 107.739C280.14 107.124 279.189 106.816 277.958 106.816C277.184 106.816 276.512 106.913 275.942 107.106C275.372 107.289 274.854 107.545 274.387 107.875L274.028 110.456H271.43V106.218C272.262 105.546 273.23 105.039 274.335 104.697C275.441 104.344 276.665 104.167 278.01 104.167C280.254 104.167 282.014 104.702 283.291 105.773C284.567 106.844 285.205 108.377 285.205 110.371V119.274C285.205 119.514 285.205 119.747 285.205 119.975C285.216 120.203 285.233 120.431 285.256 120.659L287.05 120.847V123H282.214C282.111 122.499 282.032 122.049 281.975 121.65C281.918 121.251 281.878 120.852 281.855 120.454C281.206 121.285 280.391 121.98 279.411 122.539C278.443 123.085 277.406 123.359 276.301 123.359ZM276.796 120.539C277.913 120.539 278.933 120.271 279.855 119.736C280.778 119.2 281.439 118.557 281.838 117.805V114.455H278.42C276.87 114.455 275.708 114.825 274.934 115.566C274.159 116.306 273.771 117.132 273.771 118.044C273.771 118.853 274.022 119.474 274.523 119.907C275.025 120.328 275.782 120.539 276.796 120.539ZM289.545 123V120.847L292.331 120.368V107.158L289.545 106.679V104.509H295.698V120.368L298.483 120.847V123H289.545ZM292.16 99.9458V96.3398H295.698V99.9458H292.16ZM300.637 123V120.847L303.422 120.368V98.9888L300.637 98.5103V96.3398H306.789V120.368L309.575 120.847V123H300.637ZM313.198 123V119.548H316.564V123H313.198ZM328.784 123.359C327.109 123.359 325.651 122.972 324.409 122.197C323.167 121.411 322.204 120.323 321.521 118.933C320.837 117.543 320.495 115.936 320.495 114.113V113.396C320.495 111.641 320.826 110.069 321.486 108.679C322.147 107.289 323.098 106.189 324.34 105.38C325.582 104.571 327.063 104.167 328.784 104.167C330.276 104.167 331.581 104.412 332.697 104.902C333.825 105.392 334.771 106.064 335.534 106.918L335.62 111.362H332.988L332.407 108.132C332.019 107.733 331.535 107.414 330.954 107.175C330.373 106.936 329.689 106.816 328.903 106.816C327.901 106.816 327.018 107.112 326.254 107.705C325.502 108.297 324.916 109.089 324.494 110.08C324.073 111.071 323.862 112.176 323.862 113.396V114.113C323.862 115.458 324.056 116.625 324.443 117.617C324.842 118.608 325.406 119.377 326.135 119.924C326.875 120.459 327.753 120.727 328.767 120.727C329.906 120.727 330.852 120.414 331.604 119.787C332.355 119.16 332.817 118.3 332.988 117.207H336.013L336.047 117.309C335.99 118.369 335.677 119.36 335.107 120.283C334.537 121.206 333.723 121.952 332.663 122.521C331.615 123.08 330.322 123.359 328.784 123.359ZM347.48 123.359C345.771 123.359 344.296 122.96 343.054 122.163C341.823 121.354 340.872 120.243 340.2 118.83C339.528 117.406 339.191 115.782 339.191 113.959V113.583C339.191 111.761 339.528 110.143 340.2 108.73C340.872 107.306 341.823 106.189 343.054 105.38C344.296 104.571 345.76 104.167 347.446 104.167C349.155 104.167 350.625 104.571 351.855 105.38C353.097 106.189 354.054 107.3 354.726 108.713C355.398 110.126 355.734 111.749 355.734 113.583V113.959C355.734 115.794 355.398 117.423 354.726 118.847C354.054 120.26 353.103 121.365 351.872 122.163C350.642 122.96 349.178 123.359 347.48 123.359ZM347.48 120.727C348.551 120.727 349.445 120.437 350.163 119.855C350.892 119.263 351.439 118.46 351.804 117.446C352.18 116.42 352.368 115.258 352.368 113.959V113.583C352.368 112.285 352.18 111.128 351.804 110.114C351.439 109.089 350.892 108.286 350.163 107.705C349.434 107.112 348.528 106.816 347.446 106.816C346.375 106.816 345.475 107.112 344.746 107.705C344.016 108.286 343.47 109.089 343.105 110.114C342.74 111.128 342.558 112.285 342.558 113.583V113.959C342.558 115.258 342.74 116.42 343.105 117.446C343.47 118.46 344.016 119.263 344.746 119.855C345.486 120.437 346.398 120.727 347.48 120.727ZM358.332 123V120.847L361.118 120.368V107.158L358.332 106.679V104.509H364.143L364.365 106.918C364.957 106.041 365.721 105.363 366.655 104.885C367.589 104.406 368.671 104.167 369.902 104.167C371.132 104.167 372.186 104.452 373.063 105.021C373.952 105.591 374.619 106.446 375.063 107.585C375.644 106.537 376.413 105.705 377.37 105.09C378.327 104.475 379.444 104.167 380.72 104.167C382.611 104.167 384.104 104.816 385.197 106.115C386.291 107.403 386.838 109.345 386.838 111.943V120.368L389.624 120.847V123H380.668V120.847L383.454 120.368V111.909C383.454 110.086 383.141 108.798 382.514 108.046C381.888 107.283 380.959 106.901 379.729 106.901C378.555 106.901 377.609 107.317 376.892 108.149C376.185 108.969 375.775 110.006 375.661 111.259V120.368L378.447 120.847V123H369.509V120.847L372.294 120.368V111.909C372.294 110.177 371.97 108.912 371.32 108.115C370.682 107.306 369.754 106.901 368.535 106.901C367.509 106.901 366.666 107.112 366.005 107.534C365.345 107.955 364.838 108.548 364.484 109.311V120.368L367.27 120.847V123H358.332ZM265.141 169.359C262.646 169.359 260.561 168.812 258.886 167.718C257.223 166.625 255.97 165.126 255.126 163.224C254.295 161.321 253.879 159.162 253.879 156.747V156.388C253.879 153.95 254.318 151.785 255.195 149.894C256.072 147.991 257.331 146.493 258.972 145.399C260.612 144.305 262.572 143.758 264.851 143.758C266.457 143.758 267.927 144.009 269.26 144.51C270.593 145.012 271.698 145.65 272.575 146.424V151.791H269.892L269.533 147.86C269.169 147.575 268.747 147.336 268.269 147.142C267.801 146.948 267.277 146.8 266.696 146.698C266.127 146.595 265.506 146.544 264.833 146.544C263.204 146.544 261.826 146.965 260.698 147.809C259.57 148.64 258.715 149.791 258.134 151.261C257.553 152.73 257.263 154.428 257.263 156.354V156.747C257.263 158.832 257.57 160.615 258.186 162.096C258.812 163.565 259.718 164.688 260.903 165.462C262.099 166.237 263.552 166.625 265.261 166.625C266.058 166.625 266.839 166.528 267.602 166.334C268.365 166.14 268.998 165.89 269.499 165.582L269.875 162.113H272.507V167.513C271.573 168.094 270.456 168.55 269.157 168.88C267.858 169.199 266.52 169.359 265.141 169.359ZM275.651 169V166.847L278.437 166.368V144.989L275.651 144.51V142.34H281.804V166.368L284.589 166.847V169H275.651ZM292.98 169.359C291.055 169.359 289.591 168.892 288.588 167.958C287.586 167.012 287.084 165.685 287.084 163.976C287.084 162.802 287.403 161.782 288.042 160.917C288.691 160.039 289.625 159.361 290.844 158.883C292.063 158.393 293.522 158.148 295.219 158.148H298.518V156.336C298.518 155.22 298.176 154.354 297.492 153.739C296.82 153.124 295.869 152.816 294.638 152.816C293.863 152.816 293.191 152.913 292.622 153.106C292.052 153.289 291.534 153.545 291.066 153.875L290.708 156.456H288.11V152.218C288.942 151.546 289.91 151.039 291.015 150.697C292.12 150.344 293.345 150.167 294.689 150.167C296.934 150.167 298.694 150.702 299.97 151.773C301.246 152.844 301.884 154.377 301.884 156.371V165.274C301.884 165.514 301.884 165.747 301.884 165.975C301.896 166.203 301.913 166.431 301.936 166.659L303.73 166.847V169H298.894C298.791 168.499 298.711 168.049 298.654 167.65C298.597 167.251 298.557 166.852 298.535 166.454C297.885 167.285 297.071 167.98 296.091 168.539C295.122 169.085 294.086 169.359 292.98 169.359ZM293.476 166.539C294.593 166.539 295.612 166.271 296.535 165.736C297.458 165.2 298.119 164.557 298.518 163.805V160.455H295.1C293.55 160.455 292.388 160.825 291.613 161.566C290.839 162.306 290.451 163.132 290.451 164.044C290.451 164.853 290.702 165.474 291.203 165.907C291.704 166.328 292.462 166.539 293.476 166.539ZM306.311 169V166.847L309.096 166.368V153.158L306.311 152.679V150.509H312.104L312.395 152.867L312.429 153.192C312.953 152.246 313.597 151.506 314.36 150.97C315.135 150.435 316.018 150.167 317.009 150.167C317.362 150.167 317.721 150.201 318.085 150.27C318.461 150.326 318.729 150.383 318.889 150.44L318.444 153.568L316.103 153.431C315.214 153.374 314.468 153.579 313.864 154.046C313.26 154.502 312.793 155.117 312.463 155.892V166.368L315.249 166.847V169H306.311ZM320.427 169V166.847L323.212 166.368V144.989L320.427 144.51V142.34H326.579V166.368L329.365 166.847V169H320.427ZM332.304 169V166.847L334.184 166.625L334.133 166.556L328.784 159.652L330.527 156.969L337.995 166.437L340.661 166.847V169H332.304ZM326.34 163.651L325.092 161.002L333.125 153.004L333.21 152.901L331.228 152.679V150.509H339.191V152.679L336.816 153.124L326.34 163.651ZM357.358 161.805L355.563 159.72L367.373 146.612L367.441 146.527L365.578 146.288V144.117H373.559V146.288L371.218 146.715L357.358 161.805ZM351.445 169V166.847L354.23 166.368V146.766L351.445 146.288V144.117H360.383V146.288L357.597 146.766V166.368L360.383 166.847V169H351.445ZM366.142 169V166.847L368.193 166.607L368.176 166.59L361.289 157.037L363.168 154.388L372.158 166.419L374.448 166.847V169H366.142ZM384.052 169.359C382.343 169.359 380.856 168.972 379.592 168.197C378.327 167.411 377.347 166.323 376.652 164.933C375.969 163.543 375.627 161.936 375.627 160.113V159.361C375.627 157.607 375.986 156.04 376.704 154.662C377.433 153.272 378.396 152.178 379.592 151.38C380.799 150.571 382.115 150.167 383.54 150.167C385.203 150.167 386.593 150.509 387.709 151.192C388.837 151.876 389.686 152.839 390.256 154.081C390.826 155.311 391.11 156.764 391.11 158.438V160.541H379.113L379.062 160.626C379.085 161.811 379.29 162.865 379.677 163.788C380.076 164.699 380.646 165.417 381.386 165.941C382.127 166.465 383.015 166.727 384.052 166.727C385.192 166.727 386.188 166.568 387.043 166.249C387.909 165.918 388.655 165.468 389.282 164.898L390.598 167.086C389.937 167.724 389.06 168.265 387.966 168.709C386.883 169.142 385.579 169.359 384.052 169.359ZM379.216 157.909H387.744V157.464C387.744 156.576 387.584 155.784 387.265 155.089C386.958 154.382 386.49 153.83 385.864 153.431C385.249 153.021 384.474 152.816 383.54 152.816C382.788 152.816 382.104 153.038 381.489 153.482C380.874 153.915 380.367 154.508 379.968 155.26C379.569 156.012 379.307 156.866 379.182 157.823L379.216 157.909ZM393.742 169V166.847L396.528 166.368V153.158L393.742 152.679V150.509H399.536L399.775 153.26C400.39 152.28 401.159 151.523 402.082 150.987C403.016 150.44 404.076 150.167 405.261 150.167C407.255 150.167 408.798 150.754 409.892 151.927C410.986 153.089 411.533 154.889 411.533 157.328V166.368L414.318 166.847V169H405.38V166.847L408.166 166.368V157.396C408.166 155.767 407.841 154.61 407.192 153.927C406.554 153.243 405.574 152.901 404.252 152.901C403.284 152.901 402.424 153.135 401.672 153.602C400.931 154.069 400.339 154.707 399.895 155.516V166.368L402.68 166.847V169H393.742ZM422.556 169.291C421.188 169.291 420.1 168.892 419.292 168.094C418.494 167.285 418.095 165.998 418.095 164.232V153.004H415.173V150.509H418.095V146.048H421.462V150.509H425.478V153.004H421.462V164.232C421.462 165.121 421.639 165.776 421.992 166.197C422.345 166.619 422.818 166.83 423.41 166.83C423.809 166.83 424.253 166.795 424.743 166.727C425.233 166.647 425.615 166.579 425.888 166.522L426.35 168.727C425.86 168.875 425.256 169.006 424.538 169.12C423.832 169.234 423.171 169.291 422.556 169.291ZM388.41 215V212.847L391.196 212.368V190.989L388.41 190.51V188.34H394.562V212.368L397.348 212.847V215H388.41ZM400.288 215V212.847L402.167 212.625L402.116 212.556L396.767 205.652L398.51 202.969L405.979 212.437L408.645 212.847V215H400.288ZM394.323 209.651L393.076 207.002L401.108 199.004L401.193 198.901L399.211 198.679V196.509H407.175V198.679L404.799 199.124L394.323 209.651ZM417.993 215.359C416.284 215.359 414.797 214.972 413.532 214.197C412.268 213.411 411.288 212.323 410.593 210.933C409.909 209.543 409.567 207.936 409.567 206.113V205.361C409.567 203.607 409.926 202.04 410.644 200.662C411.373 199.272 412.336 198.178 413.532 197.38C414.74 196.571 416.056 196.167 417.48 196.167C419.143 196.167 420.533 196.509 421.65 197.192C422.778 197.876 423.627 198.839 424.196 200.081C424.766 201.311 425.051 202.764 425.051 204.438V206.541H413.054L413.002 206.626C413.025 207.811 413.23 208.865 413.618 209.788C414.016 210.699 414.586 211.417 415.327 211.941C416.067 212.465 416.956 212.727 417.993 212.727C419.132 212.727 420.129 212.568 420.983 212.249C421.849 211.918 422.596 211.468 423.222 210.898L424.538 213.086C423.877 213.724 423 214.265 421.906 214.709C420.824 215.142 419.519 215.359 417.993 215.359ZM413.156 203.909H421.684V203.464C421.684 202.576 421.525 201.784 421.206 201.089C420.898 200.382 420.431 199.83 419.804 199.431C419.189 199.021 418.414 198.816 417.48 198.816C416.728 198.816 416.044 199.038 415.429 199.482C414.814 199.915 414.307 200.508 413.908 201.26C413.509 202.012 413.247 202.866 413.122 203.823L413.156 203.909ZM427.683 215V212.847L430.468 212.368V199.158L427.683 198.679V196.509H433.476L433.715 199.26C434.331 198.28 435.1 197.523 436.022 196.987C436.957 196.44 438.016 196.167 439.201 196.167C441.195 196.167 442.739 196.754 443.833 197.927C444.926 199.089 445.473 200.889 445.473 203.328V212.368L448.259 212.847V215H439.321V212.847L442.106 212.368V203.396C442.106 201.767 441.782 200.61 441.132 199.927C440.494 199.243 439.514 198.901 438.193 198.901C437.224 198.901 436.364 199.135 435.612 199.602C434.872 200.069 434.279 200.707 433.835 201.516V212.368L436.621 212.847V215H427.683ZM456.496 215.291C455.129 215.291 454.041 214.892 453.232 214.094C452.434 213.285 452.036 211.998 452.036 210.232V199.004H449.113V196.509H452.036V192.048H455.402V196.509H459.418V199.004H455.402V210.232C455.402 211.121 455.579 211.776 455.932 212.197C456.285 212.619 456.758 212.83 457.351 212.83C457.749 212.83 458.194 212.795 458.684 212.727C459.174 212.647 459.555 212.579 459.829 212.522L460.29 214.727C459.8 214.875 459.196 215.006 458.479 215.12C457.772 215.234 457.111 215.291 456.496 215.291ZM470.8 215.359C469.125 215.359 467.667 214.972 466.425 214.197C465.183 213.411 464.221 212.323 463.537 210.933C462.854 209.543 462.512 207.936 462.512 206.113V205.396C462.512 203.641 462.842 202.069 463.503 200.679C464.164 199.289 465.115 198.189 466.357 197.38C467.599 196.571 469.08 196.167 470.8 196.167C472.293 196.167 473.597 196.412 474.714 196.902C475.842 197.392 476.787 198.064 477.551 198.918L477.636 203.362H475.004L474.423 200.132C474.036 199.733 473.552 199.414 472.971 199.175C472.39 198.936 471.706 198.816 470.92 198.816C469.917 198.816 469.034 199.112 468.271 199.705C467.519 200.297 466.932 201.089 466.511 202.08C466.089 203.071 465.878 204.176 465.878 205.396V206.113C465.878 207.458 466.072 208.625 466.459 209.617C466.858 210.608 467.422 211.377 468.151 211.924C468.892 212.459 469.769 212.727 470.783 212.727C471.923 212.727 472.868 212.414 473.62 211.787C474.372 211.16 474.833 210.3 475.004 209.207H478.029L478.063 209.309C478.007 210.369 477.693 211.36 477.124 212.283C476.554 213.206 475.739 213.952 474.68 214.521C473.632 215.08 472.338 215.359 470.8 215.359ZM494.179 222.742C491.297 222.742 488.836 222.098 486.796 220.811C484.768 219.523 483.242 217.689 482.216 215.308C481.191 212.938 480.752 210.112 480.9 206.831C481.049 203.618 481.738 200.787 482.968 198.337C484.199 195.888 485.879 193.979 488.01 192.612C490.14 191.234 492.618 190.544 495.444 190.544C498.326 190.544 500.764 191.188 502.758 192.476C504.764 193.763 506.262 195.597 507.253 197.979C508.244 200.348 508.677 203.162 508.552 206.421C508.483 208.05 508.159 209.543 507.578 210.898C506.997 212.243 506.142 213.325 505.014 214.146C503.898 214.954 502.502 215.359 500.827 215.359C499.995 215.359 499.272 215.125 498.657 214.658C498.053 214.18 497.62 213.513 497.358 212.659C496.23 214.459 494.584 215.359 492.419 215.359C490.995 215.359 489.89 214.675 489.104 213.308C488.317 211.93 488.027 210.124 488.232 207.891C488.403 205.92 488.813 204.205 489.462 202.747C490.123 201.277 490.955 200.138 491.958 199.329C492.972 198.52 494.099 198.115 495.341 198.115C496.538 198.115 497.495 198.263 498.212 198.56C498.942 198.856 499.745 199.312 500.622 199.927L500.656 199.995L499.785 209.993C499.716 210.824 499.75 211.485 499.887 211.975C500.024 212.454 500.235 212.795 500.52 213C500.816 213.194 501.158 213.291 501.545 213.291C502.946 213.291 504.063 212.647 504.895 211.36C505.738 210.061 506.205 208.415 506.296 206.421C506.49 202.069 505.669 198.679 503.835 196.252C502.012 193.814 499.192 192.595 495.375 192.595C493.028 192.595 490.983 193.193 489.24 194.39C487.497 195.586 486.124 197.255 485.122 199.397C484.119 201.539 483.561 204.017 483.447 206.831C483.31 209.691 483.652 212.157 484.472 214.231C485.292 216.305 486.529 217.905 488.181 219.033C489.844 220.161 491.866 220.725 494.248 220.725C495.25 220.725 496.264 220.6 497.29 220.349C498.315 220.11 499.181 219.791 499.887 219.392L500.554 221.221C499.779 221.699 498.799 222.069 497.614 222.332C496.441 222.605 495.296 222.742 494.179 222.742ZM493.444 212.847C494.162 212.847 494.823 212.704 495.427 212.419C496.042 212.135 496.6 211.633 497.102 210.916C497.09 210.779 497.084 210.636 497.084 210.488C497.096 210.34 497.113 210.175 497.136 209.993L497.939 200.798C497.643 200.662 497.329 200.553 496.999 200.474C496.68 200.394 496.344 200.354 495.991 200.354C494.567 200.354 493.479 200.975 492.727 202.217C491.975 203.459 491.479 205.35 491.24 207.891C491.114 209.497 491.24 210.728 491.616 211.582C491.992 212.425 492.601 212.847 493.444 212.847ZM519.951 222.468C519.062 222.468 518.099 222.343 517.062 222.092C516.026 221.853 515.114 221.523 514.328 221.101L515.2 218.486C515.826 218.817 516.567 219.09 517.421 219.307C518.276 219.523 519.108 219.631 519.917 219.631C521.42 219.631 522.52 219.21 523.215 218.367C523.921 217.524 524.274 216.322 524.274 214.761V213C523.671 213.775 522.947 214.362 522.104 214.761C521.261 215.16 520.292 215.359 519.199 215.359C517.695 215.359 516.396 214.989 515.302 214.248C514.208 213.496 513.365 212.454 512.773 211.121C512.192 209.776 511.901 208.221 511.901 206.455V206.096C511.901 204.114 512.192 202.376 512.773 200.884C513.365 199.391 514.208 198.235 515.302 197.415C516.396 196.583 517.706 196.167 519.233 196.167C520.395 196.167 521.415 196.395 522.292 196.851C523.169 197.306 523.904 197.967 524.497 198.833L524.804 196.509H527.641V214.761C527.641 216.356 527.339 217.729 526.735 218.879C526.143 220.03 525.271 220.913 524.121 221.528C522.981 222.155 521.591 222.468 519.951 222.468ZM520.036 212.625C521.05 212.625 521.899 212.397 522.583 211.941C523.266 211.474 523.83 210.819 524.274 209.976V201.465C523.841 200.679 523.278 200.058 522.583 199.602C521.888 199.135 521.05 198.901 520.07 198.901C518.999 198.901 518.105 199.209 517.387 199.824C516.681 200.439 516.151 201.288 515.798 202.371C515.445 203.442 515.268 204.683 515.268 206.096V206.455C515.268 208.312 515.661 209.805 516.447 210.933C517.233 212.061 518.43 212.625 520.036 212.625ZM527.128 199.26L525.812 196.509H529.931V198.662L527.128 199.26ZM531.623 215V212.847L534.409 212.368V199.158L531.623 198.679V196.509H537.434L537.656 198.918C538.248 198.041 539.012 197.363 539.946 196.885C540.88 196.406 541.962 196.167 543.193 196.167C544.423 196.167 545.477 196.452 546.354 197.021C547.243 197.591 547.91 198.446 548.354 199.585C548.935 198.537 549.704 197.705 550.661 197.09C551.618 196.475 552.735 196.167 554.011 196.167C555.902 196.167 557.395 196.816 558.488 198.115C559.582 199.403 560.129 201.345 560.129 203.943V212.368L562.915 212.847V215H553.959V212.847L556.745 212.368V203.909C556.745 202.086 556.432 200.798 555.805 200.046C555.179 199.283 554.25 198.901 553.02 198.901C551.846 198.901 550.9 199.317 550.183 200.149C549.476 200.969 549.066 202.006 548.952 203.259V212.368L551.738 212.847V215H542.8V212.847L545.585 212.368V203.909C545.585 202.177 545.261 200.912 544.611 200.115C543.973 199.306 543.045 198.901 541.826 198.901C540.8 198.901 539.957 199.112 539.296 199.534C538.636 199.955 538.129 200.548 537.775 201.311V212.368L540.561 212.847V215H531.623ZM571.408 215.359C569.483 215.359 568.019 214.892 567.016 213.958C566.014 213.012 565.512 211.685 565.512 209.976C565.512 208.802 565.831 207.782 566.469 206.917C567.119 206.039 568.053 205.361 569.272 204.883C570.491 204.393 571.949 204.148 573.647 204.148H576.945V202.336C576.945 201.22 576.604 200.354 575.92 199.739C575.248 199.124 574.296 198.816 573.066 198.816C572.291 198.816 571.619 198.913 571.049 199.106C570.48 199.289 569.961 199.545 569.494 199.875L569.135 202.456H566.538V198.218C567.369 197.546 568.338 197.039 569.443 196.697C570.548 196.344 571.773 196.167 573.117 196.167C575.362 196.167 577.122 196.702 578.398 197.773C579.674 198.844 580.312 200.377 580.312 202.371V211.274C580.312 211.514 580.312 211.747 580.312 211.975C580.323 212.203 580.34 212.431 580.363 212.659L582.158 212.847V215H577.321C577.219 214.499 577.139 214.049 577.082 213.65C577.025 213.251 576.985 212.852 576.962 212.454C576.313 213.285 575.498 213.98 574.519 214.539C573.55 215.085 572.513 215.359 571.408 215.359ZM571.904 212.539C573.02 212.539 574.04 212.271 574.963 211.736C575.886 211.2 576.547 210.557 576.945 209.805V206.455H573.527C571.978 206.455 570.816 206.825 570.041 207.566C569.266 208.306 568.879 209.132 568.879 210.044C568.879 210.853 569.13 211.474 569.631 211.907C570.132 212.328 570.89 212.539 571.904 212.539ZM584.653 215V212.847L587.438 212.368V199.158L584.653 198.679V196.509H590.805V212.368L593.591 212.847V215H584.653ZM587.268 191.946V188.34H590.805V191.946H587.268ZM595.744 215V212.847L598.53 212.368V190.989L595.744 190.51V188.34H601.896V212.368L604.682 212.847V215H595.744ZM608.305 215V211.548H611.672V215H608.305ZM623.891 215.359C622.216 215.359 620.758 214.972 619.516 214.197C618.274 213.411 617.312 212.323 616.628 210.933C615.944 209.543 615.603 207.936 615.603 206.113V205.396C615.603 203.641 615.933 202.069 616.594 200.679C617.255 199.289 618.206 198.189 619.448 197.38C620.69 196.571 622.171 196.167 623.891 196.167C625.384 196.167 626.688 196.412 627.805 196.902C628.933 197.392 629.878 198.064 630.642 198.918L630.727 203.362H628.095L627.514 200.132C627.127 199.733 626.643 199.414 626.062 199.175C625.48 198.936 624.797 198.816 624.011 198.816C623.008 198.816 622.125 199.112 621.362 199.705C620.61 200.297 620.023 201.089 619.602 202.08C619.18 203.071 618.969 204.176 618.969 205.396V206.113C618.969 207.458 619.163 208.625 619.55 209.617C619.949 210.608 620.513 211.377 621.242 211.924C621.983 212.459 622.86 212.727 623.874 212.727C625.013 212.727 625.959 212.414 626.711 211.787C627.463 211.16 627.924 210.3 628.095 209.207H631.12L631.154 209.309C631.097 210.369 630.784 211.36 630.214 212.283C629.645 213.206 628.83 213.952 627.771 214.521C626.722 215.08 625.429 215.359 623.891 215.359ZM642.587 215.359C640.878 215.359 639.403 214.96 638.161 214.163C636.931 213.354 635.979 212.243 635.307 210.83C634.635 209.406 634.299 207.782 634.299 205.959V205.583C634.299 203.761 634.635 202.143 635.307 200.73C635.979 199.306 636.931 198.189 638.161 197.38C639.403 196.571 640.867 196.167 642.553 196.167C644.262 196.167 645.732 196.571 646.962 197.38C648.204 198.189 649.161 199.3 649.833 200.713C650.506 202.126 650.842 203.749 650.842 205.583V205.959C650.842 207.794 650.506 209.423 649.833 210.847C649.161 212.26 648.21 213.365 646.979 214.163C645.749 214.96 644.285 215.359 642.587 215.359ZM642.587 212.727C643.658 212.727 644.553 212.437 645.271 211.855C646 211.263 646.547 210.46 646.911 209.446C647.287 208.42 647.475 207.258 647.475 205.959V205.583C647.475 204.285 647.287 203.128 646.911 202.114C646.547 201.089 646 200.286 645.271 199.705C644.541 199.112 643.636 198.816 642.553 198.816C641.482 198.816 640.582 199.112 639.853 199.705C639.124 200.286 638.577 201.089 638.212 202.114C637.848 203.128 637.666 204.285 637.666 205.583V205.959C637.666 207.258 637.848 208.42 638.212 209.446C638.577 210.46 639.124 211.263 639.853 211.855C640.594 212.437 641.505 212.727 642.587 212.727ZM653.439 215V212.847L656.225 212.368V199.158L653.439 198.679V196.509H659.25L659.472 198.918C660.065 198.041 660.828 197.363 661.762 196.885C662.696 196.406 663.779 196.167 665.009 196.167C666.24 196.167 667.294 196.452 668.171 197.021C669.06 197.591 669.726 198.446 670.17 199.585C670.751 198.537 671.521 197.705 672.478 197.09C673.435 196.475 674.551 196.167 675.827 196.167C677.718 196.167 679.211 196.816 680.305 198.115C681.398 199.403 681.945 201.345 681.945 203.943V212.368L684.731 212.847V215H675.776V212.847L678.562 212.368V203.909C678.562 202.086 678.248 200.798 677.622 200.046C676.995 199.283 676.066 198.901 674.836 198.901C673.662 198.901 672.717 199.317 671.999 200.149C671.293 200.969 670.882 202.006 670.769 203.259V212.368L673.554 212.847V215H664.616V212.847L667.402 212.368V203.909C667.402 202.177 667.077 200.912 666.428 200.115C665.79 199.306 664.861 198.901 663.642 198.901C662.617 198.901 661.774 199.112 661.113 199.534C660.452 199.955 659.945 200.548 659.592 201.311V212.368L662.377 212.847V215H653.439Z" fill="black" fill-opacity="0.55"/>
</g>
<defs>
<filter id="filter0_f_76_198" x="0.367188" y="0.339844" width="688.364" height="226.402" filterUnits="userSpaceOnUse" color-interpolation-filters="sRGB">
<feFlood flood-opacity="0" result="BackgroundImageFix"/>
<feBlend mode="normal" in="SourceGraphic" in2="BackgroundImageFix" result="shape"/>
<feGaussianBlur stdDeviation="2" result="effect1_foregroundBlur_76_198"/>
</filter>
</defs>
</svg>
