<svg width="281" height="58" viewBox="0 0 281 58" fill="none" xmlns="http://www.w3.org/2000/svg">
<g filter="url(#filter0_f_76_183)">
<path d="M26.7085 39.1304V6.78906H34.6431V39.1304C34.6431 42.1984 33.9871 44.8115 32.6753 46.9697C31.3634 49.1279 29.5755 50.7783 27.3115 51.9209C25.0475 53.0635 22.4767 53.6348 19.5991 53.6348C16.658 53.6348 14.0449 53.1375 11.7598 52.1431C9.49577 51.1486 7.71842 49.6252 6.42773 47.5728C5.13704 45.5203 4.4917 42.9178 4.4917 39.7651H12.4897C12.4897 41.5848 12.7754 43.0553 13.3467 44.1768C13.9391 45.277 14.7643 46.0811 15.8223 46.5889C16.9014 47.0755 18.1603 47.3188 19.5991 47.3188C20.9744 47.3188 22.1911 47.012 23.249 46.3984C24.3281 45.7637 25.1745 44.8433 25.7881 43.6372C26.4017 42.41 26.7085 40.9077 26.7085 39.1304ZM41.5938 36.2104V35.4805C41.5938 33.0049 41.9535 30.7091 42.6729 28.5933C43.3923 26.4562 44.429 24.6048 45.7832 23.0391C47.1585 21.4521 48.8301 20.2249 50.7979 19.3574C52.7868 18.4688 55.0296 18.0244 57.5264 18.0244C60.0443 18.0244 62.2871 18.4688 64.2549 19.3574C66.2438 20.2249 67.9259 21.4521 69.3013 23.0391C70.6766 24.6048 71.724 26.4562 72.4434 28.5933C73.1628 30.7091 73.5225 33.0049 73.5225 35.4805V36.2104C73.5225 38.686 73.1628 40.9818 72.4434 43.0977C71.724 45.2135 70.6766 47.0649 69.3013 48.6519C67.9259 50.2176 66.2544 51.4448 64.2866 52.3335C62.3188 53.201 60.0866 53.6348 57.5898 53.6348C55.0719 53.6348 52.8185 53.201 50.8296 52.3335C48.8618 51.4448 47.1903 50.2176 45.8149 48.6519C44.4396 47.0649 43.3923 45.2135 42.6729 43.0977C41.9535 40.9818 41.5938 38.686 41.5938 36.2104ZM49.2427 35.4805V36.2104C49.2427 37.755 49.4014 39.215 49.7188 40.5903C50.0361 41.9657 50.5334 43.1717 51.2104 44.2085C51.8875 45.2453 52.755 46.0599 53.813 46.6523C54.8709 47.2448 56.1299 47.541 57.5898 47.541C59.0075 47.541 60.2347 47.2448 61.2715 46.6523C62.3294 46.0599 63.1969 45.2453 63.874 44.2085C64.5511 43.1717 65.0483 41.9657 65.3657 40.5903C65.7043 39.215 65.8735 37.755 65.8735 36.2104V35.4805C65.8735 33.957 65.7043 32.5182 65.3657 31.1641C65.0483 29.7887 64.5405 28.5721 63.8423 27.5142C63.1652 26.4562 62.2977 25.631 61.2397 25.0386C60.203 24.425 58.9652 24.1182 57.5264 24.1182C56.0876 24.1182 54.8392 24.425 53.7812 25.0386C52.7445 25.631 51.8875 26.4562 51.2104 27.5142C50.5334 28.5721 50.0361 29.7887 49.7188 31.1641C49.4014 32.5182 49.2427 33.957 49.2427 35.4805ZM87.4873 4.25V53H79.8701V4.25H87.4873ZM86.1543 34.5601L83.6787 34.5283C83.6999 32.1585 84.0278 29.9686 84.6626 27.9585C85.3185 25.9484 86.2284 24.2028 87.3921 22.7217C88.577 21.2194 89.9946 20.0662 91.645 19.2622C93.2954 18.437 95.1257 18.0244 97.1357 18.0244C98.8285 18.0244 100.352 18.2572 101.706 18.7227C103.081 19.1882 104.266 19.9393 105.261 20.9761C106.255 21.9917 107.006 23.3247 107.514 24.9751C108.043 26.6043 108.308 28.5933 108.308 30.9419V53H100.627V30.8784C100.627 29.228 100.384 27.9162 99.897 26.9429C99.4315 25.9696 98.7438 25.2713 97.834 24.8481C96.9242 24.4038 95.8133 24.1816 94.5015 24.1816C93.1261 24.1816 91.9095 24.4567 90.8516 25.0068C89.8148 25.557 88.9473 26.3081 88.249 27.2603C87.5508 28.2124 87.0218 29.3127 86.6621 30.561C86.3236 31.8094 86.1543 33.1424 86.1543 34.5601ZM123.637 25.9907V53H115.988V18.6592H123.193L123.637 25.9907ZM122.272 34.5601L119.797 34.5283C119.818 32.0951 120.157 29.8628 120.812 27.8315C121.49 25.8003 122.421 24.0547 123.605 22.5947C124.812 21.1348 126.25 20.0133 127.922 19.2305C129.593 18.4264 131.455 18.0244 133.508 18.0244C135.158 18.0244 136.65 18.2572 137.983 18.7227C139.337 19.167 140.49 19.897 141.442 20.9126C142.416 21.9282 143.156 23.2507 143.664 24.8799C144.172 26.488 144.426 28.4663 144.426 30.8149V53H136.745V30.7832C136.745 29.1328 136.502 27.8315 136.015 26.8794C135.55 25.9061 134.862 25.2184 133.952 24.8164C133.063 24.3932 131.953 24.1816 130.62 24.1816C129.308 24.1816 128.133 24.4567 127.097 25.0068C126.06 25.557 125.182 26.3081 124.462 27.2603C123.764 28.2124 123.225 29.3127 122.844 30.561C122.463 31.8094 122.272 33.1424 122.272 34.5601ZM182.607 53H172.736L172.8 46.6841H182.607C185.463 46.6841 187.854 46.0599 189.78 44.8115C191.726 43.5632 193.186 41.7752 194.16 39.4478C195.154 37.1203 195.651 34.3485 195.651 31.1323V28.625C195.651 26.1283 195.366 23.9172 194.794 21.9917C194.244 20.0662 193.419 18.4476 192.319 17.1357C191.24 15.8239 189.907 14.8294 188.32 14.1523C186.754 13.4753 184.945 13.1367 182.893 13.1367H172.546V6.78906H182.893C185.961 6.78906 188.764 7.30745 191.303 8.34424C193.842 9.35986 196.032 10.8304 197.873 12.7559C199.735 14.6813 201.163 16.9876 202.158 19.6748C203.152 22.362 203.649 25.3665 203.649 28.6885V31.1323C203.649 34.4543 203.152 37.4588 202.158 40.146C201.163 42.8332 199.735 45.1395 197.873 47.0649C196.011 48.9692 193.789 50.4398 191.208 51.4766C188.648 52.4922 185.781 53 182.607 53ZM177.148 6.78906V53H169.182V6.78906H177.148ZM209.426 36.2104V35.4805C209.426 33.0049 209.785 30.7091 210.505 28.5933C211.224 26.4562 212.261 24.6048 213.615 23.0391C214.991 21.4521 216.662 20.2249 218.63 19.3574C220.619 18.4688 222.862 18.0244 225.358 18.0244C227.876 18.0244 230.119 18.4688 232.087 19.3574C234.076 20.2249 235.758 21.4521 237.133 23.0391C238.509 24.6048 239.556 26.4562 240.275 28.5933C240.995 30.7091 241.354 33.0049 241.354 35.4805V36.2104C241.354 38.686 240.995 40.9818 240.275 43.0977C239.556 45.2135 238.509 47.0649 237.133 48.6519C235.758 50.2176 234.086 51.4448 232.119 52.3335C230.151 53.201 227.919 53.6348 225.422 53.6348C222.904 53.6348 220.651 53.201 218.662 52.3335C216.694 51.4448 215.022 50.2176 213.647 48.6519C212.272 47.0649 211.224 45.2135 210.505 43.0977C209.785 40.9818 209.426 38.686 209.426 36.2104ZM217.075 35.4805V36.2104C217.075 37.755 217.233 39.215 217.551 40.5903C217.868 41.9657 218.365 43.1717 219.042 44.2085C219.72 45.2453 220.587 46.0599 221.645 46.6523C222.703 47.2448 223.962 47.541 225.422 47.541C226.84 47.541 228.067 47.2448 229.104 46.6523C230.161 46.0599 231.029 45.2453 231.706 44.2085C232.383 43.1717 232.88 41.9657 233.198 40.5903C233.536 39.215 233.706 37.755 233.706 36.2104V35.4805C233.706 33.957 233.536 32.5182 233.198 31.1641C232.88 29.7887 232.373 28.5721 231.674 27.5142C230.997 26.4562 230.13 25.631 229.072 25.0386C228.035 24.425 226.797 24.1182 225.358 24.1182C223.92 24.1182 222.671 24.425 221.613 25.0386C220.576 25.631 219.72 26.4562 219.042 27.5142C218.365 28.5721 217.868 29.7887 217.551 31.1641C217.233 32.5182 217.075 33.957 217.075 35.4805ZM262.905 53.6348C260.366 53.6348 258.07 53.2222 256.018 52.397C253.986 51.5506 252.251 50.3763 250.812 48.874C249.395 47.3717 248.305 45.605 247.543 43.5737C246.782 41.5425 246.401 39.3525 246.401 37.0039V35.7344C246.401 33.0472 246.792 30.6139 247.575 28.4346C248.358 26.2552 249.448 24.3932 250.844 22.8486C252.241 21.2829 253.891 20.0874 255.795 19.2622C257.7 18.437 259.763 18.0244 261.984 18.0244C264.439 18.0244 266.586 18.437 268.427 19.2622C270.268 20.0874 271.792 21.2511 272.998 22.7534C274.225 24.2345 275.135 26.0013 275.727 28.0537C276.341 30.1061 276.647 32.3701 276.647 34.8457V38.1147H250.114V32.624H269.094V32.021C269.051 30.6457 268.776 29.355 268.269 28.1489C267.782 26.9429 267.031 25.9696 266.015 25.229C265 24.4884 263.645 24.1182 261.953 24.1182C260.683 24.1182 259.551 24.3932 258.557 24.9434C257.583 25.4723 256.769 26.2446 256.113 27.2603C255.457 28.2759 254.949 29.5031 254.589 30.9419C254.251 32.3595 254.082 33.957 254.082 35.7344V37.0039C254.082 38.5062 254.283 39.9027 254.685 41.1934C255.108 42.4629 255.721 43.5737 256.525 44.5259C257.329 45.478 258.303 46.2292 259.445 46.7793C260.588 47.3083 261.889 47.5728 263.349 47.5728C265.19 47.5728 266.83 47.2025 268.269 46.4619C269.707 45.7214 270.956 44.674 272.014 43.3198L276.044 47.2236C275.304 48.3027 274.341 49.3395 273.156 50.334C271.971 51.3073 270.522 52.1007 268.808 52.7144C267.115 53.328 265.148 53.6348 262.905 53.6348Z" fill="black"/>
</g>
<defs>
<filter id="filter0_f_76_183" x="0.491699" y="0.25" width="280.156" height="57.3848" filterUnits="userSpaceOnUse" color-interpolation-filters="sRGB">
<feFlood flood-opacity="0" result="BackgroundImageFix"/>
<feBlend mode="normal" in="SourceGraphic" in2="BackgroundImageFix" result="shape"/>
<feGaussianBlur stdDeviation="2" result="effect1_foregroundBlur_76_183"/>
</filter>
</defs>
</svg>
