<svg width="428" height="44" viewBox="0 0 428 44" fill="none" xmlns="http://www.w3.org/2000/svg">
<g filter="url(#filter0_f_76_196)">
<path d="M16.4028 27.0688H8.0752V22.6963H16.4028C17.853 22.6963 19.0249 22.4619 19.9185 21.9932C20.812 21.5244 21.4639 20.8799 21.874 20.0596C22.2988 19.2246 22.5112 18.2725 22.5112 17.2031C22.5112 16.1924 22.2988 15.2476 21.874 14.3687C21.4639 13.4751 20.812 12.7573 19.9185 12.2153C19.0249 11.6733 17.853 11.4023 16.4028 11.4023H9.76709V39H4.25195V7.00781H16.4028C18.8784 7.00781 20.9805 7.44727 22.709 8.32617C24.4521 9.19043 25.7778 10.3916 26.686 11.9297C27.5942 13.4531 28.0483 15.1963 28.0483 17.1592C28.0483 19.2246 27.5942 20.9971 26.686 22.4766C25.7778 23.9561 24.4521 25.0913 22.709 25.8823C20.9805 26.6733 18.8784 27.0688 16.4028 27.0688ZM42.6382 39.4395C40.8804 39.4395 39.291 39.1538 37.8701 38.5825C36.4639 37.9966 35.2627 37.1836 34.2666 36.1436C33.2852 35.1035 32.5308 33.8804 32.0034 32.4741C31.4761 31.0679 31.2124 29.5518 31.2124 27.9258V27.0469C31.2124 25.1865 31.4834 23.502 32.0254 21.9932C32.5674 20.4844 33.3218 19.1953 34.2886 18.126C35.2554 17.042 36.3979 16.2144 37.7163 15.6431C39.0347 15.0718 40.4629 14.7861 42.001 14.7861C43.7002 14.7861 45.187 15.0718 46.4614 15.6431C47.7358 16.2144 48.7905 17.02 49.6255 18.0601C50.4751 19.0854 51.105 20.3086 51.5151 21.7295C51.9399 23.1504 52.1523 24.7178 52.1523 26.4316V28.6948H33.7832V24.8936H46.9229V24.4761C46.8936 23.5239 46.7031 22.6304 46.3516 21.7954C46.0146 20.9604 45.4946 20.2866 44.7915 19.7739C44.0884 19.2612 43.1509 19.0049 41.979 19.0049C41.1001 19.0049 40.3164 19.1953 39.6279 19.5762C38.9541 19.9424 38.3901 20.4771 37.936 21.1802C37.4819 21.8833 37.1304 22.7329 36.8813 23.729C36.647 24.7104 36.5298 25.8164 36.5298 27.0469V27.9258C36.5298 28.9658 36.6689 29.9326 36.9473 30.8262C37.2402 31.7051 37.665 32.4741 38.2217 33.1333C38.7783 33.7925 39.4521 34.3125 40.2432 34.6934C41.0342 35.0596 41.9351 35.2427 42.9458 35.2427C44.2202 35.2427 45.3555 34.9863 46.3516 34.4736C47.3477 33.9609 48.2119 33.2358 48.9443 32.2983L51.7349 35.001C51.2222 35.748 50.5557 36.4658 49.7354 37.1543C48.915 37.8281 47.9116 38.3774 46.7251 38.8022C45.5532 39.2271 44.1909 39.4395 42.6382 39.4395ZM61.6006 19.752V39H56.3052V15.2256H61.3589L61.6006 19.752ZM68.8735 15.0718L68.8296 19.9937C68.5073 19.9351 68.1558 19.8911 67.7749 19.8618C67.4087 19.8325 67.0425 19.8179 66.6763 19.8179C65.7681 19.8179 64.9697 19.9497 64.2812 20.2134C63.5928 20.4624 63.0142 20.8286 62.5454 21.312C62.0913 21.7808 61.7397 22.3521 61.4907 23.0259C61.2417 23.6997 61.0952 24.4541 61.0513 25.2891L59.8428 25.377C59.8428 23.8828 59.9893 22.4985 60.2822 21.2241C60.5752 19.9497 61.0146 18.8291 61.6006 17.8623C62.2012 16.8955 62.9482 16.1411 63.8418 15.5991C64.75 15.0571 65.7974 14.7861 66.9839 14.7861C67.3062 14.7861 67.6504 14.8154 68.0166 14.874C68.3975 14.9326 68.6831 14.9985 68.8735 15.0718ZM85.5288 32.562C85.5288 32.0347 85.397 31.5586 85.1333 31.1338C84.8696 30.6943 84.3643 30.2988 83.6172 29.9473C82.8848 29.5957 81.8008 29.2734 80.3652 28.9805C79.1055 28.7021 77.9482 28.3726 76.8936 27.9917C75.8535 27.5962 74.96 27.1201 74.2129 26.5635C73.4658 26.0068 72.8872 25.3477 72.4771 24.5859C72.0669 23.8242 71.8618 22.9453 71.8618 21.9492C71.8618 20.9824 72.0742 20.0669 72.499 19.2026C72.9238 18.3384 73.5317 17.5767 74.3228 16.9175C75.1138 16.2583 76.0732 15.7383 77.2012 15.3574C78.3438 14.9766 79.6182 14.7861 81.0244 14.7861C83.0166 14.7861 84.7231 15.123 86.144 15.7969C87.5796 16.4561 88.6782 17.3569 89.4399 18.4995C90.2017 19.6274 90.5825 20.9019 90.5825 22.3228H85.2871C85.2871 21.6929 85.126 21.1069 84.8037 20.5649C84.4961 20.0083 84.0273 19.5615 83.3975 19.2246C82.7676 18.873 81.9766 18.6973 81.0244 18.6973C80.1162 18.6973 79.3618 18.8438 78.7612 19.1367C78.1753 19.415 77.7358 19.7812 77.4429 20.2354C77.1646 20.6895 77.0254 21.1875 77.0254 21.7295C77.0254 22.125 77.0986 22.4839 77.2451 22.8062C77.4062 23.1138 77.6699 23.3994 78.0361 23.6631C78.4023 23.9121 78.9004 24.1465 79.5303 24.3662C80.1748 24.5859 80.9805 24.7983 81.9473 25.0034C83.7637 25.3843 85.3237 25.875 86.6274 26.4756C87.9458 27.0615 88.9565 27.8232 89.6597 28.7607C90.3628 29.6836 90.7144 30.8555 90.7144 32.2764C90.7144 33.3311 90.4873 34.2979 90.0332 35.1768C89.5938 36.041 88.9492 36.7954 88.0996 37.4399C87.25 38.0698 86.2319 38.5605 85.0454 38.9121C83.8735 39.2637 82.5552 39.4395 81.0903 39.4395C78.937 39.4395 77.1133 39.0586 75.6191 38.2969C74.125 37.5205 72.9897 36.5317 72.2134 35.3306C71.4517 34.1147 71.0708 32.855 71.0708 31.5513H76.1904C76.249 32.5327 76.52 33.3164 77.0034 33.9023C77.5015 34.4736 78.1167 34.8911 78.8491 35.1548C79.5962 35.4038 80.3652 35.5283 81.1562 35.5283C82.1084 35.5283 82.9067 35.4038 83.5513 35.1548C84.1958 34.8911 84.6865 34.5396 85.0234 34.1001C85.3604 33.646 85.5288 33.1333 85.5288 32.562ZM94.3398 27.3765V26.8711C94.3398 25.1572 94.5889 23.5679 95.0869 22.103C95.585 20.6235 96.3027 19.3418 97.2402 18.2578C98.1924 17.1592 99.3496 16.3096 100.712 15.709C102.089 15.0938 103.642 14.7861 105.37 14.7861C107.113 14.7861 108.666 15.0938 110.028 15.709C111.405 16.3096 112.57 17.1592 113.522 18.2578C114.474 19.3418 115.199 20.6235 115.697 22.103C116.195 23.5679 116.444 25.1572 116.444 26.8711V27.3765C116.444 29.0903 116.195 30.6797 115.697 32.1445C115.199 33.6094 114.474 34.8911 113.522 35.9897C112.57 37.0737 111.413 37.9233 110.05 38.5386C108.688 39.1392 107.143 39.4395 105.414 39.4395C103.671 39.4395 102.111 39.1392 100.734 38.5386C99.3716 37.9233 98.2144 37.0737 97.2622 35.9897C96.3101 34.8911 95.585 33.6094 95.0869 32.1445C94.5889 30.6797 94.3398 29.0903 94.3398 27.3765ZM99.6353 26.8711V27.3765C99.6353 28.4458 99.7451 29.4565 99.9648 30.4087C100.185 31.3608 100.529 32.1958 100.998 32.9136C101.466 33.6313 102.067 34.1953 102.799 34.6055C103.532 35.0156 104.403 35.2207 105.414 35.2207C106.396 35.2207 107.245 35.0156 107.963 34.6055C108.695 34.1953 109.296 33.6313 109.765 32.9136C110.233 32.1958 110.578 31.3608 110.797 30.4087C111.032 29.4565 111.149 28.4458 111.149 27.3765V26.8711C111.149 25.8164 111.032 24.8203 110.797 23.8828C110.578 22.9307 110.226 22.0884 109.743 21.356C109.274 20.6235 108.673 20.0522 107.941 19.6421C107.223 19.2173 106.366 19.0049 105.37 19.0049C104.374 19.0049 103.51 19.2173 102.777 19.6421C102.06 20.0522 101.466 20.6235 100.998 21.356C100.529 22.0884 100.185 22.9307 99.9648 23.8828C99.7451 24.8203 99.6353 25.8164 99.6353 26.8711ZM126.134 20.3013V39H120.839V15.2256H125.827L126.134 20.3013ZM125.189 26.2339L123.476 26.2119C123.49 24.5273 123.725 22.9819 124.179 21.5757C124.647 20.1694 125.292 18.9609 126.112 17.9502C126.947 16.9395 127.943 16.1631 129.101 15.6211C130.258 15.0645 131.547 14.7861 132.968 14.7861C134.11 14.7861 135.143 14.9473 136.066 15.2695C137.003 15.5771 137.802 16.0825 138.461 16.7856C139.135 17.4888 139.647 18.4043 139.999 19.5322C140.351 20.6455 140.526 22.0151 140.526 23.6411V39H135.209V23.6191C135.209 22.4766 135.041 21.5757 134.704 20.9165C134.381 20.2427 133.905 19.7666 133.275 19.4883C132.66 19.1953 131.891 19.0488 130.968 19.0488C130.06 19.0488 129.247 19.2393 128.529 19.6201C127.812 20.001 127.204 20.521 126.706 21.1802C126.222 21.8394 125.849 22.6011 125.585 23.4653C125.321 24.3296 125.189 25.2524 125.189 26.2339ZM159.335 34.2319V22.894C159.335 22.0444 159.181 21.312 158.874 20.6968C158.566 20.0815 158.097 19.6055 157.467 19.2686C156.852 18.9316 156.076 18.7632 155.138 18.7632C154.274 18.7632 153.527 18.9097 152.897 19.2026C152.267 19.4956 151.776 19.8911 151.425 20.3892C151.073 20.8872 150.897 21.4512 150.897 22.0811H145.624C145.624 21.1436 145.851 20.2354 146.305 19.3564C146.759 18.4775 147.418 17.6938 148.283 17.0054C149.147 16.3169 150.18 15.7749 151.381 15.3794C152.582 14.9839 153.93 14.7861 155.424 14.7861C157.211 14.7861 158.793 15.0864 160.17 15.687C161.562 16.2876 162.653 17.1958 163.444 18.4116C164.25 19.6128 164.652 21.1216 164.652 22.938V33.5068C164.652 34.5908 164.726 35.5649 164.872 36.4292C165.033 37.2788 165.26 38.0186 165.553 38.6484V39H160.126C159.877 38.4287 159.679 37.7036 159.533 36.8247C159.401 35.9312 159.335 35.0669 159.335 34.2319ZM160.104 24.542L160.148 27.8159H156.347C155.365 27.8159 154.501 27.9111 153.754 28.1016C153.007 28.2773 152.384 28.541 151.886 28.8926C151.388 29.2441 151.015 29.6689 150.766 30.167C150.517 30.665 150.392 31.229 150.392 31.8589C150.392 32.4888 150.539 33.0674 150.832 33.5947C151.125 34.1074 151.549 34.5103 152.106 34.8032C152.677 35.0962 153.366 35.2427 154.171 35.2427C155.255 35.2427 156.2 35.0229 157.006 34.5835C157.826 34.1294 158.471 33.5801 158.939 32.9355C159.408 32.2764 159.657 31.6538 159.687 31.0679L161.4 33.4189C161.225 34.0195 160.924 34.6641 160.5 35.3525C160.075 36.041 159.518 36.7002 158.83 37.3301C158.156 37.9453 157.343 38.4507 156.391 38.8462C155.453 39.2417 154.369 39.4395 153.139 39.4395C151.586 39.4395 150.202 39.1318 148.986 38.5166C147.77 37.8867 146.818 37.0444 146.129 35.9897C145.441 34.9204 145.097 33.7119 145.097 32.3643C145.097 31.1045 145.331 29.9912 145.8 29.0244C146.283 28.043 146.986 27.2227 147.909 26.5635C148.847 25.9043 149.989 25.4062 151.337 25.0693C152.685 24.7178 154.223 24.542 155.951 24.542H160.104ZM175.858 5.25V39H170.541V5.25H175.858ZM199.281 7.00781V39H193.766V7.00781H199.281ZM210.861 20.3013V39H205.565V15.2256H210.553L210.861 20.3013ZM209.916 26.2339L208.202 26.2119C208.217 24.5273 208.451 22.9819 208.905 21.5757C209.374 20.1694 210.019 18.9609 210.839 17.9502C211.674 16.9395 212.67 16.1631 213.827 15.6211C214.984 15.0645 216.273 14.7861 217.694 14.7861C218.837 14.7861 219.87 14.9473 220.792 15.2695C221.73 15.5771 222.528 16.0825 223.188 16.7856C223.861 17.4888 224.374 18.4043 224.726 19.5322C225.077 20.6455 225.253 22.0151 225.253 23.6411V39H219.936V23.6191C219.936 22.4766 219.767 21.5757 219.43 20.9165C219.108 20.2427 218.632 19.7666 218.002 19.4883C217.387 19.1953 216.618 19.0488 215.695 19.0488C214.787 19.0488 213.974 19.2393 213.256 19.6201C212.538 20.001 211.93 20.521 211.432 21.1802C210.949 21.8394 210.575 22.6011 210.312 23.4653C210.048 24.3296 209.916 25.2524 209.916 26.2339ZM237.821 39H232.526V12.9404C232.526 11.168 232.855 9.68115 233.515 8.47998C234.188 7.26416 235.148 6.34863 236.393 5.7334C237.638 5.10352 239.11 4.78857 240.81 4.78857C241.337 4.78857 241.857 4.8252 242.37 4.89844C242.882 4.95703 243.38 5.05225 243.864 5.18408L243.732 9.271C243.439 9.19775 243.117 9.14648 242.765 9.11719C242.428 9.08789 242.062 9.07324 241.667 9.07324C240.861 9.07324 240.165 9.22705 239.579 9.53467C239.008 9.82764 238.568 10.2598 238.261 10.8311C237.968 11.4023 237.821 12.1055 237.821 12.9404V39ZM242.721 15.2256V19.0928H228.878V15.2256H242.721ZM245.556 27.3765V26.8711C245.556 25.1572 245.805 23.5679 246.303 22.103C246.801 20.6235 247.519 19.3418 248.456 18.2578C249.408 17.1592 250.565 16.3096 251.928 15.709C253.305 15.0938 254.857 14.7861 256.586 14.7861C258.329 14.7861 259.882 15.0938 261.244 15.709C262.621 16.3096 263.786 17.1592 264.738 18.2578C265.69 19.3418 266.415 20.6235 266.913 22.103C267.411 23.5679 267.66 25.1572 267.66 26.8711V27.3765C267.66 29.0903 267.411 30.6797 266.913 32.1445C266.415 33.6094 265.69 34.8911 264.738 35.9897C263.786 37.0737 262.628 37.9233 261.266 38.5386C259.904 39.1392 258.358 39.4395 256.63 39.4395C254.887 39.4395 253.327 39.1392 251.95 38.5386C250.587 37.9233 249.43 37.0737 248.478 35.9897C247.526 34.8911 246.801 33.6094 246.303 32.1445C245.805 30.6797 245.556 29.0903 245.556 27.3765ZM250.851 26.8711V27.3765C250.851 28.4458 250.961 29.4565 251.181 30.4087C251.4 31.3608 251.745 32.1958 252.213 32.9136C252.682 33.6313 253.283 34.1953 254.015 34.6055C254.748 35.0156 255.619 35.2207 256.63 35.2207C257.611 35.2207 258.461 35.0156 259.179 34.6055C259.911 34.1953 260.512 33.6313 260.98 32.9136C261.449 32.1958 261.793 31.3608 262.013 30.4087C262.248 29.4565 262.365 28.4458 262.365 27.3765V26.8711C262.365 25.8164 262.248 24.8203 262.013 23.8828C261.793 22.9307 261.442 22.0884 260.958 21.356C260.49 20.6235 259.889 20.0522 259.157 19.6421C258.439 19.2173 257.582 19.0049 256.586 19.0049C255.59 19.0049 254.726 19.2173 253.993 19.6421C253.275 20.0522 252.682 20.6235 252.213 21.356C251.745 22.0884 251.4 22.9307 251.181 23.8828C250.961 24.8203 250.851 25.8164 250.851 26.8711ZM277.416 19.752V39H272.121V15.2256H277.174L277.416 19.752ZM284.689 15.0718L284.645 19.9937C284.323 19.9351 283.971 19.8911 283.59 19.8618C283.224 19.8325 282.858 19.8179 282.492 19.8179C281.583 19.8179 280.785 19.9497 280.097 20.2134C279.408 20.4624 278.83 20.8286 278.361 21.312C277.907 21.7808 277.555 22.3521 277.306 23.0259C277.057 23.6997 276.911 24.4541 276.867 25.2891L275.658 25.377C275.658 23.8828 275.805 22.4985 276.098 21.2241C276.391 19.9497 276.83 18.8291 277.416 17.8623C278.017 16.8955 278.764 16.1411 279.657 15.5991C280.565 15.0571 281.613 14.7861 282.799 14.7861C283.122 14.7861 283.466 14.8154 283.832 14.874C284.213 14.9326 284.499 14.9985 284.689 15.0718ZM293.302 20.0596V39H288.007V15.2256H292.995L293.302 20.0596ZM292.445 26.2339L290.644 26.2119C290.644 24.5713 290.849 23.0552 291.259 21.6636C291.669 20.272 292.27 19.0635 293.061 18.0381C293.852 16.998 294.833 16.1997 296.005 15.6431C297.191 15.0718 298.561 14.7861 300.114 14.7861C301.198 14.7861 302.187 14.9473 303.08 15.2695C303.988 15.5771 304.772 16.0679 305.431 16.7417C306.105 17.4155 306.618 18.2798 306.969 19.3345C307.335 20.3892 307.519 21.6636 307.519 23.1577V39H302.223V23.6191C302.223 22.4619 302.047 21.5537 301.696 20.8945C301.359 20.2354 300.868 19.7666 300.224 19.4883C299.594 19.1953 298.839 19.0488 297.96 19.0488C296.964 19.0488 296.115 19.2393 295.412 19.6201C294.723 20.001 294.159 20.521 293.72 21.1802C293.28 21.8394 292.958 22.6011 292.753 23.4653C292.548 24.3296 292.445 25.2524 292.445 26.2339ZM307.189 24.8276L304.706 25.377C304.706 23.9414 304.904 22.5864 305.299 21.312C305.709 20.0229 306.303 18.895 307.079 17.9282C307.87 16.9468 308.844 16.1777 310.001 15.6211C311.159 15.0645 312.484 14.7861 313.979 14.7861C315.194 14.7861 316.278 14.9546 317.23 15.2915C318.197 15.6138 319.018 16.1265 319.691 16.8296C320.365 17.5327 320.878 18.4482 321.229 19.5762C321.581 20.6895 321.757 22.0371 321.757 23.6191V39H316.439V23.5972C316.439 22.396 316.264 21.4658 315.912 20.8066C315.575 20.1475 315.092 19.6934 314.462 19.4443C313.832 19.1807 313.078 19.0488 312.199 19.0488C311.378 19.0488 310.653 19.2026 310.023 19.5103C309.408 19.8032 308.888 20.2207 308.463 20.7627C308.039 21.29 307.716 21.8979 307.497 22.5864C307.292 23.2749 307.189 24.022 307.189 24.8276ZM340.609 34.2319V22.894C340.609 22.0444 340.456 21.312 340.148 20.6968C339.84 20.0815 339.372 19.6055 338.742 19.2686C338.126 18.9316 337.35 18.7632 336.413 18.7632C335.548 18.7632 334.801 18.9097 334.171 19.2026C333.542 19.4956 333.051 19.8911 332.699 20.3892C332.348 20.8872 332.172 21.4512 332.172 22.0811H326.898C326.898 21.1436 327.125 20.2354 327.58 19.3564C328.034 18.4775 328.693 17.6938 329.557 17.0054C330.421 16.3169 331.454 15.7749 332.655 15.3794C333.856 14.9839 335.204 14.7861 336.698 14.7861C338.485 14.7861 340.067 15.0864 341.444 15.687C342.836 16.2876 343.927 17.1958 344.718 18.4116C345.524 19.6128 345.927 21.1216 345.927 22.938V33.5068C345.927 34.5908 346 35.5649 346.146 36.4292C346.308 37.2788 346.535 38.0186 346.828 38.6484V39H341.4C341.151 38.4287 340.954 37.7036 340.807 36.8247C340.675 35.9312 340.609 35.0669 340.609 34.2319ZM341.378 24.542L341.422 27.8159H337.621C336.64 27.8159 335.775 27.9111 335.028 28.1016C334.281 28.2773 333.659 28.541 333.161 28.8926C332.663 29.2441 332.289 29.6689 332.04 30.167C331.791 30.665 331.667 31.229 331.667 31.8589C331.667 32.4888 331.813 33.0674 332.106 33.5947C332.399 34.1074 332.824 34.5103 333.38 34.8032C333.952 35.0962 334.64 35.2427 335.446 35.2427C336.53 35.2427 337.475 35.0229 338.28 34.5835C339.101 34.1294 339.745 33.5801 340.214 32.9355C340.683 32.2764 340.932 31.6538 340.961 31.0679L342.675 33.4189C342.499 34.0195 342.199 34.6641 341.774 35.3525C341.349 36.041 340.792 36.7002 340.104 37.3301C339.43 37.9453 338.617 38.4507 337.665 38.8462C336.728 39.2417 335.644 39.4395 334.413 39.4395C332.86 39.4395 331.476 39.1318 330.26 38.5166C329.044 37.8867 328.092 37.0444 327.404 35.9897C326.715 34.9204 326.371 33.7119 326.371 32.3643C326.371 31.1045 326.605 29.9912 327.074 29.0244C327.558 28.043 328.261 27.2227 329.184 26.5635C330.121 25.9043 331.264 25.4062 332.611 25.0693C333.959 24.7178 335.497 24.542 337.226 24.542H341.378ZM362.362 15.2256V19.0928H348.959V15.2256H362.362ZM352.826 9.40283H358.122V32.4302C358.122 33.1626 358.224 33.7266 358.429 34.1221C358.649 34.5029 358.949 34.7593 359.33 34.8911C359.711 35.0229 360.158 35.0889 360.67 35.0889C361.037 35.0889 361.388 35.0669 361.725 35.0229C362.062 34.979 362.333 34.9351 362.538 34.8911L362.56 38.9341C362.121 39.0659 361.608 39.1831 361.022 39.2856C360.451 39.3882 359.792 39.4395 359.044 39.4395C357.829 39.4395 356.752 39.2271 355.814 38.8022C354.877 38.3628 354.145 37.6523 353.617 36.6709C353.09 35.6895 352.826 34.3857 352.826 32.7598V9.40283ZM372.118 15.2256V39H366.801V15.2256H372.118ZM366.449 8.98535C366.449 8.17969 366.713 7.51318 367.24 6.98584C367.782 6.44385 368.529 6.17285 369.481 6.17285C370.419 6.17285 371.159 6.44385 371.701 6.98584C372.243 7.51318 372.514 8.17969 372.514 8.98535C372.514 9.77637 372.243 10.4355 371.701 10.9629C371.159 11.4902 370.419 11.7539 369.481 11.7539C368.529 11.7539 367.782 11.4902 367.24 10.9629C366.713 10.4355 366.449 9.77637 366.449 8.98535ZM376.908 27.3765V26.8711C376.908 25.1572 377.157 23.5679 377.655 22.103C378.153 20.6235 378.871 19.3418 379.809 18.2578C380.761 17.1592 381.918 16.3096 383.28 15.709C384.657 15.0938 386.21 14.7861 387.938 14.7861C389.682 14.7861 391.234 15.0938 392.597 15.709C393.974 16.3096 395.138 17.1592 396.09 18.2578C397.042 19.3418 397.768 20.6235 398.266 22.103C398.764 23.5679 399.013 25.1572 399.013 26.8711V27.3765C399.013 29.0903 398.764 30.6797 398.266 32.1445C397.768 33.6094 397.042 34.8911 396.09 35.9897C395.138 37.0737 393.981 37.9233 392.619 38.5386C391.256 39.1392 389.711 39.4395 387.982 39.4395C386.239 39.4395 384.679 39.1392 383.302 38.5386C381.94 37.9233 380.783 37.0737 379.831 35.9897C378.878 34.8911 378.153 33.6094 377.655 32.1445C377.157 30.6797 376.908 29.0903 376.908 27.3765ZM382.204 26.8711V27.3765C382.204 28.4458 382.313 29.4565 382.533 30.4087C382.753 31.3608 383.097 32.1958 383.566 32.9136C384.035 33.6313 384.635 34.1953 385.368 34.6055C386.1 35.0156 386.972 35.2207 387.982 35.2207C388.964 35.2207 389.813 35.0156 390.531 34.6055C391.264 34.1953 391.864 33.6313 392.333 32.9136C392.802 32.1958 393.146 31.3608 393.366 30.4087C393.6 29.4565 393.717 28.4458 393.717 27.3765V26.8711C393.717 25.8164 393.6 24.8203 393.366 23.8828C393.146 22.9307 392.794 22.0884 392.311 21.356C391.842 20.6235 391.242 20.0522 390.509 19.6421C389.792 19.2173 388.935 19.0049 387.938 19.0049C386.942 19.0049 386.078 19.2173 385.346 19.6421C384.628 20.0522 384.035 20.6235 383.566 21.356C383.097 22.0884 382.753 22.9307 382.533 23.8828C382.313 24.8203 382.204 25.8164 382.204 26.8711ZM408.703 20.3013V39H403.407V15.2256H408.395L408.703 20.3013ZM407.758 26.2339L406.044 26.2119C406.059 24.5273 406.293 22.9819 406.747 21.5757C407.216 20.1694 407.86 18.9609 408.681 17.9502C409.516 16.9395 410.512 16.1631 411.669 15.6211C412.826 15.0645 414.115 14.7861 415.536 14.7861C416.679 14.7861 417.711 14.9473 418.634 15.2695C419.572 15.5771 420.37 16.0825 421.029 16.7856C421.703 17.4888 422.216 18.4043 422.567 19.5322C422.919 20.6455 423.095 22.0151 423.095 23.6411V39H417.777V23.6191C417.777 22.4766 417.609 21.5757 417.272 20.9165C416.95 20.2427 416.474 19.7666 415.844 19.4883C415.229 19.1953 414.459 19.0488 413.537 19.0488C412.628 19.0488 411.815 19.2393 411.098 19.6201C410.38 20.001 409.772 20.521 409.274 21.1802C408.791 21.8394 408.417 22.6011 408.153 23.4653C407.89 24.3296 407.758 25.2524 407.758 26.2339Z" fill="black"/>
</g>
<defs>
<filter id="filter0_f_76_196" x="0.251953" y="0.788574" width="426.843" height="42.6509" filterUnits="userSpaceOnUse" color-interpolation-filters="sRGB">
<feFlood flood-opacity="0" result="BackgroundImageFix"/>
<feBlend mode="normal" in="SourceGraphic" in2="BackgroundImageFix" result="shape"/>
<feGaussianBlur stdDeviation="2" result="effect1_foregroundBlur_76_196"/>
</filter>
</defs>
</svg>
