<svg width="191" height="191" viewBox="0 0 191 191" fill="none" xmlns="http://www.w3.org/2000/svg">
<g filter="url(#filter0_f_377_835)">
<circle cx="95.5" cy="95.5" r="92.5" fill="#8FC0A9"/>
<path d="M92.0778 38.3817C93.9538 34.826 99.0462 34.826 100.922 38.3817L115.373 65.7704C116.096 67.1417 117.415 68.0997 118.942 68.364L149.456 73.6437C153.418 74.3291 154.991 79.1723 152.189 82.0553L130.606 104.262C129.526 105.374 129.022 106.924 129.243 108.459L133.651 139.11C134.223 143.09 130.103 146.083 126.496 144.309L98.7062 130.645C97.315 129.961 95.685 129.961 94.2938 130.645L66.5044 144.309C62.8966 146.083 58.7768 143.09 59.349 139.11L63.7571 108.459C63.9777 106.924 63.4741 105.374 62.3935 104.262L40.8107 82.0553C38.0087 79.1723 39.5824 74.3291 43.5438 73.6437L74.0575 68.364C75.5852 68.0997 76.9038 67.1417 77.6273 65.7704L92.0778 38.3817Z" fill="#FDFFB0"/>
</g>
<defs>
<filter id="filter0_f_377_835" x="0" y="0" width="191" height="191" filterUnits="userSpaceOnUse" color-interpolation-filters="sRGB">
<feFlood flood-opacity="0" result="BackgroundImageFix"/>
<feBlend mode="normal" in="SourceGraphic" in2="BackgroundImageFix" result="shape"/>
<feGaussianBlur stdDeviation="1.5" result="effect1_foregroundBlur_377_835"/>
</filter>
</defs>
</svg>
