<svg width="416" height="352" viewBox="0 0 416 352" fill="none" xmlns="http://www.w3.org/2000/svg">
<g filter="url(#filter0_f_377_842)">
<rect x="3" y="3" width="410" height="346" rx="5" fill="#E4F6F5"/>
<path d="M336.898 318.753L341.573 304.227H344.955L338.583 322H336.3L336.898 318.753ZM332.577 304.227L337.215 318.753L337.85 322H335.555L329.208 304.227H332.577ZM349.801 308.792V322H346.847V308.792H349.801ZM346.651 305.325C346.651 304.878 346.798 304.507 347.091 304.214C347.392 303.913 347.807 303.763 348.336 303.763C348.857 303.763 349.268 303.913 349.569 304.214C349.87 304.507 350.021 304.878 350.021 305.325C350.021 305.765 349.87 306.131 349.569 306.424C349.268 306.717 348.857 306.863 348.336 306.863C347.807 306.863 347.392 306.717 347.091 306.424C346.798 306.131 346.651 305.765 346.651 305.325ZM358.846 322.244C357.87 322.244 356.987 322.085 356.197 321.768C355.416 321.443 354.749 320.991 354.195 320.413C353.65 319.835 353.231 319.156 352.938 318.375C352.645 317.593 352.499 316.751 352.499 315.848V315.359C352.499 314.326 352.649 313.39 352.95 312.552C353.251 311.714 353.67 310.997 354.208 310.403C354.745 309.801 355.379 309.341 356.112 309.024C356.844 308.707 357.638 308.548 358.492 308.548C359.436 308.548 360.262 308.707 360.97 309.024C361.678 309.341 362.264 309.789 362.728 310.367C363.2 310.936 363.55 311.616 363.778 312.405C364.014 313.195 364.132 314.065 364.132 315.018V316.275H353.927V314.163H361.227V313.931C361.21 313.402 361.104 312.906 360.909 312.442C360.722 311.978 360.433 311.604 360.042 311.319C359.652 311.034 359.131 310.892 358.48 310.892C357.992 310.892 357.556 310.997 357.174 311.209C356.799 311.412 356.486 311.709 356.234 312.1C355.982 312.491 355.786 312.963 355.648 313.516C355.518 314.061 355.453 314.676 355.453 315.359V315.848C355.453 316.425 355.53 316.963 355.685 317.459C355.847 317.947 356.083 318.375 356.393 318.741C356.702 319.107 357.076 319.396 357.516 319.607C357.955 319.811 358.456 319.913 359.017 319.913C359.725 319.913 360.356 319.77 360.909 319.485C361.463 319.201 361.943 318.798 362.35 318.277L363.9 319.778C363.615 320.193 363.245 320.592 362.789 320.975C362.333 321.349 361.776 321.654 361.117 321.89C360.466 322.126 359.709 322.244 358.846 322.244ZM370.016 319.07L373.067 308.792H374.947L374.435 311.868L371.358 322H369.674L370.016 319.07ZM368.221 308.792L370.602 319.119L370.797 322H368.917L365.34 308.792H368.221ZM377.804 318.997L380.111 308.792H382.979L379.415 322H377.535L377.804 318.997ZM375.265 308.792L378.28 318.948L378.658 322H376.974L373.861 311.856L373.348 308.792H375.265Z" fill="#5FA8D3"/>
<path d="M46.0366 57.042C46.0366 56.4854 45.95 55.9906 45.7769 55.5576C45.616 55.1247 45.3254 54.7288 44.9048 54.3701C44.4842 54.0114 43.8905 53.665 43.1235 53.3311C42.369 52.9847 41.4041 52.6322 40.229 52.2734C38.9425 51.8776 37.755 51.4385 36.6665 50.9561C35.5903 50.4613 34.6502 49.8923 33.8462 49.249C33.0422 48.5934 32.4175 47.8451 31.9722 47.0039C31.5269 46.1504 31.3042 45.167 31.3042 44.0537C31.3042 42.9528 31.533 41.9508 31.9907 41.0479C32.4608 40.1449 33.1226 39.3656 33.9761 38.71C34.842 38.042 35.8625 37.5286 37.0376 37.1699C38.2127 36.7988 39.5116 36.6133 40.9341 36.6133C42.938 36.6133 44.6636 36.9844 46.1108 37.7266C47.5705 38.4688 48.6899 39.4645 49.4692 40.7139C50.2609 41.9632 50.6567 43.3424 50.6567 44.8516H46.0366C46.0366 43.9609 45.8449 43.1755 45.4614 42.4951C45.0903 41.8024 44.5213 41.2581 43.7544 40.8623C42.9998 40.4665 42.0412 40.2686 40.8784 40.2686C39.7775 40.2686 38.8621 40.4355 38.1323 40.7695C37.4025 41.1035 36.8582 41.555 36.4995 42.124C36.1408 42.693 35.9614 43.3363 35.9614 44.0537C35.9614 44.5609 36.0789 45.0247 36.314 45.4453C36.549 45.8535 36.9077 46.237 37.3901 46.5957C37.8726 46.9421 38.4787 47.2699 39.2085 47.5791C39.9383 47.8883 40.798 48.1852 41.7876 48.4697C43.2843 48.915 44.5894 49.4098 45.7026 49.9541C46.8159 50.486 47.7437 51.0921 48.4858 51.7725C49.228 52.4528 49.7847 53.2259 50.1558 54.0918C50.5269 54.9453 50.7124 55.9163 50.7124 57.0049C50.7124 58.1429 50.4836 59.1696 50.0259 60.085C49.5682 60.988 48.9126 61.7611 48.0591 62.4043C47.2179 63.0352 46.2036 63.5238 45.0161 63.8701C43.841 64.2041 42.5298 64.3711 41.0825 64.3711C39.7837 64.3711 38.5034 64.1979 37.2417 63.8516C35.9924 63.5052 34.8543 62.9795 33.8276 62.2744C32.8009 61.557 31.9845 60.6663 31.3784 59.6025C30.7723 58.5264 30.4692 57.2708 30.4692 55.8359H35.1265C35.1265 56.7142 35.2749 57.4626 35.5718 58.0811C35.881 58.6995 36.3078 59.2067 36.8521 59.6025C37.3963 59.986 38.0272 60.2705 38.7446 60.4561C39.4744 60.6416 40.2537 60.7344 41.0825 60.7344C42.1711 60.7344 43.0802 60.5798 43.8101 60.2705C44.5522 59.9613 45.1089 59.5283 45.48 58.9717C45.8511 58.415 46.0366 57.7718 46.0366 57.042ZM65.7046 59.9736V50.3994C65.7046 49.682 65.5747 49.0635 65.3149 48.5439C65.0552 48.0244 64.6593 47.6224 64.1274 47.3379C63.6079 47.0534 62.9523 46.9111 62.1606 46.9111C61.4308 46.9111 60.8 47.0348 60.2681 47.2822C59.7362 47.5296 59.3218 47.8636 59.0249 48.2842C58.728 48.7048 58.5796 49.181 58.5796 49.7129H54.1265C54.1265 48.9212 54.3182 48.1543 54.7017 47.4121C55.0851 46.6699 55.6418 46.0081 56.3716 45.4268C57.1014 44.8454 57.9735 44.3877 58.9878 44.0537C60.0021 43.7197 61.1401 43.5527 62.4019 43.5527C63.911 43.5527 65.2469 43.8063 66.4097 44.3135C67.5848 44.8206 68.5063 45.5876 69.1743 46.6143C69.8547 47.6286 70.1948 48.9027 70.1948 50.4365V59.3613C70.1948 60.2767 70.2567 61.0993 70.3804 61.8291C70.5164 62.5465 70.7082 63.1712 70.9556 63.7031V64H66.3726C66.1623 63.5176 65.9953 62.9053 65.8716 62.1631C65.7603 61.4085 65.7046 60.6787 65.7046 59.9736ZM66.354 51.791L66.3911 54.5557H63.1812C62.3524 54.5557 61.6226 54.6361 60.9917 54.7969C60.3608 54.9453 59.8351 55.168 59.4146 55.4648C58.994 55.7617 58.6785 56.1204 58.4683 56.541C58.258 56.9616 58.1528 57.4378 58.1528 57.9697C58.1528 58.5016 58.2765 58.9902 58.5239 59.4355C58.7713 59.8685 59.13 60.2087 59.6001 60.4561C60.0825 60.7035 60.6639 60.8271 61.3442 60.8271C62.2596 60.8271 63.0575 60.6416 63.7378 60.2705C64.4305 59.887 64.9748 59.4232 65.3706 58.8789C65.7664 58.3223 65.9767 57.7965 66.0015 57.3018L67.4487 59.2871C67.3003 59.7943 67.0467 60.3385 66.688 60.9199C66.3293 61.5013 65.8592 62.0579 65.2778 62.5898C64.7088 63.1094 64.0223 63.5361 63.2183 63.8701C62.4266 64.2041 61.5112 64.3711 60.4722 64.3711C59.161 64.3711 57.992 64.1113 56.9653 63.5918C55.9386 63.0599 55.1346 62.3486 54.5532 61.458C53.9718 60.555 53.6812 59.5345 53.6812 58.3965C53.6812 57.3327 53.8791 56.3926 54.2749 55.5762C54.6831 54.7474 55.2769 54.0547 56.0562 53.498C56.8478 52.9414 57.8127 52.5208 58.9507 52.2363C60.0887 51.9395 61.3875 51.791 62.8472 51.791H66.354ZM81.105 60.4561L86.022 43.9238H90.6606L83.6841 64H80.7896L81.105 60.4561ZM77.3384 43.9238L82.3481 60.5303L82.5894 64H79.6948L72.6812 43.9238H77.3384ZM102.016 64.3711C100.532 64.3711 99.1896 64.1299 97.9897 63.6475C96.8022 63.1527 95.7879 62.4661 94.9468 61.5879C94.118 60.7096 93.481 59.6768 93.0356 58.4893C92.5903 57.3018 92.3677 56.0215 92.3677 54.6484V53.9062C92.3677 52.3353 92.5965 50.9128 93.0542 49.6387C93.5119 48.3646 94.1489 47.276 94.9653 46.373C95.7817 45.4577 96.7466 44.7588 97.8599 44.2764C98.9731 43.7939 100.179 43.5527 101.478 43.5527C102.913 43.5527 104.168 43.7939 105.245 44.2764C106.321 44.7588 107.211 45.4391 107.917 46.3174C108.634 47.1833 109.166 48.2161 109.512 49.416C109.871 50.6159 110.05 51.9395 110.05 53.3867V55.2979H94.5386V52.0879H105.634V51.7354C105.61 50.9313 105.449 50.1768 105.152 49.4717C104.867 48.7666 104.428 48.1976 103.834 47.7646C103.241 47.3317 102.449 47.1152 101.459 47.1152C100.717 47.1152 100.056 47.276 99.4741 47.5977C98.9051 47.9069 98.4289 48.3584 98.0454 48.9521C97.6619 49.5459 97.3651 50.2633 97.1548 51.1045C96.9569 51.9333 96.8579 52.8672 96.8579 53.9062V54.6484C96.8579 55.5267 96.9754 56.3431 97.2104 57.0977C97.4578 57.8398 97.8166 58.4893 98.2866 59.0459C98.7567 59.6025 99.3257 60.0417 99.9937 60.3633C100.662 60.6725 101.422 60.8271 102.276 60.8271C103.352 60.8271 104.311 60.6107 105.152 60.1777C105.993 59.7448 106.723 59.1325 107.341 58.3408L109.698 60.623C109.265 61.2539 108.702 61.86 108.009 62.4414C107.317 63.0104 106.469 63.4743 105.467 63.833C104.478 64.1917 103.327 64.3711 102.016 64.3711ZM125.785 59.8438V35.5H130.275V64H126.211L125.785 59.8438ZM112.722 54.1846V53.7949C112.722 52.2734 112.902 50.888 113.26 49.6387C113.619 48.377 114.139 47.2946 114.819 46.3916C115.499 45.4762 116.328 44.7773 117.305 44.2949C118.282 43.8001 119.383 43.5527 120.608 43.5527C121.82 43.5527 122.884 43.7878 123.799 44.2578C124.715 44.7279 125.494 45.402 126.137 46.2803C126.78 47.1462 127.294 48.1852 127.677 49.3975C128.061 50.5973 128.333 51.9333 128.494 53.4053V54.6484C128.333 56.0833 128.061 57.3945 127.677 58.582C127.294 59.7695 126.78 60.7962 126.137 61.6621C125.494 62.528 124.708 63.196 123.781 63.666C122.865 64.1361 121.795 64.3711 120.571 64.3711C119.359 64.3711 118.264 64.1175 117.287 63.6104C116.322 63.1032 115.499 62.3919 114.819 61.4766C114.139 60.5612 113.619 59.485 113.26 58.248C112.902 56.9987 112.722 55.6442 112.722 54.1846ZM117.194 53.7949V54.1846C117.194 55.0999 117.274 55.9535 117.435 56.7451C117.608 57.5368 117.874 58.2357 118.233 58.8418C118.592 59.4355 119.056 59.9056 119.625 60.252C120.206 60.5859 120.899 60.7529 121.703 60.7529C122.717 60.7529 123.552 60.5303 124.208 60.085C124.863 59.6396 125.376 59.0397 125.748 58.2852C126.131 57.5182 126.391 56.6647 126.527 55.7246V52.3662C126.453 51.6364 126.298 50.9561 126.063 50.3252C125.84 49.6943 125.537 49.1439 125.154 48.6738C124.77 48.1914 124.294 47.8203 123.725 47.5605C123.168 47.2884 122.507 47.1523 121.74 47.1523C120.923 47.1523 120.231 47.3255 119.662 47.6719C119.093 48.0182 118.623 48.4945 118.251 49.1006C117.893 49.7067 117.627 50.4118 117.454 51.2158C117.28 52.0199 117.194 52.8796 117.194 53.7949ZM41.0825 104.064L48.189 81.9844H53.3286L43.6431 109H40.1733L41.0825 104.064ZM34.5142 81.9844L41.5649 104.064L42.5298 109H39.0415L29.3931 81.9844H34.5142ZM54.2007 99.1846V98.7578C54.2007 97.3105 54.411 95.9684 54.8315 94.7314C55.2521 93.4821 55.8582 92.3997 56.6499 91.4844C57.4539 90.5566 58.4312 89.8392 59.5815 89.332C60.7443 88.8125 62.0555 88.5527 63.5151 88.5527C64.9871 88.5527 66.2983 88.8125 67.4487 89.332C68.6115 89.8392 69.5949 90.5566 70.3989 91.4844C71.203 92.3997 71.8153 93.4821 72.2358 94.7314C72.6564 95.9684 72.8667 97.3105 72.8667 98.7578V99.1846C72.8667 100.632 72.6564 101.974 72.2358 103.211C71.8153 104.448 71.203 105.53 70.3989 106.458C69.5949 107.373 68.6177 108.091 67.4673 108.61C66.3169 109.118 65.0119 109.371 63.5522 109.371C62.0802 109.371 60.7629 109.118 59.6001 108.61C58.4497 108.091 57.4725 107.373 56.6685 106.458C55.8644 105.53 55.2521 104.448 54.8315 103.211C54.411 101.974 54.2007 100.632 54.2007 99.1846ZM58.6724 98.7578V99.1846C58.6724 100.088 58.7651 100.941 58.9507 101.745C59.1362 102.549 59.4269 103.254 59.8228 103.86C60.2186 104.466 60.7257 104.943 61.3442 105.289C61.9627 105.635 62.6987 105.809 63.5522 105.809C64.381 105.809 65.0985 105.635 65.7046 105.289C66.3231 104.943 66.8302 104.466 67.2261 103.86C67.6219 103.254 67.9126 102.549 68.0981 101.745C68.2961 100.941 68.395 100.088 68.395 99.1846V98.7578C68.395 97.8672 68.2961 97.026 68.0981 96.2344C67.9126 95.4303 67.6157 94.7191 67.2075 94.1006C66.8117 93.4821 66.3045 92.9997 65.686 92.6533C65.0799 92.2946 64.3563 92.1152 63.5151 92.1152C62.674 92.1152 61.9442 92.2946 61.3257 92.6533C60.7196 92.9997 60.2186 93.4821 59.8228 94.1006C59.4269 94.7191 59.1362 95.4303 58.9507 96.2344C58.7651 97.026 58.6724 97.8672 58.6724 98.7578ZM88.6938 104.269V88.9238H93.1841V109H88.9536L88.6938 104.269ZM89.3247 100.094L90.8276 100.057C90.8276 101.405 90.6792 102.648 90.3823 103.786C90.0854 104.912 89.6278 105.895 89.0093 106.736C88.3908 107.565 87.5991 108.215 86.6343 108.685C85.6694 109.142 84.5129 109.371 83.1646 109.371C82.1873 109.371 81.2905 109.229 80.4741 108.944C79.6577 108.66 78.9526 108.221 78.3589 107.627C77.7775 107.033 77.326 106.26 77.0044 105.308C76.6828 104.355 76.522 103.217 76.522 101.894V88.9238H80.9937V101.931C80.9937 102.66 81.0802 103.273 81.2534 103.768C81.4266 104.25 81.6616 104.64 81.9585 104.937C82.2554 105.233 82.6017 105.444 82.9976 105.567C83.3934 105.691 83.814 105.753 84.2593 105.753C85.5334 105.753 86.5353 105.506 87.2651 105.011C88.0073 104.504 88.533 103.823 88.8423 102.97C89.1639 102.116 89.3247 101.158 89.3247 100.094ZM105.968 105.809C106.698 105.809 107.354 105.666 107.935 105.382C108.529 105.085 109.005 104.677 109.364 104.157C109.735 103.638 109.939 103.038 109.976 102.357H114.188C114.163 103.656 113.78 104.838 113.038 105.901C112.295 106.965 111.312 107.812 110.087 108.443C108.863 109.062 107.508 109.371 106.024 109.371C104.49 109.371 103.154 109.111 102.016 108.592C100.878 108.06 99.9318 107.33 99.1772 106.402C98.4227 105.475 97.8537 104.405 97.4702 103.192C97.0991 101.98 96.9136 100.681 96.9136 99.2959V98.6465C96.9136 97.2611 97.0991 95.9622 97.4702 94.75C97.8537 93.5254 98.4227 92.4492 99.1772 91.5215C99.9318 90.5938 100.878 89.8701 102.016 89.3506C103.154 88.8187 104.484 88.5527 106.005 88.5527C107.613 88.5527 109.024 88.8743 110.236 89.5176C111.448 90.1484 112.401 91.0329 113.093 92.1709C113.798 93.2965 114.163 94.6077 114.188 96.1045H109.976C109.939 95.3623 109.753 94.6943 109.419 94.1006C109.098 93.4945 108.64 93.012 108.046 92.6533C107.465 92.2946 106.766 92.1152 105.95 92.1152C105.047 92.1152 104.298 92.3008 103.705 92.6719C103.111 93.0306 102.647 93.5254 102.313 94.1562C101.979 94.7747 101.738 95.4736 101.589 96.2529C101.453 97.0199 101.385 97.8177 101.385 98.6465V99.2959C101.385 100.125 101.453 100.929 101.589 101.708C101.725 102.487 101.96 103.186 102.294 103.805C102.641 104.411 103.111 104.899 103.705 105.271C104.298 105.629 105.053 105.809 105.968 105.809ZM122.037 80.5V109H117.583V80.5H122.037ZM121.257 98.2197L119.81 98.2012C119.822 96.8158 120.014 95.5355 120.385 94.3604C120.769 93.1852 121.301 92.1647 121.981 91.2988C122.674 90.4206 123.502 89.7464 124.467 89.2764C125.432 88.7939 126.502 88.5527 127.677 88.5527C128.667 88.5527 129.557 88.6888 130.349 88.9609C131.153 89.2331 131.846 89.6722 132.427 90.2783C133.009 90.8721 133.448 91.6514 133.745 92.6162C134.054 93.5687 134.208 94.7314 134.208 96.1045V109H129.718V96.0674C129.718 95.1025 129.576 94.3356 129.292 93.7666C129.019 93.1976 128.617 92.7894 128.085 92.542C127.554 92.2822 126.904 92.1523 126.137 92.1523C125.333 92.1523 124.622 92.3132 124.003 92.6348C123.397 92.9564 122.89 93.3955 122.482 93.9521C122.074 94.5088 121.764 95.152 121.554 95.8818C121.356 96.6117 121.257 97.391 121.257 98.2197ZM147.586 109.371C146.102 109.371 144.76 109.13 143.56 108.647C142.373 108.153 141.358 107.466 140.517 106.588C139.688 105.71 139.051 104.677 138.606 103.489C138.161 102.302 137.938 101.021 137.938 99.6484V98.9062C137.938 97.3353 138.167 95.9128 138.625 94.6387C139.082 93.3646 139.719 92.276 140.536 91.373C141.352 90.4577 142.317 89.7588 143.43 89.2764C144.543 88.7939 145.75 88.5527 147.048 88.5527C148.483 88.5527 149.739 88.7939 150.815 89.2764C151.891 89.7588 152.782 90.4391 153.487 91.3174C154.204 92.1833 154.736 93.2161 155.083 94.416C155.441 95.6159 155.621 96.9395 155.621 98.3867V100.298H140.109V97.0879H151.205V96.7354C151.18 95.9313 151.019 95.1768 150.722 94.4717C150.438 93.7666 149.999 93.1976 149.405 92.7646C148.811 92.3317 148.019 92.1152 147.03 92.1152C146.288 92.1152 145.626 92.276 145.044 92.5977C144.475 92.9069 143.999 93.3584 143.616 93.9521C143.232 94.5459 142.935 95.2633 142.725 96.1045C142.527 96.9333 142.428 97.8672 142.428 98.9062V99.6484C142.428 100.527 142.546 101.343 142.781 102.098C143.028 102.84 143.387 103.489 143.857 104.046C144.327 104.603 144.896 105.042 145.564 105.363C146.232 105.673 146.993 105.827 147.846 105.827C148.922 105.827 149.881 105.611 150.722 105.178C151.563 104.745 152.293 104.132 152.912 103.341L155.268 105.623C154.835 106.254 154.272 106.86 153.58 107.441C152.887 108.01 152.04 108.474 151.038 108.833C150.048 109.192 148.898 109.371 147.586 109.371ZM163.599 92.7461V109H159.127V88.9238H163.395L163.599 92.7461ZM169.741 88.7939L169.704 92.9502C169.431 92.9007 169.135 92.8636 168.813 92.8389C168.504 92.8141 168.194 92.8018 167.885 92.8018C167.118 92.8018 166.444 92.9131 165.863 93.1357C165.281 93.346 164.793 93.6553 164.397 94.0635C164.014 94.4593 163.717 94.9417 163.506 95.5107C163.296 96.0798 163.172 96.7168 163.135 97.4219L162.115 97.4961C162.115 96.2344 162.238 95.0654 162.486 93.9893C162.733 92.9131 163.104 91.9668 163.599 91.1504C164.106 90.334 164.737 89.6969 165.492 89.2393C166.259 88.7816 167.143 88.5527 168.145 88.5527C168.417 88.5527 168.708 88.5775 169.017 88.627C169.339 88.6764 169.58 88.7321 169.741 88.7939ZM42.938 126.984V154H38.3179V126.984H42.938ZM51.4175 126.984V130.695H29.9126V126.984H51.4175ZM51.0835 144.185V143.758C51.0835 142.311 51.2938 140.968 51.7144 139.731C52.1349 138.482 52.741 137.4 53.5327 136.484C54.3368 135.557 55.314 134.839 56.4644 134.332C57.6271 133.812 58.9383 133.553 60.3979 133.553C61.87 133.553 63.1812 133.812 64.3315 134.332C65.4943 134.839 66.4777 135.557 67.2817 136.484C68.0858 137.4 68.6981 138.482 69.1187 139.731C69.5392 140.968 69.7495 142.311 69.7495 143.758V144.185C69.7495 145.632 69.5392 146.974 69.1187 148.211C68.6981 149.448 68.0858 150.53 67.2817 151.458C66.4777 152.373 65.5005 153.091 64.3501 153.61C63.1997 154.118 61.8947 154.371 60.4351 154.371C58.9631 154.371 57.6457 154.118 56.4829 153.61C55.3325 153.091 54.3553 152.373 53.5513 151.458C52.7472 150.53 52.1349 149.448 51.7144 148.211C51.2938 146.974 51.0835 145.632 51.0835 144.185ZM55.5552 143.758V144.185C55.5552 145.088 55.6479 145.941 55.8335 146.745C56.019 147.549 56.3097 148.254 56.7056 148.86C57.1014 149.466 57.6086 149.943 58.2271 150.289C58.8455 150.635 59.5815 150.809 60.4351 150.809C61.2638 150.809 61.9813 150.635 62.5874 150.289C63.2059 149.943 63.7131 149.466 64.1089 148.86C64.5047 148.254 64.7954 147.549 64.981 146.745C65.1789 145.941 65.2778 145.088 65.2778 144.185V143.758C65.2778 142.867 65.1789 142.026 64.981 141.234C64.7954 140.43 64.4985 139.719 64.0903 139.101C63.6945 138.482 63.1873 138 62.5688 137.653C61.9627 137.295 61.2391 137.115 60.3979 137.115C59.5568 137.115 58.827 137.295 58.2085 137.653C57.6024 138 57.1014 138.482 56.7056 139.101C56.3097 139.719 56.019 140.43 55.8335 141.234C55.6479 142.026 55.5552 142.867 55.5552 143.758ZM72.644 144.185V143.758C72.644 142.311 72.8543 140.968 73.2749 139.731C73.6955 138.482 74.3016 137.4 75.0933 136.484C75.8973 135.557 76.8745 134.839 78.0249 134.332C79.1877 133.812 80.4989 133.553 81.9585 133.553C83.4305 133.553 84.7417 133.812 85.8921 134.332C87.0549 134.839 88.0382 135.557 88.8423 136.484C89.6463 137.4 90.2586 138.482 90.6792 139.731C91.0998 140.968 91.3101 142.311 91.3101 143.758V144.185C91.3101 145.632 91.0998 146.974 90.6792 148.211C90.2586 149.448 89.6463 150.53 88.8423 151.458C88.0382 152.373 87.061 153.091 85.9106 153.61C84.7603 154.118 83.4552 154.371 81.9956 154.371C80.5236 154.371 79.2062 154.118 78.0435 153.61C76.8931 153.091 75.9159 152.373 75.1118 151.458C74.3078 150.53 73.6955 149.448 73.2749 148.211C72.8543 146.974 72.644 145.632 72.644 144.185ZM77.1157 143.758V144.185C77.1157 145.088 77.2085 145.941 77.394 146.745C77.5796 147.549 77.8703 148.254 78.2661 148.86C78.6619 149.466 79.1691 149.943 79.7876 150.289C80.4061 150.635 81.1421 150.809 81.9956 150.809C82.8244 150.809 83.5418 150.635 84.1479 150.289C84.7664 149.943 85.2736 149.466 85.6694 148.86C86.0653 148.254 86.356 147.549 86.5415 146.745C86.7394 145.941 86.8384 145.088 86.8384 144.185V143.758C86.8384 142.867 86.7394 142.026 86.5415 141.234C86.356 140.43 86.0591 139.719 85.6509 139.101C85.255 138.482 84.7479 138 84.1294 137.653C83.5233 137.295 82.7996 137.115 81.9585 137.115C81.1174 137.115 80.3875 137.295 79.769 137.653C79.1629 138 78.6619 138.482 78.2661 139.101C77.8703 139.719 77.5796 140.43 77.394 141.234C77.2085 142.026 77.1157 142.867 77.1157 143.758ZM99.8452 125.5V154H95.355V125.5H99.8452ZM122.5 154H116.73L116.767 150.308H122.5C124.17 150.308 125.568 149.943 126.694 149.213C127.832 148.483 128.685 147.438 129.254 146.077C129.836 144.716 130.126 143.096 130.126 141.216V139.75C130.126 138.29 129.959 136.998 129.625 135.872C129.304 134.746 128.821 133.8 128.178 133.033C127.547 132.266 126.768 131.685 125.84 131.289C124.925 130.893 123.867 130.695 122.667 130.695H116.619V126.984H122.667C124.461 126.984 126.1 127.287 127.584 127.894C129.069 128.487 130.349 129.347 131.425 130.473C132.514 131.598 133.349 132.947 133.93 134.518C134.512 136.089 134.802 137.845 134.802 139.787V141.216C134.802 143.158 134.512 144.914 133.93 146.485C133.349 148.056 132.514 149.405 131.425 150.53C130.337 151.644 129.038 152.503 127.529 153.109C126.032 153.703 124.356 154 122.5 154ZM119.309 126.984V154H114.652V126.984H119.309ZM150.351 149.974V140.399C150.351 139.682 150.221 139.063 149.961 138.544C149.702 138.024 149.306 137.622 148.774 137.338C148.254 137.053 147.599 136.911 146.807 136.911C146.077 136.911 145.446 137.035 144.915 137.282C144.383 137.53 143.968 137.864 143.671 138.284C143.375 138.705 143.226 139.181 143.226 139.713H138.773C138.773 138.921 138.965 138.154 139.348 137.412C139.732 136.67 140.288 136.008 141.018 135.427C141.748 134.845 142.62 134.388 143.634 134.054C144.649 133.72 145.787 133.553 147.048 133.553C148.557 133.553 149.893 133.806 151.056 134.313C152.231 134.821 153.153 135.588 153.821 136.614C154.501 137.629 154.841 138.903 154.841 140.437V149.361C154.841 150.277 154.903 151.099 155.027 151.829C155.163 152.547 155.355 153.171 155.602 153.703V154H151.019C150.809 153.518 150.642 152.905 150.518 152.163C150.407 151.409 150.351 150.679 150.351 149.974ZM151 141.791L151.038 144.556H147.828C146.999 144.556 146.269 144.636 145.638 144.797C145.007 144.945 144.482 145.168 144.061 145.465C143.64 145.762 143.325 146.12 143.115 146.541C142.904 146.962 142.799 147.438 142.799 147.97C142.799 148.502 142.923 148.99 143.17 149.436C143.418 149.868 143.777 150.209 144.247 150.456C144.729 150.703 145.31 150.827 145.991 150.827C146.906 150.827 147.704 150.642 148.384 150.271C149.077 149.887 149.621 149.423 150.017 148.879C150.413 148.322 150.623 147.797 150.648 147.302L152.095 149.287C151.947 149.794 151.693 150.339 151.334 150.92C150.976 151.501 150.506 152.058 149.924 152.59C149.355 153.109 148.669 153.536 147.865 153.87C147.073 154.204 146.158 154.371 145.119 154.371C143.807 154.371 142.639 154.111 141.612 153.592C140.585 153.06 139.781 152.349 139.2 151.458C138.618 150.555 138.328 149.535 138.328 148.396C138.328 147.333 138.526 146.393 138.921 145.576C139.33 144.747 139.923 144.055 140.703 143.498C141.494 142.941 142.459 142.521 143.597 142.236C144.735 141.939 146.034 141.791 147.494 141.791H151ZM168.72 133.924V137.189H157.402V133.924H168.72ZM160.667 129.007H165.139V148.452C165.139 149.071 165.226 149.547 165.399 149.881C165.584 150.202 165.838 150.419 166.16 150.53C166.481 150.642 166.859 150.697 167.292 150.697C167.601 150.697 167.898 150.679 168.182 150.642C168.467 150.604 168.695 150.567 168.869 150.53L168.887 153.944C168.516 154.056 168.083 154.155 167.588 154.241C167.106 154.328 166.549 154.371 165.918 154.371C164.892 154.371 163.983 154.192 163.191 153.833C162.399 153.462 161.781 152.862 161.335 152.033C160.89 151.204 160.667 150.104 160.667 148.73V129.007ZM183.49 149.974V140.399C183.49 139.682 183.36 139.063 183.1 138.544C182.84 138.024 182.444 137.622 181.913 137.338C181.393 137.053 180.737 136.911 179.946 136.911C179.216 136.911 178.585 137.035 178.053 137.282C177.521 137.53 177.107 137.864 176.81 138.284C176.513 138.705 176.365 139.181 176.365 139.713H171.912C171.912 138.921 172.103 138.154 172.487 137.412C172.87 136.67 173.427 136.008 174.157 135.427C174.887 134.845 175.759 134.388 176.773 134.054C177.787 133.72 178.925 133.553 180.187 133.553C181.696 133.553 183.032 133.806 184.195 134.313C185.37 134.821 186.292 135.588 186.959 136.614C187.64 137.629 187.98 138.903 187.98 140.437V149.361C187.98 150.277 188.042 151.099 188.166 151.829C188.302 152.547 188.493 153.171 188.741 153.703V154H184.158C183.947 153.518 183.78 152.905 183.657 152.163C183.545 151.409 183.49 150.679 183.49 149.974ZM184.139 141.791L184.176 144.556H180.966C180.138 144.556 179.408 144.636 178.777 144.797C178.146 144.945 177.62 145.168 177.2 145.465C176.779 145.762 176.464 146.12 176.253 146.541C176.043 146.962 175.938 147.438 175.938 147.97C175.938 148.502 176.062 148.99 176.309 149.436C176.556 149.868 176.915 150.209 177.385 150.456C177.868 150.703 178.449 150.827 179.129 150.827C180.045 150.827 180.843 150.642 181.523 150.271C182.216 149.887 182.76 149.423 183.156 148.879C183.552 148.322 183.762 147.797 183.787 147.302L185.234 149.287C185.085 149.794 184.832 150.339 184.473 150.92C184.114 151.501 183.644 152.058 183.063 152.59C182.494 153.109 181.807 153.536 181.003 153.87C180.212 154.204 179.296 154.371 178.257 154.371C176.946 154.371 175.777 154.111 174.75 153.592C173.724 153.06 172.92 152.349 172.338 151.458C171.757 150.555 171.466 149.535 171.466 148.396C171.466 147.333 171.664 146.393 172.06 145.576C172.468 144.747 173.062 144.055 173.841 143.498C174.633 142.941 175.598 142.521 176.736 142.236C177.874 141.939 179.173 141.791 180.632 141.791H184.139Z" fill="black"/>
</g>
<defs>
<filter id="filter0_f_377_842" x="0" y="0" width="416" height="352" filterUnits="userSpaceOnUse" color-interpolation-filters="sRGB">
<feFlood flood-opacity="0" result="BackgroundImageFix"/>
<feBlend mode="normal" in="SourceGraphic" in2="BackgroundImageFix" result="shape"/>
<feGaussianBlur stdDeviation="1.5" result="effect1_foregroundBlur_377_842"/>
</filter>
</defs>
</svg>
