<svg width="973" height="93" viewBox="0 0 973 93" fill="none" xmlns="http://www.w3.org/2000/svg">
<g filter="url(#filter0_f_76_189)">
<rect x="4" y="4" width="965" height="85" rx="5" fill="#5FA8D3" fill-opacity="0.41"/>
<g filter="url(#filter1_d_76_189)">
<rect x="820" y="21" width="118" height="48" rx="8" fill="#4A7C59"/>
</g>
<path d="M841.728 38.5947L836.418 54H833.208L839.897 36.2266H841.948L841.728 38.5947ZM846.171 54L840.849 38.5947L840.617 36.2266H842.68L849.394 54H846.171ZM845.915 47.4082V49.8374H836.247V47.4082H845.915ZM859.147 51.2656V35.25H862.102V54H859.428L859.147 51.2656ZM850.554 47.5425V47.2861C850.554 46.2852 850.672 45.3737 850.908 44.5518C851.144 43.7217 851.486 43.0096 851.933 42.4155C852.381 41.8133 852.926 41.3535 853.569 41.0361C854.212 40.7106 854.936 40.5479 855.742 40.5479C856.539 40.5479 857.239 40.7025 857.841 41.0117C858.444 41.321 858.956 41.7645 859.379 42.3423C859.803 42.9119 860.14 43.5955 860.393 44.3931C860.645 45.1825 860.824 46.0614 860.93 47.0298V47.8477C860.824 48.7917 860.645 49.6543 860.393 50.4355C860.14 51.2168 859.803 51.8923 859.379 52.4619C858.956 53.0316 858.439 53.471 857.829 53.7803C857.227 54.0895 856.523 54.2441 855.717 54.2441C854.92 54.2441 854.2 54.0773 853.557 53.7437C852.922 53.41 852.381 52.9421 851.933 52.3398C851.486 51.7376 851.144 51.0296 850.908 50.2158C850.672 49.3939 850.554 48.5028 850.554 47.5425ZM853.496 47.2861V47.5425C853.496 48.1447 853.549 48.7062 853.654 49.2271C853.768 49.7479 853.943 50.2077 854.179 50.6064C854.415 50.9971 854.72 51.3063 855.095 51.5342C855.477 51.7539 855.933 51.8638 856.462 51.8638C857.129 51.8638 857.679 51.7173 858.11 51.4243C858.541 51.1313 858.879 50.7367 859.123 50.2402C859.375 49.7357 859.546 49.1742 859.636 48.5557V46.3462C859.587 45.866 859.485 45.4185 859.331 45.0034C859.184 44.5884 858.985 44.2262 858.732 43.917C858.48 43.5996 858.167 43.3555 857.792 43.1846C857.426 43.0055 856.991 42.916 856.486 42.916C855.949 42.916 855.493 43.0299 855.119 43.2578C854.745 43.4857 854.436 43.799 854.191 44.1978C853.955 44.5965 853.78 45.0604 853.667 45.5894C853.553 46.1183 853.496 46.6839 853.496 47.2861ZM873.234 51.2656V35.25H876.188V54H873.515L873.234 51.2656ZM864.641 47.5425V47.2861C864.641 46.2852 864.759 45.3737 864.995 44.5518C865.231 43.7217 865.572 43.0096 866.02 42.4155C866.468 41.8133 867.013 41.3535 867.656 41.0361C868.299 40.7106 869.023 40.5479 869.829 40.5479C870.626 40.5479 871.326 40.7025 871.928 41.0117C872.53 41.321 873.043 41.7645 873.466 42.3423C873.889 42.9119 874.227 43.5955 874.479 44.3931C874.732 45.1825 874.911 46.0614 875.017 47.0298V47.8477C874.911 48.7917 874.732 49.6543 874.479 50.4355C874.227 51.2168 873.889 51.8923 873.466 52.4619C873.043 53.0316 872.526 53.471 871.916 53.7803C871.314 54.0895 870.61 54.2441 869.804 54.2441C869.007 54.2441 868.286 54.0773 867.644 53.7437C867.009 53.41 866.468 52.9421 866.02 52.3398C865.572 51.7376 865.231 51.0296 864.995 50.2158C864.759 49.3939 864.641 48.5028 864.641 47.5425ZM867.583 47.2861V47.5425C867.583 48.1447 867.635 48.7062 867.741 49.2271C867.855 49.7479 868.03 50.2077 868.266 50.6064C868.502 50.9971 868.807 51.3063 869.182 51.5342C869.564 51.7539 870.02 51.8638 870.549 51.8638C871.216 51.8638 871.765 51.7173 872.197 51.4243C872.628 51.1313 872.966 50.7367 873.21 50.2402C873.462 49.7357 873.633 49.1742 873.723 48.5557V46.3462C873.674 45.866 873.572 45.4185 873.417 45.0034C873.271 44.5884 873.072 44.2262 872.819 43.917C872.567 43.5996 872.254 43.3555 871.879 43.1846C871.513 43.0055 871.078 42.916 870.573 42.916C870.036 42.916 869.58 43.0299 869.206 43.2578C868.832 43.4857 868.522 43.799 868.278 44.1978C868.042 44.5965 867.867 45.0604 867.753 45.5894C867.639 46.1183 867.583 46.6839 867.583 47.2861ZM889.055 36.2266V54H885.991V36.2266H889.055ZM895.488 43.6118V54H892.546V40.792H895.317L895.488 43.6118ZM894.963 46.9077L894.011 46.8955C894.019 45.9596 894.149 45.1011 894.401 44.3198C894.662 43.5386 895.02 42.8672 895.476 42.3057C895.939 41.7441 896.493 41.3128 897.136 41.0117C897.779 40.7025 898.495 40.5479 899.284 40.5479C899.919 40.5479 900.493 40.6374 901.005 40.8164C901.526 40.9873 901.97 41.2681 902.336 41.6587C902.71 42.0493 902.995 42.5579 903.19 43.1846C903.386 43.8031 903.483 44.564 903.483 45.4673V54H900.529V45.4551C900.529 44.8203 900.436 44.3198 900.249 43.9536C900.069 43.5793 899.805 43.3148 899.455 43.1602C899.113 42.9974 898.686 42.916 898.173 42.916C897.669 42.916 897.217 43.0218 896.818 43.2334C896.42 43.445 896.082 43.7339 895.805 44.1001C895.537 44.4663 895.329 44.8895 895.183 45.3696C895.036 45.8498 894.963 46.3625 894.963 46.9077ZM910.466 54H907.524V39.5225C907.524 38.5378 907.707 37.7118 908.073 37.0444C908.448 36.369 908.981 35.8604 909.672 35.5186C910.364 35.1686 911.182 34.9937 912.126 34.9937C912.419 34.9937 912.708 35.014 912.993 35.0547C913.278 35.0872 913.554 35.1401 913.823 35.2134L913.75 37.4839C913.587 37.4432 913.408 37.4147 913.212 37.3984C913.025 37.3822 912.822 37.374 912.602 37.374C912.154 37.374 911.768 37.4595 911.442 37.6304C911.125 37.7931 910.881 38.0332 910.71 38.3506C910.547 38.668 910.466 39.0586 910.466 39.5225V54ZM913.188 40.792V42.9404H905.498V40.792H913.188ZM914.763 47.5425V47.2617C914.763 46.3096 914.901 45.4266 915.178 44.6128C915.454 43.7909 915.853 43.0788 916.374 42.4766C916.903 41.8662 917.546 41.3942 918.303 41.0605C919.068 40.7188 919.93 40.5479 920.891 40.5479C921.859 40.5479 922.722 40.7188 923.479 41.0605C924.243 41.3942 924.89 41.8662 925.419 42.4766C925.948 43.0788 926.351 43.7909 926.628 44.6128C926.905 45.4266 927.043 46.3096 927.043 47.2617V47.5425C927.043 48.4946 926.905 49.3776 926.628 50.1914C926.351 51.0052 925.948 51.7173 925.419 52.3276C924.89 52.9299 924.248 53.4019 923.491 53.7437C922.734 54.0773 921.875 54.2441 920.915 54.2441C919.947 54.2441 919.08 54.0773 918.315 53.7437C917.558 53.4019 916.915 52.9299 916.386 52.3276C915.857 51.7173 915.454 51.0052 915.178 50.1914C914.901 49.3776 914.763 48.4946 914.763 47.5425ZM917.705 47.2617V47.5425C917.705 48.1366 917.766 48.6981 917.888 49.2271C918.01 49.756 918.201 50.2199 918.461 50.6187C918.722 51.0174 919.056 51.3307 919.462 51.5586C919.869 51.7865 920.354 51.9004 920.915 51.9004C921.46 51.9004 921.932 51.7865 922.331 51.5586C922.738 51.3307 923.072 51.0174 923.332 50.6187C923.592 50.2199 923.784 49.756 923.906 49.2271C924.036 48.6981 924.101 48.1366 924.101 47.5425V47.2617C924.101 46.6758 924.036 46.1224 923.906 45.6016C923.784 45.0726 923.588 44.6047 923.32 44.1978C923.059 43.7909 922.726 43.4735 922.319 43.2456C921.92 43.0096 921.444 42.8916 920.891 42.8916C920.337 42.8916 919.857 43.0096 919.45 43.2456C919.051 43.4735 918.722 43.7909 918.461 44.1978C918.201 44.6047 918.01 45.0726 917.888 45.6016C917.766 46.1224 917.705 46.6758 917.705 47.2617Z" fill="white"/>
<line x1="475" y1="44.25" x2="755" y2="44.25" stroke="white" stroke-width="20" stroke-linecap="round"/>
<line x1="474.75" y1="44.25" x2="705.25" y2="44.25" stroke="#4A7C59" stroke-width="19.5" stroke-linecap="round"/>
</g>
<defs>
<filter id="filter0_f_76_189" x="0" y="0" width="973" height="93" filterUnits="userSpaceOnUse" color-interpolation-filters="sRGB">
<feFlood flood-opacity="0" result="BackgroundImageFix"/>
<feBlend mode="normal" in="SourceGraphic" in2="BackgroundImageFix" result="shape"/>
<feGaussianBlur stdDeviation="2" result="effect1_foregroundBlur_76_189"/>
</filter>
<filter id="filter1_d_76_189" x="819" y="20" width="126" height="56" filterUnits="userSpaceOnUse" color-interpolation-filters="sRGB">
<feFlood flood-opacity="0" result="BackgroundImageFix"/>
<feColorMatrix in="SourceAlpha" type="matrix" values="0 0 0 0 0 0 0 0 0 0 0 0 0 0 0 0 0 0 127 0" result="hardAlpha"/>
<feOffset dx="3" dy="3"/>
<feGaussianBlur stdDeviation="2"/>
<feComposite in2="hardAlpha" operator="out"/>
<feColorMatrix type="matrix" values="0 0 0 0 0 0 0 0 0 0 0 0 0 0 0 0 0 0 0.15 0"/>
<feBlend mode="normal" in2="BackgroundImageFix" result="effect1_dropShadow_76_189"/>
<feBlend mode="normal" in="SourceGraphic" in2="effect1_dropShadow_76_189" result="shape"/>
</filter>
</defs>
</svg>
