<svg width="125" height="77" viewBox="0 0 125 77" fill="none" xmlns="http://www.w3.org/2000/svg">
<g filter="url(#filter0_d_117_423)">
<rect x="1" y="1" width="117" height="69" rx="5" fill="#8FC0A9"/>
<path d="M20.9875 23.6719V45H17.3108V23.6719H20.9875ZM29.6887 33.0029V35.918H20.05V33.0029H29.6887ZM30.9045 23.6719V26.6016H20.05V23.6719H30.9045ZM37.262 29.1504V45H33.717V29.1504H37.262ZM33.4827 24.9902C33.4827 24.4531 33.6584 24.0088 34.01 23.6572C34.3713 23.2959 34.8694 23.1152 35.5042 23.1152C36.1292 23.1152 36.6223 23.2959 36.9836 23.6572C37.345 24.0088 37.5256 24.4531 37.5256 24.9902C37.5256 25.5176 37.345 25.957 36.9836 26.3086C36.6223 26.6602 36.1292 26.8359 35.5042 26.8359C34.8694 26.8359 34.3713 26.6602 34.01 26.3086C33.6584 25.957 33.4827 25.5176 33.4827 24.9902ZM44.6301 32.5342V45H41.0999V29.1504H44.425L44.6301 32.5342ZM44.0002 36.4893L42.8577 36.4746C42.8674 35.3516 43.0237 34.3213 43.3264 33.3838C43.6389 32.4463 44.0686 31.6406 44.6155 30.9668C45.1721 30.293 45.8362 29.7754 46.6077 29.4141C47.3792 29.043 48.2385 28.8574 49.1858 28.8574C49.9475 28.8574 50.636 28.9648 51.2512 29.1797C51.8762 29.3848 52.4084 29.7217 52.8479 30.1904C53.2971 30.6592 53.6389 31.2695 53.8733 32.0215C54.1077 32.7637 54.2249 33.6768 54.2249 34.7607V45H50.6799V34.7461C50.6799 33.9844 50.5676 33.3838 50.343 32.9443C50.1282 32.4951 49.8108 32.1777 49.3909 31.9922C48.9807 31.7969 48.468 31.6992 47.8528 31.6992C47.2473 31.6992 46.7053 31.8262 46.2268 32.0801C45.7483 32.334 45.343 32.6807 45.011 33.1201C44.6887 33.5596 44.4397 34.0674 44.2639 34.6436C44.0881 35.2197 44.0002 35.835 44.0002 36.4893ZM61.6077 29.1504V45H58.0627V29.1504H61.6077ZM57.8284 24.9902C57.8284 24.4531 58.0042 24.0088 58.3557 23.6572C58.717 23.2959 59.2151 23.1152 59.8499 23.1152C60.4749 23.1152 60.968 23.2959 61.3293 23.6572C61.6907 24.0088 61.8713 24.4531 61.8713 24.9902C61.8713 25.5176 61.6907 25.957 61.3293 26.3086C60.968 26.6602 60.4749 26.8359 59.8499 26.8359C59.2151 26.8359 58.717 26.6602 58.3557 26.3086C58.0042 25.957 57.8284 25.5176 57.8284 24.9902ZM74.3665 40.708C74.3665 40.3564 74.2786 40.0391 74.1028 39.7559C73.927 39.4629 73.5901 39.1992 73.092 38.9648C72.6038 38.7305 71.8811 38.5156 70.9241 38.3203C70.0842 38.1348 69.3127 37.915 68.6096 37.6611C67.9163 37.3975 67.3206 37.0801 66.8225 36.709C66.3245 36.3379 65.9387 35.8984 65.6653 35.3906C65.3918 34.8828 65.2551 34.2969 65.2551 33.6328C65.2551 32.9883 65.3967 32.3779 65.6799 31.8018C65.9631 31.2256 66.3684 30.7178 66.8958 30.2783C67.4231 29.8389 68.0627 29.4922 68.8147 29.2383C69.5764 28.9844 70.426 28.8574 71.3635 28.8574C72.6917 28.8574 73.8293 29.082 74.7766 29.5312C75.7336 29.9707 76.4661 30.5713 76.9739 31.333C77.4817 32.085 77.7356 32.9346 77.7356 33.8818H74.2053C74.2053 33.4619 74.0979 33.0713 73.8831 32.71C73.678 32.3389 73.3655 32.041 72.9456 31.8164C72.5256 31.582 71.9983 31.4648 71.3635 31.4648C70.7581 31.4648 70.2551 31.5625 69.8547 31.7578C69.4641 31.9434 69.1711 32.1875 68.9758 32.4902C68.7903 32.793 68.6975 33.125 68.6975 33.4863C68.6975 33.75 68.7463 33.9893 68.844 34.2041C68.9514 34.4092 69.1272 34.5996 69.3713 34.7754C69.6155 34.9414 69.9475 35.0977 70.3674 35.2441C70.7971 35.3906 71.3342 35.5322 71.9788 35.6689C73.1897 35.9229 74.2297 36.25 75.0989 36.6504C75.9778 37.041 76.6516 37.5488 77.1204 38.1738C77.5891 38.7891 77.8235 39.5703 77.8235 40.5176C77.8235 41.2207 77.6721 41.8652 77.3694 42.4512C77.0764 43.0273 76.6467 43.5303 76.0803 43.96C75.5139 44.3799 74.8352 44.707 74.0442 44.9414C73.2629 45.1758 72.384 45.293 71.4075 45.293C69.9719 45.293 68.7561 45.0391 67.76 44.5312C66.7639 44.0137 66.0071 43.3545 65.4895 42.5537C64.9817 41.7432 64.7278 40.9033 64.7278 40.0342H68.1409C68.1799 40.6885 68.3606 41.2109 68.6829 41.6016C69.0149 41.9824 69.425 42.2607 69.9133 42.4365C70.4114 42.6025 70.9241 42.6855 71.4514 42.6855C72.0862 42.6855 72.6184 42.6025 73.0481 42.4365C73.4778 42.2607 73.8049 42.0264 74.0295 41.7334C74.2542 41.4307 74.3665 41.0889 74.3665 40.708ZM84.4006 22.5V45H80.885V22.5H84.4006ZM83.7854 36.4893L82.6428 36.4746C82.6526 35.3809 82.804 34.3701 83.0969 33.4424C83.3997 32.5146 83.8196 31.709 84.3567 31.0254C84.9036 30.332 85.5579 29.7998 86.3196 29.4287C87.0813 29.0479 87.926 28.8574 88.8538 28.8574C89.635 28.8574 90.3381 28.9648 90.9631 29.1797C91.5979 29.3945 92.1448 29.7412 92.6038 30.2197C93.0627 30.6885 93.4094 31.3037 93.6438 32.0654C93.8879 32.8174 94.01 33.7354 94.01 34.8193V45H90.4651V34.79C90.4651 34.0283 90.3528 33.4229 90.1282 32.9736C89.9133 32.5244 89.5959 32.2021 89.176 32.0068C88.7561 31.8018 88.2434 31.6992 87.6379 31.6992C87.0032 31.6992 86.4417 31.8262 85.9534 32.0801C85.4749 32.334 85.0745 32.6807 84.7522 33.1201C84.4299 33.5596 84.1858 34.0674 84.0198 34.6436C83.8635 35.2197 83.7854 35.835 83.7854 36.4893Z" fill="white"/>
</g>
<defs>
<filter id="filter0_d_117_423" x="0" y="0" width="125" height="77" filterUnits="userSpaceOnUse" color-interpolation-filters="sRGB">
<feFlood flood-opacity="0" result="BackgroundImageFix"/>
<feColorMatrix in="SourceAlpha" type="matrix" values="0 0 0 0 0 0 0 0 0 0 0 0 0 0 0 0 0 0 127 0" result="hardAlpha"/>
<feOffset dx="3" dy="3"/>
<feGaussianBlur stdDeviation="2"/>
<feComposite in2="hardAlpha" operator="out"/>
<feColorMatrix type="matrix" values="0 0 0 0 0 0 0 0 0 0 0 0 0 0 0 0 0 0 0.15 0"/>
<feBlend mode="normal" in2="BackgroundImageFix" result="effect1_dropShadow_117_423"/>
<feBlend mode="normal" in="SourceGraphic" in2="effect1_dropShadow_117_423" result="shape"/>
</filter>
</defs>
</svg>
