<svg width="36" height="36" viewBox="0 0 36 36" fill="none" xmlns="http://www.w3.org/2000/svg">
<path d="M35.0844 32.7168L23.9254 21.5578C25.657 19.3191 26.5938 16.582 26.5938 13.7031C26.5938 10.257 25.2488 7.02578 22.8168 4.58945C20.3848 2.15312 17.1449 0.8125 13.7031 0.8125C10.2613 0.8125 7.02148 2.15742 4.58945 4.58945C2.15312 7.02148 0.8125 10.257 0.8125 13.7031C0.8125 17.1449 2.15742 20.3848 4.58945 22.8168C7.02148 25.2531 10.257 26.5938 13.7031 26.5938C16.582 26.5938 19.3148 25.657 21.5535 23.9297L32.7125 35.0844C32.7452 35.1171 32.7841 35.1431 32.8268 35.1608C32.8696 35.1785 32.9154 35.1876 32.9617 35.1876C33.008 35.1876 33.0538 35.1785 33.0966 35.1608C33.1394 35.1431 33.1782 35.1171 33.2109 35.0844L35.0844 33.2152C35.1171 33.1825 35.1431 33.1437 35.1608 33.1009C35.1785 33.0581 35.1876 33.0123 35.1876 32.966C35.1876 32.9197 35.1785 32.8739 35.1608 32.8311C35.1431 32.7884 35.1171 32.7495 35.0844 32.7168ZM20.5094 20.5094C18.6875 22.327 16.2727 23.3281 13.7031 23.3281C11.1336 23.3281 8.71875 22.327 6.89688 20.5094C5.0793 18.6875 4.07812 16.2727 4.07812 13.7031C4.07812 11.1336 5.0793 8.71445 6.89688 6.89688C8.71875 5.0793 11.1336 4.07812 13.7031 4.07812C16.2727 4.07812 18.6918 5.075 20.5094 6.89688C22.327 8.71875 23.3281 11.1336 23.3281 13.7031C23.3281 16.2727 22.327 18.6918 20.5094 20.5094Z" fill="black" fill-opacity="0.41"/>
</svg>
