<svg width="17" height="17" viewBox="0 0 17 17" fill="none" xmlns="http://www.w3.org/2000/svg">
<path d="M0.743988 0.743988C0.851394 0.636311 0.978987 0.55088 1.11946 0.49259C1.25993 0.4343 1.41053 0.404297 1.56261 0.404297C1.7147 0.404297 1.86529 0.4343 2.00577 0.49259C2.14624 0.55088 2.27383 0.636311 2.38124 0.743988L8.50011 6.86518L14.619 0.743988C14.7265 0.636485 14.8541 0.551208 14.9946 0.493028C15.135 0.434847 15.2856 0.404902 15.4376 0.404902C15.5896 0.404902 15.7402 0.434847 15.8806 0.493028C16.0211 0.551208 16.1487 0.636485 16.2562 0.743988C16.3637 0.851491 16.449 0.979116 16.5072 1.11958C16.5654 1.26004 16.5953 1.41058 16.5953 1.56261C16.5953 1.71465 16.5654 1.86519 16.5072 2.00565C16.449 2.14611 16.3637 2.27373 16.2562 2.38124L10.135 8.50011L16.2562 14.619C16.3637 14.7265 16.449 14.8541 16.5072 14.9946C16.5654 15.135 16.5953 15.2856 16.5953 15.4376C16.5953 15.5896 16.5654 15.7402 16.5072 15.8806C16.449 16.0211 16.3637 16.1487 16.2562 16.2562C16.1487 16.3637 16.0211 16.449 15.8806 16.5072C15.7402 16.5654 15.5896 16.5953 15.4376 16.5953C15.2856 16.5953 15.135 16.5654 14.9946 16.5072C14.8541 16.449 14.7265 16.3637 14.619 16.2562L8.50011 10.135L2.38124 16.2562C2.27373 16.3637 2.14611 16.449 2.00565 16.5072C1.86519 16.5654 1.71465 16.5953 1.56261 16.5953C1.41058 16.5953 1.26004 16.5654 1.11958 16.5072C0.979116 16.449 0.851491 16.3637 0.743988 16.2562C0.636485 16.1487 0.551208 16.0211 0.493028 15.8806C0.434847 15.7402 0.404902 15.5896 0.404902 15.4376C0.404902 15.2856 0.434847 15.135 0.493028 14.9946C0.551208 14.8541 0.636485 14.7265 0.743988 14.619L6.86518 8.50011L0.743988 2.38124C0.636311 2.27383 0.55088 2.14624 0.49259 2.00577C0.4343 1.86529 0.404297 1.7147 0.404297 1.56261C0.404297 1.41053 0.4343 1.25993 0.49259 1.11946C0.55088 0.978987 0.636311 0.851394 0.743988 0.743988Z" fill="white"/>
</svg>
