<svg width="172" height="172" viewBox="0 0 172 172" fill="none" xmlns="http://www.w3.org/2000/svg">
<path d="M169.465 43.3696C168.706 42.6042 167.803 41.9966 166.808 41.582C165.812 41.1674 164.745 40.9539 163.667 40.9539C162.589 40.9539 161.521 41.1674 160.526 41.582C159.531 41.9966 158.628 42.6042 157.869 43.3696L147.333 53.9863V8.33464C147.333 6.1687 146.473 4.09148 144.942 2.55993C143.41 1.02838 141.333 0.167969 139.167 0.167969C137.001 0.167969 134.924 1.02838 133.392 2.55993C131.861 4.09148 131 6.1687 131 8.33464V53.9863L120.465 43.3696C118.927 41.8318 116.842 40.9679 114.667 40.9679C112.492 40.9679 110.406 41.8318 108.868 43.3696C107.331 44.9075 106.467 46.9932 106.467 49.168C106.467 51.3428 107.331 53.4285 108.868 54.9663L133.369 79.4663C134.145 80.2098 135.061 80.7926 136.064 81.1813C137.041 81.6134 138.098 81.8365 139.167 81.8365C140.236 81.8365 141.293 81.6134 142.27 81.1813C143.273 80.7926 144.188 80.2098 144.965 79.4663L169.465 54.9663C170.231 54.2071 170.838 53.3039 171.253 52.3087C171.667 51.3135 171.881 50.2461 171.881 49.168C171.881 48.0899 171.667 47.0224 171.253 46.0273C170.838 45.0321 170.231 44.1288 169.465 43.3696ZM139.167 98.168C137.001 98.168 134.924 99.0284 133.392 100.56C131.861 102.091 131 104.169 131 106.335V109.438L118.914 97.3513C114.646 93.1173 108.878 90.7414 102.866 90.7414C96.8543 90.7414 91.0862 93.1173 86.8185 97.3513L81.1018 103.068L60.8485 82.8146C56.5211 78.6954 50.7755 76.398 44.801 76.398C38.8265 76.398 33.0809 78.6954 28.7535 82.8146L16.6668 94.9013V49.168C16.6668 47.002 17.5272 44.9248 19.0588 43.3933C20.5903 41.8617 22.6676 41.0013 24.8335 41.0013H90.1668C92.3328 41.0013 94.41 40.1409 95.9415 38.6093C97.4731 37.0778 98.3335 35.0006 98.3335 32.8346C98.3335 30.6687 97.4731 28.5915 95.9415 27.0599C94.41 25.5284 92.3328 24.668 90.1668 24.668H24.8335C18.3357 24.668 12.104 27.2492 7.50938 31.8439C2.91474 36.4385 0.333496 42.6702 0.333496 49.168V147.168C0.333496 153.666 2.91474 159.897 7.50938 164.492C12.104 169.087 18.3357 171.668 24.8335 171.668H122.834C129.331 171.668 135.563 169.087 140.158 164.492C144.752 159.897 147.333 153.666 147.333 147.168V106.335C147.333 104.169 146.473 102.091 144.942 100.56C143.41 99.0284 141.333 98.168 139.167 98.168ZM24.8335 155.335C22.6676 155.335 20.5903 154.474 19.0588 152.943C17.5272 151.411 16.6668 149.334 16.6668 147.168V118.013L40.3502 94.3296C41.5499 93.1863 43.1437 92.5485 44.801 92.5485C46.4583 92.5485 48.0521 93.1863 49.2518 94.3296L75.1402 120.218L110.257 155.335H24.8335ZM131 147.168C130.988 148.731 130.473 150.249 129.53 151.496L92.6985 114.501L98.4152 108.785C99.0007 108.187 99.6995 107.712 100.471 107.388C101.242 107.064 102.07 106.897 102.907 106.897C103.743 106.897 104.572 107.064 105.343 107.388C106.114 107.712 106.813 108.187 107.398 108.785L131 132.55V147.168Z" fill="black"/>
</svg>
