<svg width="16" height="16" viewBox="0 0 16 16" fill="none" xmlns="http://www.w3.org/2000/svg">
<path d="M0.872696 0.874649C0.971393 0.775702 1.08864 0.697198 1.21772 0.643634C1.34681 0.590071 1.48519 0.5625 1.62495 0.5625C1.7647 0.5625 1.90308 0.590071 2.03217 0.643634C2.16125 0.697198 2.2785 0.775702 2.3772 0.874649L7.99995 6.49952L13.6227 0.874649C13.7215 0.775862 13.8388 0.6975 13.9678 0.644037C14.0969 0.590573 14.2352 0.563056 14.3749 0.563056C14.5147 0.563056 14.653 0.590573 14.7821 0.644037C14.9111 0.6975 15.0284 0.775862 15.1272 0.874649C15.226 0.973436 15.3043 1.09071 15.3578 1.21978C15.4113 1.34885 15.4388 1.48719 15.4388 1.6269C15.4388 1.7666 15.4113 1.90494 15.3578 2.03401C15.3043 2.16309 15.226 2.28036 15.1272 2.37915L9.50232 8.0019L15.1272 13.6246C15.226 13.7234 15.3043 13.8407 15.3578 13.9698C15.4113 14.0989 15.4388 14.2372 15.4388 14.3769C15.4388 14.5166 15.4113 14.6549 15.3578 14.784C15.3043 14.9131 15.226 15.0304 15.1272 15.1291C15.0284 15.2279 14.9111 15.3063 14.7821 15.3598C14.653 15.4132 14.5147 15.4407 14.3749 15.4407C14.2352 15.4407 14.0969 15.4132 13.9678 15.3598C13.8388 15.3063 13.7215 15.2279 13.6227 15.1291L7.99995 9.50427L2.3772 15.1291C2.27841 15.2279 2.16113 15.3063 2.03206 15.3598C1.90299 15.4132 1.76465 15.4407 1.62495 15.4407C1.48524 15.4407 1.3469 15.4132 1.21783 15.3598C1.08876 15.3063 0.971482 15.2279 0.872696 15.1291C0.773909 15.0304 0.695546 14.9131 0.642083 14.784C0.58862 14.6549 0.561103 14.5166 0.561103 14.3769C0.561103 14.2372 0.58862 14.0989 0.642083 13.9698C0.695546 13.8407 0.773909 13.7234 0.872696 13.6246L6.49757 8.0019L0.872696 2.37915C0.773749 2.28045 0.695245 2.1632 0.641681 2.03412C0.588117 1.90504 0.560547 1.76665 0.560547 1.6269C0.560547 1.48714 0.588117 1.34876 0.641681 1.21968C0.695245 1.09059 0.773749 0.973346 0.872696 0.874649Z" fill="white" fill-opacity="0.47"/>
</svg>
