<svg width="17" height="17" viewBox="0 0 17 17" fill="none" xmlns="http://www.w3.org/2000/svg">
<path d="M0.743866 0.743988C0.851272 0.636311 0.978865 0.55088 1.11934 0.49259C1.25981 0.4343 1.4104 0.404297 1.56249 0.404297C1.71458 0.404297 1.86517 0.4343 2.00564 0.49259C2.14612 0.55088 2.27371 0.636311 2.38112 0.743988L8.49999 6.86518L14.6189 0.743988C14.7264 0.636485 14.854 0.551208 14.9945 0.493028C15.1349 0.434847 15.2855 0.404902 15.4375 0.404902C15.5895 0.404902 15.7401 0.434847 15.8805 0.493028C16.021 0.551208 16.1486 0.636485 16.2561 0.743988C16.3636 0.851491 16.4489 0.979116 16.5071 1.11958C16.5653 1.26004 16.5952 1.41058 16.5952 1.56261C16.5952 1.71465 16.5653 1.86519 16.5071 2.00565C16.4489 2.14611 16.3636 2.27373 16.2561 2.38124L10.1349 8.50011L16.2561 14.619C16.3636 14.7265 16.4489 14.8541 16.5071 14.9946C16.5653 15.135 16.5952 15.2856 16.5952 15.4376C16.5952 15.5896 16.5653 15.7402 16.5071 15.8806C16.4489 16.0211 16.3636 16.1487 16.2561 16.2562C16.1486 16.3637 16.021 16.449 15.8805 16.5072C15.7401 16.5654 15.5895 16.5953 15.4375 16.5953C15.2855 16.5953 15.1349 16.5654 14.9945 16.5072C14.854 16.449 14.7264 16.3637 14.6189 16.2562L8.49999 10.135L2.38112 16.2562C2.27361 16.3637 2.14599 16.449 2.00553 16.5072C1.86507 16.5654 1.71452 16.5953 1.56249 16.5953C1.41046 16.5953 1.25991 16.5654 1.11945 16.5072C0.978994 16.449 0.851369 16.3637 0.743866 16.2562C0.636363 16.1487 0.551086 16.0211 0.492906 15.8806C0.434725 15.7402 0.40478 15.5896 0.40478 15.4376C0.40478 15.2856 0.434725 15.135 0.492906 14.9946C0.551086 14.8541 0.636363 14.7265 0.743866 14.619L6.86505 8.50011L0.743866 2.38124C0.636189 2.27383 0.550758 2.14624 0.492468 2.00577C0.434178 1.86529 0.404175 1.7147 0.404175 1.56261C0.404175 1.41053 0.434178 1.25993 0.492468 1.11946C0.550758 0.978987 0.636189 0.851394 0.743866 0.743988Z" fill="white"/>
</svg>
