<svg width="16" height="16" viewBox="0 0 16 16" fill="none" xmlns="http://www.w3.org/2000/svg">
<path d="M0.872696 0.872696C0.971393 0.773749 1.08864 0.695245 1.21772 0.641681C1.34681 0.588117 1.48519 0.560547 1.62495 0.560547C1.7647 0.560547 1.90308 0.588117 2.03217 0.641681C2.16125 0.695245 2.2785 0.773749 2.3772 0.872696L7.99995 6.49757L13.6227 0.872696C13.7215 0.773909 13.8388 0.695546 13.9678 0.642083C14.0969 0.58862 14.2352 0.561103 14.3749 0.561103C14.5147 0.561103 14.653 0.58862 14.7821 0.642083C14.9111 0.695546 15.0284 0.773909 15.1272 0.872696C15.226 0.971482 15.3043 1.08876 15.3578 1.21783C15.4113 1.3469 15.4388 1.48524 15.4388 1.62495C15.4388 1.76465 15.4113 1.90299 15.3578 2.03206C15.3043 2.16113 15.226 2.27841 15.1272 2.3772L9.50232 7.99995L15.1272 13.6227C15.226 13.7215 15.3043 13.8388 15.3578 13.9678C15.4113 14.0969 15.4388 14.2352 15.4388 14.3749C15.4388 14.5147 15.4113 14.653 15.3578 14.7821C15.3043 14.9111 15.226 15.0284 15.1272 15.1272C15.0284 15.226 14.9111 15.3043 14.7821 15.3578C14.653 15.4113 14.5147 15.4388 14.3749 15.4388C14.2352 15.4388 14.0969 15.4113 13.9678 15.3578C13.8388 15.3043 13.7215 15.226 13.6227 15.1272L7.99995 9.50232L2.3772 15.1272C2.27841 15.226 2.16113 15.3043 2.03206 15.3578C1.90299 15.4113 1.76465 15.4388 1.62495 15.4388C1.48524 15.4388 1.3469 15.4113 1.21783 15.3578C1.08876 15.3043 0.971482 15.226 0.872696 15.1272C0.773909 15.0284 0.695546 14.9111 0.642083 14.7821C0.58862 14.653 0.561103 14.5147 0.561103 14.3749C0.561103 14.2352 0.58862 14.0969 0.642083 13.9678C0.695546 13.8388 0.773909 13.7215 0.872696 13.6227L6.49757 7.99995L0.872696 2.3772C0.773749 2.2785 0.695245 2.16125 0.641681 2.03217C0.588117 1.90308 0.560547 1.7647 0.560547 1.62495C0.560547 1.48519 0.588117 1.34681 0.641681 1.21772C0.695245 1.08864 0.773749 0.971393 0.872696 0.872696Z" fill="#5FA8D3"/>
</svg>
