<svg width="13" height="11" viewBox="0 0 13 11" fill="none" xmlns="http://www.w3.org/2000/svg">
<path d="M12.7502 2.81793C12.7508 3.36333 12.5816 3.89233 12.2711 4.31595L7.88566 10.1928C7.71981 10.4233 7.50911 10.6094 7.26924 10.7373C7.02938 10.8652 6.76652 10.9316 6.50024 10.9316C6.23396 10.9316 5.9711 10.8652 5.73124 10.7373C5.49137 10.6094 5.28067 10.4233 5.11482 10.1928L0.729407 4.31595C0.473151 3.96215 0.311892 3.53583 0.264008 3.08558C0.216123 2.63532 0.283539 2.17924 0.458573 1.76931C0.600531 1.41304 0.832191 1.10951 1.12589 0.894957C1.41958 0.680405 1.76289 0.563907 2.11482 0.559374L10.8857 0.559374C11.2376 0.563907 11.5809 0.680405 11.8746 0.894957C12.1683 1.10951 12.3999 1.41304 12.5419 1.76931C12.6773 2.09873 12.7483 2.45606 12.7502 2.81793Z" fill="#8FC0A9"/>
</svg>
