<svg width="574" height="92" viewBox="0 0 574 92" fill="none" xmlns="http://www.w3.org/2000/svg">
<g filter="url(#filter0_f_76_200)">
<rect x="4" y="4" width="566" height="84" rx="5" fill="#E4F6F5"/>
<path d="M502.898 50.7529L507.573 36.2266H510.955L504.583 54H502.3L502.898 50.7529ZM498.577 36.2266L503.215 50.7529L503.85 54H501.555L495.208 36.2266H498.577ZM515.801 40.792V54H512.847V40.792H515.801ZM512.651 37.3252C512.651 36.8776 512.798 36.5073 513.091 36.2144C513.392 35.9132 513.807 35.7627 514.336 35.7627C514.857 35.7627 515.268 35.9132 515.569 36.2144C515.87 36.5073 516.021 36.8776 516.021 37.3252C516.021 37.7646 515.87 38.1309 515.569 38.4238C515.268 38.7168 514.857 38.8633 514.336 38.8633C513.807 38.8633 513.392 38.7168 513.091 38.4238C512.798 38.1309 512.651 37.7646 512.651 37.3252ZM524.846 54.2441C523.87 54.2441 522.987 54.0854 522.197 53.7681C521.416 53.4425 520.749 52.9909 520.195 52.4131C519.65 51.8353 519.231 51.1558 518.938 50.3745C518.645 49.5933 518.499 48.751 518.499 47.8477V47.3594C518.499 46.3258 518.649 45.39 518.95 44.5518C519.251 43.7135 519.67 42.9974 520.208 42.4033C520.745 41.8011 521.379 41.3413 522.112 41.0239C522.844 40.7065 523.638 40.5479 524.492 40.5479C525.436 40.5479 526.262 40.7065 526.97 41.0239C527.678 41.3413 528.264 41.7889 528.728 42.3667C529.2 42.9364 529.55 43.6159 529.778 44.4053C530.014 45.1947 530.132 46.0654 530.132 47.0176V48.2749H519.927V46.1631H527.227V45.9312C527.21 45.4022 527.104 44.9058 526.909 44.4419C526.722 43.978 526.433 43.6037 526.042 43.3188C525.652 43.034 525.131 42.8916 524.48 42.8916C523.992 42.8916 523.556 42.9974 523.174 43.209C522.799 43.4124 522.486 43.7095 522.234 44.1001C521.982 44.4907 521.786 44.9627 521.648 45.5161C521.518 46.0614 521.453 46.6758 521.453 47.3594V47.8477C521.453 48.4255 521.53 48.9626 521.685 49.459C521.847 49.9473 522.083 50.3745 522.393 50.7407C522.702 51.1069 523.076 51.3958 523.516 51.6074C523.955 51.8109 524.456 51.9126 525.017 51.9126C525.725 51.9126 526.356 51.7702 526.909 51.4854C527.463 51.2005 527.943 50.7977 528.35 50.2769L529.9 51.7783C529.615 52.1934 529.245 52.5921 528.789 52.9746C528.333 53.349 527.776 53.6541 527.117 53.8901C526.466 54.1261 525.709 54.2441 524.846 54.2441ZM536.016 51.0703L539.067 40.792H540.947L540.435 43.8682L537.358 54H535.674L536.016 51.0703ZM534.221 40.792L536.602 51.1191L536.797 54H534.917L531.34 40.792H534.221ZM543.804 50.9971L546.111 40.792H548.979L545.415 54H543.535L543.804 50.9971ZM541.265 40.792L544.28 50.9482L544.658 54H542.974L539.861 43.856L539.348 40.792H541.265Z" fill="#5FA8D3"/>
<path d="M34.959 51.042C34.959 50.4854 34.8724 49.9906 34.6992 49.5576C34.5384 49.1247 34.2477 48.7288 33.8271 48.3701C33.4066 48.0114 32.8128 47.665 32.0459 47.3311C31.2913 46.9847 30.3265 46.6322 29.1514 46.2734C27.8649 45.8776 26.6774 45.4385 25.5889 44.9561C24.5127 44.4613 23.5726 43.8923 22.7686 43.249C21.9645 42.5934 21.3398 41.8451 20.8945 41.0039C20.4492 40.1504 20.2266 39.167 20.2266 38.0537C20.2266 36.9528 20.4554 35.9508 20.9131 35.0479C21.3831 34.1449 22.0449 33.3656 22.8984 32.71C23.7643 32.042 24.7848 31.5286 25.96 31.1699C27.1351 30.7988 28.4339 30.6133 29.8564 30.6133C31.8604 30.6133 33.5859 30.9844 35.0332 31.7266C36.4928 32.4688 37.6123 33.4645 38.3916 34.7139C39.1833 35.9632 39.5791 37.3424 39.5791 38.8516H34.959C34.959 37.9609 34.7673 37.1755 34.3838 36.4951C34.0127 35.8024 33.4437 35.2581 32.6768 34.8623C31.9222 34.4665 30.9635 34.2686 29.8008 34.2686C28.6999 34.2686 27.7845 34.4355 27.0547 34.7695C26.3249 35.1035 25.7806 35.555 25.4219 36.124C25.0632 36.693 24.8838 37.3363 24.8838 38.0537C24.8838 38.5609 25.0013 39.0247 25.2363 39.4453C25.4714 39.8535 25.8301 40.237 26.3125 40.5957C26.7949 40.9421 27.401 41.2699 28.1309 41.5791C28.8607 41.8883 29.7204 42.1852 30.71 42.4697C32.2067 42.915 33.5117 43.4098 34.625 43.9541C35.7383 44.486 36.666 45.0921 37.4082 45.7725C38.1504 46.4528 38.707 47.2259 39.0781 48.0918C39.4492 48.9453 39.6348 49.9163 39.6348 51.0049C39.6348 52.1429 39.4059 53.1696 38.9482 54.085C38.4906 54.988 37.835 55.7611 36.9814 56.4043C36.1403 57.0352 35.126 57.5238 33.9385 57.8701C32.7633 58.2041 31.4521 58.3711 30.0049 58.3711C28.7061 58.3711 27.4258 58.1979 26.1641 57.8516C24.9147 57.5052 23.7767 56.9795 22.75 56.2744C21.7233 55.557 20.9069 54.6663 20.3008 53.6025C19.6947 52.5264 19.3916 51.2708 19.3916 49.8359H24.0488C24.0488 50.7142 24.1973 51.4626 24.4941 52.0811C24.8034 52.6995 25.2301 53.2067 25.7744 53.6025C26.3187 53.986 26.9495 54.2705 27.667 54.4561C28.3968 54.6416 29.1761 54.7344 30.0049 54.7344C31.0934 54.7344 32.0026 54.5798 32.7324 54.2705C33.4746 53.9613 34.0312 53.5283 34.4023 52.9717C34.7734 52.415 34.959 51.7718 34.959 51.042ZM54.627 53.9736V44.3994C54.627 43.682 54.4971 43.0635 54.2373 42.5439C53.9775 42.0244 53.5817 41.6224 53.0498 41.3379C52.5303 41.0534 51.8747 40.9111 51.083 40.9111C50.3532 40.9111 49.7223 41.0348 49.1904 41.2822C48.6585 41.5296 48.2441 41.8636 47.9473 42.2842C47.6504 42.7048 47.502 43.181 47.502 43.7129H43.0488C43.0488 42.9212 43.2406 42.1543 43.624 41.4121C44.0075 40.6699 44.5641 40.0081 45.2939 39.4268C46.0238 38.8454 46.8958 38.3877 47.9102 38.0537C48.9245 37.7197 50.0625 37.5527 51.3242 37.5527C52.8333 37.5527 54.1693 37.8063 55.332 38.3135C56.5072 38.8206 57.4287 39.5876 58.0967 40.6143C58.777 41.6286 59.1172 42.9027 59.1172 44.4365V53.3613C59.1172 54.2767 59.179 55.0993 59.3027 55.8291C59.4388 56.5465 59.6305 57.1712 59.8779 57.7031V58H55.2949C55.0846 57.5176 54.9176 56.9053 54.7939 56.1631C54.6826 55.4085 54.627 54.6787 54.627 53.9736ZM55.2764 45.791L55.3135 48.5557H52.1035C51.2747 48.5557 50.5449 48.6361 49.9141 48.7969C49.2832 48.9453 48.7575 49.168 48.3369 49.4648C47.9163 49.7617 47.6009 50.1204 47.3906 50.541C47.1803 50.9616 47.0752 51.4378 47.0752 51.9697C47.0752 52.5016 47.1989 52.9902 47.4463 53.4355C47.6937 53.8685 48.0524 54.2087 48.5225 54.4561C49.0049 54.7035 49.5863 54.8271 50.2666 54.8271C51.182 54.8271 51.9798 54.6416 52.6602 54.2705C53.3529 53.887 53.8971 53.4232 54.293 52.8789C54.6888 52.3223 54.8991 51.7965 54.9238 51.3018L56.3711 53.2871C56.2227 53.7943 55.9691 54.3385 55.6104 54.9199C55.2516 55.5013 54.7816 56.0579 54.2002 56.5898C53.6312 57.1094 52.9447 57.5361 52.1406 57.8701C51.349 58.2041 50.4336 58.3711 49.3945 58.3711C48.0833 58.3711 46.9144 58.1113 45.8877 57.5918C44.861 57.0599 44.057 56.3486 43.4756 55.458C42.8942 54.555 42.6035 53.5345 42.6035 52.3965C42.6035 51.3327 42.8014 50.3926 43.1973 49.5762C43.6055 48.7474 44.1992 48.0547 44.9785 47.498C45.7702 46.9414 46.735 46.5208 47.873 46.2363C49.0111 45.9395 50.3099 45.791 51.7695 45.791H55.2764ZM70.0273 54.4561L74.9443 37.9238H79.583L72.6064 58H69.7119L70.0273 54.4561ZM66.2607 37.9238L71.2705 54.5303L71.5117 58H68.6172L61.6035 37.9238H66.2607ZM90.9385 58.3711C89.4541 58.3711 88.112 58.1299 86.9121 57.6475C85.7246 57.1527 84.7103 56.4661 83.8691 55.5879C83.0404 54.7096 82.4033 53.6768 81.958 52.4893C81.5127 51.3018 81.29 50.0215 81.29 48.6484V47.9062C81.29 46.3353 81.5189 44.9128 81.9766 43.6387C82.4342 42.3646 83.0713 41.276 83.8877 40.373C84.7041 39.4577 85.6689 38.7588 86.7822 38.2764C87.8955 37.7939 89.1016 37.5527 90.4004 37.5527C91.8353 37.5527 93.0908 37.7939 94.167 38.2764C95.2432 38.7588 96.1338 39.4391 96.8389 40.3174C97.5563 41.1833 98.0882 42.2161 98.4346 43.416C98.7933 44.6159 98.9727 45.9395 98.9727 47.3867V49.2979H83.4609V46.0879H94.5566V45.7354C94.5319 44.9313 94.3711 44.1768 94.0742 43.4717C93.7897 42.7666 93.3506 42.1976 92.7568 41.7646C92.1631 41.3317 91.3714 41.1152 90.3818 41.1152C89.6396 41.1152 88.9779 41.276 88.3965 41.5977C87.8275 41.9069 87.3512 42.3584 86.9678 42.9521C86.5843 43.5459 86.2874 44.2633 86.0771 45.1045C85.8792 45.9333 85.7803 46.8672 85.7803 47.9062V48.6484C85.7803 49.5267 85.8978 50.3431 86.1328 51.0977C86.3802 51.8398 86.7389 52.4893 87.209 53.0459C87.679 53.6025 88.248 54.0417 88.916 54.3633C89.584 54.6725 90.3447 54.8271 91.1982 54.8271C92.2744 54.8271 93.2331 54.6107 94.0742 54.1777C94.9154 53.7448 95.6452 53.1325 96.2637 52.3408L98.6201 54.623C98.1872 55.2539 97.6243 55.86 96.9316 56.4414C96.2389 57.0104 95.3916 57.4743 94.3896 57.833C93.4001 58.1917 92.2497 58.3711 90.9385 58.3711ZM114.707 53.8438V29.5H119.197V58H115.134L114.707 53.8438ZM101.645 48.1846V47.7949C101.645 46.2734 101.824 44.888 102.183 43.6387C102.541 42.377 103.061 41.2946 103.741 40.3916C104.422 39.4762 105.25 38.7773 106.228 38.2949C107.205 37.8001 108.306 37.5527 109.53 37.5527C110.743 37.5527 111.806 37.7878 112.722 38.2578C113.637 38.7279 114.416 39.402 115.06 40.2803C115.703 41.1462 116.216 42.1852 116.6 43.3975C116.983 44.5973 117.255 45.9333 117.416 47.4053V48.6484C117.255 50.0833 116.983 51.3945 116.6 52.582C116.216 53.7695 115.703 54.7962 115.06 55.6621C114.416 56.528 113.631 57.196 112.703 57.666C111.788 58.1361 110.718 58.3711 109.493 58.3711C108.281 58.3711 107.186 58.1175 106.209 57.6104C105.244 57.1032 104.422 56.3919 103.741 55.4766C103.061 54.5612 102.541 53.485 102.183 52.248C101.824 50.9987 101.645 49.6442 101.645 48.1846ZM106.116 47.7949V48.1846C106.116 49.0999 106.197 49.9535 106.357 50.7451C106.531 51.5368 106.797 52.2357 107.155 52.8418C107.514 53.4355 107.978 53.9056 108.547 54.252C109.128 54.5859 109.821 54.7529 110.625 54.7529C111.639 54.7529 112.474 54.5303 113.13 54.085C113.785 53.6396 114.299 53.0397 114.67 52.2852C115.053 51.5182 115.313 50.6647 115.449 49.7246V46.3662C115.375 45.6364 115.22 44.9561 114.985 44.3252C114.763 43.6943 114.46 43.1439 114.076 42.6738C113.693 42.1914 113.216 41.8203 112.647 41.5605C112.091 41.2884 111.429 41.1523 110.662 41.1523C109.846 41.1523 109.153 41.3255 108.584 41.6719C108.015 42.0182 107.545 42.4945 107.174 43.1006C106.815 43.7067 106.549 44.4118 106.376 45.2158C106.203 46.0199 106.116 46.8796 106.116 47.7949ZM143.04 53.0645L150.146 30.9844H155.286L145.601 58H142.131L143.04 53.0645ZM136.472 30.9844L143.522 53.0645L144.487 58H140.999L131.351 30.9844H136.472ZM156.158 48.1846V47.7578C156.158 46.3105 156.368 44.9684 156.789 43.7314C157.21 42.4821 157.816 41.3997 158.607 40.4844C159.411 39.5566 160.389 38.8392 161.539 38.332C162.702 37.8125 164.013 37.5527 165.473 37.5527C166.945 37.5527 168.256 37.8125 169.406 38.332C170.569 38.8392 171.552 39.5566 172.356 40.4844C173.16 41.3997 173.773 42.4821 174.193 43.7314C174.614 44.9684 174.824 46.3105 174.824 47.7578V48.1846C174.824 49.6318 174.614 50.974 174.193 52.2109C173.773 53.4479 173.16 54.5303 172.356 55.458C171.552 56.3734 170.575 57.0908 169.425 57.6104C168.274 58.1175 166.969 58.3711 165.51 58.3711C164.038 58.3711 162.72 58.1175 161.558 57.6104C160.407 57.0908 159.43 56.3734 158.626 55.458C157.822 54.5303 157.21 53.4479 156.789 52.2109C156.368 50.974 156.158 49.6318 156.158 48.1846ZM160.63 47.7578V48.1846C160.63 49.0876 160.723 49.9411 160.908 50.7451C161.094 51.5492 161.384 52.2542 161.78 52.8604C162.176 53.4665 162.683 53.9427 163.302 54.2891C163.92 54.6354 164.656 54.8086 165.51 54.8086C166.339 54.8086 167.056 54.6354 167.662 54.2891C168.281 53.9427 168.788 53.4665 169.184 52.8604C169.579 52.2542 169.87 51.5492 170.056 50.7451C170.254 49.9411 170.353 49.0876 170.353 48.1846V47.7578C170.353 46.8672 170.254 46.026 170.056 45.2344C169.87 44.4303 169.573 43.7191 169.165 43.1006C168.769 42.4821 168.262 41.9997 167.644 41.6533C167.037 41.2946 166.314 41.1152 165.473 41.1152C164.632 41.1152 163.902 41.2946 163.283 41.6533C162.677 41.9997 162.176 42.4821 161.78 43.1006C161.384 43.7191 161.094 44.4303 160.908 45.2344C160.723 46.026 160.63 46.8672 160.63 47.7578ZM190.651 53.2686V37.9238H195.142V58H190.911L190.651 53.2686ZM191.282 49.0938L192.785 49.0566C192.785 50.4049 192.637 51.6481 192.34 52.7861C192.043 53.9118 191.585 54.8952 190.967 55.7363C190.348 56.5651 189.557 57.2145 188.592 57.6846C187.627 58.1423 186.47 58.3711 185.122 58.3711C184.145 58.3711 183.248 58.2288 182.432 57.9443C181.615 57.6598 180.91 57.2207 180.316 56.627C179.735 56.0332 179.284 55.2601 178.962 54.3076C178.64 53.3551 178.479 52.2171 178.479 50.8936V37.9238H182.951V50.9307C182.951 51.6605 183.038 52.2728 183.211 52.7676C183.384 53.25 183.619 53.6396 183.916 53.9365C184.213 54.2334 184.559 54.4437 184.955 54.5674C185.351 54.6911 185.771 54.7529 186.217 54.7529C187.491 54.7529 188.493 54.5055 189.223 54.0107C189.965 53.5036 190.491 52.8232 190.8 51.9697C191.121 51.1162 191.282 50.1576 191.282 49.0938ZM207.926 54.8086C208.656 54.8086 209.311 54.6663 209.893 54.3818C210.486 54.085 210.963 53.6768 211.321 53.1572C211.692 52.6377 211.896 52.0378 211.934 51.3574H216.146C216.121 52.6562 215.737 53.8376 214.995 54.9014C214.253 55.9652 213.27 56.8125 212.045 57.4434C210.82 58.0618 209.466 58.3711 207.981 58.3711C206.448 58.3711 205.112 58.1113 203.974 57.5918C202.836 57.0599 201.889 56.3301 201.135 55.4023C200.38 54.4746 199.811 53.4046 199.428 52.1924C199.057 50.9801 198.871 49.6813 198.871 48.2959V47.6465C198.871 46.2611 199.057 44.9622 199.428 43.75C199.811 42.5254 200.38 41.4492 201.135 40.5215C201.889 39.5938 202.836 38.8701 203.974 38.3506C205.112 37.8187 206.441 37.5527 207.963 37.5527C209.571 37.5527 210.981 37.8743 212.193 38.5176C213.406 39.1484 214.358 40.0329 215.051 41.1709C215.756 42.2965 216.121 43.6077 216.146 45.1045H211.934C211.896 44.3623 211.711 43.6943 211.377 43.1006C211.055 42.4945 210.598 42.012 210.004 41.6533C209.423 41.2946 208.724 41.1152 207.907 41.1152C207.004 41.1152 206.256 41.3008 205.662 41.6719C205.068 42.0306 204.604 42.5254 204.271 43.1562C203.937 43.7747 203.695 44.4736 203.547 45.2529C203.411 46.0199 203.343 46.8177 203.343 47.6465V48.2959C203.343 49.1247 203.411 49.9287 203.547 50.708C203.683 51.4873 203.918 52.1862 204.252 52.8047C204.598 53.4108 205.068 53.8994 205.662 54.2705C206.256 54.6292 207.01 54.8086 207.926 54.8086ZM223.994 29.5V58H219.541V29.5H223.994ZM223.215 47.2197L221.768 47.2012C221.78 45.8158 221.972 44.5355 222.343 43.3604C222.726 42.1852 223.258 41.1647 223.938 40.2988C224.631 39.4206 225.46 38.7464 226.425 38.2764C227.39 37.7939 228.46 37.5527 229.635 37.5527C230.624 37.5527 231.515 37.6888 232.307 37.9609C233.111 38.2331 233.803 38.6722 234.385 39.2783C234.966 39.8721 235.405 40.6514 235.702 41.6162C236.011 42.5687 236.166 43.7314 236.166 45.1045V58H231.676V45.0674C231.676 44.1025 231.534 43.3356 231.249 42.7666C230.977 42.1976 230.575 41.7894 230.043 41.542C229.511 41.2822 228.862 41.1523 228.095 41.1523C227.291 41.1523 226.579 41.3132 225.961 41.6348C225.355 41.9564 224.848 42.3955 224.439 42.9521C224.031 43.5088 223.722 44.152 223.512 44.8818C223.314 45.6117 223.215 46.391 223.215 47.2197ZM249.544 58.3711C248.06 58.3711 246.717 58.1299 245.518 57.6475C244.33 57.1527 243.316 56.4661 242.475 55.5879C241.646 54.7096 241.009 53.6768 240.563 52.4893C240.118 51.3018 239.896 50.0215 239.896 48.6484V47.9062C239.896 46.3353 240.124 44.9128 240.582 43.6387C241.04 42.3646 241.677 41.276 242.493 40.373C243.31 39.4577 244.274 38.7588 245.388 38.2764C246.501 37.7939 247.707 37.5527 249.006 37.5527C250.441 37.5527 251.696 37.7939 252.772 38.2764C253.849 38.7588 254.739 39.4391 255.444 40.3174C256.162 41.1833 256.694 42.2161 257.04 43.416C257.399 44.6159 257.578 45.9395 257.578 47.3867V49.2979H242.066V46.0879H253.162V45.7354C253.137 44.9313 252.977 44.1768 252.68 43.4717C252.395 42.7666 251.956 42.1976 251.362 41.7646C250.769 41.3317 249.977 41.1152 248.987 41.1152C248.245 41.1152 247.583 41.276 247.002 41.5977C246.433 41.9069 245.957 42.3584 245.573 42.9521C245.19 43.5459 244.893 44.2633 244.683 45.1045C244.485 45.9333 244.386 46.8672 244.386 47.9062V48.6484C244.386 49.5267 244.503 50.3431 244.738 51.0977C244.986 51.8398 245.344 52.4893 245.814 53.0459C246.285 53.6025 246.854 54.0417 247.521 54.3633C248.189 54.6725 248.95 54.8271 249.804 54.8271C250.88 54.8271 251.839 54.6107 252.68 54.1777C253.521 53.7448 254.251 53.1325 254.869 52.3408L257.226 54.623C256.793 55.2539 256.23 55.86 255.537 56.4414C254.844 57.0104 253.997 57.4743 252.995 57.833C252.006 58.1917 250.855 58.3711 249.544 58.3711ZM265.557 41.7461V58H261.085V37.9238H265.353L265.557 41.7461ZM271.698 37.7939L271.661 41.9502C271.389 41.9007 271.092 41.8636 270.771 41.8389C270.461 41.8141 270.152 41.8018 269.843 41.8018C269.076 41.8018 268.402 41.9131 267.82 42.1357C267.239 42.346 266.75 42.6553 266.354 43.0635C265.971 43.4593 265.674 43.9417 265.464 44.5107C265.254 45.0798 265.13 45.7168 265.093 46.4219L264.072 46.4961C264.072 45.2344 264.196 44.0654 264.443 42.9893C264.691 41.9131 265.062 40.9668 265.557 40.1504C266.064 39.334 266.695 38.6969 267.449 38.2393C268.216 37.7816 269.101 37.5527 270.103 37.5527C270.375 37.5527 270.665 37.5775 270.975 37.627C271.296 37.6764 271.537 37.7321 271.698 37.7939ZM294.632 30.9844V58H290.012V30.9844H294.632ZM303.111 30.9844V34.6953H281.606V30.9844H303.111ZM302.777 48.1846V47.7578C302.777 46.3105 302.988 44.9684 303.408 43.7314C303.829 42.4821 304.435 41.3997 305.227 40.4844C306.031 39.5566 307.008 38.8392 308.158 38.332C309.321 37.8125 310.632 37.5527 312.092 37.5527C313.564 37.5527 314.875 37.8125 316.025 38.332C317.188 38.8392 318.172 39.5566 318.976 40.4844C319.78 41.3997 320.392 42.4821 320.812 43.7314C321.233 44.9684 321.443 46.3105 321.443 47.7578V48.1846C321.443 49.6318 321.233 50.974 320.812 52.2109C320.392 53.4479 319.78 54.5303 318.976 55.458C318.172 56.3734 317.194 57.0908 316.044 57.6104C314.894 58.1175 313.589 58.3711 312.129 58.3711C310.657 58.3711 309.34 58.1175 308.177 57.6104C307.026 57.0908 306.049 56.3734 305.245 55.458C304.441 54.5303 303.829 53.4479 303.408 52.2109C302.988 50.974 302.777 49.6318 302.777 48.1846ZM307.249 47.7578V48.1846C307.249 49.0876 307.342 49.9411 307.527 50.7451C307.713 51.5492 308.004 52.2542 308.399 52.8604C308.795 53.4665 309.302 53.9427 309.921 54.2891C310.539 54.6354 311.275 54.8086 312.129 54.8086C312.958 54.8086 313.675 54.6354 314.281 54.2891C314.9 53.9427 315.407 53.4665 315.803 52.8604C316.199 52.2542 316.489 51.5492 316.675 50.7451C316.873 49.9411 316.972 49.0876 316.972 48.1846V47.7578C316.972 46.8672 316.873 46.026 316.675 45.2344C316.489 44.4303 316.192 43.7191 315.784 43.1006C315.388 42.4821 314.881 41.9997 314.263 41.6533C313.657 41.2946 312.933 41.1152 312.092 41.1152C311.251 41.1152 310.521 41.2946 309.902 41.6533C309.296 41.9997 308.795 42.4821 308.399 43.1006C308.004 43.7191 307.713 44.4303 307.527 45.2344C307.342 46.026 307.249 46.8672 307.249 47.7578ZM324.338 48.1846V47.7578C324.338 46.3105 324.548 44.9684 324.969 43.7314C325.389 42.4821 325.995 41.3997 326.787 40.4844C327.591 39.5566 328.568 38.8392 329.719 38.332C330.882 37.8125 332.193 37.5527 333.652 37.5527C335.124 37.5527 336.436 37.8125 337.586 38.332C338.749 38.8392 339.732 39.5566 340.536 40.4844C341.34 41.3997 341.952 42.4821 342.373 43.7314C342.794 44.9684 343.004 46.3105 343.004 47.7578V48.1846C343.004 49.6318 342.794 50.974 342.373 52.2109C341.952 53.4479 341.34 54.5303 340.536 55.458C339.732 56.3734 338.755 57.0908 337.604 57.6104C336.454 58.1175 335.149 58.3711 333.689 58.3711C332.217 58.3711 330.9 58.1175 329.737 57.6104C328.587 57.0908 327.61 56.3734 326.806 55.458C326.002 54.5303 325.389 53.4479 324.969 52.2109C324.548 50.974 324.338 49.6318 324.338 48.1846ZM328.81 47.7578V48.1846C328.81 49.0876 328.902 49.9411 329.088 50.7451C329.273 51.5492 329.564 52.2542 329.96 52.8604C330.356 53.4665 330.863 53.9427 331.481 54.2891C332.1 54.6354 332.836 54.8086 333.689 54.8086C334.518 54.8086 335.236 54.6354 335.842 54.2891C336.46 53.9427 336.967 53.4665 337.363 52.8604C337.759 52.2542 338.05 51.5492 338.235 50.7451C338.433 49.9411 338.532 49.0876 338.532 48.1846V47.7578C338.532 46.8672 338.433 46.026 338.235 45.2344C338.05 44.4303 337.753 43.7191 337.345 43.1006C336.949 42.4821 336.442 41.9997 335.823 41.6533C335.217 41.2946 334.493 41.1152 333.652 41.1152C332.811 41.1152 332.081 41.2946 331.463 41.6533C330.857 41.9997 330.356 42.4821 329.96 43.1006C329.564 43.7191 329.273 44.4303 329.088 45.2344C328.902 46.026 328.81 46.8672 328.81 47.7578ZM351.539 29.5V58H347.049V29.5H351.539ZM374.194 58H368.424L368.461 54.3076H374.194C375.864 54.3076 377.262 53.9427 378.388 53.2129C379.526 52.4831 380.379 51.4378 380.948 50.0771C381.53 48.7165 381.82 47.096 381.82 45.2158V43.75C381.82 42.2904 381.653 40.9977 381.319 39.8721C380.998 38.7464 380.515 37.8001 379.872 37.0332C379.241 36.2663 378.462 35.6849 377.534 35.2891C376.619 34.8932 375.561 34.6953 374.361 34.6953H368.312V30.9844H374.361C376.155 30.9844 377.794 31.2874 379.278 31.8936C380.763 32.4873 382.043 33.347 383.119 34.4727C384.208 35.5983 385.043 36.9466 385.624 38.5176C386.205 40.0885 386.496 41.8451 386.496 43.7871V45.2158C386.496 47.1579 386.205 48.9144 385.624 50.4854C385.043 52.0563 384.208 53.4046 383.119 54.5303C382.031 55.6436 380.732 56.5033 379.223 57.1094C377.726 57.7031 376.05 58 374.194 58ZM371.003 30.9844V58H366.346V30.9844H371.003ZM402.045 53.9736V44.3994C402.045 43.682 401.915 43.0635 401.655 42.5439C401.396 42.0244 401 41.6224 400.468 41.3379C399.948 41.0534 399.293 40.9111 398.501 40.9111C397.771 40.9111 397.14 41.0348 396.608 41.2822C396.076 41.5296 395.662 41.8636 395.365 42.2842C395.068 42.7048 394.92 43.181 394.92 43.7129H390.467C390.467 42.9212 390.659 42.1543 391.042 41.4121C391.425 40.6699 391.982 40.0081 392.712 39.4268C393.442 38.8454 394.314 38.3877 395.328 38.0537C396.342 37.7197 397.48 37.5527 398.742 37.5527C400.251 37.5527 401.587 37.8063 402.75 38.3135C403.925 38.8206 404.847 39.5876 405.515 40.6143C406.195 41.6286 406.535 42.9027 406.535 44.4365V53.3613C406.535 54.2767 406.597 55.0993 406.721 55.8291C406.857 56.5465 407.049 57.1712 407.296 57.7031V58H402.713C402.503 57.5176 402.336 56.9053 402.212 56.1631C402.101 55.4085 402.045 54.6787 402.045 53.9736ZM402.694 45.791L402.731 48.5557H399.521C398.693 48.5557 397.963 48.6361 397.332 48.7969C396.701 48.9453 396.175 49.168 395.755 49.4648C395.334 49.7617 395.019 50.1204 394.809 50.541C394.598 50.9616 394.493 51.4378 394.493 51.9697C394.493 52.5016 394.617 52.9902 394.864 53.4355C395.112 53.8685 395.47 54.2087 395.94 54.4561C396.423 54.7035 397.004 54.8271 397.685 54.8271C398.6 54.8271 399.398 54.6416 400.078 54.2705C400.771 53.887 401.315 53.4232 401.711 52.8789C402.107 52.3223 402.317 51.7965 402.342 51.3018L403.789 53.2871C403.641 53.7943 403.387 54.3385 403.028 54.9199C402.67 55.5013 402.2 56.0579 401.618 56.5898C401.049 57.1094 400.363 57.5361 399.559 57.8701C398.767 58.2041 397.852 58.3711 396.812 58.3711C395.501 58.3711 394.332 58.1113 393.306 57.5918C392.279 57.0599 391.475 56.3486 390.894 55.458C390.312 54.555 390.021 53.5345 390.021 52.3965C390.021 51.3327 390.219 50.3926 390.615 49.5762C391.023 48.7474 391.617 48.0547 392.396 47.498C393.188 46.9414 394.153 46.5208 395.291 46.2363C396.429 45.9395 397.728 45.791 399.188 45.791H402.694ZM420.414 37.9238V41.1895H409.096V37.9238H420.414ZM412.361 33.0068H416.833V52.4521C416.833 53.0706 416.92 53.5469 417.093 53.8809C417.278 54.2025 417.532 54.4189 417.854 54.5303C418.175 54.6416 418.552 54.6973 418.985 54.6973C419.295 54.6973 419.591 54.6787 419.876 54.6416C420.16 54.6045 420.389 54.5674 420.562 54.5303L420.581 57.9443C420.21 58.0557 419.777 58.1546 419.282 58.2412C418.8 58.3278 418.243 58.3711 417.612 58.3711C416.586 58.3711 415.676 58.1917 414.885 57.833C414.093 57.4619 413.475 56.862 413.029 56.0332C412.584 55.2044 412.361 54.1035 412.361 52.7305V33.0068ZM435.184 53.9736V44.3994C435.184 43.682 435.054 43.0635 434.794 42.5439C434.534 42.0244 434.138 41.6224 433.606 41.3379C433.087 41.0534 432.431 40.9111 431.64 40.9111C430.91 40.9111 430.279 41.0348 429.747 41.2822C429.215 41.5296 428.801 41.8636 428.504 42.2842C428.207 42.7048 428.059 43.181 428.059 43.7129H423.605C423.605 42.9212 423.797 42.1543 424.181 41.4121C424.564 40.6699 425.121 40.0081 425.851 39.4268C426.58 38.8454 427.452 38.3877 428.467 38.0537C429.481 37.7197 430.619 37.5527 431.881 37.5527C433.39 37.5527 434.726 37.8063 435.889 38.3135C437.064 38.8206 437.985 39.5876 438.653 40.6143C439.334 41.6286 439.674 42.9027 439.674 44.4365V53.3613C439.674 54.2767 439.736 55.0993 439.859 55.8291C439.995 56.5465 440.187 57.1712 440.435 57.7031V58H435.852C435.641 57.5176 435.474 56.9053 435.351 56.1631C435.239 55.4085 435.184 54.6787 435.184 53.9736ZM435.833 45.791L435.87 48.5557H432.66C431.831 48.5557 431.102 48.6361 430.471 48.7969C429.84 48.9453 429.314 49.168 428.894 49.4648C428.473 49.7617 428.158 50.1204 427.947 50.541C427.737 50.9616 427.632 51.4378 427.632 51.9697C427.632 52.5016 427.756 52.9902 428.003 53.4355C428.25 53.8685 428.609 54.2087 429.079 54.4561C429.562 54.7035 430.143 54.8271 430.823 54.8271C431.739 54.8271 432.536 54.6416 433.217 54.2705C433.91 53.887 434.454 53.4232 434.85 52.8789C435.245 52.3223 435.456 51.7965 435.48 51.3018L436.928 53.2871C436.779 53.7943 436.526 54.3385 436.167 54.9199C435.808 55.5013 435.338 56.0579 434.757 56.5898C434.188 57.1094 433.501 57.5361 432.697 57.8701C431.906 58.2041 430.99 58.3711 429.951 58.3711C428.64 58.3711 427.471 58.1113 426.444 57.5918C425.418 57.0599 424.614 56.3486 424.032 55.458C423.451 54.555 423.16 53.5345 423.16 52.3965C423.16 51.3327 423.358 50.3926 423.754 49.5762C424.162 48.7474 424.756 48.0547 425.535 47.498C426.327 46.9414 427.292 46.5208 428.43 46.2363C429.568 45.9395 430.867 45.791 432.326 45.791H435.833Z" fill="black"/>
</g>
<defs>
<filter id="filter0_f_76_200" x="0" y="0" width="574" height="92" filterUnits="userSpaceOnUse" color-interpolation-filters="sRGB">
<feFlood flood-opacity="0" result="BackgroundImageFix"/>
<feBlend mode="normal" in="SourceGraphic" in2="BackgroundImageFix" result="shape"/>
<feGaussianBlur stdDeviation="2" result="effect1_foregroundBlur_76_200"/>
</filter>
</defs>
</svg>
