<svg width="236" height="77" viewBox="0 0 236 77" fill="none" xmlns="http://www.w3.org/2000/svg">
<g filter="url(#filter0_d_554_1340)">
<rect x="1" y="1" width="228" height="69" rx="5" fill="#8FC0A9"/>
<path d="M38.5939 23.6719V45H34.9171V23.6719H38.5939ZM47.295 33.0029V35.918H37.6564V33.0029H47.295ZM48.5108 23.6719V26.6016H37.6564V23.6719H48.5108ZM54.8683 29.1504V45H51.3233V29.1504H54.8683ZM51.089 24.9902C51.089 24.4531 51.2648 24.0088 51.6163 23.6572C51.9776 23.2959 52.4757 23.1152 53.1105 23.1152C53.7355 23.1152 54.2286 23.2959 54.59 23.6572C54.9513 24.0088 55.1319 24.4531 55.1319 24.9902C55.1319 25.5176 54.9513 25.957 54.59 26.3086C54.2286 26.6602 53.7355 26.8359 53.1105 26.8359C52.4757 26.8359 51.9776 26.6602 51.6163 26.3086C51.2648 25.957 51.089 25.5176 51.089 24.9902ZM62.2364 32.5342V45H58.7062V29.1504H62.0314L62.2364 32.5342ZM61.6066 36.4893L60.464 36.4746C60.4737 35.3516 60.63 34.3213 60.9327 33.3838C61.2452 32.4463 61.6749 31.6406 62.2218 30.9668C62.7784 30.293 63.4425 29.7754 64.214 29.4141C64.9855 29.043 65.8448 28.8574 66.7921 28.8574C67.5538 28.8574 68.2423 28.9648 68.8575 29.1797C69.4825 29.3848 70.0148 29.7217 70.4542 30.1904C70.9034 30.6592 71.2452 31.2695 71.4796 32.0215C71.714 32.7637 71.8312 33.6768 71.8312 34.7607V45H68.2862V34.7461C68.2862 33.9844 68.1739 33.3838 67.9493 32.9443C67.7345 32.4951 67.4171 32.1777 66.9972 31.9922C66.587 31.7969 66.0743 31.6992 65.4591 31.6992C64.8536 31.6992 64.3116 31.8262 63.8331 32.0801C63.3546 32.334 62.9493 32.6807 62.6173 33.1201C62.295 33.5596 62.046 34.0674 61.8702 34.6436C61.6944 35.2197 61.6066 35.835 61.6066 36.4893ZM79.214 29.1504V45H75.6691V29.1504H79.214ZM75.4347 24.9902C75.4347 24.4531 75.6105 24.0088 75.962 23.6572C76.3233 23.2959 76.8214 23.1152 77.4562 23.1152C78.0812 23.1152 78.5743 23.2959 78.9357 23.6572C79.297 24.0088 79.4776 24.4531 79.4776 24.9902C79.4776 25.5176 79.297 25.957 78.9357 26.3086C78.5743 26.6602 78.0812 26.8359 77.4562 26.8359C76.8214 26.8359 76.3233 26.6602 75.962 26.3086C75.6105 25.957 75.4347 25.5176 75.4347 24.9902ZM91.9728 40.708C91.9728 40.3564 91.8849 40.0391 91.7091 39.7559C91.5333 39.4629 91.1964 39.1992 90.6983 38.9648C90.2101 38.7305 89.4874 38.5156 88.5304 38.3203C87.6905 38.1348 86.9191 37.915 86.2159 37.6611C85.5226 37.3975 84.9269 37.0801 84.4288 36.709C83.9308 36.3379 83.545 35.8984 83.2716 35.3906C82.9982 34.8828 82.8614 34.2969 82.8614 33.6328C82.8614 32.9883 83.003 32.3779 83.2862 31.8018C83.5694 31.2256 83.9747 30.7178 84.5021 30.2783C85.0294 29.8389 85.6691 29.4922 86.421 29.2383C87.1827 28.9844 88.0323 28.8574 88.9698 28.8574C90.298 28.8574 91.4357 29.082 92.3829 29.5312C93.34 29.9707 94.0724 30.5713 94.5802 31.333C95.088 32.085 95.3419 32.9346 95.3419 33.8818H91.8116C91.8116 33.4619 91.7042 33.0713 91.4894 32.71C91.2843 32.3389 90.9718 32.041 90.5519 31.8164C90.1319 31.582 89.6046 31.4648 88.9698 31.4648C88.3644 31.4648 87.8614 31.5625 87.461 31.7578C87.0704 31.9434 86.7775 32.1875 86.5821 32.4902C86.3966 32.793 86.3038 33.125 86.3038 33.4863C86.3038 33.75 86.3526 33.9893 86.4503 34.2041C86.5577 34.4092 86.7335 34.5996 86.9776 34.7754C87.2218 34.9414 87.5538 35.0977 87.9737 35.2441C88.4034 35.3906 88.9405 35.5322 89.5851 35.6689C90.796 35.9229 91.836 36.25 92.7052 36.6504C93.5841 37.041 94.2579 37.5488 94.7267 38.1738C95.1954 38.7891 95.4298 39.5703 95.4298 40.5176C95.4298 41.2207 95.2784 41.8652 94.9757 42.4512C94.6827 43.0273 94.253 43.5303 93.6866 43.96C93.1202 44.3799 92.4415 44.707 91.6505 44.9414C90.8692 45.1758 89.9903 45.293 89.0138 45.293C87.5782 45.293 86.3624 45.0391 85.3663 44.5312C84.3702 44.0137 83.6134 43.3545 83.0958 42.5537C82.588 41.7432 82.3341 40.9033 82.3341 40.0342H85.7472C85.7862 40.6885 85.9669 41.2109 86.2892 41.6016C86.6212 41.9824 87.0314 42.2607 87.5196 42.4365C88.0177 42.6025 88.5304 42.6855 89.0577 42.6855C89.6925 42.6855 90.2247 42.6025 90.6544 42.4365C91.0841 42.2607 91.4112 42.0264 91.6358 41.7334C91.8605 41.4307 91.9728 41.0889 91.9728 40.708ZM102.007 22.5V45H98.4913V22.5H102.007ZM101.392 36.4893L100.249 36.4746C100.259 35.3809 100.41 34.3701 100.703 33.4424C101.006 32.5146 101.426 31.709 101.963 31.0254C102.51 30.332 103.164 29.7998 103.926 29.4287C104.688 29.0479 105.532 28.8574 106.46 28.8574C107.241 28.8574 107.944 28.9648 108.569 29.1797C109.204 29.3945 109.751 29.7412 110.21 30.2197C110.669 30.6885 111.016 31.3037 111.25 32.0654C111.494 32.8174 111.616 33.7354 111.616 34.8193V45H108.071V34.79C108.071 34.0283 107.959 33.4229 107.734 32.9736C107.52 32.5244 107.202 32.2021 106.782 32.0068C106.362 31.8018 105.85 31.6992 105.244 31.6992C104.609 31.6992 104.048 31.8262 103.56 32.0801C103.081 32.334 102.681 32.6807 102.359 33.1201C102.036 33.5596 101.792 34.0674 101.626 34.6436C101.47 35.2197 101.392 35.835 101.392 36.4893ZM126.309 33.3984L129.985 30.9229C130.601 30.5127 131.04 30.1123 131.304 29.7217C131.567 29.3213 131.699 28.8232 131.699 28.2275C131.699 27.7197 131.504 27.251 131.113 26.8213C130.723 26.3916 130.171 26.1768 129.458 26.1768C128.96 26.1768 128.54 26.2939 128.198 26.5283C127.857 26.7529 127.598 27.0557 127.422 27.4365C127.256 27.8076 127.173 28.2227 127.173 28.6816C127.173 29.1211 127.285 29.5752 127.51 30.0439C127.734 30.5029 128.042 30.9863 128.433 31.4941C128.823 31.9922 129.263 32.5293 129.751 33.1055L139.829 45H135.742L127.51 35.3174C126.797 34.458 126.167 33.6719 125.62 32.959C125.073 32.2363 124.649 31.5381 124.346 30.8643C124.043 30.1807 123.892 29.4775 123.892 28.7549C123.892 27.6416 124.121 26.6846 124.58 25.8838C125.039 25.083 125.689 24.4678 126.528 24.0381C127.368 23.5986 128.35 23.3789 129.473 23.3789C130.557 23.3789 131.489 23.5986 132.271 24.0381C133.062 24.4678 133.667 25.0391 134.087 25.752C134.517 26.4648 134.732 27.2461 134.732 28.0957C134.732 28.7695 134.609 29.3848 134.365 29.9414C134.121 30.498 133.784 31.0059 133.355 31.4648C132.925 31.9238 132.427 32.3584 131.86 32.7686L127.393 36.0205C126.875 36.4404 126.489 36.8457 126.235 37.2363C125.991 37.6172 125.83 37.9688 125.752 38.291C125.674 38.6133 125.635 38.8965 125.635 39.1406C125.635 39.7656 125.767 40.332 126.03 40.8398C126.304 41.3477 126.699 41.7529 127.217 42.0557C127.744 42.3486 128.384 42.4951 129.136 42.4951C129.946 42.4951 130.733 42.3145 131.494 41.9531C132.256 41.582 132.94 41.0596 133.545 40.3857C134.15 39.7119 134.629 38.9062 134.981 37.9688C135.342 37.0312 135.523 35.9912 135.523 34.8486H138.569C138.569 35.8838 138.467 36.8652 138.262 37.793C138.067 38.7207 137.749 39.5801 137.31 40.3711C136.88 41.1621 136.314 41.8701 135.61 42.4951C135.542 42.5635 135.464 42.6514 135.376 42.7588C135.298 42.8564 135.22 42.9395 135.142 43.0078C134.302 43.7793 133.359 44.3555 132.315 44.7363C131.279 45.1074 130.176 45.293 129.004 45.293C127.588 45.293 126.362 45.0342 125.327 44.5166C124.292 43.999 123.491 43.2861 122.925 42.3779C122.368 41.4697 122.09 40.4297 122.09 39.2578C122.09 38.3887 122.271 37.627 122.632 36.9727C122.993 36.3086 123.486 35.6934 124.111 35.127C124.746 34.5508 125.479 33.9746 126.309 33.3984ZM163.692 42.085V45H152.368V42.085H163.692ZM153.408 23.6719V45H149.732V23.6719H153.408ZM162.212 32.5781V35.4492H152.368V32.5781H162.212ZM163.618 23.6719V26.6016H152.368V23.6719H163.618ZM169.038 29.1504L172.056 34.4092L175.132 29.1504H179.014L174.209 36.9287L179.204 45H175.322L172.1 39.5215L168.877 45H164.981L169.961 36.9287L165.171 29.1504H169.038ZM185.21 29.1504V45H181.665V29.1504H185.21ZM181.431 24.9902C181.431 24.4531 181.607 24.0088 181.958 23.6572C182.319 23.2959 182.817 23.1152 183.452 23.1152C184.077 23.1152 184.57 23.2959 184.932 23.6572C185.293 24.0088 185.474 24.4531 185.474 24.9902C185.474 25.5176 185.293 25.957 184.932 26.3086C184.57 26.6602 184.077 26.8359 183.452 26.8359C182.817 26.8359 182.319 26.6602 181.958 26.3086C181.607 25.957 181.431 25.5176 181.431 24.9902ZM196.343 29.1504V31.7285H187.407V29.1504H196.343ZM189.985 25.2686H193.516V40.6201C193.516 41.1084 193.584 41.4844 193.721 41.748C193.867 42.002 194.067 42.1729 194.321 42.2607C194.575 42.3486 194.873 42.3926 195.215 42.3926C195.459 42.3926 195.693 42.3779 195.918 42.3486C196.143 42.3193 196.323 42.29 196.46 42.2607L196.475 44.9561C196.182 45.0439 195.84 45.1221 195.449 45.1904C195.068 45.2588 194.629 45.293 194.131 45.293C193.32 45.293 192.603 45.1514 191.978 44.8682C191.353 44.5752 190.864 44.1016 190.513 43.4473C190.161 42.793 189.985 41.9238 189.985 40.8398V25.2686Z" fill="white"/>
</g>
<defs>
<filter id="filter0_d_554_1340" x="0" y="0" width="236" height="77" filterUnits="userSpaceOnUse" color-interpolation-filters="sRGB">
<feFlood flood-opacity="0" result="BackgroundImageFix"/>
<feColorMatrix in="SourceAlpha" type="matrix" values="0 0 0 0 0 0 0 0 0 0 0 0 0 0 0 0 0 0 127 0" result="hardAlpha"/>
<feOffset dx="3" dy="3"/>
<feGaussianBlur stdDeviation="2"/>
<feComposite in2="hardAlpha" operator="out"/>
<feColorMatrix type="matrix" values="0 0 0 0 0 0 0 0 0 0 0 0 0 0 0 0 0 0 0.15 0"/>
<feBlend mode="normal" in2="BackgroundImageFix" result="effect1_dropShadow_554_1340"/>
<feBlend mode="normal" in="SourceGraphic" in2="effect1_dropShadow_554_1340" result="shape"/>
</filter>
</defs>
</svg>
