<svg width="18" height="14" viewBox="0 0 18 14" fill="none" xmlns="http://www.w3.org/2000/svg">
<path d="M17.4997 3.38283C17.5004 4.03363 17.2771 4.66485 16.8672 5.17033L11.0784 12.1828C10.8595 12.4578 10.5814 12.6799 10.2647 12.8325C9.94812 12.9852 9.60115 13.0645 9.24965 13.0645C8.89816 13.0645 8.55119 12.9852 8.23457 12.8325C7.91795 12.6799 7.63983 12.4578 7.4209 12.1828L1.63215 5.17033C1.29389 4.74816 1.08103 4.23946 1.01783 3.7022C0.954619 3.16494 1.04361 2.62073 1.27465 2.13158C1.46204 1.70647 1.76783 1.34427 2.1555 1.08826C2.54318 0.83225 2.99635 0.693239 3.4609 0.687831L15.0384 0.687831C15.503 0.693239 15.9561 0.83225 16.3438 1.08826C16.7315 1.34427 17.0373 1.70647 17.2247 2.13158C17.4034 2.52465 17.4971 2.95104 17.4997 3.38283Z" fill="#8FC0A9"/>
</svg>
