<svg width="172" height="172" viewBox="0 0 172 172" fill="none" xmlns="http://www.w3.org/2000/svg">
<path d="M169.465 43.3677C168.706 42.6022 167.803 41.9947 166.807 41.5801C165.812 41.1655 164.745 40.952 163.667 40.952C162.589 40.952 161.521 41.1655 160.526 41.5801C159.531 41.9947 158.628 42.6022 157.868 43.3677L147.333 53.9844V8.33268C147.333 6.16675 146.473 4.08952 144.941 2.55798C143.41 1.02643 141.333 0.166016 139.167 0.166016C137.001 0.166016 134.923 1.02643 133.392 2.55798C131.86 4.08952 131 6.16675 131 8.33268V53.9844L120.465 43.3677C118.927 41.8299 116.841 40.9659 114.667 40.9659C112.492 40.9659 110.406 41.8299 108.868 43.3677C107.331 44.9055 106.467 46.9912 106.467 49.166C106.467 51.3408 107.331 53.4265 108.868 54.9644L133.368 79.4644C134.145 80.2078 135.061 80.7907 136.063 81.1794C137.041 81.6114 138.098 81.8346 139.167 81.8346C140.235 81.8346 141.292 81.6114 142.27 81.1794C143.272 80.7907 144.188 80.2078 144.965 79.4644L169.465 54.9644C170.23 54.2052 170.838 53.3019 171.253 52.3067C171.667 51.3115 171.881 50.2441 171.881 49.166C171.881 48.0879 171.667 47.0205 171.253 46.0253C170.838 45.0301 170.23 44.1269 169.465 43.3677ZM139.167 98.166C137.001 98.166 134.923 99.0264 133.392 100.558C131.86 102.09 131 104.167 131 106.333V109.436L118.913 97.3493C114.646 93.1153 108.878 90.7395 102.866 90.7395C96.8541 90.7395 91.086 93.1153 86.8183 97.3493L81.1017 103.066L60.8483 82.8127C56.521 78.6935 50.7753 76.396 44.8008 76.396C38.8264 76.396 33.0807 78.6935 28.7533 82.8127L16.6666 94.8994V49.166C16.6666 47.0001 17.5271 44.9229 19.0586 43.3913C20.5902 41.8598 22.6674 40.9994 24.8333 40.9994H90.1666C92.3326 40.9994 94.4098 40.1389 95.9414 38.6074C97.4729 37.0758 98.3333 34.9986 98.3333 32.8327C98.3333 30.6667 97.4729 28.5895 95.9414 27.058C94.4098 25.5264 92.3326 24.666 90.1666 24.666H24.8333C18.3355 24.666 12.1038 27.2473 7.5092 31.8419C2.91456 36.4365 0.333313 42.6682 0.333313 49.166V147.166C0.333313 153.664 2.91456 159.895 7.5092 164.49C12.1038 169.085 18.3355 171.666 24.8333 171.666H122.833C129.331 171.666 135.563 169.085 140.157 164.49C144.752 159.895 147.333 153.664 147.333 147.166V106.333C147.333 104.167 146.473 102.09 144.941 100.558C143.41 99.0264 141.333 98.166 139.167 98.166ZM24.8333 155.333C22.6674 155.333 20.5902 154.472 19.0586 152.941C17.5271 151.409 16.6666 149.332 16.6666 147.166V118.011L40.35 94.3277C41.5498 93.1843 43.1435 92.5466 44.8008 92.5466C46.4581 92.5466 48.0519 93.1843 49.2516 94.3277L75.14 120.216L110.257 155.333H24.8333ZM131 147.166C130.988 148.729 130.473 150.247 129.53 151.494L92.6983 114.499L98.415 108.783C99.0005 108.185 99.6993 107.71 100.471 107.386C101.242 107.062 102.07 106.895 102.907 106.895C103.743 106.895 104.571 107.062 105.343 107.386C106.114 107.71 106.813 108.185 107.398 108.783L131 132.548V147.166Z" fill="black"/>
</svg>
