<svg width="237" height="49" viewBox="0 0 237 49" fill="none" xmlns="http://www.w3.org/2000/svg">
<g filter="url(#filter0_f_377_834)">
<path d="M22.061 33.2642V5.89844H28.7749V33.2642C28.7749 35.8602 28.2199 38.0713 27.1099 39.8975C25.9998 41.7236 24.487 43.1201 22.5713 44.0869C20.6556 45.0537 18.4803 45.5371 16.0454 45.5371C13.5568 45.5371 11.3457 45.1164 9.41211 44.2749C7.49642 43.4334 5.99251 42.1444 4.90039 40.4077C3.80827 38.6711 3.26221 36.4689 3.26221 33.8013H10.0298C10.0298 35.341 10.2715 36.5853 10.7549 37.5342C11.2562 38.4652 11.9544 39.1455 12.8496 39.5752C13.7627 39.987 14.828 40.1929 16.0454 40.1929C17.2091 40.1929 18.2386 39.9333 19.1338 39.4141C20.0469 38.877 20.763 38.0981 21.2822 37.0776C21.8014 36.0392 22.061 34.7681 22.061 33.2642ZM34.6562 30.7935V30.1758C34.6562 28.0811 34.9606 26.1385 35.5693 24.3481C36.1781 22.5399 37.0553 20.9733 38.2012 19.6484C39.3649 18.3057 40.7793 17.2673 42.4443 16.5332C44.1273 15.7812 46.0251 15.4053 48.1377 15.4053C50.2682 15.4053 52.166 15.7812 53.8311 16.5332C55.514 17.2673 56.9373 18.3057 58.1011 19.6484C59.2648 20.9733 60.151 22.5399 60.7598 24.3481C61.3685 26.1385 61.6729 28.0811 61.6729 30.1758V30.7935C61.6729 32.8882 61.3685 34.8307 60.7598 36.6211C60.151 38.4115 59.2648 39.978 58.1011 41.3208C56.9373 42.6457 55.5229 43.6841 53.8579 44.436C52.1929 45.1701 50.304 45.5371 48.1914 45.5371C46.0609 45.5371 44.1541 45.1701 42.4712 44.436C40.8062 43.6841 39.3918 42.6457 38.228 41.3208C37.0643 39.978 36.1781 38.4115 35.5693 36.6211C34.9606 34.8307 34.6562 32.8882 34.6562 30.7935ZM41.1284 30.1758V30.7935C41.1284 32.1004 41.2627 33.3358 41.5312 34.4995C41.7998 35.6632 42.2205 36.6838 42.7935 37.561C43.3664 38.4383 44.1004 39.1276 44.9956 39.6289C45.8908 40.1302 46.9561 40.3809 48.1914 40.3809C49.391 40.3809 50.4294 40.1302 51.3066 39.6289C52.2018 39.1276 52.9359 38.4383 53.5088 37.561C54.0817 36.6838 54.5024 35.6632 54.771 34.4995C55.0575 33.3358 55.2007 32.1004 55.2007 30.7935V30.1758C55.2007 28.8867 55.0575 27.6693 54.771 26.5234C54.5024 25.3597 54.0728 24.3302 53.4819 23.4351C52.909 22.5399 52.175 21.8416 51.2798 21.3403C50.4025 20.8211 49.3551 20.5615 48.1377 20.5615C46.9202 20.5615 45.8639 20.8211 44.9688 21.3403C44.0915 21.8416 43.3664 22.5399 42.7935 23.4351C42.2205 24.3302 41.7998 25.3597 41.5312 26.5234C41.2627 27.6693 41.1284 28.8867 41.1284 30.1758ZM73.4893 3.75V45H67.0439V3.75H73.4893ZM72.3613 29.397L70.2666 29.3701C70.2845 27.3649 70.562 25.5119 71.0991 23.811C71.6541 22.1102 72.424 20.6331 73.4087 19.3799C74.4113 18.1087 75.6108 17.133 77.0073 16.4526C78.4038 15.7544 79.9525 15.4053 81.6533 15.4053C83.0856 15.4053 84.3747 15.6022 85.5205 15.9961C86.6842 16.39 87.6868 17.0256 88.5283 17.9028C89.3698 18.7622 90.0054 19.8901 90.4351 21.2866C90.8826 22.6652 91.1064 24.3481 91.1064 26.3354V45H84.6074V26.2817C84.6074 24.8853 84.4015 23.7752 83.9897 22.9517C83.5959 22.1281 83.014 21.5373 82.2441 21.1792C81.4743 20.8032 80.5343 20.6152 79.4243 20.6152C78.2606 20.6152 77.2311 20.848 76.3359 21.3135C75.4587 21.779 74.7246 22.4146 74.1338 23.2202C73.543 24.0259 73.0954 24.9569 72.791 26.0132C72.5046 27.0695 72.3613 28.1974 72.3613 29.397ZM104.078 22.146V45H97.6055V15.9424H103.702L104.078 22.146ZM102.923 29.397L100.828 29.3701C100.846 27.3112 101.132 25.4224 101.688 23.7036C102.26 21.9849 103.048 20.5078 104.051 19.2725C105.071 18.0371 106.289 17.0882 107.703 16.4258C109.118 15.7454 110.693 15.4053 112.43 15.4053C113.826 15.4053 115.088 15.6022 116.216 15.9961C117.362 16.3721 118.338 16.9897 119.144 17.8491C119.967 18.7085 120.594 19.8275 121.023 21.2061C121.453 22.5667 121.668 24.2407 121.668 26.228V45H115.169V26.2012C115.169 24.8047 114.963 23.7036 114.551 22.8979C114.157 22.0744 113.576 21.4925 112.806 21.1523C112.054 20.7943 111.114 20.6152 109.986 20.6152C108.876 20.6152 107.882 20.848 107.005 21.3135C106.128 21.779 105.385 22.4146 104.776 23.2202C104.185 24.0259 103.729 24.9569 103.406 26.0132C103.084 27.0695 102.923 28.1974 102.923 29.397ZM153.975 45H145.623L145.677 39.6558H153.975C156.392 39.6558 158.415 39.1276 160.044 38.0713C161.692 37.015 162.927 35.5021 163.75 33.5327C164.592 31.5633 165.013 29.2179 165.013 26.4966V24.375C165.013 22.2624 164.771 20.3914 164.288 18.7622C163.822 17.133 163.124 15.7633 162.193 14.6533C161.28 13.5433 160.152 12.7018 158.809 12.1289C157.484 11.556 155.953 11.2695 154.217 11.2695H145.462V5.89844H154.217C156.813 5.89844 159.185 6.33708 161.333 7.21436C163.482 8.07373 165.335 9.31803 166.893 10.9473C168.468 12.5765 169.677 14.528 170.518 16.8018C171.36 19.0755 171.78 21.6178 171.78 24.4287V26.4966C171.78 29.3075 171.36 31.8498 170.518 34.1235C169.677 36.3973 168.468 38.3488 166.893 39.978C165.317 41.5894 163.437 42.8337 161.253 43.7109C159.087 44.5703 156.661 45 153.975 45ZM149.356 5.89844V45H142.615V5.89844H149.356ZM176.668 30.7935V30.1758C176.668 28.0811 176.972 26.1385 177.581 24.3481C178.19 22.5399 179.067 20.9733 180.213 19.6484C181.377 18.3057 182.791 17.2673 184.456 16.5332C186.139 15.7812 188.037 15.4053 190.149 15.4053C192.28 15.4053 194.178 15.7812 195.843 16.5332C197.526 17.2673 198.949 18.3057 200.113 19.6484C201.277 20.9733 202.163 22.5399 202.771 24.3481C203.38 26.1385 203.685 28.0811 203.685 30.1758V30.7935C203.685 32.8882 203.38 34.8307 202.771 36.6211C202.163 38.4115 201.277 39.978 200.113 41.3208C198.949 42.6457 197.535 43.6841 195.87 44.436C194.205 45.1701 192.316 45.5371 190.203 45.5371C188.073 45.5371 186.166 45.1701 184.483 44.436C182.818 43.6841 181.403 42.6457 180.24 41.3208C179.076 39.978 178.19 38.4115 177.581 36.6211C176.972 34.8307 176.668 32.8882 176.668 30.7935ZM183.14 30.1758V30.7935C183.14 32.1004 183.274 33.3358 183.543 34.4995C183.812 35.6632 184.232 36.6838 184.805 37.561C185.378 38.4383 186.112 39.1276 187.007 39.6289C187.903 40.1302 188.968 40.3809 190.203 40.3809C191.403 40.3809 192.441 40.1302 193.318 39.6289C194.214 39.1276 194.948 38.4383 195.521 37.561C196.093 36.6838 196.514 35.6632 196.783 34.4995C197.069 33.3358 197.212 32.1004 197.212 30.7935V30.1758C197.212 28.8867 197.069 27.6693 196.783 26.5234C196.514 25.3597 196.084 24.3302 195.494 23.4351C194.921 22.5399 194.187 21.8416 193.292 21.3403C192.414 20.8211 191.367 20.5615 190.149 20.5615C188.932 20.5615 187.876 20.8211 186.98 21.3403C186.103 21.8416 185.378 22.5399 184.805 23.4351C184.232 24.3302 183.812 25.3597 183.543 26.5234C183.274 27.6693 183.14 28.8867 183.14 30.1758ZM221.919 45.5371C219.771 45.5371 217.828 45.188 216.092 44.4897C214.373 43.7736 212.905 42.7799 211.688 41.5088C210.488 40.2376 209.566 38.7427 208.921 37.0239C208.277 35.3052 207.955 33.4521 207.955 31.4648V30.3906C207.955 28.1169 208.286 26.0579 208.948 24.2139C209.611 22.3698 210.533 20.7943 211.714 19.4873C212.896 18.1624 214.292 17.1509 215.904 16.4526C217.515 15.7544 219.261 15.4053 221.141 15.4053C223.217 15.4053 225.035 15.7544 226.592 16.4526C228.15 17.1509 229.439 18.1356 230.459 19.4067C231.498 20.66 232.268 22.1549 232.769 23.8916C233.288 25.6283 233.548 27.5439 233.548 29.6387V32.4048H211.097V27.7588H227.156V27.2485C227.12 26.0848 226.888 24.9927 226.458 23.9722C226.046 22.9517 225.411 22.1281 224.551 21.5015C223.692 20.8748 222.546 20.5615 221.114 20.5615C220.04 20.5615 219.082 20.7943 218.24 21.2598C217.417 21.7074 216.727 22.3608 216.172 23.2202C215.617 24.0796 215.188 25.118 214.883 26.3354C214.597 27.535 214.454 28.8867 214.454 30.3906V31.4648C214.454 32.736 214.624 33.9176 214.964 35.0098C215.322 36.084 215.841 37.0239 216.521 37.8296C217.202 38.6353 218.025 39.2708 218.992 39.7363C219.959 40.1839 221.06 40.4077 222.295 40.4077C223.853 40.4077 225.241 40.0944 226.458 39.4678C227.675 38.8411 228.732 37.9549 229.627 36.8091L233.038 40.1123C232.411 41.0254 231.596 41.9027 230.594 42.7441C229.591 43.5677 228.365 44.2391 226.915 44.7583C225.482 45.2775 223.817 45.5371 221.919 45.5371Z" fill="black"/>
</g>
<defs>
<filter id="filter0_f_377_834" x="0.262207" y="0.75" width="236.286" height="47.7871" filterUnits="userSpaceOnUse" color-interpolation-filters="sRGB">
<feFlood flood-opacity="0" result="BackgroundImageFix"/>
<feBlend mode="normal" in="SourceGraphic" in2="BackgroundImageFix" result="shape"/>
<feGaussianBlur stdDeviation="1.5" result="effect1_foregroundBlur_377_834"/>
</filter>
</defs>
</svg>
