<svg width="416" height="352" viewBox="0 0 416 352" fill="none" xmlns="http://www.w3.org/2000/svg">
<g filter="url(#filter0_f_377_843)">
<rect x="3" y="3" width="410" height="346" rx="5" fill="#E4F6F5"/>
<path d="M336.898 318.753L341.573 304.227H344.955L338.583 322H336.3L336.898 318.753ZM332.577 304.227L337.215 318.753L337.85 322H335.555L329.208 304.227H332.577ZM349.801 308.792V322H346.847V308.792H349.801ZM346.651 305.325C346.651 304.878 346.798 304.507 347.091 304.214C347.392 303.913 347.807 303.763 348.336 303.763C348.857 303.763 349.268 303.913 349.569 304.214C349.87 304.507 350.021 304.878 350.021 305.325C350.021 305.765 349.87 306.131 349.569 306.424C349.268 306.717 348.857 306.863 348.336 306.863C347.807 306.863 347.392 306.717 347.091 306.424C346.798 306.131 346.651 305.765 346.651 305.325ZM358.846 322.244C357.87 322.244 356.987 322.085 356.197 321.768C355.416 321.443 354.749 320.991 354.195 320.413C353.65 319.835 353.231 319.156 352.938 318.375C352.645 317.593 352.499 316.751 352.499 315.848V315.359C352.499 314.326 352.649 313.39 352.95 312.552C353.251 311.714 353.67 310.997 354.208 310.403C354.745 309.801 355.379 309.341 356.112 309.024C356.844 308.707 357.638 308.548 358.492 308.548C359.436 308.548 360.262 308.707 360.97 309.024C361.678 309.341 362.264 309.789 362.728 310.367C363.2 310.936 363.55 311.616 363.778 312.405C364.014 313.195 364.132 314.065 364.132 315.018V316.275H353.927V314.163H361.227V313.931C361.21 313.402 361.104 312.906 360.909 312.442C360.722 311.978 360.433 311.604 360.042 311.319C359.652 311.034 359.131 310.892 358.48 310.892C357.992 310.892 357.556 310.997 357.174 311.209C356.799 311.412 356.486 311.709 356.234 312.1C355.982 312.491 355.786 312.963 355.648 313.516C355.518 314.061 355.453 314.676 355.453 315.359V315.848C355.453 316.425 355.53 316.963 355.685 317.459C355.847 317.947 356.083 318.375 356.393 318.741C356.702 319.107 357.076 319.396 357.516 319.607C357.955 319.811 358.456 319.913 359.017 319.913C359.725 319.913 360.356 319.77 360.909 319.485C361.463 319.201 361.943 318.798 362.35 318.277L363.9 319.778C363.615 320.193 363.245 320.592 362.789 320.975C362.333 321.349 361.776 321.654 361.117 321.89C360.466 322.126 359.709 322.244 358.846 322.244ZM370.016 319.07L373.067 308.792H374.947L374.435 311.868L371.358 322H369.674L370.016 319.07ZM368.221 308.792L370.602 319.119L370.797 322H368.917L365.34 308.792H368.221ZM377.804 318.997L380.111 308.792H382.979L379.415 322H377.535L377.804 318.997ZM375.265 308.792L378.28 318.948L378.658 322H376.974L373.861 311.856L373.348 308.792H375.265Z" fill="#5FA8D3"/>
<path d="M33.7163 36.9844H37.8726L45.6841 57.8213L53.4771 36.9844H57.6333L47.3169 64H44.0142L33.7163 36.9844ZM31.8237 36.9844H35.7759L36.4624 55.0195V64H31.8237V36.9844ZM55.5737 36.9844H59.5444V64H54.8872V55.0195L55.5737 36.9844ZM70.4546 61.8105L75.9097 43.9238H80.6968L72.644 67.0615C72.4585 67.5563 72.2173 68.0944 71.9204 68.6758C71.6235 69.2572 71.2339 69.8076 70.7515 70.3271C70.2814 70.859 69.6938 71.2858 68.9888 71.6074C68.2837 71.9414 67.4302 72.1084 66.4282 72.1084C66.0324 72.1084 65.6489 72.0713 65.2778 71.9971C64.9191 71.9352 64.5789 71.8672 64.2573 71.793L64.2388 68.3789C64.3625 68.3913 64.5109 68.4036 64.6841 68.416C64.8696 68.4284 65.0181 68.4346 65.1294 68.4346C65.8716 68.4346 66.4901 68.3418 66.9849 68.1562C67.4797 67.9831 67.8817 67.6986 68.1909 67.3027C68.5125 66.9069 68.7847 66.375 69.0073 65.707L70.4546 61.8105ZM67.3745 43.9238L72.1431 58.9531L72.9409 63.666L69.8423 64.4639L62.5503 43.9238H67.3745ZM46.0366 102.042C46.0366 101.485 45.95 100.991 45.7769 100.558C45.616 100.125 45.3254 99.7288 44.9048 99.3701C44.4842 99.0114 43.8905 98.665 43.1235 98.3311C42.369 97.9847 41.4041 97.6322 40.229 97.2734C38.9425 96.8776 37.755 96.4385 36.6665 95.9561C35.5903 95.4613 34.6502 94.8923 33.8462 94.249C33.0422 93.5934 32.4175 92.8451 31.9722 92.0039C31.5269 91.1504 31.3042 90.167 31.3042 89.0537C31.3042 87.9528 31.533 86.9508 31.9907 86.0479C32.4608 85.1449 33.1226 84.3656 33.9761 83.71C34.842 83.042 35.8625 82.5286 37.0376 82.1699C38.2127 81.7988 39.5116 81.6133 40.9341 81.6133C42.938 81.6133 44.6636 81.9844 46.1108 82.7266C47.5705 83.4688 48.6899 84.4645 49.4692 85.7139C50.2609 86.9632 50.6567 88.3424 50.6567 89.8516H46.0366C46.0366 88.9609 45.8449 88.1755 45.4614 87.4951C45.0903 86.8024 44.5213 86.2581 43.7544 85.8623C42.9998 85.4665 42.0412 85.2686 40.8784 85.2686C39.7775 85.2686 38.8621 85.4355 38.1323 85.7695C37.4025 86.1035 36.8582 86.555 36.4995 87.124C36.1408 87.693 35.9614 88.3363 35.9614 89.0537C35.9614 89.5609 36.0789 90.0247 36.314 90.4453C36.549 90.8535 36.9077 91.237 37.3901 91.5957C37.8726 91.9421 38.4787 92.2699 39.2085 92.5791C39.9383 92.8883 40.798 93.1852 41.7876 93.4697C43.2843 93.915 44.5894 94.4098 45.7026 94.9541C46.8159 95.486 47.7437 96.0921 48.4858 96.7725C49.228 97.4528 49.7847 98.2259 50.1558 99.0918C50.5269 99.9453 50.7124 100.916 50.7124 102.005C50.7124 103.143 50.4836 104.17 50.0259 105.085C49.5682 105.988 48.9126 106.761 48.0591 107.404C47.2179 108.035 46.2036 108.524 45.0161 108.87C43.841 109.204 42.5298 109.371 41.0825 109.371C39.7837 109.371 38.5034 109.198 37.2417 108.852C35.9924 108.505 34.8543 107.979 33.8276 107.274C32.8009 106.557 31.9845 105.666 31.3784 104.603C30.7723 103.526 30.4692 102.271 30.4692 100.836H35.1265C35.1265 101.714 35.2749 102.463 35.5718 103.081C35.881 103.7 36.3078 104.207 36.8521 104.603C37.3963 104.986 38.0272 105.271 38.7446 105.456C39.4744 105.642 40.2537 105.734 41.0825 105.734C42.1711 105.734 43.0802 105.58 43.8101 105.271C44.5522 104.961 45.1089 104.528 45.48 103.972C45.8511 103.415 46.0366 102.772 46.0366 102.042ZM65.7046 104.974V95.3994C65.7046 94.682 65.5747 94.0635 65.3149 93.5439C65.0552 93.0244 64.6593 92.6224 64.1274 92.3379C63.6079 92.0534 62.9523 91.9111 62.1606 91.9111C61.4308 91.9111 60.8 92.0348 60.2681 92.2822C59.7362 92.5296 59.3218 92.8636 59.0249 93.2842C58.728 93.7048 58.5796 94.181 58.5796 94.7129H54.1265C54.1265 93.9212 54.3182 93.1543 54.7017 92.4121C55.0851 91.6699 55.6418 91.0081 56.3716 90.4268C57.1014 89.8454 57.9735 89.3877 58.9878 89.0537C60.0021 88.7197 61.1401 88.5527 62.4019 88.5527C63.911 88.5527 65.2469 88.8063 66.4097 89.3135C67.5848 89.8206 68.5063 90.5876 69.1743 91.6143C69.8547 92.6286 70.1948 93.9027 70.1948 95.4365V104.361C70.1948 105.277 70.2567 106.099 70.3804 106.829C70.5164 107.547 70.7082 108.171 70.9556 108.703V109H66.3726C66.1623 108.518 65.9953 107.905 65.8716 107.163C65.7603 106.409 65.7046 105.679 65.7046 104.974ZM66.354 96.791L66.3911 99.5557H63.1812C62.3524 99.5557 61.6226 99.6361 60.9917 99.7969C60.3608 99.9453 59.8351 100.168 59.4146 100.465C58.994 100.762 58.6785 101.12 58.4683 101.541C58.258 101.962 58.1528 102.438 58.1528 102.97C58.1528 103.502 58.2765 103.99 58.5239 104.436C58.7713 104.868 59.13 105.209 59.6001 105.456C60.0825 105.703 60.6639 105.827 61.3442 105.827C62.2596 105.827 63.0575 105.642 63.7378 105.271C64.4305 104.887 64.9748 104.423 65.3706 103.879C65.7664 103.322 65.9767 102.797 66.0015 102.302L67.4487 104.287C67.3003 104.794 67.0467 105.339 66.688 105.92C66.3293 106.501 65.8592 107.058 65.2778 107.59C64.7088 108.109 64.0223 108.536 63.2183 108.87C62.4266 109.204 61.5112 109.371 60.4722 109.371C59.161 109.371 57.992 109.111 56.9653 108.592C55.9386 108.06 55.1346 107.349 54.5532 106.458C53.9718 105.555 53.6812 104.535 53.6812 103.396C53.6812 102.333 53.8791 101.393 54.2749 100.576C54.6831 99.7474 55.2769 99.0547 56.0562 98.498C56.8478 97.9414 57.8127 97.5208 58.9507 97.2363C60.0887 96.9395 61.3875 96.791 62.8472 96.791H66.354ZM81.105 105.456L86.022 88.9238H90.6606L83.6841 109H80.7896L81.105 105.456ZM77.3384 88.9238L82.3481 105.53L82.5894 109H79.6948L72.6812 88.9238H77.3384ZM102.016 109.371C100.532 109.371 99.1896 109.13 97.9897 108.647C96.8022 108.153 95.7879 107.466 94.9468 106.588C94.118 105.71 93.481 104.677 93.0356 103.489C92.5903 102.302 92.3677 101.021 92.3677 99.6484V98.9062C92.3677 97.3353 92.5965 95.9128 93.0542 94.6387C93.5119 93.3646 94.1489 92.276 94.9653 91.373C95.7817 90.4577 96.7466 89.7588 97.8599 89.2764C98.9731 88.7939 100.179 88.5527 101.478 88.5527C102.913 88.5527 104.168 88.7939 105.245 89.2764C106.321 89.7588 107.211 90.4391 107.917 91.3174C108.634 92.1833 109.166 93.2161 109.512 94.416C109.871 95.6159 110.05 96.9395 110.05 98.3867V100.298H94.5386V97.0879H105.634V96.7354C105.61 95.9313 105.449 95.1768 105.152 94.4717C104.867 93.7666 104.428 93.1976 103.834 92.7646C103.241 92.3317 102.449 92.1152 101.459 92.1152C100.717 92.1152 100.056 92.276 99.4741 92.5977C98.9051 92.9069 98.4289 93.3584 98.0454 93.9521C97.6619 94.5459 97.3651 95.2633 97.1548 96.1045C96.9569 96.9333 96.8579 97.8672 96.8579 98.9062V99.6484C96.8579 100.527 96.9754 101.343 97.2104 102.098C97.4578 102.84 97.8166 103.489 98.2866 104.046C98.7567 104.603 99.3257 105.042 99.9937 105.363C100.662 105.673 101.422 105.827 102.276 105.827C103.352 105.827 104.311 105.611 105.152 105.178C105.993 104.745 106.723 104.132 107.341 103.341L109.698 105.623C109.265 106.254 108.702 106.86 108.009 107.441C107.317 108.01 106.469 108.474 105.467 108.833C104.478 109.192 103.327 109.371 102.016 109.371ZM125.785 104.844V80.5H130.275V109H126.211L125.785 104.844ZM112.722 99.1846V98.7949C112.722 97.2734 112.902 95.888 113.26 94.6387C113.619 93.377 114.139 92.2946 114.819 91.3916C115.499 90.4762 116.328 89.7773 117.305 89.2949C118.282 88.8001 119.383 88.5527 120.608 88.5527C121.82 88.5527 122.884 88.7878 123.799 89.2578C124.715 89.7279 125.494 90.402 126.137 91.2803C126.78 92.1462 127.294 93.1852 127.677 94.3975C128.061 95.5973 128.333 96.9333 128.494 98.4053V99.6484C128.333 101.083 128.061 102.395 127.677 103.582C127.294 104.77 126.78 105.796 126.137 106.662C125.494 107.528 124.708 108.196 123.781 108.666C122.865 109.136 121.795 109.371 120.571 109.371C119.359 109.371 118.264 109.118 117.287 108.61C116.322 108.103 115.499 107.392 114.819 106.477C114.139 105.561 113.619 104.485 113.26 103.248C112.902 101.999 112.722 100.644 112.722 99.1846ZM117.194 98.7949V99.1846C117.194 100.1 117.274 100.953 117.435 101.745C117.608 102.537 117.874 103.236 118.233 103.842C118.592 104.436 119.056 104.906 119.625 105.252C120.206 105.586 120.899 105.753 121.703 105.753C122.717 105.753 123.552 105.53 124.208 105.085C124.863 104.64 125.376 104.04 125.748 103.285C126.131 102.518 126.391 101.665 126.527 100.725V97.3662C126.453 96.6364 126.298 95.9561 126.063 95.3252C125.84 94.6943 125.537 94.1439 125.154 93.6738C124.77 93.1914 124.294 92.8203 123.725 92.5605C123.168 92.2884 122.507 92.1523 121.74 92.1523C120.923 92.1523 120.231 92.3255 119.662 92.6719C119.093 93.0182 118.623 93.4945 118.251 94.1006C117.893 94.7067 117.627 95.4118 117.454 96.2158C117.28 97.0199 117.194 97.8796 117.194 98.7949ZM31.8237 126.984H41.3794C43.4328 126.984 45.1831 127.294 46.6304 127.912C48.0776 128.531 49.1847 129.446 49.9517 130.658C50.731 131.858 51.1206 133.342 51.1206 135.111C51.1206 136.46 50.8732 137.647 50.3784 138.674C49.8836 139.701 49.1847 140.566 48.2817 141.271C47.3787 141.964 46.3026 142.502 45.0532 142.886L43.6431 143.572H35.0522L35.0151 139.88H41.4536C42.5669 139.88 43.4946 139.682 44.2368 139.286C44.979 138.89 45.5356 138.352 45.9067 137.672C46.2902 136.979 46.4819 136.2 46.4819 135.334C46.4819 134.394 46.2964 133.577 45.9253 132.885C45.5666 132.18 45.0099 131.642 44.2554 131.271C43.5008 130.887 42.5422 130.695 41.3794 130.695H36.481V154H31.8237V126.984ZM47.2427 154L40.897 141.865L45.7769 141.847L52.2153 153.759V154H47.2427ZM64.1646 154.371C62.6802 154.371 61.3381 154.13 60.1382 153.647C58.9507 153.153 57.9364 152.466 57.0952 151.588C56.2664 150.71 55.6294 149.677 55.1841 148.489C54.7388 147.302 54.5161 146.021 54.5161 144.648V143.906C54.5161 142.335 54.745 140.913 55.2026 139.639C55.6603 138.365 56.2974 137.276 57.1138 136.373C57.9302 135.458 58.895 134.759 60.0083 134.276C61.1216 133.794 62.3276 133.553 63.6265 133.553C65.0614 133.553 66.3169 133.794 67.3931 134.276C68.4692 134.759 69.3599 135.439 70.0649 136.317C70.7824 137.183 71.3143 138.216 71.6606 139.416C72.0194 140.616 72.1987 141.939 72.1987 143.387V145.298H56.687V142.088H67.7827V141.735C67.758 140.931 67.5972 140.177 67.3003 139.472C67.0158 138.767 66.5767 138.198 65.9829 137.765C65.3892 137.332 64.5975 137.115 63.6079 137.115C62.8657 137.115 62.2039 137.276 61.6226 137.598C61.0535 137.907 60.5773 138.358 60.1938 138.952C59.8104 139.546 59.5135 140.263 59.3032 141.104C59.1053 141.933 59.0063 142.867 59.0063 143.906V144.648C59.0063 145.527 59.1239 146.343 59.3589 147.098C59.6063 147.84 59.965 148.489 60.4351 149.046C60.9051 149.603 61.4741 150.042 62.1421 150.363C62.8101 150.673 63.5708 150.827 64.4243 150.827C65.5005 150.827 66.4591 150.611 67.3003 150.178C68.1414 149.745 68.8713 149.132 69.4897 148.341L71.8462 150.623C71.4132 151.254 70.8504 151.86 70.1577 152.441C69.465 153.01 68.6177 153.474 67.6157 153.833C66.6261 154.192 65.4757 154.371 64.1646 154.371ZM86.9497 148.563C86.9497 148.118 86.8384 147.716 86.6157 147.357C86.3931 146.986 85.9663 146.652 85.3354 146.355C84.717 146.059 83.8016 145.786 82.5894 145.539C81.5256 145.304 80.5483 145.026 79.6577 144.704C78.7795 144.37 78.0249 143.968 77.394 143.498C76.7632 143.028 76.2746 142.471 75.9282 141.828C75.5819 141.185 75.4087 140.443 75.4087 139.602C75.4087 138.785 75.5881 138.012 75.9468 137.282C76.3055 136.552 76.8188 135.909 77.4868 135.353C78.1548 134.796 78.965 134.357 79.9175 134.035C80.8823 133.714 81.9585 133.553 83.146 133.553C84.8283 133.553 86.2694 133.837 87.4692 134.406C88.6815 134.963 89.6092 135.724 90.2524 136.688C90.8957 137.641 91.2173 138.717 91.2173 139.917H86.7456C86.7456 139.385 86.6095 138.89 86.3374 138.433C86.0776 137.963 85.6818 137.585 85.1499 137.301C84.618 137.004 83.95 136.855 83.146 136.855C82.3791 136.855 81.742 136.979 81.2349 137.227C80.7401 137.462 80.369 137.771 80.1216 138.154C79.8866 138.538 79.769 138.958 79.769 139.416C79.769 139.75 79.8309 140.053 79.9546 140.325C80.0907 140.585 80.3133 140.826 80.6226 141.049C80.9318 141.259 81.3524 141.457 81.8843 141.643C82.4285 141.828 83.1089 142.007 83.9253 142.181C85.4591 142.502 86.7765 142.917 87.8774 143.424C88.9907 143.919 89.8442 144.562 90.438 145.354C91.0317 146.133 91.3286 147.122 91.3286 148.322C91.3286 149.213 91.1369 150.029 90.7534 150.771C90.3823 151.501 89.8381 152.138 89.1206 152.683C88.4032 153.215 87.5435 153.629 86.5415 153.926C85.5519 154.223 84.4386 154.371 83.2017 154.371C81.3833 154.371 79.8433 154.049 78.5815 153.406C77.3198 152.751 76.3612 151.916 75.7056 150.901C75.0623 149.875 74.7407 148.811 74.7407 147.71H79.064C79.1134 148.539 79.3423 149.201 79.7505 149.695C80.1711 150.178 80.6906 150.53 81.3091 150.753C81.9399 150.963 82.5894 151.068 83.2573 151.068C84.0614 151.068 84.7355 150.963 85.2798 150.753C85.8241 150.53 86.2384 150.233 86.5229 149.862C86.8075 149.479 86.9497 149.046 86.9497 148.563ZM94.3901 144.185V143.758C94.3901 142.311 94.6004 140.968 95.021 139.731C95.4416 138.482 96.0477 137.4 96.8394 136.484C97.6434 135.557 98.6206 134.839 99.771 134.332C100.934 133.812 102.245 133.553 103.705 133.553C105.177 133.553 106.488 133.812 107.638 134.332C108.801 134.839 109.784 135.557 110.588 136.484C111.392 137.4 112.005 138.482 112.425 139.731C112.846 140.968 113.056 142.311 113.056 143.758V144.185C113.056 145.632 112.846 146.974 112.425 148.211C112.005 149.448 111.392 150.53 110.588 151.458C109.784 152.373 108.807 153.091 107.657 153.61C106.506 154.118 105.201 154.371 103.742 154.371C102.27 154.371 100.952 154.118 99.7896 153.61C98.6392 153.091 97.6619 152.373 96.8579 151.458C96.0539 150.53 95.4416 149.448 95.021 148.211C94.6004 146.974 94.3901 145.632 94.3901 144.185ZM98.8618 143.758V144.185C98.8618 145.088 98.9546 145.941 99.1401 146.745C99.3257 147.549 99.6164 148.254 100.012 148.86C100.408 149.466 100.915 149.943 101.534 150.289C102.152 150.635 102.888 150.809 103.742 150.809C104.57 150.809 105.288 150.635 105.894 150.289C106.513 149.943 107.02 149.466 107.416 148.86C107.811 148.254 108.102 147.549 108.288 146.745C108.486 145.941 108.584 145.088 108.584 144.185V143.758C108.584 142.867 108.486 142.026 108.288 141.234C108.102 140.43 107.805 139.719 107.397 139.101C107.001 138.482 106.494 138 105.875 137.653C105.269 137.295 104.546 137.115 103.705 137.115C102.863 137.115 102.134 137.295 101.515 137.653C100.909 138 100.408 138.482 100.012 139.101C99.6164 139.719 99.3257 140.43 99.1401 141.234C98.9546 142.026 98.8618 142.867 98.8618 143.758ZM128.883 149.269V133.924H133.374V154H129.143L128.883 149.269ZM129.514 145.094L131.017 145.057C131.017 146.405 130.869 147.648 130.572 148.786C130.275 149.912 129.817 150.895 129.199 151.736C128.58 152.565 127.789 153.215 126.824 153.685C125.859 154.142 124.702 154.371 123.354 154.371C122.377 154.371 121.48 154.229 120.664 153.944C119.847 153.66 119.142 153.221 118.548 152.627C117.967 152.033 117.515 151.26 117.194 150.308C116.872 149.355 116.711 148.217 116.711 146.894V133.924H121.183V146.931C121.183 147.66 121.27 148.273 121.443 148.768C121.616 149.25 121.851 149.64 122.148 149.937C122.445 150.233 122.791 150.444 123.187 150.567C123.583 150.691 124.003 150.753 124.449 150.753C125.723 150.753 126.725 150.506 127.455 150.011C128.197 149.504 128.722 148.823 129.032 147.97C129.353 147.116 129.514 146.158 129.514 145.094ZM142.447 137.746V154H137.975V133.924H142.243L142.447 137.746ZM148.588 133.794L148.551 137.95C148.279 137.901 147.982 137.864 147.661 137.839C147.351 137.814 147.042 137.802 146.733 137.802C145.966 137.802 145.292 137.913 144.71 138.136C144.129 138.346 143.64 138.655 143.245 139.063C142.861 139.459 142.564 139.942 142.354 140.511C142.144 141.08 142.02 141.717 141.983 142.422L140.962 142.496C140.962 141.234 141.086 140.065 141.333 138.989C141.581 137.913 141.952 136.967 142.447 136.15C142.954 135.334 143.585 134.697 144.339 134.239C145.106 133.782 145.991 133.553 146.993 133.553C147.265 133.553 147.556 133.577 147.865 133.627C148.186 133.676 148.428 133.732 148.588 133.794ZM159.22 150.809C159.95 150.809 160.606 150.666 161.187 150.382C161.781 150.085 162.257 149.677 162.616 149.157C162.987 148.638 163.191 148.038 163.228 147.357H167.44C167.415 148.656 167.032 149.838 166.29 150.901C165.547 151.965 164.564 152.812 163.339 153.443C162.115 154.062 160.76 154.371 159.276 154.371C157.742 154.371 156.406 154.111 155.268 153.592C154.13 153.06 153.184 152.33 152.429 151.402C151.675 150.475 151.106 149.405 150.722 148.192C150.351 146.98 150.166 145.681 150.166 144.296V143.646C150.166 142.261 150.351 140.962 150.722 139.75C151.106 138.525 151.675 137.449 152.429 136.521C153.184 135.594 154.13 134.87 155.268 134.351C156.406 133.819 157.736 133.553 159.257 133.553C160.865 133.553 162.276 133.874 163.488 134.518C164.7 135.148 165.653 136.033 166.345 137.171C167.05 138.297 167.415 139.608 167.44 141.104H163.228C163.191 140.362 163.005 139.694 162.671 139.101C162.35 138.494 161.892 138.012 161.298 137.653C160.717 137.295 160.018 137.115 159.202 137.115C158.299 137.115 157.55 137.301 156.957 137.672C156.363 138.031 155.899 138.525 155.565 139.156C155.231 139.775 154.99 140.474 154.841 141.253C154.705 142.02 154.637 142.818 154.637 143.646V144.296C154.637 145.125 154.705 145.929 154.841 146.708C154.977 147.487 155.212 148.186 155.546 148.805C155.893 149.411 156.363 149.899 156.957 150.271C157.55 150.629 158.305 150.809 159.22 150.809ZM179.723 154.371C178.239 154.371 176.897 154.13 175.697 153.647C174.509 153.153 173.495 152.466 172.654 151.588C171.825 150.71 171.188 149.677 170.743 148.489C170.297 147.302 170.075 146.021 170.075 144.648V143.906C170.075 142.335 170.304 140.913 170.761 139.639C171.219 138.365 171.856 137.276 172.672 136.373C173.489 135.458 174.454 134.759 175.567 134.276C176.68 133.794 177.886 133.553 179.185 133.553C180.62 133.553 181.875 133.794 182.952 134.276C184.028 134.759 184.918 135.439 185.624 136.317C186.341 137.183 186.873 138.216 187.219 139.416C187.578 140.616 187.757 141.939 187.757 143.387V145.298H172.246V142.088H183.341V141.735C183.317 140.931 183.156 140.177 182.859 139.472C182.574 138.767 182.135 138.198 181.542 137.765C180.948 137.332 180.156 137.115 179.167 137.115C178.424 137.115 177.763 137.276 177.181 137.598C176.612 137.907 176.136 138.358 175.752 138.952C175.369 139.546 175.072 140.263 174.862 141.104C174.664 141.933 174.565 142.867 174.565 143.906V144.648C174.565 145.527 174.682 146.343 174.917 147.098C175.165 147.84 175.524 148.489 175.994 149.046C176.464 149.603 177.033 150.042 177.701 150.363C178.369 150.673 179.129 150.827 179.983 150.827C181.059 150.827 182.018 150.611 182.859 150.178C183.7 149.745 184.43 149.132 185.048 148.341L187.405 150.623C186.972 151.254 186.409 151.86 185.716 152.441C185.024 153.01 184.176 153.474 183.174 153.833C182.185 154.192 181.034 154.371 179.723 154.371ZM202.508 148.563C202.508 148.118 202.397 147.716 202.174 147.357C201.952 146.986 201.525 146.652 200.894 146.355C200.276 146.059 199.36 145.786 198.148 145.539C197.084 145.304 196.107 145.026 195.216 144.704C194.338 144.37 193.583 143.968 192.953 143.498C192.322 143.028 191.833 142.471 191.487 141.828C191.14 141.185 190.967 140.443 190.967 139.602C190.967 138.785 191.147 138.012 191.505 137.282C191.864 136.552 192.377 135.909 193.045 135.353C193.713 134.796 194.524 134.357 195.476 134.035C196.441 133.714 197.517 133.553 198.705 133.553C200.387 133.553 201.828 133.837 203.028 134.406C204.24 134.963 205.168 135.724 205.811 136.688C206.454 137.641 206.776 138.717 206.776 139.917H202.304C202.304 139.385 202.168 138.89 201.896 138.433C201.636 137.963 201.24 137.585 200.708 137.301C200.177 137.004 199.509 136.855 198.705 136.855C197.938 136.855 197.301 136.979 196.793 137.227C196.299 137.462 195.928 137.771 195.68 138.154C195.445 138.538 195.328 138.958 195.328 139.416C195.328 139.75 195.389 140.053 195.513 140.325C195.649 140.585 195.872 140.826 196.181 141.049C196.49 141.259 196.911 141.457 197.443 141.643C197.987 141.828 198.667 142.007 199.484 142.181C201.018 142.502 202.335 142.917 203.436 143.424C204.549 143.919 205.403 144.562 205.997 145.354C206.59 146.133 206.887 147.122 206.887 148.322C206.887 149.213 206.695 150.029 206.312 150.771C205.941 151.501 205.397 152.138 204.679 152.683C203.962 153.215 203.102 153.629 202.1 153.926C201.111 154.223 199.997 154.371 198.76 154.371C196.942 154.371 195.402 154.049 194.14 153.406C192.878 152.751 191.92 151.916 191.264 150.901C190.621 149.875 190.299 148.811 190.299 147.71H194.623C194.672 148.539 194.901 149.201 195.309 149.695C195.73 150.178 196.249 150.53 196.868 150.753C197.499 150.963 198.148 151.068 198.816 151.068C199.62 151.068 200.294 150.963 200.838 150.753C201.383 150.53 201.797 150.233 202.082 149.862C202.366 149.479 202.508 149.046 202.508 148.563Z" fill="black"/>
</g>
<defs>
<filter id="filter0_f_377_843" x="0" y="0" width="416" height="352" filterUnits="userSpaceOnUse" color-interpolation-filters="sRGB">
<feFlood flood-opacity="0" result="BackgroundImageFix"/>
<feBlend mode="normal" in="SourceGraphic" in2="BackgroundImageFix" result="shape"/>
<feGaussianBlur stdDeviation="1.5" result="effect1_foregroundBlur_377_843"/>
</filter>
</defs>
</svg>
