<svg width="574" height="92" viewBox="0 0 574 92" fill="none" xmlns="http://www.w3.org/2000/svg">
<g filter="url(#filter0_f_76_201)">
<rect x="4" y="4" width="566" height="84" rx="5" fill="#E4F6F5"/>
<path d="M502.898 50.7529L507.573 36.2266H510.955L504.583 54H502.3L502.898 50.7529ZM498.577 36.2266L503.215 50.7529L503.85 54H501.555L495.208 36.2266H498.577ZM515.801 40.792V54H512.847V40.792H515.801ZM512.651 37.3252C512.651 36.8776 512.798 36.5073 513.091 36.2144C513.392 35.9132 513.807 35.7627 514.336 35.7627C514.857 35.7627 515.268 35.9132 515.569 36.2144C515.87 36.5073 516.021 36.8776 516.021 37.3252C516.021 37.7646 515.87 38.1309 515.569 38.4238C515.268 38.7168 514.857 38.8633 514.336 38.8633C513.807 38.8633 513.392 38.7168 513.091 38.4238C512.798 38.1309 512.651 37.7646 512.651 37.3252ZM524.846 54.2441C523.87 54.2441 522.987 54.0854 522.197 53.7681C521.416 53.4425 520.749 52.9909 520.195 52.4131C519.65 51.8353 519.231 51.1558 518.938 50.3745C518.645 49.5933 518.499 48.751 518.499 47.8477V47.3594C518.499 46.3258 518.649 45.39 518.95 44.5518C519.251 43.7135 519.67 42.9974 520.208 42.4033C520.745 41.8011 521.379 41.3413 522.112 41.0239C522.844 40.7065 523.638 40.5479 524.492 40.5479C525.436 40.5479 526.262 40.7065 526.97 41.0239C527.678 41.3413 528.264 41.7889 528.728 42.3667C529.2 42.9364 529.55 43.6159 529.778 44.4053C530.014 45.1947 530.132 46.0654 530.132 47.0176V48.2749H519.927V46.1631H527.227V45.9312C527.21 45.4022 527.104 44.9058 526.909 44.4419C526.722 43.978 526.433 43.6037 526.042 43.3188C525.652 43.034 525.131 42.8916 524.48 42.8916C523.992 42.8916 523.556 42.9974 523.174 43.209C522.799 43.4124 522.486 43.7095 522.234 44.1001C521.982 44.4907 521.786 44.9627 521.648 45.5161C521.518 46.0614 521.453 46.6758 521.453 47.3594V47.8477C521.453 48.4255 521.53 48.9626 521.685 49.459C521.847 49.9473 522.083 50.3745 522.393 50.7407C522.702 51.1069 523.076 51.3958 523.516 51.6074C523.955 51.8109 524.456 51.9126 525.017 51.9126C525.725 51.9126 526.356 51.7702 526.909 51.4854C527.463 51.2005 527.943 50.7977 528.35 50.2769L529.9 51.7783C529.615 52.1934 529.245 52.5921 528.789 52.9746C528.333 53.349 527.776 53.6541 527.117 53.8901C526.466 54.1261 525.709 54.2441 524.846 54.2441ZM536.016 51.0703L539.067 40.792H540.947L540.435 43.8682L537.358 54H535.674L536.016 51.0703ZM534.221 40.792L536.602 51.1191L536.797 54H534.917L531.34 40.792H534.221ZM543.804 50.9971L546.111 40.792H548.979L545.415 54H543.535L543.804 50.9971ZM541.265 40.792L544.28 50.9482L544.658 54H542.974L539.861 43.856L539.348 40.792H541.265Z" fill="#5FA8D3"/>
<path d="M22.6387 30.9844H26.7949L34.6064 51.8213L42.3994 30.9844H46.5557L36.2393 58H32.9365L22.6387 30.9844ZM20.7461 30.9844H24.6982L25.3848 49.0195V58H20.7461V30.9844ZM44.4961 30.9844H48.4668V58H43.8096V49.0195L44.4961 30.9844ZM59.377 55.8105L64.832 37.9238H69.6191L61.5664 61.0615C61.3809 61.5563 61.1396 62.0944 60.8428 62.6758C60.5459 63.2572 60.1562 63.8076 59.6738 64.3271C59.2038 64.859 58.6162 65.2858 57.9111 65.6074C57.2061 65.9414 56.3525 66.1084 55.3506 66.1084C54.9548 66.1084 54.5713 66.0713 54.2002 65.9971C53.8415 65.9352 53.5013 65.8672 53.1797 65.793L53.1611 62.3789C53.2848 62.3913 53.4333 62.4036 53.6064 62.416C53.792 62.4284 53.9404 62.4346 54.0518 62.4346C54.7939 62.4346 55.4124 62.3418 55.9072 62.1562C56.402 61.9831 56.804 61.6986 57.1133 61.3027C57.4349 60.9069 57.707 60.375 57.9297 59.707L59.377 55.8105ZM56.2969 37.9238L61.0654 52.9531L61.8633 57.666L58.7646 58.4639L51.4727 37.9238H56.2969ZM96.3008 51.042C96.3008 50.4854 96.2142 49.9906 96.041 49.5576C95.8802 49.1247 95.5895 48.7288 95.1689 48.3701C94.7484 48.0114 94.1546 47.665 93.3877 47.3311C92.6331 46.9847 91.6683 46.6322 90.4932 46.2734C89.2067 45.8776 88.0192 45.4385 86.9307 44.9561C85.8545 44.4613 84.9144 43.8923 84.1104 43.249C83.3063 42.5934 82.6816 41.8451 82.2363 41.0039C81.791 40.1504 81.5684 39.167 81.5684 38.0537C81.5684 36.9528 81.7972 35.9508 82.2549 35.0479C82.7249 34.1449 83.3867 33.3656 84.2402 32.71C85.1061 32.042 86.1266 31.5286 87.3018 31.1699C88.4769 30.7988 89.7757 30.6133 91.1982 30.6133C93.2021 30.6133 94.9277 30.9844 96.375 31.7266C97.8346 32.4688 98.9541 33.4645 99.7334 34.7139C100.525 35.9632 100.921 37.3424 100.921 38.8516H96.3008C96.3008 37.9609 96.109 37.1755 95.7256 36.4951C95.3545 35.8024 94.7855 35.2581 94.0186 34.8623C93.264 34.4665 92.3053 34.2686 91.1426 34.2686C90.0417 34.2686 89.1263 34.4355 88.3965 34.7695C87.6667 35.1035 87.1224 35.555 86.7637 36.124C86.4049 36.693 86.2256 37.3363 86.2256 38.0537C86.2256 38.5609 86.3431 39.0247 86.5781 39.4453C86.8132 39.8535 87.1719 40.237 87.6543 40.5957C88.1367 40.9421 88.7428 41.2699 89.4727 41.5791C90.2025 41.8883 91.0622 42.1852 92.0518 42.4697C93.5485 42.915 94.8535 43.4098 95.9668 43.9541C97.0801 44.486 98.0078 45.0921 98.75 45.7725C99.4922 46.4528 100.049 47.2259 100.42 48.0918C100.791 48.9453 100.977 49.9163 100.977 51.0049C100.977 52.1429 100.748 53.1696 100.29 54.085C99.8324 54.988 99.1768 55.7611 98.3232 56.4043C97.4821 57.0352 96.4678 57.5238 95.2803 57.8701C94.1051 58.2041 92.7939 58.3711 91.3467 58.3711C90.0479 58.3711 88.7676 58.1979 87.5059 57.8516C86.2565 57.5052 85.1185 56.9795 84.0918 56.2744C83.0651 55.557 82.2487 54.6663 81.6426 53.6025C81.0365 52.5264 80.7334 51.2708 80.7334 49.8359H85.3906C85.3906 50.7142 85.5391 51.4626 85.8359 52.0811C86.1452 52.6995 86.5719 53.2067 87.1162 53.6025C87.6605 53.986 88.2913 54.2705 89.0088 54.4561C89.7386 54.6416 90.5179 54.7344 91.3467 54.7344C92.4352 54.7344 93.3444 54.5798 94.0742 54.2705C94.8164 53.9613 95.373 53.5283 95.7441 52.9717C96.1152 52.415 96.3008 51.7718 96.3008 51.042ZM115.969 53.9736V44.3994C115.969 43.682 115.839 43.0635 115.579 42.5439C115.319 42.0244 114.924 41.6224 114.392 41.3379C113.872 41.0534 113.216 40.9111 112.425 40.9111C111.695 40.9111 111.064 41.0348 110.532 41.2822C110 41.5296 109.586 41.8636 109.289 42.2842C108.992 42.7048 108.844 43.181 108.844 43.7129H104.391C104.391 42.9212 104.582 42.1543 104.966 41.4121C105.349 40.6699 105.906 40.0081 106.636 39.4268C107.366 38.8454 108.238 38.3877 109.252 38.0537C110.266 37.7197 111.404 37.5527 112.666 37.5527C114.175 37.5527 115.511 37.8063 116.674 38.3135C117.849 38.8206 118.771 39.5876 119.438 40.6143C120.119 41.6286 120.459 42.9027 120.459 44.4365V53.3613C120.459 54.2767 120.521 55.0993 120.645 55.8291C120.781 56.5465 120.972 57.1712 121.22 57.7031V58H116.637C116.426 57.5176 116.259 56.9053 116.136 56.1631C116.024 55.4085 115.969 54.6787 115.969 53.9736ZM116.618 45.791L116.655 48.5557H113.445C112.617 48.5557 111.887 48.6361 111.256 48.7969C110.625 48.9453 110.099 49.168 109.679 49.4648C109.258 49.7617 108.943 50.1204 108.732 50.541C108.522 50.9616 108.417 51.4378 108.417 51.9697C108.417 52.5016 108.541 52.9902 108.788 53.4355C109.035 53.8685 109.394 54.2087 109.864 54.4561C110.347 54.7035 110.928 54.8271 111.608 54.8271C112.524 54.8271 113.322 54.6416 114.002 54.2705C114.695 53.887 115.239 53.4232 115.635 52.8789C116.031 52.3223 116.241 51.7965 116.266 51.3018L117.713 53.2871C117.564 53.7943 117.311 54.3385 116.952 54.9199C116.593 55.5013 116.123 56.0579 115.542 56.5898C114.973 57.1094 114.286 57.5361 113.482 57.8701C112.691 58.2041 111.775 58.3711 110.736 58.3711C109.425 58.3711 108.256 58.1113 107.229 57.5918C106.203 57.0599 105.399 56.3486 104.817 55.458C104.236 54.555 103.945 53.5345 103.945 52.3965C103.945 51.3327 104.143 50.3926 104.539 49.5762C104.947 48.7474 105.541 48.0547 106.32 47.498C107.112 46.9414 108.077 46.5208 109.215 46.2363C110.353 45.9395 111.652 45.791 113.111 45.791H116.618ZM131.369 54.4561L136.286 37.9238H140.925L133.948 58H131.054L131.369 54.4561ZM127.603 37.9238L132.612 54.5303L132.854 58H129.959L122.945 37.9238H127.603ZM152.28 58.3711C150.796 58.3711 149.454 58.1299 148.254 57.6475C147.066 57.1527 146.052 56.4661 145.211 55.5879C144.382 54.7096 143.745 53.6768 143.3 52.4893C142.854 51.3018 142.632 50.0215 142.632 48.6484V47.9062C142.632 46.3353 142.861 44.9128 143.318 43.6387C143.776 42.3646 144.413 41.276 145.229 40.373C146.046 39.4577 147.011 38.7588 148.124 38.2764C149.237 37.7939 150.443 37.5527 151.742 37.5527C153.177 37.5527 154.433 37.7939 155.509 38.2764C156.585 38.7588 157.476 39.4391 158.181 40.3174C158.898 41.1833 159.43 42.2161 159.776 43.416C160.135 44.6159 160.314 45.9395 160.314 47.3867V49.2979H144.803V46.0879H155.898V45.7354C155.874 44.9313 155.713 44.1768 155.416 43.4717C155.132 42.7666 154.692 42.1976 154.099 41.7646C153.505 41.3317 152.713 41.1152 151.724 41.1152C150.981 41.1152 150.32 41.276 149.738 41.5977C149.169 41.9069 148.693 42.3584 148.31 42.9521C147.926 43.5459 147.629 44.2633 147.419 45.1045C147.221 45.9333 147.122 46.8672 147.122 47.9062V48.6484C147.122 49.5267 147.24 50.3431 147.475 51.0977C147.722 51.8398 148.081 52.4893 148.551 53.0459C149.021 53.6025 149.59 54.0417 150.258 54.3633C150.926 54.6725 151.687 54.8271 152.54 54.8271C153.616 54.8271 154.575 54.6107 155.416 54.1777C156.257 53.7448 156.987 53.1325 157.605 52.3408L159.962 54.623C159.529 55.2539 158.966 55.86 158.273 56.4414C157.581 57.0104 156.733 57.4743 155.731 57.833C154.742 58.1917 153.591 58.3711 152.28 58.3711ZM176.049 53.8438V29.5H180.539V58H176.476L176.049 53.8438ZM162.986 48.1846V47.7949C162.986 46.2734 163.166 44.888 163.524 43.6387C163.883 42.377 164.403 41.2946 165.083 40.3916C165.763 39.4762 166.592 38.7773 167.569 38.2949C168.547 37.8001 169.647 37.5527 170.872 37.5527C172.084 37.5527 173.148 37.7878 174.063 38.2578C174.979 38.7279 175.758 39.402 176.401 40.2803C177.045 41.1462 177.558 42.1852 177.941 43.3975C178.325 44.5973 178.597 45.9333 178.758 47.4053V48.6484C178.597 50.0833 178.325 51.3945 177.941 52.582C177.558 53.7695 177.045 54.7962 176.401 55.6621C175.758 56.528 174.973 57.196 174.045 57.666C173.13 58.1361 172.06 58.3711 170.835 58.3711C169.623 58.3711 168.528 58.1175 167.551 57.6104C166.586 57.1032 165.763 56.3919 165.083 55.4766C164.403 54.5612 163.883 53.485 163.524 52.248C163.166 50.9987 162.986 49.6442 162.986 48.1846ZM167.458 47.7949V48.1846C167.458 49.0999 167.538 49.9535 167.699 50.7451C167.872 51.5368 168.138 52.2357 168.497 52.8418C168.856 53.4355 169.32 53.9056 169.889 54.252C170.47 54.5859 171.163 54.7529 171.967 54.7529C172.981 54.7529 173.816 54.5303 174.472 54.085C175.127 53.6396 175.641 53.0397 176.012 52.2852C176.395 51.5182 176.655 50.6647 176.791 49.7246V46.3662C176.717 45.6364 176.562 44.9561 176.327 44.3252C176.104 43.6943 175.801 43.1439 175.418 42.6738C175.035 42.1914 174.558 41.8203 173.989 41.5605C173.433 41.2884 172.771 41.1523 172.004 41.1523C171.188 41.1523 170.495 41.3255 169.926 41.6719C169.357 42.0182 168.887 42.4945 168.516 43.1006C168.157 43.7067 167.891 44.4118 167.718 45.2158C167.545 46.0199 167.458 46.8796 167.458 47.7949ZM195.123 30.9844H204.679C206.732 30.9844 208.482 31.2936 209.93 31.9121C211.377 32.5306 212.484 33.446 213.251 34.6582C214.03 35.8581 214.42 37.3424 214.42 39.1113C214.42 40.4596 214.173 41.6471 213.678 42.6738C213.183 43.7005 212.484 44.5664 211.581 45.2715C210.678 45.9642 209.602 46.5023 208.353 46.8857L206.942 47.5723H198.352L198.314 43.8799H204.753C205.866 43.8799 206.794 43.682 207.536 43.2861C208.278 42.8903 208.835 42.3522 209.206 41.6719C209.59 40.9792 209.781 40.1999 209.781 39.334C209.781 38.3939 209.596 37.5775 209.225 36.8848C208.866 36.1797 208.309 35.6416 207.555 35.2705C206.8 34.887 205.841 34.6953 204.679 34.6953H199.78V58H195.123V30.9844ZM210.542 58L204.196 45.8652L209.076 45.8467L215.515 57.7588V58H210.542ZM227.464 58.3711C225.979 58.3711 224.637 58.1299 223.438 57.6475C222.25 57.1527 221.236 56.4661 220.395 55.5879C219.566 54.7096 218.929 53.6768 218.483 52.4893C218.038 51.3018 217.815 50.0215 217.815 48.6484V47.9062C217.815 46.3353 218.044 44.9128 218.502 43.6387C218.96 42.3646 219.597 41.276 220.413 40.373C221.229 39.4577 222.194 38.7588 223.308 38.2764C224.421 37.7939 225.627 37.5527 226.926 37.5527C228.361 37.5527 229.616 37.7939 230.692 38.2764C231.769 38.7588 232.659 39.4391 233.364 40.3174C234.082 41.1833 234.614 42.2161 234.96 43.416C235.319 44.6159 235.498 45.9395 235.498 47.3867V49.2979H219.986V46.0879H231.082V45.7354C231.057 44.9313 230.896 44.1768 230.6 43.4717C230.315 42.7666 229.876 42.1976 229.282 41.7646C228.688 41.3317 227.897 41.1152 226.907 41.1152C226.165 41.1152 225.503 41.276 224.922 41.5977C224.353 41.9069 223.877 42.3584 223.493 42.9521C223.11 43.5459 222.813 44.2633 222.603 45.1045C222.405 45.9333 222.306 46.8672 222.306 47.9062V48.6484C222.306 49.5267 222.423 50.3431 222.658 51.0977C222.906 51.8398 223.264 52.4893 223.734 53.0459C224.204 53.6025 224.773 54.0417 225.441 54.3633C226.109 54.6725 226.87 54.8271 227.724 54.8271C228.8 54.8271 229.758 54.6107 230.6 54.1777C231.441 53.7448 232.171 53.1325 232.789 52.3408L235.146 54.623C234.713 55.2539 234.15 55.86 233.457 56.4414C232.764 57.0104 231.917 57.4743 230.915 57.833C229.925 58.1917 228.775 58.3711 227.464 58.3711ZM250.249 52.5635C250.249 52.1182 250.138 51.7161 249.915 51.3574C249.692 50.9863 249.266 50.6523 248.635 50.3555C248.016 50.0586 247.101 49.7865 245.889 49.5391C244.825 49.304 243.848 49.0257 242.957 48.7041C242.079 48.3701 241.324 47.9681 240.693 47.498C240.062 47.028 239.574 46.4714 239.228 45.8281C238.881 45.1849 238.708 44.4427 238.708 43.6016C238.708 42.7852 238.887 42.012 239.246 41.2822C239.605 40.5524 240.118 39.9092 240.786 39.3525C241.454 38.7959 242.264 38.3568 243.217 38.0352C244.182 37.7135 245.258 37.5527 246.445 37.5527C248.128 37.5527 249.569 37.8372 250.769 38.4062C251.981 38.9629 252.909 39.7236 253.552 40.6885C254.195 41.641 254.517 42.7171 254.517 43.917H250.045C250.045 43.3851 249.909 42.8903 249.637 42.4326C249.377 41.9626 248.981 41.5853 248.449 41.3008C247.917 41.0039 247.249 40.8555 246.445 40.8555C245.678 40.8555 245.041 40.9792 244.534 41.2266C244.039 41.4616 243.668 41.7708 243.421 42.1543C243.186 42.5378 243.068 42.9583 243.068 43.416C243.068 43.75 243.13 44.0531 243.254 44.3252C243.39 44.585 243.613 44.8262 243.922 45.0488C244.231 45.2591 244.652 45.457 245.184 45.6426C245.728 45.8281 246.408 46.0075 247.225 46.1807C248.758 46.5023 250.076 46.9167 251.177 47.4238C252.29 47.9186 253.144 48.5618 253.737 49.3535C254.331 50.1328 254.628 51.1224 254.628 52.3223C254.628 53.2129 254.436 54.0293 254.053 54.7715C253.682 55.5013 253.137 56.1383 252.42 56.6826C251.702 57.2145 250.843 57.6289 249.841 57.9258C248.851 58.2227 247.738 58.3711 246.501 58.3711C244.683 58.3711 243.143 58.0495 241.881 57.4062C240.619 56.7507 239.66 55.9157 239.005 54.9014C238.362 53.8747 238.04 52.8109 238.04 51.71H242.363C242.413 52.5387 242.642 53.2005 243.05 53.6953C243.47 54.1777 243.99 54.5303 244.608 54.7529C245.239 54.9632 245.889 55.0684 246.557 55.0684C247.361 55.0684 248.035 54.9632 248.579 54.7529C249.123 54.5303 249.538 54.2334 249.822 53.8623C250.107 53.4788 250.249 53.0459 250.249 52.5635ZM257.689 48.1846V47.7578C257.689 46.3105 257.9 44.9684 258.32 43.7314C258.741 42.4821 259.347 41.3997 260.139 40.4844C260.943 39.5566 261.92 38.8392 263.07 38.332C264.233 37.8125 265.544 37.5527 267.004 37.5527C268.476 37.5527 269.787 37.8125 270.938 38.332C272.1 38.8392 273.084 39.5566 273.888 40.4844C274.692 41.3997 275.304 42.4821 275.725 43.7314C276.145 44.9684 276.355 46.3105 276.355 47.7578V48.1846C276.355 49.6318 276.145 50.974 275.725 52.2109C275.304 53.4479 274.692 54.5303 273.888 55.458C273.084 56.3734 272.106 57.0908 270.956 57.6104C269.806 58.1175 268.501 58.3711 267.041 58.3711C265.569 58.3711 264.252 58.1175 263.089 57.6104C261.938 57.0908 260.961 56.3734 260.157 55.458C259.353 54.5303 258.741 53.4479 258.32 52.2109C257.9 50.974 257.689 49.6318 257.689 48.1846ZM262.161 47.7578V48.1846C262.161 49.0876 262.254 49.9411 262.439 50.7451C262.625 51.5492 262.916 52.2542 263.312 52.8604C263.707 53.4665 264.215 53.9427 264.833 54.2891C265.451 54.6354 266.188 54.8086 267.041 54.8086C267.87 54.8086 268.587 54.6354 269.193 54.2891C269.812 53.9427 270.319 53.4665 270.715 52.8604C271.111 52.2542 271.401 51.5492 271.587 50.7451C271.785 49.9411 271.884 49.0876 271.884 48.1846V47.7578C271.884 46.8672 271.785 46.026 271.587 45.2344C271.401 44.4303 271.104 43.7191 270.696 43.1006C270.3 42.4821 269.793 41.9997 269.175 41.6533C268.569 41.2946 267.845 41.1152 267.004 41.1152C266.163 41.1152 265.433 41.2946 264.814 41.6533C264.208 41.9997 263.707 42.4821 263.312 43.1006C262.916 43.7191 262.625 44.4303 262.439 45.2344C262.254 46.026 262.161 46.8672 262.161 47.7578ZM292.183 53.2686V37.9238H296.673V58H292.442L292.183 53.2686ZM292.813 49.0938L294.316 49.0566C294.316 50.4049 294.168 51.6481 293.871 52.7861C293.574 53.9118 293.117 54.8952 292.498 55.7363C291.88 56.5651 291.088 57.2145 290.123 57.6846C289.158 58.1423 288.002 58.3711 286.653 58.3711C285.676 58.3711 284.779 58.2288 283.963 57.9443C283.146 57.6598 282.441 57.2207 281.848 56.627C281.266 56.0332 280.815 55.2601 280.493 54.3076C280.172 53.3551 280.011 52.2171 280.011 50.8936V37.9238H284.482V50.9307C284.482 51.6605 284.569 52.2728 284.742 52.7676C284.915 53.25 285.15 53.6396 285.447 53.9365C285.744 54.2334 286.09 54.4437 286.486 54.5674C286.882 54.6911 287.303 54.7529 287.748 54.7529C289.022 54.7529 290.024 54.5055 290.754 54.0107C291.496 53.5036 292.022 52.8232 292.331 51.9697C292.653 51.1162 292.813 50.1576 292.813 49.0938ZM305.746 41.7461V58H301.274V37.9238H305.542L305.746 41.7461ZM311.888 37.7939L311.851 41.9502C311.578 41.9007 311.282 41.8636 310.96 41.8389C310.651 41.8141 310.341 41.8018 310.032 41.8018C309.265 41.8018 308.591 41.9131 308.01 42.1357C307.428 42.346 306.94 42.6553 306.544 43.0635C306.16 43.4593 305.864 43.9417 305.653 44.5107C305.443 45.0798 305.319 45.7168 305.282 46.4219L304.262 46.4961C304.262 45.2344 304.385 44.0654 304.633 42.9893C304.88 41.9131 305.251 40.9668 305.746 40.1504C306.253 39.334 306.884 38.6969 307.639 38.2393C308.406 37.7816 309.29 37.5527 310.292 37.5527C310.564 37.5527 310.855 37.5775 311.164 37.627C311.486 37.6764 311.727 37.7321 311.888 37.7939ZM322.52 54.8086C323.249 54.8086 323.905 54.6663 324.486 54.3818C325.08 54.085 325.556 53.6768 325.915 53.1572C326.286 52.6377 326.49 52.0378 326.527 51.3574H330.739C330.715 52.6562 330.331 53.8376 329.589 54.9014C328.847 55.9652 327.863 56.8125 326.639 57.4434C325.414 58.0618 324.06 58.3711 322.575 58.3711C321.041 58.3711 319.705 58.1113 318.567 57.5918C317.429 57.0599 316.483 56.3301 315.729 55.4023C314.974 54.4746 314.405 53.4046 314.021 52.1924C313.65 50.9801 313.465 49.6813 313.465 48.2959V47.6465C313.465 46.2611 313.65 44.9622 314.021 43.75C314.405 42.5254 314.974 41.4492 315.729 40.5215C316.483 39.5938 317.429 38.8701 318.567 38.3506C319.705 37.8187 321.035 37.5527 322.557 37.5527C324.165 37.5527 325.575 37.8743 326.787 38.5176C327.999 39.1484 328.952 40.0329 329.645 41.1709C330.35 42.2965 330.715 43.6077 330.739 45.1045H326.527C326.49 44.3623 326.305 43.6943 325.971 43.1006C325.649 42.4945 325.191 42.012 324.598 41.6533C324.016 41.2946 323.317 41.1152 322.501 41.1152C321.598 41.1152 320.85 41.3008 320.256 41.6719C319.662 42.0306 319.198 42.5254 318.864 43.1562C318.53 43.7747 318.289 44.4736 318.141 45.2529C318.005 46.0199 317.937 46.8177 317.937 47.6465V48.2959C317.937 49.1247 318.005 49.9287 318.141 50.708C318.277 51.4873 318.512 52.1862 318.846 52.8047C319.192 53.4108 319.662 53.8994 320.256 54.2705C320.85 54.6292 321.604 54.8086 322.52 54.8086ZM343.022 58.3711C341.538 58.3711 340.196 58.1299 338.996 57.6475C337.809 57.1527 336.794 56.4661 335.953 55.5879C335.124 54.7096 334.487 53.6768 334.042 52.4893C333.597 51.3018 333.374 50.0215 333.374 48.6484V47.9062C333.374 46.3353 333.603 44.9128 334.061 43.6387C334.518 42.3646 335.155 41.276 335.972 40.373C336.788 39.4577 337.753 38.7588 338.866 38.2764C339.979 37.7939 341.186 37.5527 342.484 37.5527C343.919 37.5527 345.175 37.7939 346.251 38.2764C347.327 38.7588 348.218 39.4391 348.923 40.3174C349.64 41.1833 350.172 42.2161 350.519 43.416C350.877 44.6159 351.057 45.9395 351.057 47.3867V49.2979H335.545V46.0879H346.641V45.7354C346.616 44.9313 346.455 44.1768 346.158 43.4717C345.874 42.7666 345.435 42.1976 344.841 41.7646C344.247 41.3317 343.455 41.1152 342.466 41.1152C341.724 41.1152 341.062 41.276 340.48 41.5977C339.911 41.9069 339.435 42.3584 339.052 42.9521C338.668 43.5459 338.371 44.2633 338.161 45.1045C337.963 45.9333 337.864 46.8672 337.864 47.9062V48.6484C337.864 49.5267 337.982 50.3431 338.217 51.0977C338.464 51.8398 338.823 52.4893 339.293 53.0459C339.763 53.6025 340.332 54.0417 341 54.3633C341.668 54.6725 342.429 54.8271 343.282 54.8271C344.358 54.8271 345.317 54.6107 346.158 54.1777C346.999 53.7448 347.729 53.1325 348.348 52.3408L350.704 54.623C350.271 55.2539 349.708 55.86 349.016 56.4414C348.323 57.0104 347.476 57.4743 346.474 57.833C345.484 58.1917 344.334 58.3711 343.022 58.3711ZM365.808 52.5635C365.808 52.1182 365.696 51.7161 365.474 51.3574C365.251 50.9863 364.824 50.6523 364.193 50.3555C363.575 50.0586 362.66 49.7865 361.447 49.5391C360.383 49.304 359.406 49.0257 358.516 48.7041C357.637 48.3701 356.883 47.9681 356.252 47.498C355.621 47.028 355.132 46.4714 354.786 45.8281C354.44 45.1849 354.267 44.4427 354.267 43.6016C354.267 42.7852 354.446 42.012 354.805 41.2822C355.163 40.5524 355.677 39.9092 356.345 39.3525C357.013 38.7959 357.823 38.3568 358.775 38.0352C359.74 37.7135 360.816 37.5527 362.004 37.5527C363.686 37.5527 365.127 37.8372 366.327 38.4062C367.539 38.9629 368.467 39.7236 369.11 40.6885C369.754 41.641 370.075 42.7171 370.075 43.917H365.604C365.604 43.3851 365.467 42.8903 365.195 42.4326C364.936 41.9626 364.54 41.5853 364.008 41.3008C363.476 41.0039 362.808 40.8555 362.004 40.8555C361.237 40.8555 360.6 40.9792 360.093 41.2266C359.598 41.4616 359.227 41.7708 358.979 42.1543C358.744 42.5378 358.627 42.9583 358.627 43.416C358.627 43.75 358.689 44.0531 358.812 44.3252C358.949 44.585 359.171 44.8262 359.48 45.0488C359.79 45.2591 360.21 45.457 360.742 45.6426C361.286 45.8281 361.967 46.0075 362.783 46.1807C364.317 46.5023 365.634 46.9167 366.735 47.4238C367.849 47.9186 368.702 48.5618 369.296 49.3535C369.89 50.1328 370.187 51.1224 370.187 52.3223C370.187 53.2129 369.995 54.0293 369.611 54.7715C369.24 55.5013 368.696 56.1383 367.979 56.6826C367.261 57.2145 366.401 57.6289 365.399 57.9258C364.41 58.2227 363.297 58.3711 362.06 58.3711C360.241 58.3711 358.701 58.0495 357.439 57.4062C356.178 56.7507 355.219 55.9157 354.563 54.9014C353.92 53.8747 353.599 52.8109 353.599 51.71H357.922C357.971 52.5387 358.2 53.2005 358.608 53.6953C359.029 54.1777 359.549 54.5303 360.167 54.7529C360.798 54.9632 361.447 55.0684 362.115 55.0684C362.919 55.0684 363.593 54.9632 364.138 54.7529C364.682 54.5303 365.096 54.2334 365.381 53.8623C365.665 53.4788 365.808 53.0459 365.808 52.5635Z" fill="black"/>
</g>
<defs>
<filter id="filter0_f_76_201" x="0" y="0" width="574" height="92" filterUnits="userSpaceOnUse" color-interpolation-filters="sRGB">
<feFlood flood-opacity="0" result="BackgroundImageFix"/>
<feBlend mode="normal" in="SourceGraphic" in2="BackgroundImageFix" result="shape"/>
<feGaussianBlur stdDeviation="2" result="effect1_foregroundBlur_76_201"/>
</filter>
</defs>
</svg>
