<svg width="123" height="118" viewBox="0 0 123 118" fill="none" xmlns="http://www.w3.org/2000/svg">
<g filter="url(#filter0_f_76_185)">
<path d="M57.0778 7.3817C58.9538 3.82596 64.0462 3.82596 65.9222 7.38169L80.3727 34.7704C81.0962 36.1417 82.4148 37.0997 83.9425 37.364L114.456 42.6437C118.418 43.3291 119.991 48.1723 117.189 51.0553L95.6065 73.2621C94.5259 74.3739 94.0223 75.924 94.2429 77.4586L98.651 108.11C99.2232 112.09 95.1034 115.083 91.4956 113.309L63.7062 99.6448C62.315 98.9607 60.685 98.9607 59.2938 99.6448L31.5044 113.309C27.8966 115.083 23.7768 112.09 24.349 108.11L28.7571 77.4586C28.9777 75.924 28.4741 74.3739 27.3935 73.2621L5.81072 51.0553C3.00874 48.1723 4.58238 43.3291 8.54381 42.6437L39.0575 37.364C40.5852 37.0997 41.9038 36.1417 42.6273 34.7704L57.0778 7.3817Z" fill="#FDFFB0"/>
</g>
<defs>
<filter id="filter0_f_76_185" x="0.391602" y="0.714844" width="122.217" height="117.117" filterUnits="userSpaceOnUse" color-interpolation-filters="sRGB">
<feFlood flood-opacity="0" result="BackgroundImageFix"/>
<feBlend mode="normal" in="SourceGraphic" in2="BackgroundImageFix" result="shape"/>
<feGaussianBlur stdDeviation="2" result="effect1_foregroundBlur_76_185"/>
</filter>
</defs>
</svg>
