<svg width="115" height="110" viewBox="0 0 115 110" fill="none" xmlns="http://www.w3.org/2000/svg">
<path d="M53.0778 3.3817C54.9538 -0.174036 60.0462 -0.174039 61.9222 3.38169L76.3727 30.7704C77.0962 32.1417 78.4148 33.0997 79.9425 33.364L110.456 38.6437C114.418 39.3291 115.991 44.1723 113.189 47.0553L91.6065 69.2621C90.5259 70.3739 90.0223 71.924 90.2429 73.4586L94.651 104.11C95.2232 108.09 91.1034 111.083 87.4956 109.309L59.7062 95.6448C58.315 94.9607 56.685 94.9607 55.2938 95.6448L27.5044 109.309C23.8966 111.083 19.7768 108.09 20.349 104.11L24.7571 73.4586C24.9777 71.924 24.4741 70.3739 23.3935 69.2621L1.81072 47.0553C-0.991255 44.1723 0.582384 39.3291 4.54381 38.6437L35.0575 33.364C36.5852 33.0997 37.9038 32.1417 38.6273 30.7704L53.0778 3.3817Z" fill="#FDFFB0"/>
</svg>
