<svg width="12" height="12" viewBox="0 0 12 12" fill="none" xmlns="http://www.w3.org/2000/svg">
<path d="M0.968875 0.968387C1.03854 0.898542 1.12131 0.843128 1.21242 0.805318C1.30354 0.767508 1.40122 0.748047 1.49988 0.748047C1.59853 0.748047 1.69621 0.767508 1.78733 0.805318C1.87844 0.843128 1.96121 0.898542 2.03088 0.968387L5.99988 4.93889L9.96887 0.968387C10.0386 0.898655 10.1214 0.843341 10.2125 0.805602C10.3036 0.767863 10.4013 0.74844 10.4999 0.74844C10.5985 0.74844 10.6961 0.767863 10.7873 0.805602C10.8784 0.843341 10.9611 0.898655 11.0309 0.968387C11.1006 1.03812 11.1559 1.1209 11.1937 1.21201C11.2314 1.30312 11.2508 1.40077 11.2508 1.49939C11.2508 1.598 11.2314 1.69565 11.1937 1.78676C11.1559 1.87787 11.1006 1.96066 11.0309 2.03039L7.06037 5.99939L11.0309 9.96839C11.1006 10.0381 11.1559 10.1209 11.1937 10.212C11.2314 10.3031 11.2508 10.4008 11.2508 10.4994C11.2508 10.598 11.2314 10.6957 11.1937 10.7868C11.1559 10.8779 11.1006 10.9607 11.0309 11.0304C10.9611 11.1001 10.8784 11.1554 10.7873 11.1932C10.6961 11.2309 10.5985 11.2503 10.4999 11.2503C10.4013 11.2503 10.3036 11.2309 10.2125 11.1932C10.1214 11.1554 10.0386 11.1001 9.96887 11.0304L5.99988 7.05989L2.03088 11.0304C1.96114 11.1001 1.87836 11.1554 1.78725 11.1932C1.69614 11.2309 1.59849 11.2503 1.49988 11.2503C1.40126 11.2503 1.30361 11.2309 1.2125 11.1932C1.12139 11.1554 1.03861 11.1001 0.968875 11.0304C0.899143 10.9607 0.843829 10.8779 0.80609 10.7868C0.768352 10.6957 0.748928 10.598 0.748928 10.4994C0.748928 10.4008 0.768352 10.3031 0.80609 10.212C0.843829 10.1209 0.899143 10.0381 0.968875 9.96839L4.93938 5.99939L0.968875 2.03039C0.899031 1.96072 0.843616 1.87796 0.805806 1.78684C0.767997 1.69572 0.748535 1.59804 0.748535 1.49939C0.748535 1.40074 0.767997 1.30305 0.805806 1.21194C0.843616 1.12082 0.899031 1.03806 0.968875 0.968387Z" fill="#5FA8D3"/>
</svg>
