<svg width="18" height="14" viewBox="0 0 18 14" fill="none" xmlns="http://www.w3.org/2000/svg">
<path d="M17.5 3.38283C17.5008 4.03363 17.2774 4.66485 16.8675 5.17033L11.0788 12.1828C10.8598 12.4578 10.5817 12.6799 10.2651 12.8325C9.94848 12.9852 9.60151 13.0645 9.25002 13.0645C8.89852 13.0645 8.55156 12.9852 8.23493 12.8325C7.91831 12.6799 7.64019 12.4578 7.42127 12.1828L1.63252 5.17033C1.29426 4.74816 1.0814 4.23946 1.01819 3.7022C0.954985 3.16494 1.04397 2.62073 1.27502 2.13158C1.4624 1.70647 1.76819 1.34427 2.15587 1.08826C2.54355 0.83225 2.99672 0.693239 3.46127 0.687831L15.0388 0.687831C15.5033 0.693239 15.9565 0.83225 16.3442 1.08826C16.7318 1.34427 17.0376 1.70647 17.225 2.13158C17.4038 2.52465 17.4975 2.95104 17.5 3.38283Z" fill="#8FC0A9"/>
</svg>
