<svg width="18" height="14" viewBox="0 0 18 14" fill="none" xmlns="http://www.w3.org/2000/svg">
<path d="M17.4999 3.38283C17.5007 4.03363 17.2773 4.66485 16.8674 5.17033L11.0786 12.1828C10.8597 12.4578 10.5816 12.6799 10.265 12.8325C9.94836 12.9852 9.60139 13.0645 9.2499 13.0645C8.8984 13.0645 8.55143 12.9852 8.23481 12.8325C7.91819 12.6799 7.64007 12.4578 7.42115 12.1828L1.6324 5.17033C1.29414 4.74816 1.08128 4.23946 1.01807 3.7022C0.954863 3.16494 1.04385 2.62073 1.2749 2.13158C1.46228 1.70647 1.76807 1.34427 2.15575 1.08826C2.54342 0.83225 2.9966 0.693239 3.46115 0.687831L15.0386 0.687831C15.5032 0.693239 15.9564 0.83225 16.344 1.08826C16.7317 1.34427 17.0375 1.70647 17.2249 2.13158C17.4036 2.52465 17.4974 2.95104 17.4999 3.38283Z" fill="#8FC0A9"/>
</svg>
