<svg width="15" height="11" viewBox="0 0 15 11" fill="none" xmlns="http://www.w3.org/2000/svg">
<path d="M14.6425 2.81793C14.6432 3.36333 14.4573 3.89233 14.1162 4.31595L9.29907 10.1928C9.11689 10.4233 8.88545 10.6094 8.62197 10.7373C8.35849 10.8652 8.06976 10.9316 7.77726 10.9316C7.48476 10.9316 7.19603 10.8652 6.93255 10.7373C6.66908 10.6094 6.43764 10.4233 6.25546 10.1928L1.43832 4.31595C1.15684 3.96215 0.979702 3.53583 0.927104 3.08558C0.874506 2.63532 0.948558 2.17924 1.14082 1.76931C1.29676 1.41304 1.55122 1.10951 1.87383 0.894957C2.19644 0.680405 2.57355 0.563907 2.96012 0.559374L12.5944 0.559374C12.981 0.563907 13.3581 0.680405 13.6807 0.894957C14.0033 1.10951 14.2578 1.41304 14.4137 1.76931C14.5624 2.09873 14.6404 2.45606 14.6425 2.81793Z" fill="#8FC0A9"/>
</svg>
