<svg width="18" height="14" viewBox="0 0 18 14" fill="none" xmlns="http://www.w3.org/2000/svg">
<path d="M17.5001 3.38283C17.5009 4.03363 17.2776 4.66485 16.8676 5.17033L11.0789 12.1828C10.86 12.4578 10.5818 12.6799 10.2652 12.8325C9.9486 12.9852 9.60163 13.0645 9.25014 13.0645C8.89865 13.0645 8.55168 12.9852 8.23506 12.8325C7.91844 12.6799 7.64031 12.4578 7.42139 12.1828L1.63264 5.17033C1.29438 4.74816 1.08152 4.23946 1.01831 3.7022C0.955107 3.16494 1.0441 2.62073 1.27514 2.13158C1.46253 1.70647 1.76832 1.34427 2.15599 1.08826C2.54367 0.83225 2.99684 0.693239 3.46139 0.687831L15.0389 0.687831C15.5034 0.693239 15.9566 0.83225 16.3443 1.08826C16.732 1.34427 17.0378 1.70647 17.2251 2.13158C17.4039 2.52465 17.4976 2.95104 17.5001 3.38283Z" fill="#8FC0A9"/>
</svg>
