<svg width="389" height="38" viewBox="0 0 389 38" fill="none" xmlns="http://www.w3.org/2000/svg">
<g filter="url(#filter0_f_76_197)">
<path d="M8.2041 5.67188L13.1553 15.8525L18.1064 5.67188H22.1787L15.001 19.1484V27H11.2949V19.1484L4.11719 5.67188H8.2041ZM22.5156 19.251V18.9141C22.5156 17.7715 22.6816 16.7119 23.0137 15.7354C23.3457 14.749 23.8242 13.8945 24.4492 13.1719C25.084 12.4395 25.8555 11.873 26.7637 11.4727C27.6816 11.0625 28.7168 10.8574 29.8691 10.8574C31.0312 10.8574 32.0664 11.0625 32.9746 11.4727C33.8926 11.873 34.6689 12.4395 35.3037 13.1719C35.9385 13.8945 36.4219 14.749 36.7539 15.7354C37.0859 16.7119 37.252 17.7715 37.252 18.9141V19.251C37.252 20.3936 37.0859 21.4531 36.7539 22.4297C36.4219 23.4062 35.9385 24.2607 35.3037 24.9932C34.6689 25.7158 33.8975 26.2822 32.9893 26.6924C32.0811 27.0928 31.0508 27.293 29.8984 27.293C28.7363 27.293 27.6963 27.0928 26.7783 26.6924C25.8701 26.2822 25.0986 25.7158 24.4639 24.9932C23.8291 24.2607 23.3457 23.4062 23.0137 22.4297C22.6816 21.4531 22.5156 20.3936 22.5156 19.251ZM26.0459 18.9141V19.251C26.0459 19.9639 26.1191 20.6377 26.2656 21.2725C26.4121 21.9072 26.6416 22.4639 26.9541 22.9424C27.2666 23.4209 27.667 23.7969 28.1553 24.0703C28.6436 24.3438 29.2246 24.4805 29.8984 24.4805C30.5527 24.4805 31.1191 24.3438 31.5977 24.0703C32.0859 23.7969 32.4863 23.4209 32.7988 22.9424C33.1113 22.4639 33.3408 21.9072 33.4873 21.2725C33.6436 20.6377 33.7217 19.9639 33.7217 19.251V18.9141C33.7217 18.2109 33.6436 17.5469 33.4873 16.9219C33.3408 16.2871 33.1064 15.7256 32.7842 15.2373C32.4717 14.749 32.0713 14.3682 31.583 14.0947C31.1045 13.8115 30.5332 13.6699 29.8691 13.6699C29.2051 13.6699 28.6289 13.8115 28.1406 14.0947C27.6621 14.3682 27.2666 14.749 26.9541 15.2373C26.6416 15.7256 26.4121 16.2871 26.2656 16.9219C26.1191 17.5469 26.0459 18.2109 26.0459 18.9141ZM49.7471 23.2646V11.1504H53.292V27H49.9521L49.7471 23.2646ZM50.2451 19.9688L51.4316 19.9395C51.4316 21.0039 51.3145 21.9854 51.0801 22.8838C50.8457 23.7725 50.4844 24.5488 49.9961 25.2129C49.5078 25.8672 48.8828 26.3799 48.1211 26.751C47.3594 27.1123 46.4463 27.293 45.3818 27.293C44.6104 27.293 43.9023 27.1807 43.2578 26.9561C42.6133 26.7314 42.0566 26.3848 41.5879 25.916C41.1289 25.4473 40.7725 24.8369 40.5186 24.085C40.2646 23.333 40.1377 22.4346 40.1377 21.3896V11.1504H43.668V21.4189C43.668 21.9951 43.7363 22.4785 43.873 22.8691C44.0098 23.25 44.1953 23.5576 44.4297 23.792C44.6641 24.0264 44.9375 24.1924 45.25 24.29C45.5625 24.3877 45.8945 24.4365 46.2461 24.4365C47.252 24.4365 48.043 24.2412 48.6191 23.8506C49.2051 23.4502 49.6201 22.9131 49.8643 22.2393C50.1182 21.5654 50.2451 20.8086 50.2451 19.9688ZM60.4551 14.168V27H56.9248V11.1504H60.2939L60.4551 14.168ZM65.3037 11.0479L65.2744 14.3291C65.0596 14.29 64.8252 14.2607 64.5713 14.2412C64.3271 14.2217 64.083 14.2119 63.8389 14.2119C63.2334 14.2119 62.7012 14.2998 62.2422 14.4756C61.7832 14.6416 61.3975 14.8857 61.085 15.208C60.7822 15.5205 60.5479 15.9014 60.3818 16.3506C60.2158 16.7998 60.1182 17.3027 60.0889 17.8594L59.2832 17.918C59.2832 16.9219 59.3809 15.999 59.5762 15.1494C59.7715 14.2998 60.0645 13.5527 60.4551 12.9082C60.8555 12.2637 61.3535 11.7607 61.9492 11.3994C62.5547 11.0381 63.2529 10.8574 64.0439 10.8574C64.2588 10.8574 64.4883 10.877 64.7324 10.916C64.9863 10.9551 65.1768 10.999 65.3037 11.0479ZM78.5312 14.1973V33.0938H75.001V11.1504H78.2529L78.5312 14.1973ZM88.8584 18.9287V19.2363C88.8584 20.3887 88.7217 21.458 88.4482 22.4443C88.1846 23.4209 87.7891 24.2754 87.2617 25.0078C86.7441 25.7305 86.1045 26.292 85.3428 26.6924C84.5811 27.0928 83.7021 27.293 82.7061 27.293C81.7197 27.293 80.8555 27.1123 80.1133 26.751C79.3809 26.3799 78.7607 25.8574 78.2529 25.1836C77.7451 24.5098 77.335 23.7188 77.0225 22.8105C76.7197 21.8926 76.5049 20.8867 76.3779 19.793V18.6064C76.5049 17.4443 76.7197 16.3896 77.0225 15.4424C77.335 14.4951 77.7451 13.6797 78.2529 12.9961C78.7607 12.3125 79.3809 11.7852 80.1133 11.4141C80.8457 11.043 81.7002 10.8574 82.6768 10.8574C83.6729 10.8574 84.5566 11.0527 85.3281 11.4434C86.0996 11.8242 86.749 12.3711 87.2764 13.084C87.8037 13.7871 88.1992 14.6367 88.4629 15.6328C88.7266 16.6191 88.8584 17.7178 88.8584 18.9287ZM85.3281 19.2363V18.9287C85.3281 18.1963 85.2598 17.5176 85.123 16.8926C84.9863 16.2578 84.7715 15.7012 84.4785 15.2227C84.1855 14.7441 83.8096 14.373 83.3506 14.1094C82.9014 13.8359 82.3594 13.6992 81.7246 13.6992C81.0996 13.6992 80.5625 13.8066 80.1133 14.0215C79.6641 14.2266 79.2881 14.5146 78.9854 14.8857C78.6826 15.2568 78.4482 15.6914 78.2822 16.1895C78.1162 16.6777 77.999 17.21 77.9307 17.7861V20.6279C78.0479 21.3311 78.248 21.9756 78.5312 22.5615C78.8145 23.1475 79.2148 23.6162 79.7324 23.9678C80.2598 24.3096 80.9336 24.4805 81.7539 24.4805C82.3887 24.4805 82.9307 24.3438 83.3799 24.0703C83.8291 23.7969 84.1953 23.4209 84.4785 22.9424C84.7715 22.4541 84.9863 21.8926 85.123 21.2578C85.2598 20.623 85.3281 19.9492 85.3281 19.2363ZM95.4062 14.168V27H91.876V11.1504H95.2451L95.4062 14.168ZM100.255 11.0479L100.226 14.3291C100.011 14.29 99.7764 14.2607 99.5225 14.2412C99.2783 14.2217 99.0342 14.2119 98.79 14.2119C98.1846 14.2119 97.6523 14.2998 97.1934 14.4756C96.7344 14.6416 96.3486 14.8857 96.0361 15.208C95.7334 15.5205 95.499 15.9014 95.333 16.3506C95.167 16.7998 95.0693 17.3027 95.04 17.8594L94.2344 17.918C94.2344 16.9219 94.332 15.999 94.5273 15.1494C94.7227 14.2998 95.0156 13.5527 95.4062 12.9082C95.8066 12.2637 96.3047 11.7607 96.9004 11.3994C97.5059 11.0381 98.2041 10.8574 98.9951 10.8574C99.21 10.8574 99.4395 10.877 99.6836 10.916C99.9375 10.9551 100.128 10.999 100.255 11.0479ZM101.412 19.251V18.9141C101.412 17.7715 101.578 16.7119 101.91 15.7354C102.242 14.749 102.721 13.8945 103.346 13.1719C103.98 12.4395 104.752 11.873 105.66 11.4727C106.578 11.0625 107.613 10.8574 108.766 10.8574C109.928 10.8574 110.963 11.0625 111.871 11.4727C112.789 11.873 113.565 12.4395 114.2 13.1719C114.835 13.8945 115.318 14.749 115.65 15.7354C115.982 16.7119 116.148 17.7715 116.148 18.9141V19.251C116.148 20.3936 115.982 21.4531 115.65 22.4297C115.318 23.4062 114.835 24.2607 114.2 24.9932C113.565 25.7158 112.794 26.2822 111.886 26.6924C110.978 27.0928 109.947 27.293 108.795 27.293C107.633 27.293 106.593 27.0928 105.675 26.6924C104.767 26.2822 103.995 25.7158 103.36 24.9932C102.726 24.2607 102.242 23.4062 101.91 22.4297C101.578 21.4531 101.412 20.3936 101.412 19.251ZM104.942 18.9141V19.251C104.942 19.9639 105.016 20.6377 105.162 21.2725C105.309 21.9072 105.538 22.4639 105.851 22.9424C106.163 23.4209 106.563 23.7969 107.052 24.0703C107.54 24.3438 108.121 24.4805 108.795 24.4805C109.449 24.4805 110.016 24.3438 110.494 24.0703C110.982 23.7969 111.383 23.4209 111.695 22.9424C112.008 22.4639 112.237 21.9072 112.384 21.2725C112.54 20.6377 112.618 19.9639 112.618 19.251V18.9141C112.618 18.2109 112.54 17.5469 112.384 16.9219C112.237 16.2871 112.003 15.7256 111.681 15.2373C111.368 14.749 110.968 14.3682 110.479 14.0947C110.001 13.8115 109.43 13.6699 108.766 13.6699C108.102 13.6699 107.525 13.8115 107.037 14.0947C106.559 14.3682 106.163 14.749 105.851 15.2373C105.538 15.7256 105.309 16.2871 105.162 16.9219C105.016 17.5469 104.942 18.2109 104.942 18.9141ZM123.648 27H120.104V10.125C120.104 8.8457 120.357 7.7666 120.865 6.8877C121.383 6.00879 122.12 5.33984 123.077 4.88086C124.044 4.42188 125.191 4.19238 126.52 4.19238C127.301 4.19238 128.053 4.27539 128.775 4.44141C129.508 4.60742 130.265 4.81738 131.046 5.07129L130.504 7.94238C130.006 7.77637 129.454 7.62012 128.849 7.47363C128.243 7.31738 127.545 7.23926 126.754 7.23926C125.689 7.23926 124.903 7.4834 124.396 7.97168C123.897 8.4502 123.648 9.16797 123.648 10.125V27ZM126.827 11.1504V13.7285H117.672V11.1504H126.827ZM132.716 11.1504V27H129.186V11.1504H132.716ZM140.436 4.5V27H136.891V4.5H140.436ZM151.29 27.293C150.118 27.293 149.059 27.1025 148.111 26.7217C147.174 26.3311 146.373 25.7891 145.709 25.0957C145.055 24.4023 144.552 23.5869 144.2 22.6494C143.849 21.7119 143.673 20.7012 143.673 19.6172V19.0312C143.673 17.791 143.854 16.668 144.215 15.6621C144.576 14.6562 145.079 13.7969 145.724 13.084C146.368 12.3613 147.13 11.8096 148.009 11.4287C148.888 11.0479 149.84 10.8574 150.865 10.8574C151.998 10.8574 152.989 11.0479 153.839 11.4287C154.688 11.8096 155.392 12.3467 155.948 13.04C156.515 13.7236 156.935 14.5391 157.208 15.4863C157.491 16.4336 157.633 17.4785 157.633 18.6211V20.1299H145.387V17.5957H154.146V17.3174C154.127 16.6826 154 16.0869 153.766 15.5303C153.541 14.9736 153.194 14.5244 152.726 14.1826C152.257 13.8408 151.632 13.6699 150.851 13.6699C150.265 13.6699 149.742 13.7969 149.283 14.0508C148.834 14.2949 148.458 14.6514 148.155 15.1201C147.853 15.5889 147.618 16.1553 147.452 16.8193C147.296 17.4736 147.218 18.2109 147.218 19.0312V19.6172C147.218 20.3105 147.311 20.9551 147.496 21.5508C147.691 22.1367 147.975 22.6494 148.346 23.0889C148.717 23.5283 149.166 23.875 149.693 24.1289C150.221 24.373 150.821 24.4951 151.495 24.4951C152.345 24.4951 153.102 24.3242 153.766 23.9824C154.43 23.6406 155.006 23.1572 155.494 22.5322L157.354 24.334C157.013 24.832 156.568 25.3105 156.021 25.7695C155.475 26.2188 154.806 26.585 154.015 26.8682C153.233 27.1514 152.325 27.293 151.29 27.293ZM171.637 11.1504V27H168.092V11.1504H171.637ZM167.857 6.99023C167.857 6.45312 168.033 6.00879 168.385 5.65723C168.746 5.2959 169.244 5.11523 169.879 5.11523C170.504 5.11523 170.997 5.2959 171.358 5.65723C171.72 6.00879 171.9 6.45312 171.9 6.99023C171.9 7.51758 171.72 7.95703 171.358 8.30859C170.997 8.66016 170.504 8.83594 169.879 8.83594C169.244 8.83594 168.746 8.66016 168.385 8.30859C168.033 7.95703 167.857 7.51758 167.857 6.99023ZM184.396 22.708C184.396 22.3564 184.308 22.0391 184.132 21.7559C183.956 21.4629 183.619 21.1992 183.121 20.9648C182.633 20.7305 181.91 20.5156 180.953 20.3203C180.113 20.1348 179.342 19.915 178.639 19.6611C177.945 19.3975 177.35 19.0801 176.852 18.709C176.354 18.3379 175.968 17.8984 175.694 17.3906C175.421 16.8828 175.284 16.2969 175.284 15.6328C175.284 14.9883 175.426 14.3779 175.709 13.8018C175.992 13.2256 176.397 12.7178 176.925 12.2783C177.452 11.8389 178.092 11.4922 178.844 11.2383C179.605 10.9844 180.455 10.8574 181.393 10.8574C182.721 10.8574 183.858 11.082 184.806 11.5312C185.763 11.9707 186.495 12.5713 187.003 13.333C187.511 14.085 187.765 14.9346 187.765 15.8818H184.234C184.234 15.4619 184.127 15.0713 183.912 14.71C183.707 14.3389 183.395 14.041 182.975 13.8164C182.555 13.582 182.027 13.4648 181.393 13.4648C180.787 13.4648 180.284 13.5625 179.884 13.7578C179.493 13.9434 179.2 14.1875 179.005 14.4902C178.819 14.793 178.727 15.125 178.727 15.4863C178.727 15.75 178.775 15.9893 178.873 16.2041C178.98 16.4092 179.156 16.5996 179.4 16.7754C179.645 16.9414 179.977 17.0977 180.396 17.2441C180.826 17.3906 181.363 17.5322 182.008 17.6689C183.219 17.9229 184.259 18.25 185.128 18.6504C186.007 19.041 186.681 19.5488 187.149 20.1738C187.618 20.7891 187.853 21.5703 187.853 22.5176C187.853 23.2207 187.701 23.8652 187.398 24.4512C187.105 25.0273 186.676 25.5303 186.109 25.96C185.543 26.3799 184.864 26.707 184.073 26.9414C183.292 27.1758 182.413 27.293 181.437 27.293C180.001 27.293 178.785 27.0391 177.789 26.5312C176.793 26.0137 176.036 25.3545 175.519 24.5537C175.011 23.7432 174.757 22.9033 174.757 22.0342H178.17C178.209 22.6885 178.39 23.2109 178.712 23.6016C179.044 23.9824 179.454 24.2607 179.942 24.4365C180.44 24.6025 180.953 24.6855 181.48 24.6855C182.115 24.6855 182.647 24.6025 183.077 24.4365C183.507 24.2607 183.834 24.0264 184.059 23.7334C184.283 23.4307 184.396 23.0889 184.396 22.708ZM212.154 21.1846C212.154 22.5127 211.847 23.6309 211.231 24.5391C210.616 25.4473 209.776 26.1357 208.712 26.6045C207.657 27.0635 206.466 27.293 205.138 27.293C203.81 27.293 202.613 27.0635 201.549 26.6045C200.484 26.1357 199.645 25.4473 199.029 24.5391C198.414 23.6309 198.106 22.5127 198.106 21.1846C198.106 20.3057 198.277 19.5098 198.619 18.7969C198.961 18.0742 199.444 17.4541 200.069 16.9365C200.704 16.4092 201.446 16.0039 202.296 15.7207C203.155 15.4375 204.093 15.2959 205.108 15.2959C206.456 15.2959 207.662 15.5449 208.727 16.043C209.791 16.541 210.626 17.2295 211.231 18.1084C211.847 18.9873 212.154 20.0127 212.154 21.1846ZM208.609 21.0088C208.609 20.2959 208.463 19.6709 208.17 19.1338C207.877 18.5967 207.467 18.1816 206.939 17.8887C206.412 17.5957 205.802 17.4492 205.108 17.4492C204.405 17.4492 203.795 17.5957 203.277 17.8887C202.76 18.1816 202.354 18.5967 202.062 19.1338C201.778 19.6709 201.637 20.2959 201.637 21.0088C201.637 21.7314 201.778 22.3564 202.062 22.8838C202.345 23.4014 202.75 23.7969 203.277 24.0703C203.805 24.3438 204.425 24.4805 205.138 24.4805C205.851 24.4805 206.466 24.3438 206.983 24.0703C207.501 23.7969 207.901 23.4014 208.185 22.8838C208.468 22.3564 208.609 21.7314 208.609 21.0088ZM211.671 11.2822C211.671 12.3467 211.388 13.2939 210.821 14.124C210.265 14.9541 209.493 15.6084 208.507 16.0869C207.521 16.5557 206.397 16.79 205.138 16.79C203.868 16.79 202.735 16.5557 201.739 16.0869C200.753 15.6084 199.977 14.9541 199.41 14.124C198.854 13.2939 198.575 12.3467 198.575 11.2822C198.575 10.0127 198.854 8.94336 199.41 8.07422C199.977 7.19531 200.753 6.52637 201.739 6.06738C202.726 5.6084 203.854 5.37891 205.123 5.37891C206.393 5.37891 207.521 5.6084 208.507 6.06738C209.493 6.52637 210.265 7.19531 210.821 8.07422C211.388 8.94336 211.671 10.0127 211.671 11.2822ZM208.141 11.3994C208.141 10.7646 208.014 10.208 207.76 9.72949C207.516 9.24121 207.169 8.86035 206.72 8.58691C206.271 8.31348 205.738 8.17676 205.123 8.17676C204.508 8.17676 203.976 8.30859 203.526 8.57227C203.077 8.83594 202.73 9.20703 202.486 9.68555C202.242 10.1641 202.12 10.7354 202.12 11.3994C202.12 12.0537 202.242 12.625 202.486 13.1133C202.73 13.5918 203.077 13.9678 203.526 14.2412C203.985 14.5146 204.522 14.6514 205.138 14.6514C205.753 14.6514 206.285 14.5146 206.734 14.2412C207.184 13.9678 207.53 13.5918 207.774 13.1133C208.019 12.625 208.141 12.0537 208.141 11.3994ZM218.966 17.083L216.153 16.3945L217.311 5.67188H228.81V8.66016H220.24L219.654 13.8896C219.986 13.6943 220.445 13.5039 221.031 13.3184C221.617 13.123 222.286 13.0254 223.038 13.0254C224.044 13.0254 224.942 13.1914 225.733 13.5234C226.534 13.8457 227.213 14.3193 227.77 14.9443C228.326 15.5596 228.751 16.3115 229.044 17.2002C229.337 18.0791 229.483 19.0703 229.483 20.1738C229.483 21.1602 229.337 22.083 229.044 22.9424C228.761 23.8018 228.331 24.5586 227.755 25.2129C227.179 25.8672 226.451 26.3799 225.572 26.751C224.703 27.1123 223.673 27.293 222.481 27.293C221.593 27.293 220.738 27.166 219.918 26.9121C219.107 26.6484 218.38 26.2627 217.735 25.7549C217.091 25.2373 216.573 24.6025 216.183 23.8506C215.792 23.0889 215.567 22.2148 215.509 21.2285H218.966C219.054 21.9219 219.244 22.5127 219.537 23.001C219.84 23.4795 220.24 23.8457 220.738 24.0996C221.236 24.3535 221.812 24.4805 222.467 24.4805C223.062 24.4805 223.575 24.3779 224.005 24.1729C224.435 23.958 224.791 23.6553 225.074 23.2646C225.367 22.8643 225.582 22.3955 225.719 21.8584C225.865 21.3213 225.938 20.7256 225.938 20.0713C225.938 19.4463 225.855 18.875 225.689 18.3574C225.533 17.8398 225.294 17.3906 224.972 17.0098C224.659 16.6289 224.264 16.3359 223.785 16.1309C223.307 15.916 222.755 15.8086 222.13 15.8086C221.29 15.8086 220.646 15.9307 220.196 16.1748C219.757 16.4189 219.347 16.7217 218.966 17.083ZM232.164 10.9014V9.77344C232.164 8.96289 232.34 8.22559 232.691 7.56152C233.043 6.89746 233.556 6.36523 234.229 5.96484C234.903 5.56445 235.714 5.36426 236.661 5.36426C237.638 5.36426 238.458 5.56445 239.122 5.96484C239.796 6.36523 240.309 6.89746 240.66 7.56152C241.012 8.22559 241.188 8.96289 241.188 9.77344V10.9014C241.188 11.6924 241.012 12.4199 240.66 13.084C240.318 13.748 239.811 14.2803 239.137 14.6807C238.473 15.0811 237.657 15.2812 236.69 15.2812C235.733 15.2812 234.913 15.0811 234.229 14.6807C233.556 14.2803 233.043 13.748 232.691 13.084C232.34 12.4199 232.164 11.6924 232.164 10.9014ZM234.61 9.77344V10.9014C234.61 11.292 234.684 11.6631 234.83 12.0146C234.986 12.3662 235.221 12.6494 235.533 12.8643C235.846 13.0791 236.231 13.1865 236.69 13.1865C237.159 13.1865 237.54 13.0791 237.833 12.8643C238.136 12.6494 238.36 12.3662 238.507 12.0146C238.653 11.6631 238.727 11.292 238.727 10.9014V9.77344C238.727 9.37305 238.648 8.99707 238.492 8.64551C238.346 8.28418 238.121 7.99609 237.818 7.78125C237.516 7.56641 237.13 7.45898 236.661 7.45898C236.212 7.45898 235.831 7.56641 235.519 7.78125C235.216 7.99609 234.986 8.28418 234.83 8.64551C234.684 8.99707 234.61 9.37305 234.61 9.77344ZM242.447 22.9131V21.7705C242.447 20.9697 242.623 20.2373 242.975 19.5732C243.336 18.9092 243.854 18.377 244.527 17.9766C245.201 17.5762 246.012 17.376 246.959 17.376C247.936 17.376 248.756 17.5762 249.42 17.9766C250.094 18.377 250.602 18.9092 250.943 19.5732C251.295 20.2373 251.471 20.9697 251.471 21.7705V22.9131C251.471 23.7139 251.295 24.4463 250.943 25.1104C250.602 25.7744 250.099 26.3066 249.435 26.707C248.771 27.1074 247.96 27.3076 247.003 27.3076C246.036 27.3076 245.211 27.1074 244.527 26.707C243.854 26.3066 243.336 25.7744 242.975 25.1104C242.623 24.4463 242.447 23.7139 242.447 22.9131ZM244.908 21.7705V22.9131C244.908 23.3037 244.986 23.6748 245.143 24.0264C245.309 24.3779 245.548 24.666 245.86 24.8906C246.173 25.1055 246.549 25.2129 246.988 25.2129C247.486 25.2129 247.887 25.1055 248.189 24.8906C248.492 24.666 248.707 24.3828 248.834 24.041C248.971 23.6895 249.039 23.3135 249.039 22.9131V21.7705C249.039 21.3701 248.961 20.9941 248.805 20.6426C248.658 20.291 248.429 20.0078 248.116 19.793C247.813 19.5781 247.428 19.4707 246.959 19.4707C246.5 19.4707 246.119 19.5781 245.816 19.793C245.514 20.0078 245.284 20.291 245.128 20.6426C244.981 20.9941 244.908 21.3701 244.908 21.7705ZM247.838 8.71875L237.423 25.3887L235.621 24.3486L246.036 7.67871L247.838 8.71875ZM268.551 24.4805C269.127 24.4805 269.645 24.3682 270.104 24.1436C270.572 23.9092 270.948 23.5869 271.231 23.1768C271.524 22.7666 271.686 22.293 271.715 21.7559H275.04C275.021 22.7812 274.718 23.7139 274.132 24.5537C273.546 25.3936 272.77 26.0625 271.803 26.5605C270.836 27.0488 269.767 27.293 268.595 27.293C267.384 27.293 266.329 27.0879 265.431 26.6777C264.532 26.2578 263.785 25.6816 263.189 24.9492C262.594 24.2168 262.145 23.3721 261.842 22.415C261.549 21.458 261.402 20.4326 261.402 19.3389V18.8262C261.402 17.7324 261.549 16.707 261.842 15.75C262.145 14.7832 262.594 13.9336 263.189 13.2012C263.785 12.4688 264.532 11.8975 265.431 11.4873C266.329 11.0674 267.379 10.8574 268.58 10.8574C269.85 10.8574 270.963 11.1113 271.92 11.6191C272.877 12.1172 273.629 12.8154 274.176 13.7139C274.732 14.6025 275.021 15.6377 275.04 16.8193H271.715C271.686 16.2334 271.539 15.7061 271.275 15.2373C271.021 14.7588 270.66 14.3779 270.191 14.0947C269.732 13.8115 269.181 13.6699 268.536 13.6699C267.823 13.6699 267.232 13.8164 266.764 14.1094C266.295 14.3926 265.929 14.7832 265.665 15.2812C265.401 15.7695 265.211 16.3213 265.094 16.9365C264.986 17.542 264.933 18.1719 264.933 18.8262V19.3389C264.933 19.9932 264.986 20.6279 265.094 21.2432C265.201 21.8584 265.387 22.4102 265.65 22.8984C265.924 23.377 266.295 23.7627 266.764 24.0557C267.232 24.3389 267.828 24.4805 268.551 24.4805ZM277.076 19.251V18.9141C277.076 17.7715 277.242 16.7119 277.574 15.7354C277.906 14.749 278.385 13.8945 279.01 13.1719C279.645 12.4395 280.416 11.873 281.324 11.4727C282.242 11.0625 283.277 10.8574 284.43 10.8574C285.592 10.8574 286.627 11.0625 287.535 11.4727C288.453 11.873 289.229 12.4395 289.864 13.1719C290.499 13.8945 290.982 14.749 291.314 15.7354C291.646 16.7119 291.812 17.7715 291.812 18.9141V19.251C291.812 20.3936 291.646 21.4531 291.314 22.4297C290.982 23.4062 290.499 24.2607 289.864 24.9932C289.229 25.7158 288.458 26.2822 287.55 26.6924C286.642 27.0928 285.611 27.293 284.459 27.293C283.297 27.293 282.257 27.0928 281.339 26.6924C280.431 26.2822 279.659 25.7158 279.024 24.9932C278.39 24.2607 277.906 23.4062 277.574 22.4297C277.242 21.4531 277.076 20.3936 277.076 19.251ZM280.606 18.9141V19.251C280.606 19.9639 280.68 20.6377 280.826 21.2725C280.973 21.9072 281.202 22.4639 281.515 22.9424C281.827 23.4209 282.228 23.7969 282.716 24.0703C283.204 24.3438 283.785 24.4805 284.459 24.4805C285.113 24.4805 285.68 24.3438 286.158 24.0703C286.646 23.7969 287.047 23.4209 287.359 22.9424C287.672 22.4639 287.901 21.9072 288.048 21.2725C288.204 20.6377 288.282 19.9639 288.282 19.251V18.9141C288.282 18.2109 288.204 17.5469 288.048 16.9219C287.901 16.2871 287.667 15.7256 287.345 15.2373C287.032 14.749 286.632 14.3682 286.144 14.0947C285.665 13.8115 285.094 13.6699 284.43 13.6699C283.766 13.6699 283.189 13.8115 282.701 14.0947C282.223 14.3682 281.827 14.749 281.515 15.2373C281.202 15.7256 280.973 16.2871 280.826 16.9219C280.68 17.5469 280.606 18.2109 280.606 18.9141ZM298.302 14.373V27H294.771V11.1504H298.097L298.302 14.373ZM297.73 18.4893L296.529 18.4746C296.529 17.3809 296.666 16.3701 296.939 15.4424C297.213 14.5146 297.613 13.709 298.141 13.0254C298.668 12.332 299.322 11.7998 300.104 11.4287C300.895 11.0479 301.808 10.8574 302.843 10.8574C303.565 10.8574 304.225 10.9648 304.82 11.1797C305.426 11.3848 305.948 11.7119 306.388 12.1611C306.837 12.6104 307.179 13.1865 307.413 13.8896C307.657 14.5928 307.779 15.4424 307.779 16.4385V27H304.249V16.7461C304.249 15.9746 304.132 15.3691 303.897 14.9297C303.673 14.4902 303.346 14.1777 302.916 13.9922C302.496 13.7969 301.993 13.6992 301.407 13.6992C300.743 13.6992 300.177 13.8262 299.708 14.0801C299.249 14.334 298.873 14.6807 298.58 15.1201C298.287 15.5596 298.072 16.0674 297.936 16.6436C297.799 17.2197 297.73 17.835 297.73 18.4893ZM307.56 17.5518L305.904 17.918C305.904 16.9609 306.036 16.0576 306.3 15.208C306.573 14.3486 306.969 13.5967 307.486 12.9521C308.014 12.2979 308.663 11.7852 309.435 11.4141C310.206 11.043 311.09 10.8574 312.086 10.8574C312.896 10.8574 313.619 10.9697 314.254 11.1943C314.898 11.4092 315.445 11.751 315.895 12.2197C316.344 12.6885 316.686 13.2988 316.92 14.0508C317.154 14.793 317.271 15.6914 317.271 16.7461V27H313.727V16.7314C313.727 15.9307 313.609 15.3105 313.375 14.8711C313.15 14.4316 312.828 14.1289 312.408 13.9629C311.988 13.7871 311.485 13.6992 310.899 13.6992C310.353 13.6992 309.869 13.8018 309.449 14.0068C309.039 14.2021 308.692 14.4805 308.409 14.8418C308.126 15.1934 307.911 15.5986 307.765 16.0576C307.628 16.5166 307.56 17.0146 307.56 17.5518ZM324.449 14.1973V33.0938H320.919V11.1504H324.171L324.449 14.1973ZM334.776 18.9287V19.2363C334.776 20.3887 334.64 21.458 334.366 22.4443C334.103 23.4209 333.707 24.2754 333.18 25.0078C332.662 25.7305 332.022 26.292 331.261 26.6924C330.499 27.0928 329.62 27.293 328.624 27.293C327.638 27.293 326.773 27.1123 326.031 26.751C325.299 26.3799 324.679 25.8574 324.171 25.1836C323.663 24.5098 323.253 23.7188 322.94 22.8105C322.638 21.8926 322.423 20.8867 322.296 19.793V18.6064C322.423 17.4443 322.638 16.3896 322.94 15.4424C323.253 14.4951 323.663 13.6797 324.171 12.9961C324.679 12.3125 325.299 11.7852 326.031 11.4141C326.764 11.043 327.618 10.8574 328.595 10.8574C329.591 10.8574 330.475 11.0527 331.246 11.4434C332.018 11.8242 332.667 12.3711 333.194 13.084C333.722 13.7871 334.117 14.6367 334.381 15.6328C334.645 16.6191 334.776 17.7178 334.776 18.9287ZM331.246 19.2363V18.9287C331.246 18.1963 331.178 17.5176 331.041 16.8926C330.904 16.2578 330.689 15.7012 330.396 15.2227C330.104 14.7441 329.728 14.373 329.269 14.1094C328.819 13.8359 328.277 13.6992 327.643 13.6992C327.018 13.6992 326.48 13.8066 326.031 14.0215C325.582 14.2266 325.206 14.5146 324.903 14.8857C324.601 15.2568 324.366 15.6914 324.2 16.1895C324.034 16.6777 323.917 17.21 323.849 17.7861V20.6279C323.966 21.3311 324.166 21.9756 324.449 22.5615C324.732 23.1475 325.133 23.6162 325.65 23.9678C326.178 24.3096 326.852 24.4805 327.672 24.4805C328.307 24.4805 328.849 24.3438 329.298 24.0703C329.747 23.7969 330.113 23.4209 330.396 22.9424C330.689 22.4541 330.904 21.8926 331.041 21.2578C331.178 20.623 331.246 19.9492 331.246 19.2363ZM341.559 4.5V27H338.014V4.5H341.559ZM352.413 27.293C351.241 27.293 350.182 27.1025 349.234 26.7217C348.297 26.3311 347.496 25.7891 346.832 25.0957C346.178 24.4023 345.675 23.5869 345.323 22.6494C344.972 21.7119 344.796 20.7012 344.796 19.6172V19.0312C344.796 17.791 344.977 16.668 345.338 15.6621C345.699 14.6562 346.202 13.7969 346.847 13.084C347.491 12.3613 348.253 11.8096 349.132 11.4287C350.011 11.0479 350.963 10.8574 351.988 10.8574C353.121 10.8574 354.112 11.0479 354.962 11.4287C355.812 11.8096 356.515 12.3467 357.071 13.04C357.638 13.7236 358.058 14.5391 358.331 15.4863C358.614 16.4336 358.756 17.4785 358.756 18.6211V20.1299H346.51V17.5957H355.27V17.3174C355.25 16.6826 355.123 16.0869 354.889 15.5303C354.664 14.9736 354.317 14.5244 353.849 14.1826C353.38 13.8408 352.755 13.6699 351.974 13.6699C351.388 13.6699 350.865 13.7969 350.406 14.0508C349.957 14.2949 349.581 14.6514 349.278 15.1201C348.976 15.5889 348.741 16.1553 348.575 16.8193C348.419 17.4736 348.341 18.2109 348.341 19.0312V19.6172C348.341 20.3105 348.434 20.9551 348.619 21.5508C348.814 22.1367 349.098 22.6494 349.469 23.0889C349.84 23.5283 350.289 23.875 350.816 24.1289C351.344 24.373 351.944 24.4951 352.618 24.4951C353.468 24.4951 354.225 24.3242 354.889 23.9824C355.553 23.6406 356.129 23.1572 356.617 22.5322L358.478 24.334C358.136 24.832 357.691 25.3105 357.145 25.7695C356.598 26.2188 355.929 26.585 355.138 26.8682C354.356 27.1514 353.448 27.293 352.413 27.293ZM368.775 11.1504V13.7285H359.84V11.1504H368.775ZM362.418 7.26855H365.948V22.6201C365.948 23.1084 366.017 23.4844 366.153 23.748C366.3 24.002 366.5 24.1729 366.754 24.2607C367.008 24.3486 367.306 24.3926 367.647 24.3926C367.892 24.3926 368.126 24.3779 368.351 24.3486C368.575 24.3193 368.756 24.29 368.893 24.2607L368.907 26.9561C368.614 27.0439 368.272 27.1221 367.882 27.1904C367.501 27.2588 367.062 27.293 366.563 27.293C365.753 27.293 365.035 27.1514 364.41 26.8682C363.785 26.5752 363.297 26.1016 362.945 25.4473C362.594 24.793 362.418 23.9238 362.418 22.8398V7.26855ZM378.487 27.293C377.315 27.293 376.256 27.1025 375.309 26.7217C374.371 26.3311 373.57 25.7891 372.906 25.0957C372.252 24.4023 371.749 23.5869 371.397 22.6494C371.046 21.7119 370.87 20.7012 370.87 19.6172V19.0312C370.87 17.791 371.051 16.668 371.412 15.6621C371.773 14.6562 372.276 13.7969 372.921 13.084C373.565 12.3613 374.327 11.8096 375.206 11.4287C376.085 11.0479 377.037 10.8574 378.062 10.8574C379.195 10.8574 380.187 11.0479 381.036 11.4287C381.886 11.8096 382.589 12.3467 383.146 13.04C383.712 13.7236 384.132 14.5391 384.405 15.4863C384.688 16.4336 384.83 17.4785 384.83 18.6211V20.1299H372.584V17.5957H381.344V17.3174C381.324 16.6826 381.197 16.0869 380.963 15.5303C380.738 14.9736 380.392 14.5244 379.923 14.1826C379.454 13.8408 378.829 13.6699 378.048 13.6699C377.462 13.6699 376.939 13.7969 376.48 14.0508C376.031 14.2949 375.655 14.6514 375.353 15.1201C375.05 15.5889 374.815 16.1553 374.649 16.8193C374.493 17.4736 374.415 18.2109 374.415 19.0312V19.6172C374.415 20.3105 374.508 20.9551 374.693 21.5508C374.889 22.1367 375.172 22.6494 375.543 23.0889C375.914 23.5283 376.363 23.875 376.891 24.1289C377.418 24.373 378.019 24.4951 378.692 24.4951C379.542 24.4951 380.299 24.3242 380.963 23.9824C381.627 23.6406 382.203 23.1572 382.691 22.5322L384.552 24.334C384.21 24.832 383.766 25.3105 383.219 25.7695C382.672 26.2188 382.003 26.585 381.212 26.8682C380.431 27.1514 379.522 27.293 378.487 27.293Z" fill="black"/>
</g>
<defs>
<filter id="filter0_f_76_197" x="0.117188" y="0.192383" width="388.713" height="36.9014" filterUnits="userSpaceOnUse" color-interpolation-filters="sRGB">
<feFlood flood-opacity="0" result="BackgroundImageFix"/>
<feBlend mode="normal" in="SourceGraphic" in2="BackgroundImageFix" result="shape"/>
<feGaussianBlur stdDeviation="2" result="effect1_foregroundBlur_76_197"/>
</filter>
</defs>
</svg>
